<?xml version="1.0" encoding="utf-8"?>
<!-- Generator: Adobe Illustrator 19.1.0, SVG Export Plug-In . SVG Version: 6.00 Build 0)  -->
<svg version="1.2" baseProfile="tiny" id="Layer_2" xmlns="http://www.w3.org/2000/svg" xmlns:xlink="http://www.w3.org/1999/xlink"
	 x="0px" y="0px" width="900px" height="600px" viewBox="144 97 900 600" xml:space="preserve">
<svg style="overflow: visible;" viewBox="-144 -97 900 600" xmlns="http://www.w3.org/2000/svg"><g fill="#e6e6e6"><path d="m206.8 163.6c0-5.1 4.1-9.2 9.3-9.2s9.2 4.2 9.2 9.2-4.1 9.2-9.3 9.2-9.2-4.1-9.2-9.2zm17.3-.1c0-4.5-3.5-8.2-8.2-8.2s-8.2 3.7-8.2 8.3c0 4.5 3.5 8.2 8.2 8.2s8.2-3.7 8.2-8.3zm-13 0c0-2.8 2.1-5.1 5.1-5.1 1.9 0 2.9.6 3.9 1.5l-1.4 1.7c-.8-.7-1.5-1.1-2.5-1.1-1.7 0-2.8 1.4-2.8 3.1s1.1 3 2.8 3c1.1 0 1.7-.5 2.5-1.1l1.4 1.4c-1.1 1.1-2.1 1.7-4 1.7-2.9 0-5-2.3-5-5.1z"/><path d="m226.6 154.7h3.4l4.2 13.2 4.4-13.3h2.6l4.4 13.3 4.2-13.2h3.3l-6.2 18h-2.7l-4.4-12.8-4.4 12.8h-2.7z"/><path d="m252.8 165.8c0-3.9 3.1-7 7.2-7 4.2 0 7.2 3.2 7.2 7s-3.1 7-7.3 7c-4 0-7.1-3.1-7.1-7zm11.3 0c0-2.3-1.7-4.3-4.2-4.3s-4.1 2-4.1 4.3 1.7 4.3 4.1 4.3c2.7.1 4.2-1.9 4.2-4.3z"/><path d="m269.5 159.1h3.1v3c.8-2 2.4-3.4 4.8-3.3v3.2h-.2c-2.7 0-4.6 1.7-4.6 5.4v5.1h-3.1z"/><path d="m279.1 153.9h3.1v11.1l5.6-6h3.8l-5.4 5.5 5.5 8h-3.5l-4.1-5.8-1.9 2v3.9h-3.1z"/><path d="m291.7 165.8c0-3.9 3.1-7 7.2-7 4.2 0 7.2 3.2 7.2 7s-3.1 7-7.3 7c-4 0-7.1-3.1-7.1-7zm11.3 0c0-2.3-1.7-4.3-4.2-4.3s-4.1 2-4.1 4.3 1.7 4.3 4.1 4.3c2.6.1 4.2-1.9 4.2-4.3z"/><path d="m308.2 167.6v-8.6h3.1v7.6c0 2.1 1.1 3.3 2.9 3.3s3-1.3 3-3.3v-7.6h3.1v13.4h-3.1v-2.1c-.8 1.3-2.1 2.3-4.2 2.3-3.1.2-4.8-1.8-4.8-5z"/><path d="m323.9 168.8v-7.1h-1.7v-2.6h1.7v-3.7h3.1v3.7h3.6v2.6h-3.6v6.6c0 1.2.6 1.7 1.7 1.7.7 0 1.3-.2 1.9-.5v2.5c-.8.5-1.7.7-2.8.7-2.3 0-3.9-.9-3.9-3.9z"/><path d="m333.2 154.7h3.2v15h9.4v2.9h-12.5v-17.9z"/><path d="m356 172.5v-1.7c-.9 1.1-2.3 2-4.4 2-2.6 0-4.8-1.4-4.8-4.2 0-3 2.3-4.4 5.4-4.4 1.7 0 2.6.2 3.7.5v-.2c0-1.9-1.2-2.9-3.3-2.9-1.5 0-2.6.3-3.9.8l-.8-2.5c1.5-.7 2.9-1.1 5.1-1.1 4 0 5.9 2.1 5.9 5.7v8zm.1-5.6c-.8-.3-1.9-.5-3.1-.5-2 0-3.1.8-3.1 2.1s1.1 2 2.6 2c2 0 3.5-1.1 3.5-2.9z"/><path d="m364.9 170.5v2.1h-3.1v-18.7h3.1v7.4c1-1.4 2.4-2.5 4.5-2.5 3.2 0 6.3 2.5 6.3 7s-3.1 7-6.3 7c-2.1 0-3.5-1.1-4.5-2.3zm7.7-4.7c0-2.6-1.7-4.3-3.9-4.3s-3.9 1.7-3.9 4.4c0 2.6 1.8 4.3 3.9 4.3s3.9-1.7 3.9-4.4z"/><path d="m376.9 170.8 1.4-2.1c1.4 1.1 3 1.7 4.4 1.7s2.1-.5 2.1-1.5-1.3-1.4-2.8-1.8c-.1 0-.2-.1-.2-.1-2-.6-4.2-1.4-4.2-4s2.1-4.1 4.8-4.1c1.7 0 3.5.6 5 1.5l-1.2 2.2c-1.3-.8-2.6-1.3-3.8-1.3s-1.9.5-1.9 1.4 1.3 1.4 2.8 1.8c.1 0 .2.1.2.1 2 .6 4.2 1.5 4.2 4 0 2.9-2.2 4.2-5 4.2-1.9 0-4-.7-5.8-2z"/><path d="m505.6 163.6c0-5.1 4.1-9.2 9.3-9.2s9.2 4.2 9.2 9.2-4.1 9.2-9.3 9.2-9.2-4.1-9.2-9.2zm17.4-.1c0-4.5-3.5-8.2-8.2-8.2s-8.2 3.7-8.2 8.3c0 4.5 3.5 8.2 8.2 8.2s8.2-3.7 8.2-8.3zm-13.1 0c0-2.8 2.1-5.1 5.1-5.1 1.9 0 2.9.6 3.9 1.5l-1.4 1.7c-.8-.7-1.5-1.1-2.5-1.1-1.7 0-2.8 1.4-2.8 3.1s1.1 3 2.8 3c1.1 0 1.7-.5 2.5-1.1l1.4 1.4c-1.1 1.1-2.1 1.7-4 1.7-2.9 0-5-2.3-5-5.1z"/><path d="m525.4 154.7h3.4l4.2 13.2 4.4-13.3h2.6l4.4 13.3 4.2-13.2h3.3l-6.2 18h-2.7l-4.4-12.8-4.4 12.8h-2.7z"/><path d="m551.7 165.8c0-3.9 3.1-7 7.2-7 4.2 0 7.2 3.2 7.2 7s-3.1 7-7.3 7c-4.1 0-7.1-3.1-7.1-7zm11.2 0c0-2.3-1.7-4.3-4.2-4.3s-4.1 2-4.1 4.3 1.7 4.3 4.1 4.3c2.7.1 4.2-1.9 4.2-4.3z"/><path d="m568.3 159.1h3.1v3c.8-2 2.4-3.4 4.8-3.3v3.2h-.2c-2.7 0-4.6 1.7-4.6 5.4v5.1h-3.1z"/><path d="m577.9 153.9h3.1v11.1l5.6-6h3.8l-5.4 5.5 5.5 8h-3.5l-4.1-5.8-1.9 2v3.9h-3.1z"/><path d="m590.6 165.8c0-3.9 3.1-7 7.2-7 4.2 0 7.2 3.2 7.2 7s-3.1 7-7.3 7c-4.1 0-7.1-3.1-7.1-7zm11.2 0c0-2.3-1.7-4.3-4.2-4.3s-4.1 2-4.1 4.3 1.7 4.3 4.1 4.3c2.6.1 4.2-1.9 4.2-4.3z"/><path d="m607 167.6v-8.6h3.1v7.6c0 2.1 1.1 3.3 2.9 3.3s3-1.3 3-3.3v-7.6h3.1v13.4h-3.1v-2.1c-.8 1.3-2.1 2.3-4.2 2.3-3 .2-4.8-1.8-4.8-5z"/><path d="m622.7 168.8v-7.1h-1.7v-2.6h1.7v-3.7h3.1v3.7h3.6v2.6h-3.6v6.6c0 1.2.6 1.7 1.7 1.7.7 0 1.3-.2 1.9-.5v2.5c-.8.5-1.7.7-2.8.7-2.3 0-3.9-.9-3.9-3.9z"/><path d="m632 154.7h3.2v15h9.4v2.9h-12.6z"/><path d="m654.8 172.5v-1.7c-.9 1.1-2.3 2-4.4 2-2.6 0-4.8-1.4-4.8-4.2 0-3 2.3-4.4 5.4-4.4 1.7 0 2.6.2 3.7.5v-.2c0-1.9-1.2-2.9-3.3-2.9-1.5 0-2.6.3-3.9.8l-.8-2.5c1.5-.7 2.9-1.1 5.1-1.1 4 0 5.9 2.1 5.9 5.7v8zm.1-5.6c-.8-.3-1.9-.5-3.1-.5-2 0-3.1.8-3.1 2.1s1.1 2 2.6 2c2 0 3.5-1.1 3.5-2.9z"/><path d="m663.7 170.5v2.1h-3.1v-18.7h3.1v7.4c1-1.4 2.4-2.5 4.5-2.5 3.2 0 6.3 2.5 6.3 7s-3.1 7-6.3 7c-2.1 0-3.5-1.1-4.5-2.3zm7.8-4.7c0-2.6-1.7-4.3-3.9-4.3-2.1 0-3.9 1.7-3.9 4.4 0 2.6 1.8 4.3 3.9 4.3s3.9-1.7 3.9-4.4z"/><path d="m675.8 170.8 1.4-2.1c1.4 1.1 3 1.7 4.4 1.7s2.1-.5 2.1-1.5-1.3-1.4-2.8-1.8c-.1 0-.2-.1-.2-.1-2-.6-4.2-1.4-4.2-4s2.1-4.1 4.8-4.1c1.7 0 3.5.6 5 1.5l-1.2 2.2c-1.3-.8-2.6-1.3-3.8-1.3s-1.9.5-1.9 1.4 1.3 1.4 2.8 1.8c.1 0 .2.1.2.1 2 .6 4.2 1.5 4.2 4 0 2.9-2.2 4.2-5 4.2-2 0-4.1-.7-5.8-2z"/><path d="m61 298.6c0-5.1 4.1-9.2 9.3-9.2s9.2 4.2 9.2 9.2-4.1 9.2-9.3 9.2c-5.1 0-9.2-4.2-9.2-9.2zm17.4-.1c0-4.5-3.5-8.2-8.2-8.2s-8.2 3.7-8.2 8.3c0 4.5 3.5 8.2 8.2 8.2s8.2-3.7 8.2-8.3zm-13.1-.1c0-2.8 2.1-5.1 5.1-5.1 1.9 0 2.9.6 3.9 1.5l-1.4 1.7c-.8-.7-1.5-1.1-2.5-1.1-1.7 0-2.8 1.4-2.8 3.1s1.1 3 2.8 3c1.1 0 1.7-.5 2.5-1.1l1.4 1.4c-1.1 1.1-2.1 1.7-4 1.7-2.8.1-5-2.2-5-5.1z"/><path d="m80.9 289.7h3.4l4.2 13.2 4.4-13.3h2.6l4.4 13.3 4.2-13.2h3.3l-6.2 18h-2.7l-4.4-12.8-4.4 12.8h-2.7z"/><path d="m107.1 300.8c0-3.9 3.1-7 7.2-7s7.2 3.2 7.2 7-3.1 7-7.3 7c-4 0-7.1-3.1-7.1-7zm11.3 0c0-2.3-1.7-4.3-4.2-4.3s-4.1 2-4.1 4.3 1.7 4.3 4.1 4.3c2.6.1 4.2-1.9 4.2-4.3z"/><path d="m123.7 294h3.1v3c.8-2 2.4-3.4 4.8-3.3v3.2h-.2c-2.7 0-4.6 1.7-4.6 5.4v5.1h-3.1z"/><path d="m133.4 288.9h3.1v11.1l5.6-6h3.8l-5.4 5.5 5.5 8h-3.5l-4.1-5.8-1.9 1.9v3.9h-3.1z"/><path d="m146 300.8c0-3.9 3.1-7 7.2-7s7.2 3.2 7.2 7-3.1 7-7.3 7c-4.1 0-7.1-3.1-7.1-7zm11.2 0c0-2.3-1.7-4.3-4.2-4.3s-4.1 2-4.1 4.3 1.7 4.3 4.1 4.3c2.6.1 4.2-1.9 4.2-4.3z"/><path d="m162.4 302.6v-8.6h3.1v7.6c0 2.1 1.1 3.3 2.9 3.3s3-1.3 3-3.3v-7.6h3.1v13.4h-3.1v-2.1c-.8 1.3-2.1 2.3-4.2 2.3-3 .2-4.8-1.8-4.8-5z"/><path d="m178.1 303.8v-7.1h-1.7v-2.7h1.7v-3.7h3.1v3.7h3.6v2.6h-3.6v6.6c0 1.2.6 1.7 1.7 1.7.7 0 1.3-.2 1.9-.5v2.5c-.8.5-1.7.7-2.8.7-2.3.1-3.9-.9-3.9-3.8z"/><path d="m187.4 289.7h3.2v15h9.4v2.9h-12.5v-17.9z"/><path d="m210.2 307.5v-1.7c-.9 1.1-2.3 2-4.4 2-2.6 0-4.8-1.4-4.8-4.2 0-3 2.3-4.4 5.4-4.4 1.7 0 2.6.2 3.7.5v-.2c0-1.9-1.2-2.9-3.3-2.9-1.5 0-2.6.3-3.9.8l-.8-2.5c1.5-.7 2.9-1.1 5.1-1.1 4 0 5.9 2.1 5.9 5.7v8zm.1-5.6c-.8-.3-1.9-.5-3.1-.5-2 0-3.1.8-3.1 2.1s1.1 2 2.6 2c2 0 3.5-1.1 3.5-2.9z"/><path d="m219.2 305.5v2.1h-3.1v-18.7h3.1v7.4c1-1.4 2.4-2.5 4.5-2.5 3.2 0 6.3 2.5 6.3 7s-3.1 7-6.3 7c-2.2 0-3.6-1.1-4.5-2.3zm7.7-4.7c0-2.6-1.7-4.3-3.9-4.3s-3.9 1.7-3.9 4.4c0 2.6 1.8 4.3 3.9 4.3s3.9-1.7 3.9-4.4z"/><path d="m231.2 305.8 1.4-2.1c1.4 1.1 3 1.7 4.4 1.7s2.1-.5 2.1-1.5-1.3-1.4-2.8-1.8c-.1 0-.2-.1-.2-.1-2-.6-4.2-1.4-4.2-4s2.1-4.1 4.8-4.1c1.7 0 3.5.6 5 1.5l-1.2 2.2c-1.3-.8-2.6-1.3-3.8-1.3s-1.9.5-1.9 1.4 1.3 1.4 2.8 1.8c.1 0 .2.1.2.1 2 .6 4.2 1.5 4.2 4 0 2.9-2.2 4.2-5 4.2-2 0-4.1-.7-5.8-2z"/><path d="m360.6 298.6c0-5.1 4.1-9.2 9.3-9.2s9.2 4.2 9.2 9.2-4.1 9.2-9.3 9.2-9.2-4.2-9.2-9.2zm17.4-.1c0-4.5-3.5-8.2-8.2-8.2s-8.2 3.7-8.2 8.3c0 4.5 3.5 8.2 8.2 8.2s8.2-3.7 8.2-8.3zm-13.1-.1c0-2.8 2.1-5.1 5.1-5.1 1.9 0 2.9.6 3.9 1.5l-1.4 1.7c-.8-.7-1.5-1.1-2.5-1.1-1.7 0-2.8 1.4-2.8 3.1s1.1 3 2.8 3c1.1 0 1.7-.5 2.5-1.1l1.4 1.4c-1.1 1.1-2.1 1.7-4 1.7-2.8.1-5-2.2-5-5.1z"/><path d="m380.5 289.7h3.4l4.2 13.2 4.4-13.3h2.6l4.4 13.3 4.2-13.2h3.3l-6.2 18h-2.7l-4.4-12.8-4.4 12.8h-2.7z"/><path d="m406.7 300.8c0-3.9 3.1-7 7.2-7 4.2 0 7.2 3.2 7.2 7s-3.1 7-7.3 7c-4.1 0-7.1-3.1-7.1-7zm11.3 0c0-2.3-1.7-4.3-4.2-4.3s-4.1 2-4.1 4.3 1.7 4.3 4.1 4.3c2.7.1 4.2-1.9 4.2-4.3z"/><path d="m423.3 294h3.1v3c.8-2 2.4-3.4 4.8-3.3v3.2h-.2c-2.7 0-4.6 1.7-4.6 5.4v5.1h-3.1z"/><path d="m433 288.9h3.1v11.1l5.6-6h3.8l-5.4 5.5 5.5 8h-3.5l-4.1-5.8-1.9 2v3.9h-3.1z"/><path d="m445.6 300.8c0-3.9 3.1-7 7.2-7 4.2 0 7.2 3.2 7.2 7s-3.1 7-7.3 7c-4.1 0-7.1-3.1-7.1-7zm11.3 0c0-2.3-1.7-4.3-4.2-4.3s-4.1 2-4.1 4.3 1.7 4.3 4.1 4.3c2.6.1 4.2-1.9 4.2-4.3z"/><path d="m462.1 302.6v-8.6h3.1v7.6c0 2.1 1.1 3.3 2.9 3.3s3-1.3 3-3.3v-7.6h3.1v13.4h-3.1v-2.1c-.8 1.3-2.1 2.3-4.2 2.3-3.1.2-4.8-1.8-4.8-5z"/><path d="m477.8 303.8v-7.1h-1.8v-2.7h1.7v-3.7h3.1v3.7h3.6v2.6h-3.6v6.6c0 1.2.6 1.7 1.7 1.7.7 0 1.3-.2 1.9-.5v2.5c-.8.5-1.7.7-2.8.7-2.2.1-3.8-.9-3.8-3.8z"/><path d="m487.1 289.7h3.2v15h9.4v2.9h-12.5v-17.9z"/><path d="m509.9 307.5v-1.7c-.9 1.1-2.3 2-4.4 2-2.6 0-4.8-1.4-4.8-4.2 0-3 2.3-4.4 5.4-4.4 1.7 0 2.6.2 3.7.5v-.2c0-1.9-1.2-2.9-3.3-2.9-1.5 0-2.6.3-3.9.8l-.8-2.5c1.5-.7 2.9-1.1 5.1-1.1 4 0 5.9 2.1 5.9 5.7v8zm.1-5.6c-.8-.3-1.9-.5-3.1-.5-2 0-3.1.8-3.1 2.1s1.1 2 2.6 2c2 0 3.5-1.1 3.5-2.9z"/><path d="m518.8 305.5v2.1h-3.1v-18.7h3.1v7.4c1-1.4 2.4-2.5 4.5-2.5 3.2 0 6.3 2.5 6.3 7s-3.1 7-6.3 7c-2.2 0-3.5-1.1-4.5-2.3zm7.7-4.7c0-2.6-1.7-4.3-3.9-4.3s-3.9 1.7-3.9 4.4c0 2.6 1.8 4.3 3.9 4.3s3.9-1.7 3.9-4.4z"/><path d="m530.8 305.8 1.4-2.1c1.4 1.1 3 1.7 4.4 1.7s2.1-.5 2.1-1.5-1.3-1.4-2.8-1.8c-.1 0-.2-.1-.2-.1-2-.6-4.2-1.4-4.2-4s2.1-4.1 4.8-4.1c1.7 0 3.5.6 5 1.5l-1.2 2.2c-1.3-.8-2.6-1.3-3.8-1.3s-1.9.5-1.9 1.4 1.3 1.4 2.8 1.8c.1 0 .2.1.2.1 2 .6 4.2 1.5 4.2 4 0 2.9-2.2 4.2-5 4.2-1.9 0-4.1-.7-5.8-2z"/><path d="m659.5 298.6c0-5.1 4.1-9.2 9.3-9.2s9.2 4.2 9.2 9.2-4.1 9.2-9.3 9.2-9.2-4.2-9.2-9.2zm17.3-.1c0-4.5-3.5-8.2-8.2-8.2s-8.2 3.7-8.2 8.3c0 4.5 3.5 8.2 8.2 8.2 4.8 0 8.2-3.7 8.2-8.3zm-13-.1c0-2.8 2.1-5.1 5.1-5.1 1.9 0 2.9.6 3.9 1.5l-1.4 1.7c-.8-.7-1.5-1.1-2.5-1.1-1.7 0-2.8 1.4-2.8 3.1s1.1 3 2.8 3c1.1 0 1.7-.5 2.5-1.1l1.4 1.4c-1.1 1.1-2.1 1.7-4 1.7-2.9.1-5-2.2-5-5.1z"/><path d="m679.3 289.7h3.4l4.2 13.2 4.4-13.3h2.6l4.4 13.3 4.2-13.2h3.3l-6.2 18h-2.6l-4.4-12.8-4.4 12.8h-2.7z"/><path d="m705.5 300.8c0-3.9 3.1-7 7.2-7 4.2 0 7.2 3.2 7.2 7s-3.1 7-7.3 7c-4 0-7.1-3.1-7.1-7zm11.3 0c0-2.3-1.7-4.3-4.2-4.3s-4.1 2-4.1 4.3 1.7 4.3 4.1 4.3c2.7.1 4.2-1.9 4.2-4.3z"/><path d="m722.1 294h3.1v3c.8-2 2.4-3.4 4.8-3.3v3.2h-.2c-2.7 0-4.6 1.7-4.6 5.4v5.1h-3.1z"/><path d="m731.8 288.9h3.1v11.1l5.6-6h3.8l-5.4 5.5 5.5 8h-3.5l-4.1-5.8-1.9 2v3.9h-3.1z"/><path d="m744.4 300.8c0-3.9 3.1-7 7.2-7 4.2 0 7.2 3.2 7.2 7s-3.1 7-7.3 7c-4.1 0-7.1-3.1-7.1-7zm11.3 0c0-2.3-1.7-4.3-4.2-4.3s-4.1 2-4.1 4.3 1.7 4.3 4.1 4.3c2.6.1 4.2-1.9 4.2-4.3z"/><path d="m760.9 302.6v-8.6h3.1v7.6c0 2.1 1.1 3.3 2.9 3.3s3-1.3 3-3.3v-7.6h3.1v13.4h-3.1v-2.1c-.8 1.3-2.1 2.3-4.2 2.3-3.1.2-4.8-1.8-4.8-5z"/><path d="m776.6 303.8v-7.1h-1.7v-2.7h1.7v-3.7h3.1v3.7h3.6v2.6h-3.6v6.6c0 1.2.6 1.7 1.7 1.7.7 0 1.3-.2 1.9-.5v2.5c-.8.5-1.7.7-2.8.7-2.3.1-3.9-.9-3.9-3.8z"/><path d="m785.9 289.7h3.2v15h9.4v2.9h-12.5v-17.9z"/><path d="m808.7 307.5v-1.7c-.9 1.1-2.3 2-4.4 2-2.6 0-4.8-1.4-4.8-4.2 0-3 2.3-4.4 5.4-4.4 1.7 0 2.6.2 3.7.5v-.2c0-1.9-1.2-2.9-3.3-2.9-1.5 0-2.6.3-3.9.8l-.8-2.5c1.5-.7 2.9-1.1 5.1-1.1 4 0 5.9 2.1 5.9 5.7v8zm.1-5.6c-.8-.3-1.9-.5-3.1-.5-2 0-3.1.8-3.1 2.1s1.1 2 2.6 2c2 0 3.5-1.1 3.5-2.9z"/><path d="m817.6 305.5v2.1h-3.1v-18.7h3.1v7.4c1-1.4 2.4-2.5 4.5-2.5 3.2 0 6.3 2.5 6.3 7s-3.1 7-6.3 7c-2.1 0-3.5-1.1-4.5-2.3zm7.7-4.7c0-2.6-1.7-4.3-3.9-4.3-2.1 0-3.9 1.7-3.9 4.4 0 2.6 1.8 4.3 3.9 4.3 2.2 0 3.9-1.7 3.9-4.4z"/><path d="m829.6 305.8 1.4-2.1c1.4 1.1 3 1.7 4.4 1.7s2.1-.5 2.1-1.5-1.3-1.4-2.8-1.8c-.1 0-.2-.1-.2-.1-2-.6-4.2-1.4-4.2-4s2.1-4.1 4.8-4.1c1.7 0 3.5.6 5 1.5l-1.2 2.2c-1.3-.8-2.6-1.3-3.8-1.3s-1.9.5-1.9 1.4 1.3 1.4 2.8 1.8c.1 0 .2.1.2.1 2 .6 4.2 1.5 4.2 4 0 2.9-2.2 4.2-5 4.2-1.9 0-4-.7-5.8-2z"/><path d="m206.3 434.2c0-5.1 4.1-9.2 9.3-9.2s9.2 4.2 9.2 9.2-4.1 9.2-9.3 9.2-9.2-4.1-9.2-9.2zm17.4-.1c0-4.5-3.5-8.2-8.2-8.2s-8.2 3.7-8.2 8.3c0 4.5 3.5 8.2 8.2 8.2s8.2-3.7 8.2-8.3zm-13.1-.1c0-2.8 2.1-5.1 5.1-5.1 1.9 0 2.9.6 3.9 1.5l-1.4 1.7c-.8-.7-1.5-1.1-2.5-1.1-1.7 0-2.8 1.4-2.8 3.1s1.1 3 2.8 3c1.1 0 1.7-.5 2.5-1.1l1.4 1.4c-1.1 1.1-2.1 1.7-4 1.7-2.9.1-5-2.2-5-5.1z"/><path d="m226.1 425.3h3.4l4.2 13.2 4.4-13.3h2.6l4.4 13.3 4.2-13.2h3.3l-6.2 18h-2.7l-4.4-12.8-4.4 12.8h-2.7z"/><path d="m252.4 436.4c0-3.9 3.1-7 7.2-7 4.2 0 7.2 3.2 7.2 7s-3.1 7-7.3 7c-4.1 0-7.1-3.1-7.1-7zm11.2 0c0-2.3-1.7-4.3-4.2-4.3s-4.1 2-4.1 4.3 1.7 4.3 4.1 4.3c2.7.1 4.2-1.9 4.2-4.3z"/><path d="m269 429.7h3.1v3c.8-2 2.4-3.4 4.8-3.3v3.2h-.2c-2.7 0-4.6 1.7-4.6 5.4v5.1h-3.1z"/><path d="m278.6 424.5h3.1v11.1l5.6-6h3.8l-5.4 5.5 5.5 8h-3.5l-4.1-5.8-1.9 2v3.9h-3.1z"/><path d="m291.3 436.4c0-3.9 3.1-7 7.2-7 4.2 0 7.2 3.2 7.2 7s-3.1 7-7.3 7c-4.1 0-7.1-3.1-7.1-7zm11.2 0c0-2.3-1.7-4.3-4.2-4.3s-4.1 2-4.1 4.3 1.7 4.3 4.1 4.3c2.6.1 4.2-1.9 4.2-4.3z"/><path d="m307.7 438.2v-8.6h3.1v7.6c0 2.1 1.1 3.3 2.9 3.3s3-1.3 3-3.3v-7.6h3.1v13.4h-3.1v-2.1c-.8 1.3-2.1 2.3-4.2 2.3-3 .2-4.8-1.8-4.8-5z"/><path d="m323.4 439.4v-7.1h-1.7v-2.6h1.7v-3.7h3.1v3.7h3.6v2.6h-3.6v6.6c0 1.2.6 1.7 1.7 1.7.7 0 1.3-.2 1.9-.5v2.5c-.8.5-1.7.7-2.8.7-2.3 0-3.9-.9-3.9-3.9z"/><path d="m332.7 425.3h3.2v15h9.4v2.9h-12.5v-17.9z"/><path d="m355.5 443.1v-1.7c-.9 1.1-2.3 2-4.4 2-2.6 0-4.8-1.4-4.8-4.2 0-3 2.3-4.4 5.4-4.4 1.7 0 2.6.2 3.7.5v-.2c0-1.9-1.2-2.9-3.3-2.9-1.5 0-2.6.3-3.9.8l-.8-2.5c1.5-.7 2.9-1.1 5.1-1.1 4 0 5.9 2.1 5.9 5.7v8zm.1-5.6c-.8-.3-1.9-.5-3.1-.5-2 0-3.1.8-3.1 2.1s1.1 2 2.6 2c2 0 3.5-1.1 3.5-2.9z"/><path d="m364.4 441.1v2.1h-3.1v-18.7h3.1v7.4c1-1.4 2.4-2.5 4.5-2.5 3.2 0 6.3 2.5 6.3 7s-3.1 7-6.3 7c-2.1 0-3.5-1.1-4.5-2.3zm7.7-4.7c0-2.6-1.7-4.3-3.9-4.3-2.1 0-3.9 1.7-3.9 4.4 0 2.6 1.8 4.3 3.9 4.3 2.2 0 3.9-1.7 3.9-4.4z"/><path d="m376.5 441.4 1.4-2.1c1.4 1.1 3 1.7 4.4 1.7s2.1-.5 2.1-1.5-1.3-1.4-2.8-1.8c-.1 0-.2-.1-.2-.1-2-.6-4.2-1.4-4.2-4s2.1-4.1 4.8-4.1c1.7 0 3.5.6 5 1.5l-1.2 2.2c-1.3-.8-2.6-1.3-3.8-1.3s-1.9.5-1.9 1.4 1.3 1.4 2.8 1.8c.1 0 .2.1.2.1 2 .6 4.2 1.5 4.2 4 0 2.9-2.2 4.2-5 4.2-2 0-4.1-.7-5.8-2z"/><path d="m505.1 434.2c0-5.1 4.1-9.2 9.3-9.2s9.2 4.2 9.2 9.2-4.1 9.2-9.3 9.2-9.2-4.1-9.2-9.2zm17.4-.1c0-4.5-3.5-8.2-8.2-8.2s-8.2 3.7-8.2 8.3c0 4.5 3.5 8.2 8.2 8.2s8.2-3.7 8.2-8.3zm-13.1-.1c0-2.8 2.1-5.1 5.1-5.1 1.9 0 2.9.6 3.9 1.5l-1.4 1.7c-.8-.7-1.5-1.1-2.5-1.1-1.7 0-2.8 1.4-2.8 3.1s1.1 3 2.8 3c1.1 0 1.7-.5 2.5-1.1l1.4 1.4c-1.1 1.1-2.1 1.7-4 1.7-2.9.1-5-2.2-5-5.1z"/><path d="m525 425.3h3.4l4.2 13.2 4.4-13.3h2.6l4.4 13.3 4.2-13.2h3.3l-6.2 18h-2.7l-4.4-12.8-4.4 12.8h-2.7z"/><path d="m551.2 436.4c0-3.9 3.1-7 7.2-7 4.2 0 7.2 3.2 7.2 7s-3.1 7-7.3 7c-4.1 0-7.1-3.1-7.1-7zm11.2 0c0-2.3-1.7-4.3-4.2-4.3s-4.1 2-4.1 4.3 1.7 4.3 4.1 4.3c2.7.1 4.2-1.9 4.2-4.3z"/><path d="m567.8 429.7h3.1v3c.8-2 2.4-3.4 4.8-3.3v3.2h-.2c-2.7 0-4.6 1.7-4.6 5.4v5.1h-3.1z"/><path d="m577.5 424.5h3.1v11.1l5.6-6h3.8l-5.4 5.5 5.5 8h-3.5l-4.1-5.8-1.9 2v3.9h-3.1z"/><path d="m590.1 436.4c0-3.9 3.1-7 7.2-7 4.2 0 7.2 3.2 7.2 7s-3.1 7-7.3 7c-4.1 0-7.1-3.1-7.1-7zm11.2 0c0-2.3-1.7-4.3-4.2-4.3s-4.1 2-4.1 4.3 1.7 4.3 4.1 4.3c2.6.1 4.2-1.9 4.2-4.3z"/><path d="m606.5 438.2v-8.6h3.1v7.6c0 2.1 1.1 3.3 2.9 3.3s3-1.3 3-3.3v-7.6h3.1v13.4h-3.1v-2.1c-.8 1.3-2.1 2.3-4.2 2.3-3 .2-4.8-1.8-4.8-5z"/><path d="m622.2 439.4v-7.1h-1.7v-2.6h1.7v-3.7h3.1v3.7h3.6v2.6h-3.6v6.6c0 1.2.6 1.7 1.7 1.7.7 0 1.3-.2 1.9-.5v2.5c-.8.5-1.7.7-2.8.7-2.3 0-3.9-.9-3.9-3.9z"/><path d="m631.5 425.3h3.2v15h9.4v2.9h-12.5v-17.9z"/><path d="m654.3 443.1v-1.7c-.9 1.1-2.3 2-4.4 2-2.6 0-4.8-1.4-4.8-4.2 0-3 2.3-4.4 5.4-4.4 1.7 0 2.6.2 3.7.5v-.2c0-1.9-1.2-2.9-3.3-2.9-1.5 0-2.6.3-3.9.8l-.8-2.5c1.5-.7 2.9-1.1 5.1-1.1 4 0 5.9 2.1 5.9 5.7v8zm.1-5.6c-.8-.3-1.9-.5-3.1-.5-2 0-3.1.8-3.1 2.1s1.1 2 2.6 2c2 0 3.5-1.1 3.5-2.9z"/><path d="m663.3 441.1v2.1h-3.1v-18.7h3.1v7.4c1-1.4 2.4-2.5 4.5-2.5 3.2 0 6.3 2.5 6.3 7s-3.1 7-6.3 7c-2.2 0-3.6-1.1-4.5-2.3zm7.7-4.7c0-2.6-1.7-4.3-3.9-4.3s-3.9 1.7-3.9 4.4c0 2.6 1.8 4.3 3.9 4.3s3.9-1.7 3.9-4.4z"/><path d="m675.3 441.4 1.4-2.1c1.4 1.1 3 1.7 4.4 1.7s2.1-.5 2.1-1.5-1.3-1.4-2.8-1.8c-.1 0-.2-.1-.2-.1-2-.6-4.2-1.4-4.2-4s2.1-4.1 4.8-4.1c1.7 0 3.5.6 5 1.5l-1.2 2.2c-1.3-.8-2.6-1.3-3.8-1.3s-1.9.5-1.9 1.4 1.3 1.4 2.8 1.8c.1 0 .2.1.2.1 2 .6 4.2 1.5 4.2 4 0 2.9-2.2 4.2-5 4.2-2 0-4.1-.7-5.8-2z"/></g></svg><g>
	<path d="M952.2,422c0.5-3.1,2.4-1.3,3.4-0.7c2.4,1.4,4.6,3.2,6.9,4.8c1.2,0.8,2.4,1.6,3.6,2.4c0.7,0.4,1.4,0.9,2.2,0.5
		c3.7-1.8,7-0.1,10.6,0.9c2.2-1.3,4-3.4,6-4.4c1.4-0.6,1.7,0.5,2.3,0.7c3.7-1.5,3.8-1.4,5.1,1.6c0.9,0.2,1.5-0.2,2.2-0.9
		c-1.4-2.9-1.6-5.8,1.2-8.4c2.2,1.9,0.1,4.4,1.3,6.3c1.5-0.7,1.3-2.9,3.3-3.5c2,2.4-0.6,4.4-0.6,6.7c1,0.2,1.5-1.4,2.9-0.8
		c1,2.4-1.8,3.1-2.5,4.9c1.8,0.3,3.8-2.2,5.4,0.4c-1.6,3.1,0,6.6-1.4,9.7c0.9,0.8,1.9-0.4,2.9,1c0.8,2.8-3.3,3.6-3.4,6.5
		c2.4,0.6,4.1-2.4,6.6-1.2c0.7,1.2,1.1,2.6,2.4,3.6c1.2,0.9,0.6,2.5-0.1,3.7c-1.1,1.8-2.4,3.5-3.8,5.4c1.7,2.4,0.1,4.2-1.4,6
		c0.8,1.3,2.5-0.2,2.8,0.9c0.6,1.5,0,2.4-0.6,3.1c-1.9,2.3-2.7,5.3-4.8,7.6c-1.4,1.4-2,3.4-2.8,5.3c-1.7,4.1-3.7,8.2-7.2,11.3
		c1.5,1.8,2,3.7,0.9,5.9c-0.5,1-0.1,2,0.1,2.9c0.5,3-0.2,5.5-3,7.2c-3,1.9-6,2.9-9.6,3.4c-3,0.4-7,0.4-9.3,3.7
		c-0.9,1.3-2.6,1.8-4.3,1.2c-0.6-0.2-1.3-0.6-2,0.3c0.4,1.4,1.5,2,2.9,2.5c5.2,1.8,9.3,5.3,12.9,9.4c3,3.4,6.3,6.7,8.7,10.7
		c1.5,2.5,3,5.1,3.7,7.9c1.8,7.2,4.1,14.4,3.2,22.1c-0.5,4.3,0.9,8.6,0.5,13c-1,9.9-0.1,19.7,0.6,29.6c0.4,6-0.5,12.1,0.2,18.2
		c0.1,1.1,0.1,2.2,0.2,3.3c2.5-0.4,5.3-0.2,7.1-1.4c5.5-3.5,11.8-2.1,17.6-3.3c2.8-0.6,3.2,0.2,2.9,3.1c-0.3,3-0.5,6-0.8,9
		c-0.1,1.2-0.3,2.4-0.7,3.5c-3.3-4.1-2.1-8.7-1.6-13.6c-3.9,0.7-7.8-0.2-11.6,1.3c-2.4,1-4.9,1.5-7.5,1.8c-2.5,0.3-5.1,0.6-6.1,3.3
		c-1.4-0.3-1.2-1.1-1.2-1.9c-0.1-12-0.7-24-1.5-36c-0.4-6,0.3-11.9,0.3-17.8c0-9.6-0.7-19.1-2.1-28.5c-1.2-7.8-5.1-14.5-10.4-20.4
		c-2.6-2.9-5-6-8.2-8.4c-1.9-1.4-3.9-2.7-6.1-3.5c-1.1-0.4-2.1-0.7-2.8-1.7c-0.5-0.7-1.2-1.3-2-1.2c-3.3,0.5-6.3-0.9-9.6-0.9
		c-13.6,0.2-27.2,0.2-40.8,0.3c-2,0-4-0.7-6-0.9c-15.2-1.4-30.4-3.1-45.6-4.1c-15-1-30-1.5-45.1-1.9c-12.3-0.3-24.3-2-36.5-3.7
		c-11.2-1.6-22.5-2.8-33.8-3.2c-5.3-0.1-10.7-1-16-1.6c-3.4-0.4-6.7-0.5-10.1,0.1c-1.1,0.2-2.3,0.3-3.4,0.1
		c-7-1.2-14.1,0.3-21.1-1.1c-1.8-0.4-3.4,0.1-4.9,0.9c-7.6,3.7-14,8.6-19,15.6c-5.1,7.1-7.4,15-8.6,23.4c-0.4,2.5,0,4.9,0.2,7.4
		c0.6,8.5-0.7,17,0.2,25.5c0.3,2.7,0.9,5.3,1.5,7.8c2.5,1.1,5.3,0.1,8,2.1c-4,2.8-7.9,0.3-11.8,0.6c-0.7,0.4-0.8,1.3-0.6,2.2
		c1.6,6.9,1.7,13.8,1,20.8c0,0.4,0,0.9,0.1,1.8c4.8-0.3,9.4,3.3,14.3-0.2c-1.9-7.1-2-14.4-2.4-21.7c0-0.9-1.2-0.3-1.4-1.3
		c0.6-1,1.1-2.3,2.9-2c3,0.5,5.7-0.8,8.4-1.7c-1.5-9.8-1.7-19.6-1.9-29.3c-0.2-12.7,3.7-24.2,10.1-35.3c-1-0.1-1.8,0.6-2.5,1
		c-7.6,4-12.2,10.2-14.1,18.7c-2.5,11.4-2,22.8-0.9,34.2c0.3,3.6,0.3,7.1,0.2,10.7c0,0.4-0.1,0.9-0.7,0.9c-0.6,0-0.8-0.5-0.8-0.9
		c-0.3-10.2-2.5-20.3-2.2-30.5c0.2-4.2,0.1-8.4,1-12.4c1.5-7.2,3.3-14.4,8.9-19.9c4.7-4.6,10.6-6.9,17-7.5c7.4-0.7,14.8-0.8,22.2-1
		c12.4-0.3,24.6,1.4,36.8,3.1c6,0.9,12.1,0.8,18.1,1.1c14.6,0.7,29.1,1.7,43.7,2.1c11.3,0.3,22.4,1.7,33.5,2.7
		c5.4,0.5,10.8,0.6,16.1,0.7c12.6,0.4,25,2.4,37.6,3.2c9.1,0.6,18.1,1.3,27.2,1.4c5.8,0.1,11.6,0.8,17.4,1.7c6.6,1,11.1,5.2,14.8,10
		c7.2,9.2,11,19.8,11.7,31.6c0.4,6.9,1.1,14,0.4,20.8c-1.3,13.1,0,26.1-0.6,39.2c-0.2,3.7,0.5,7.3,0.7,11.1c2.8,0.3,5.5,0.4,8.4,1.7
		c-0.2-25.2-2.3-50.2,0.1-75.1c-0.8,24.7,0.8,49.3,1.5,73.9c1.3,0.6,2.4-0.9,3.6-0.3c-3.2,3-5.3,3.6-10.5,3c0.4-0.6,1.3-0.1,1.7-1
		c-3.2-1.6-6,0-8.8,1.2c-7.6,3.3-15.2,6.7-23.4,8.4c-1.2,0.2-2.5,0.6-3.5,1.7c-1.1,1.2-2.8,1.6-4.7,1c3.4-1,5.8-3.6,9.2-4.6
		c7.3-1.9,14.1-5.2,21.1-8c0.8-0.3,1.7-0.7,2.2-1.5c0.1-0.2,0.3-0.4,0.2-0.6c-0.8-8.6,1.3-17.1,0.4-25.8
		c-1.2-11.2,0.8-22.4-0.1-33.7c-0.6-7.4-0.1-14.9-1.9-22.1c-2.5-9.9-7.9-18-15.6-24.6c-3.1-2.7-7.1-3.4-11-3.9
		c-6-0.8-11.8-2.3-17.9-2.5c-7.9-0.2-15.9-1.2-23.8-1.8c-16.2-1.3-32.4-2.7-48.7-3.5c-20.7-1-41.5-2.5-62.2-3.7
		c-7.5-0.4-15-0.1-22.5-0.5c-5.5-0.3-11-0.5-16.4-1.3c-15-2.3-30.1-3.2-45.3-2c-4.3,0.3-8.6,1.3-12.8,2.7c0.8,3.3,0.2,6.4-0.5,9.4
		c-1.1,5.5-2.5,10.9-3.7,16.4c-1.9,8.2-3,16.5-1.9,25c0.4,2.5,0.4,5.2-1.8,7.3c0.4,2.7,2.1,5.3,0.4,8c0.2,0.6,0,1-0.5,1.4
		c-2.6,2.2-6,1.5-9,2.2c-2,0.5-3.2,1.6-2.6,3.5c1.2,3.7,0.7,7.6,1.5,11.3c0.8,3.9,1.7,4.6,5.5,3.8c1.3-0.3,2.6-0.7,4-0.6
		c1.1,0.1,1.9,0.6,2.2,1.7c0.2,1-0.1,1.8-1,2.3c-6.3,3.6-13,5.5-20.3,4.9c-3.2-0.3-6.3-0.6-9.6-0.4c-1.9,0.1-3.7,0-5.4,1.1
		c-1.4,0.9-3.2,1.1-4.9,1.2c-6.4,0.5-12.5,2.8-18.7,4c0,0.2,0,0.4,0.1,0.4c6.3,2.3,6.3,2.1,6.3,9.6c0,1.2-0.1,2.5,0.1,3.7
		c0.1,0.3,0.2,0.6,0.5,0.9c1.1,0.9,2.3,0.3,3.5,0c14-3.9,28-7.4,42.2-10.5c9.6-2.1,19-5.3,28.6-7.7c2.8-0.7,5.9-1.8,8.4,1.1
		c0,0.2,0,0.3,0.1,0.5c-0.1,0.3-0.3,0.8-0.4,0.8c-4.2-0.4-7.9,1.3-11.7,2.6c-21.7,7.5-44.1,12.4-66.3,18c-6.6,1.7-13.5,2.2-19.8-1.4
		c-1.3-0.7-2.2-0.4-3.3,0.5c-1.9-2.9-1.9-6.2-2.4-9.2c-0.5-3.1-0.4-6.2-1.3-9.7c5-1.3,10.1-2.5,15.2-3.8c-1.2-3.2-1.1-6.7-4-9.2
		c3.3-2.8,0-7,2.8-9.7c-2.2-4.1-4.2-4.8-7-2.3c-0.8,0.7-0.9,1.4-1.1,2.3c-1.1,4.3-4.1,7.1-7.8,9.3c-0.9,0.5-2,0.6-2.9,0.4
		c-8.1-2.4-15.3-6.3-21.2-12.4c-0.7-0.7-1.2-1.6-1.4-2.7c0.5-2.4,2.8-1.7,4-2.5c1.3,0.5,1.6,1.5,2.5,2.5c0.9-1.6,1.5-3.8,3.9-2.4
		c0.3-10.4,1-20.6,2.6-30.7c0.7-4.5-0.2-9.2-1.3-13.7c-2.5-10.4-2.7-20.8-1.9-31.4c0.6-7.8,0.3-15.7,1-23.4
		c0.8-8.2,0.2-16.3,0.8-24.5c0.4-5.2,3.2-8.6,6.6-11.6c5.7-5.1,11.8-9.7,19.1-12.3c4.2-1.5,8.5-2.7,12.8-4c1.1-0.3,2.1-0.6,3.1-0.9
		c1-1.3,0.4-3.1,1.9-4.3c2.7,0,5.3-1.4,7.8-2.8c1.8-1,3.7-0.8,5.6-1.1c9-1.4,17.8-3.6,27-3.6c4,0,7.7,1.2,11.6,1.8
		c11.4,1.9,21.8-0.7,31.8-5.9c1.1-0.6,2.3-0.9,3.5-1.3c3.8-1.1,7.4-2.6,10.6-5c5.2-4,10.9-4.6,17.2-2.9c5.5,1.5,11.2,2.2,16.8,3.3
		c2,0.4,4,0.5,5.3,2.4c7.2-1.4,14.1-3.3,21.1-4.1c5.8-0.7,10.4-4.1,15.7-5.6c1.8-0.5,3.6-1.1,5.6-0.6c0.7-0.7,0.7-1.8,2.1-2.1
		c-0.7-0.7-1.1-1.2-1.5-1.4c-2-1-2.9-2.9-3.1-4.9c-0.5-4.7-1.7-9.1-3.2-13.6c-3.4-10.3-3.5-20.9-1.6-31.6c0.8-4.6,2.1-9.2,1.7-14
		c0-0.5,0.2-1.1-0.4-1.7c-9.1,4.3-18.6,7.7-28.6,9.1s-20.1,1.5-30.2,0.6c-6-0.6-10.4-3.3-15-6.6c-9.4-6.7-16.3-15.7-22.9-24.9
		c-3.9-5.5-5.7-11.8-6.2-18.5c-0.1-1.7-0.3-3.3-0.5-5.2c-3.6-0.5-7,0-10.5-0.7c-3.7-0.8-7.5-4.3-8.3-7.9c-0.2-0.8,0-1.5,0.4-2.2
		c2.8-6.3,5.9-9.7,12.1-9c2.6,0.3,5.4,0.1,8.1,0.1c1.4-3.1,1.3-6.5,2.2-9.6c2.1-7.8,5.2-15,11.8-20.2c6.3-5,12.1-10.7,18.8-15.2
		c5.1-3.4,10.9-4.7,16.7-6c4.2-0.9,8.7-1.5,13-1.4c6.8,0.2,13.6,0.8,20,3.7c4.9,2.3,9.8,4.9,15,6.3c5.1,1.4,7.8,4.9,10.7,8.6
		c1.2,1.6,2.2,3.2,4.3,3.9c1.4,0.5,2.2,2.2,3,3.6c2.4,4.2,4.1,8.7,5.1,13.5c1.1,5.3,3,10.5,4.5,15.9c2.7-0.8,4.7-0.3,6.4,1.5
		c0.6,0.6,1.3,0.8,2.1,0.8c1-0.1,2.2-0.1,2.9,0.5c2.3,1.9,5.1,1.6,7.7,1.7c21.1,1.1,42.2,2.2,63.3,3.2c0.7,0,1.3,0,2.3,0
		c2-3.1,5.3-2.8,8.5-2.9c0.9-1,1.7-1.9,2.7-2.9c3.3,0.3,6.3,2.2,9.8,1.9c1.4-0.1,2.1,1.8,3.4,2.8c2.6-0.5,4.4,0.8,5.9,2.8
		c6.2,0.3,12.3,0.7,18.3,1c2.3,3.9,4.6,7.6-0.4,11.4c-1.5,0-3.4,0-5.4,0c1.4,4.3,4.1,5.3,9.1,3.8c0.7,0.5-0.4,0.9,0.1,1.6
		c2.8,0,5.8,0,8.8,0c-2.1,2.9-4.8,3.7-10.5,2.6c-4.4-0.9-8-2.8-9.3-8c-3.6,0-7.2,0-11.3,0c-1.5,1.7-2.2,4.2-2.8,6.7
		c-0.9,3.6-2.7,6.9-1.8,11c0.5,2.5-0.9,5.5-1.6,8.2c-1.2,4.9-1.5,10-1.7,15c-0.2,7.8,0.2,15.7-0.8,23.5c-0.2,1.9-0.2,3.8,0,5.7
		c0.6,7.2-0.7,14.3-1.9,21.4c-0.7,4.2-3.2,7.6-4.9,11.4c-0.6,1.3-1.1,2.5-0.7,4.1c1.7,6.9,1.4,13.8-0.9,21.1
		c3.7,0.1,6.3-3.3,9.4-2.6c1.7-1.5,0-3.6,1.6-4.6C951.3,420.3,951.4,421.8,952.2,422c1.3,2.3,0.5,7.7-1.4,9.2
		c-2.1,1.7-4,0.3-5.8-0.3c-0.9,0.2-1.4,0.7-1.8,1.3c-2,2.8-2.9,2.9-5.6,0.7c-2.8-2.2-6.8-1-7.1,2.7c-0.3,4-1.2,8.3,1.7,11.9
		c0.8,1,1.7,2.4,0.4,3.6c-1.3,1.3-2.3-0.1-3.6-0.5c-2.5-0.9-4.1-3.8-7.1-3c-2.2-2.5,0.6-4.3,0.6-6.8c-4.2-5.4-10.4-3-15.8-3.2
		c-2-5,0.9-6.8,8.9-5.9c-9.2-7.7-31.4-18.1-45.4-14c0.1,5.3,4.7,9.3,4.6,14.8c2.3,1,4.3,2.6,6.7,3.3c10.2,2.7,15.9,10.2,21.1,18.6
		c2.8,4.5,1.7,9,1.9,13.5c0.2,5.1-1.7,10.1-1.3,15.3c0.1,1.2-0.9,2.2-1.1,3.1c0.3-0.5,0.9-1.4,0.9-2.3c-0.1-6,1.8-11.9,1.5-17.9
		c-0.1-1.5-0.3-2.9,0.4-4.3c0.6-1.3,0-2.5-0.5-3.7c-1.6-3.7-3.8-7.2-5.8-10.7c-2.2-3.8-0.6-9.7,3-12.4c1.1-0.8,2.2-1.2,3.4-0.6
		c1.2,0.7,1.4,2,1,3c-2.6,5.8,0.3,10.6,2.6,15.6c1.9,4.1,3.8,8.7,3,13c-1.2,6.3-0.9,12.8-3.3,18.9c2.8-3.3,7-4.3,10.4-6.8
		c0.6-0.5,1.5-0.6,2.3-0.3c0.3,0.1,0.6,0.3,0.8,0.5c0.5,0.6,0.7,1.7,2,1.3c4.8-1.7,9.7-3.4,14.2-6c0-2.4-0.9-4.4-2.1-6.3
		c-0.9-1.5-1.7-3.1-0.4-4.7c1.2-1.5,3.1-2.3,5-2.3c2.1,0.1,2.9,1.8,1.8,3.5c-0.3,0.6-1,0.9-1.2,2c0.9,2,2.1,4.2,4.4,5.4
		c2,1.1,4,1.4,5.5-1c1.4-2.2,1-5.2-0.9-6.6c-1.5-1-3-2-4.7-2.5c-2.2-0.6-3-2.4-2.7-4.4s1.9-2.3,3.8-2.5c4.8-0.5,8.7-2.7,12.5-5.8
		c3.3-2.6,4.2-6.2,5.5-9.6c1.1-2.9,3.6-3.9,5.7-5.5c1.2-1,2.6-0.3,2.8,1.9c-0.6-3-3.1-4-6.1-2.6c-2.2,1.1-4,2.9-5.7,4.7
		c-2,2.1-3.7,2.4-5.1,0.8c-1.4-1.6-1.1-4.5,0.8-6c0.6-0.5,1.4-0.8,2-1.3s1.4-0.7,2-1.7C958.2,426.6,954.7,424.9,952.2,422z"/>
	<path d="M520,136.4c7.5-8.5,16.6-13.3,28.1-13.8c6-0.3,11.8,0.9,17.7,1.7c1.2,0.2,2.3,0.8,3.4,1.4c7.1,3.9,13.7,8.5,18.3,15.5
		c2.4,3.5,5.6,6.6,7.8,10.1c2.8,4.6,4,9.9,3.9,15.5c-0.1,3.9-0.2,7.9-0.8,11.8c-0.3,1.6-0.6,3.2,0,4.9c0.4,1.2-0.2,2.4-0.7,3.5
		c-1.8,4.1-4.2,7.9-6.9,11.6c-1.6,2.1-3,4.2-2.9,7.2c0.5,0.7,1.9-0.7,2.6,0.9c0.4,2.4-3.1,3.3-3.2,5.9c2.3,0.5,3.8-2.1,6.2-1.3
		c0.6,1.2,0.9,2.6,2.3,3.5c1.1,0.7,0.7,2.1,0.1,3.1c-1.1,1.7-2.2,3.4-3.5,5.3c0.9,2.1,0.4,4.2-1.5,5.8c0.7,1.4,2.2-0.4,2.7,1.4
		c-0.2,2-12,22.6-14.6,25c1.2,1.7,1.9,3.6,0.8,5.8c-0.2,0.5-0.2,1.1-0.1,1.6c0.5,6.1-4.2,10.6-10.5,11c-3.5,0.2-7.3,0.5-10,3.5
		c-1.6,1.8-3.6,1.2-5.8,0.8c0.3,1.8,1.3,2.6,2.6,3c3.5,0.9,6.3,3,8.8,5.4c8.1,7.7,15,16,16.8,27.6c0.8,4.8,1.1,9.5,1.4,14.3
		c0.8,13.1-0.8,26.2,0.8,39.3c0.7,5.7-0.6,11.4,0.4,17.1c0.2,1.1-0.2,2.2,0.5,3.6c2.9-1.1,6.1-0.3,8.8-2.8c1.1-1,3.7-0.5,5.6-0.7
		c2.9-0.3,5.8-0.6,8.7-0.9c1.5-0.2,2.9,0.2,2.6,1.7c-0.7,4.4-0.6,8.9-1.4,13.9c-3.5-4.4-2-8.9-1.8-13.5c-3.8,0.7-7.4,0-11,1.4
		c-2.1,0.8-4.3,1.3-6.5,1.6c-2.5,0.4-5.1,0.5-6.2,3.2c-0.6-0.3-1-0.6-1-1.1c0.4-14.7-1.9-29.4-1.3-44.1c0.4-11-0.3-22-1.6-32.9
		c-0.9-7.8-4.7-14.4-9.9-20.2c-2.6-2.9-5.1-5.9-8.2-8.4c-2.8-2.3-6.3-3.3-9.3-5.2c-1.9-1.2-5.1-1.2-7.7-1.2
		c-13.4-0.1-26.7,0.2-40.1,0.2c-2.2,0-4.4-0.6-6.7-0.9c-10.9-1.4-21.9-1.7-32.8-3.1c-6.7-0.8-13.4-0.6-20.1-1.3
		c-1.7-0.2-3.3,0.2-4.8,1c-2.4,1.3-4.5,3.1-7.4,5.1c5.7,0.6,10.6,1.5,15.6,1.7c16.7,0.4,33.4,2.2,50,3.6c7.8,0.7,15.7,1.2,23.5,1.2
		c5.4,0,10.7,0.7,16.1,1.3c7.3,0.8,12,5.3,16.2,10.7c7.7,9.9,10.3,21.5,10.6,33.7c0.1,4.7,0.7,9.5,0.1,14.1c-1.5,12.5,0,25-0.5,37.5
		c-0.1,3.3,0.3,6.7,0.4,10.1c2.7,0.4,5.4,0.3,8,1.8c-0.2-23.8-2-47.2,0.1-70.6c-0.1,11.5,0.1,23,0.3,34.6s1.2,23.2,1.1,35
		c1.7-0.4,3.1-0.7,5.3-1.1c-6.2,3.7-9,5.5-10.7,2.1c-3-0.4-5.6,0.7-8.3,1.8c-7.9,3.4-15.7,7.1-24.5,8l0.1,0.1c0.9-1.6,2.5-1.7,4-2.1
		c7.6-2.4,15-5.4,22.4-8.8c-0.6-5.5,0.8-10.9,0.4-16.2c-1.1-13.9,0.6-27.9-0.5-41.8c-0.5-6.6,0-13.3-1.7-19.8
		c-2.3-9.1-7.4-16.5-14.3-22.7c-2.9-2.6-6.6-3.4-10.3-3.8c-5.8-0.7-11.4-2.2-17.3-2.4c-7.8-0.2-15.7-1.2-23.5-1.8
		c-14.3-1.1-28.6-2.7-43-3c-9.2-0.2-18.4-1.6-27.6-1.1c-5.1,0.3-10.3,0.8-15.3,2.2c-3.5,0.9-6.9,1.6-10.6,0.6
		c-2.8-0.7-5.7-0.8-8.7-0.8c-4.1,0.1-4.5-0.3-5.4-4.6c-4.2-1.1-8.6-0.4-12.9-0.6c-5.5-0.3-11-0.4-16.4-1.2c-14-2.1-28.1-3-42.3-1.9
		c-4.1,0.3-8.2,1.3-12.3,2.5c0.8,6.2-1.1,12-2.5,17.8c-2.5,10.1-4.7,20.1-3.2,30.6c0.3,2.1-0.4,4.3-1.8,6.7c0.3,2.4,2,4.8-0.1,7.2
		c0,0.2,0,0.3,0,0.5c-1.9,2.4-4.5,2.7-7.2,2.6c-3.6-0.1-4.4,0.9-3.6,4.4c0.7,3.4,0.8,6.9,1.4,10.3c0.6,3.3,1.3,3.7,4.6,3
		c1.3-0.3,2.6-0.7,4-0.7c1.2,0,2.3,0.4,2.5,1.8c0.2,1.1-0.4,2.1-1.4,2.4c-1.2,0.3-1.8,1-2.5,1.9c-0.3,0.2-0.6,0.3-0.9,0.4
		c-6.6,1.6-13.1,2.6-19.9,1.6c-3.7-0.6-7.6,0.4-11.4,1.6c-6.2,1.9-12.8,2.5-19,4.3c-0.5,0.2-1.1,0.2-1.6,0.5
		c5.6,1.8,6.1,2.4,6.1,8.3c0,0.8,0,1.6,0,2.4c0.2,2.7,1.1,3.4,3.7,2.7c10.3-3.1,20.8-5.8,31.3-8c11.9-2.5,23.4-6.2,35.2-9.1
		c2.5-0.6,5-1.4,7.4,0.5c0.1,0.2,0.2,0.3,0.2,0.5c0.1,0.4,0.1,0.8,0.2,1.5c-3-0.4-5.7,0.5-8.3,1.4c-21.6,7.5-43.8,12.5-65.9,18
		c-6,1.5-12.2,1.8-17.9-1.5c-1.2-0.7-2.1-0.2-3.3,0.3c-2.6-5.6-1.8-11.7-3.2-17.7c4.7-1.2,9.4-2.4,14.2-3.6c-1.3-2.9-1-6.1-3.7-8.5
		c3.1-2.3-0.1-6.5,3.2-9.4c1.1,3.2,0.4,6.1,1.1,8.9c0.7,2.7,1.7,5.3,1.5,8.4c2.2,0.1,4.1-0.4,6.2-1.1c-1.9-1.3-4.4-0.5-5.4-2.7
		c0.6-1.6,1.8-1.5,3.1-1.4c2.2,0.2,4.1,1.1,6.2,1.6c3.4,0.9,6.7,0.8,9.2-2.3c1.2-0.3,1.2,1.2,2.1,1.4c1.1,0,1.9-0.4,3.1-1.1
		c0.1-6.7,1.3-13.6-3.1-19.8c-1.3,1.4,2.2,5.3-2.3,5.5c-0.7,1.2-0.3,3.2-2.2,3.7c-1.3,0.1-1.5-1.6-2.6-1.7c-1.4,0.1-0.4,1.8-1.1,1.9
		c-1.6,0.3-1.7-1.2-3.4-1.3c-3,1.2-6,5.2-11,2.7c3.2-2.1,6.1-4.5,9.9-5c4.2-0.6,7.2-2.8,9.7-6c2.4-3.1,4.9-6.4,10.1-5
		c-2.2-8-2.1-15.6-1.9-23.2c0.1-5.2,0.3-10.3,0.1-15.5c-0.4-6.9,2.4-13.1,5.5-19.4c-1.9,0-2.3-1.1-2.1-2.8c0.5-5-1-10,0.6-15
		c-3.2-1-6.1-0.4-9.3,0c-4-5.5-6.2-11.9-8.5-18.5c-2.2,0.4-4.3-0.3-6.3,0.7c-3.7,1.9-5.1,5.8-3.7,10c2.6,7.6,3.1,15.6,2.9,23.6
		c-0.2,10.1-3.3,19.6-6.8,29c-3.7,9.8-5.5,20.1-5.8,30.6c-0.1,2.6-0.5,5.1-0.1,7.9c2.4,1.1,5.2,2.1,4.9,5.7
		c-1.4,0.5-1.4-0.6-1.9-1.1c-1-1.1-2-2.4-3.7-1.7c-1.5,0.6-2.9,1.3-3.3,3.4c-0.8,4.1-3.8,6.7-7.3,8.7c-0.9,0.5-2,0.5-2.9,0.2
		c-7.2-2.2-13.6-5.8-19.1-10.9c-1-1-2.1-2.1-1.7-3.8c0.8-1.6,2.6-1.1,3.4-1.9c1.4,0.5,1.6,1.6,2.5,2.3c0.9-1.3,1.3-3.5,3.8-1.9
		c0.1-10,0.9-19.7,2.3-29.3c0.7-4.6-0.4-9.4-1.5-14c-1.4-5.7-1.6-11.6-2.2-17.4c-0.2-2.2,0.4-4.4,0.6-6.7c0.7-7.5,0.2-15,1.1-22.5
		c0.6-5.8,0.3-11.6,0.4-17.5c0.1-3.8,0.2-7.6,0.7-11.3c0.5-4.1,3.4-6.6,6.1-9c5.4-4.9,11.3-9.2,18.3-11.7c3.7-1.3,7.5-2.4,11.2-3.5
		c1.2-0.4,2.4-0.5,3.5-1.2c0.8-1.1,0.1-2.8,1.9-3.9c15.8-4.7,32.2-9.2,49.7-5c-0.5-3.2-1-6-1.4-9c-3-0.8-6.2-0.1-9.3-0.3
		c-4.5-0.3-6.8-3.1-8.6-6.6c-0.3-0.5-0.4-1.1-0.4-1.6c0.2-4.1,5.4-9.6,9.5-9.9c3.1-0.3,6.2-0.3,9.4-0.5c1.2-3,1-6.1,1.6-9
		c1.5-7.8,4.3-14.8,10.5-20.1c5.4-4.7,10.3-10,16-14.4c4.6-3.6,9.9-5.4,15.3-6.6c6.6-1.6,13.4-2.5,20.3-2.1
		c5.3,0.3,10.1,1.9,14.9,3.7c4.7,1.7,9.3,3.7,14.2,4.8c1.3,0.3,2.2,1.1,3.1,1.9c3.2,2.9,5.7,6.4,9.3,9c3.4,2.5,5.3,6.7,6.4,10.9
		c1.4,5.1,3.3,10,4.9,15c0.4,1.2,0.6,2.4,1,3.9c1.9,0,3.7,0.6,5.3,2c0.7,0.6,1.7,0.9,2.8,0.9c24.8,0,49.6,0,74.7,0
		c1-3,4-2.9,6.3-3.8c2.8-3.6,3.6-8.3,5.8-12.3c2.4-4.4,5.5-8.4,8.6-12.3c0.1,0.2,0.3,0.3,0.5,0.2C520.2,136.9,520.3,136.7,520,136.4
		z"/>
	<path d="M954.9,255.4c7.6-8,17.1-11.4,28-11.8c6.4-0.2,12.4,1.5,18.6,2.6c1.7,0.3,3.1,1.1,4.6,2c8.4,4.9,15,11.5,20.3,19.7
		c1.7,2.7,2.8,5.9,5.6,8c1.1,0.8,1.4,2.8,1.9,4.2c2,6.7,2.4,13.4,1.1,20.3c-0.5,2.4-0.9,4.9-1.3,7.3c0,0.1-0.1,0.2-0.1,0.3
		c1.1,7.9-4.4,12.8-8.4,18.2c-5.3,7.2-12.2,12.8-20.4,16.6c-2.4,1.2-5.2,1.4-7.8,1.9c-6,0.9-11.8,2.8-17.9,2.7
		c-6.8-0.1-13-1.6-18.7-5.4c-2.3-1.6-4.6-3.1-7.2-4.3c-2.7-1.3-3.1-2.7-2.3-6.1c2.6,1.5,4.6,3.5,6.8,5.4c3,2.6,6.2,4.4,10.1,5
		c0.6,0.1,1.1,0.2,1.6,0.4c8.2,4,16.2,1.8,24.2-0.4c1.7-0.5,3.4-1.2,5.1-1.7c3.8-1.3,7-3.4,10.3-5.9c9.3-7.2,14.3-16.9,18.3-27.4
		c2.1-5.6,3.1-11.5,3.1-17.5c0-1.1,0-2.3-0.5-3.3c-1.8-4-3.1-8.2-3.9-12.4c-1.5-7.6-6.4-12.2-12.2-16.4c-2.1-1.5-3.9-3.4-6-4.9
		c-1.9-1.4-3.9-2.7-6.5-2.1c-0.7,0.2-1.3-0.2-1.9-0.5c-8.6-4.1-17.6-3.9-26.6-1.9c-5.7,1.3-10.4,4.7-14.6,8.6
		c-2.8,2.6-5.1,5.7-9.3,6.5c0.7,2.3-0.4,3.7-1.4,5.3c-2.2,3.2-4.1,6.7-6.2,10.2c-2.1-0.1-2.5-1.3-1.5-3.1c2.6-4.5,4.5-9.3,8.3-13
		C950.5,260.2,951.5,256.6,954.9,255.4c0.3,0.3,0-0.3,0.2,0.1C955.2,255.6,955.1,255.6,954.9,255.4z"/>
	<path d="M541.7,628c0.4-4.5,0.8-8.6,3.4-11.7c4.3-1.6,8.2,0.4,12.1,0.3c1.2,0,2.5,0.1,3.5-0.7c2.6-1.9,5.7-2.5,8.7-3.3
		c4.9-1.3,9.2-3.4,11.3-8.5c0.9-2.2,3.7-3.1,4-5.7c1.6-0.3,2.9-0.6,5.2-1c-1.7,3.7-0.4,7.1-1.1,10.4c-0.9,0.6-1.2-0.6-1.9-0.3
		c-0.4,1.4,0.4,2.9-0.3,4.4c-2.6,1.1-5,4.8-7.6,0.4c-2.8,0.3-1.3,3.7-3.5,4.3c-1,0.2-0.8-1-1.2-1.5c-2.1,0.2-1.6,1.6-1.6,2.8
		c0,1.3-0.5,2.4-2,3.1c-1.3-1.7-4.5-0.7-5.2-4.1c-5.9,4-12,2.9-18.1,0.7c-1.8,3-2.6,5.8-3.3,8.8c7.7,4.9,15.4,9.4,25,8.6
		c1-0.1,2,0.3,3,0.5c1.8,0.2,3.4-0.1,5.2-0.6c3.5-0.8,7.1-1.1,10.5-2.3c0.2-0.1,0.5,0,0.7,0.1c3.9,2.6,8.2,2.6,12.6,1.6
		c0.8-0.2,1.8,0,2.1,0.7c1.1,2.2,3.1,1.8,4.9,2c3,0.4,6.3-0.1,8.7,2.8c-1.1,1.7-2.7,1.6-4.3,1.5c-4.7-0.4-9.4-0.9-14.1-1.2
		c-3.2-0.2-6-1.6-8.7-3.1c-1.7-0.9-3.1-1.1-4.7-0.1c-1.6,0.9-3.2,1.6-5.1,0.8c-0.3-0.2-1-0.1-1.3,0.1c-1.9,1.3-3.9,1.7-6.1,1.5
		c-7.5-0.8-15.4,0-22.2-4.3c-0.9-0.6-1.9-1.2-2.7-2C545.7,630.8,544.1,628.8,541.7,628z"/>
	<path d="M197.8,352.3c-2.6,2.7,0.3,6-1.2,8.9c-1,0.6-1-1-1.9-0.8c-0.4,1.4,0.7,2.8-0.1,4.5c-0.8,1-2.7,0.9-3.3,2.3
		c-2.1,0.5-2.9-1.2-4.1-2c-2.4,0.4-1.1,3.4-3.2,4.1c-1,0.3-0.8-1.1-1.5-1.4c-1.8,0.3-1.3,1.6-1.3,2.8c0,1.2-0.6,2.1-2,2.7
		c-1.2-1.7-4.2-0.9-4.9-3.9c-5.4,4.1-11.2,2.5-16.9,0.9c-1.6,2.6-2.3,5.3-3,8.1c7.2,4.5,14.2,8.6,23.1,8.1c3.2-0.2,6.2,0.3,9.5-0.5
		c2.3-0.5,4.8-0.9,7.2-1.7c1.3-0.4,2.4-0.1,3.5,0.6c2.5,1.6,5.2,1.8,8.1,1c1.9-0.5,3.7-0.7,5,1.4c0.8,1.3,2.5,0.7,3.8,0.9
		c2.8,0.3,5.9,0,8.5,3.1c-5,2.1-9.7-0.2-14.3,0c-4.9,0.2-9.2-1.6-13.6-4.3c-3,2.7-7.4,1-10.8,3c-0.3,0.2-0.7,0.2-1,0.2
		c-7-0.8-14.2,0.4-20.8-2.8c-2.5-1.2-5.1-2.5-6.7-4.9c-0.9-1.4-2.8-1.4-3.7-2.8c0.1-3.9,0.7-7.6,3.3-10.9c2.6,0,5.2-0.9,8,0.3
		c1.4,0.6,3.7,0.8,4.9,0.1c5.1-3.2,11.5-3.1,16.4-6.6c0.6-0.4,1.3-0.9,1.8-1.5c1.9-3,3.9-5.9,6.5-8.9
		C194.4,352.5,195.8,350.9,197.8,352.3z"/>
	<path d="M690.8,587.1c0.2-0.2,0.4-0.4,0.6-0.6c0.3,0.1,0.9,0.1,0.9,0.3c1.1,4.2,4.8,7.1,5.9,11.4c0.5,2.2,0.7,4.4,0.2,7
		c4.4,0.1,8.3-1.5,12.2-2.2c4.3-0.8,8.1,0.7,12.3,2.1c0.8,4.1,1.8,8.2,1.2,12.5c-0.2,1.4-0.5,2.7-1.8,3.4h0.1
		c-2.1-1.8-2.4-4.1-2.4-6.6c-0.1-4.6-1.3-5.4-5.9-4.4c-4.3,1-8.4,2.4-12.6,3.5c-1.1,0.3-2.2,0.6-3.3,0.7c-1.3,0.2-2.6,0-2.9-1.5
		c-0.3-1.5,0.7-2.3,2-2.6c4-1,7.9-2.5,11.9-3.4c0.9-0.2,1.8-0.2,2.3-0.6c-2.6,0.7-5.5,1.5-8.4,2.2c-4.2,0.9-6.5-0.4-7.1-3.7
		c0,0.5,0,0.9,0.1,1.4c0.6,1.8,0.7,3.5-1.5,4.1c-2.1,0.6-2.5-1.5-3.3-2.7c-0.7-1-0.6-2.4-0.7-3.6c-0.4-3.5-1.6-6.9-2-10.5
		C688.4,590.7,688.8,588.7,690.8,587.1z"/>
	<path d="M292.8,341.3c0.5,0.1,1.4-0.1,1.5,0.5c0.4,3.4,3.4,5.4,4.5,8.4c1,2.7,1.4,5.4,1,8.3c2.6,0.5,5-0.4,7.3-1
		c6.2-1.6,8.5-1.7,15.7,1.3c0.9,3.8,1.6,7.8,1.1,11.8c-0.2,1.2-0.2,2.6-2.1,2.3l0.1,0.1c-1.8-1.3-1.6-3.3-1.7-5.2
		c-0.3-4.7-1.4-5.4-5.9-4.4c-4.1,0.9-8,2.1-12,3.2c-1.1,0.3-2.2,0.5-3.3,0.6c-1,0.1-1.9-0.2-2.2-1.1c-0.4-1.1,0.2-2,1.1-2.5
		c1.8-1,3.8-1.4,5.8-1.8c3-0.7,5.9-1.9,8.9-2.2c-3.7,0.3-7,2.3-10.8,2.2c-2.6-0.1-4.4-0.9-4.2-4c-0.1,2.1,2,5-2.2,5.6
		c-1.6-1.2-2.5-2.7-2.7-4.8c-0.4-3.1-1.1-6.2-2-9.2C289.8,346.2,290.5,343.5,292.8,341.3L292.8,341.3z"/>
	<path d="M941.7,656.6c1.7,0.5,0.3,2,1.7,2.9c5.7-0.8,11.9-1.2,18.2-1c-2,6.1-1.3,12-2.4,18.3c4.1-1.7,7.6-3.5,12.2-4.2
		c-2.2,2.4-5,1.9-6.7,3.8c-0.2,0.6,1.1,0.7,0.5,1.7c-1.5-1.1-3.1-1.7-4.3,0.5c-0.4,0.8-1.2,0.9-2,1c-4.4,0.7-8.9,1.2-13.4,1.2
		c-1.5,0-2.8-0.4-3.8-2.2c5.6-0.3,10.7-1.3,16.4-1.2c-1.1-5.6-0.9-10.8,0-16.6c-5.3,0.7-10.7-1.4-16,1.2c-0.1,5.7-0.8,11.2-1.4,16.8
		c-1.7,0.3-2.3-0.8-2.1-1.9c1.1-6.3,0.8-12.7,2-19C940.7,657.4,941,656.9,941.7,656.6z"/>
	<path d="M551.6,426c-0.2,0.4-0.3,0.8-0.5,1.4c-1.6-1-3.1-1.6-4.1,0.5c0,0.1-0.1,0.2-0.2,0.2c-1.9,1.6-14.9,2.3-17,1
		c-0.4-0.2-0.7-0.6-0.6-1.3c4.9-0.4,9.8-0.8,15.1-1.3c-1-5-0.9-9.9,0-15.2c-4.1,0.2-8-0.7-12.1-0.1c-2.4,0.4-3.3,1.6-3.2,3.8
		c0.2,4.4-0.5,8.7-1.1,13c-1.9,0.2-2.2-1.1-2-2.1c1.1-5.7,0.8-11.6,1.8-17.3c0.1-0.6,0.4-1.3,1.1-1.5c1.5,0.3,0.3,1.9,1.9,2.7
		c5.2-0.9,10.9-0.8,16.9-1.1c-1.7,5.9-1.4,11.4-2.1,17.3c3.7-1.6,6.9-3.2,10.6-3.6c-1.3,1.8-3.9,1.4-5.3,3
		C550.8,426.3,551.1,426.3,551.6,426L551.6,426z"/>
	<path d="M966.7,676.6c20.2-9.3,40.7-17.6,60.8-26.7C1025.2,653.8,971.1,677.4,966.7,676.6z"/>
	<path d="M551.6,426.1c19.2-8.4,38.3-16.8,57.5-25.2c0.1-0.1,0.4,0.2,0.5,0.3c0.2,0.5,0,0.9-0.4,1.1c-10.9,5.9-22.3,10.5-33.6,15.4
		c-6.6,2.8-13.1,5.9-19.9,8.2C554.3,426.3,553,426.6,551.6,426.1L551.6,426.1z"/>
	<path d="M989.8,301.1c1.7-4.4,2.2-8.6-0.9-12.7c-2.8-3.7-6.1-5.3-10.8-4.4c7.9,5.5,9.1,13.6,2.3,18.1c1.6-3.6,3.6-6.7,1.9-10.4
		c-1.5-3.5-4.1-5.8-7.8-7.3c-1.2,0.7-2.7,1.6-4.1,2.4c1.5-2.8,4.1-4.1,7.1-4.6c6.4-1.1,10.9,1.7,13.9,7.1c2.4,4.3,1.8,8.4-1.4,12.1
		C990,301.3,989.9,301.2,989.8,301.1z"/>
	<path d="M1023.4,635.6c-0.9,1.2-1.5,1.3-2.2,1.5c-9.1,2.8-18.1,6-27,9.6c-5.4,2.1-10.2,5.3-15.7,7.4c-4.5,1.7-8.9,3.7-13.6,5
		c-0.6,0.2-1.2,0.6-2.4-0.3C982.7,650.3,1002,641.2,1023.4,635.6z"/>
	<path d="M604.9,387.9c-8.7,3.2-17.3,6.2-25.9,9.5c-5.6,2.2-10.6,5.6-16.3,7.6c-3.9,1.4-7.7,3.1-11.7,4.3c-0.6,0.2-1.2,0.5-2-0.1
		C567.4,401.3,585.4,392.6,604.9,387.9z"/>
	<path d="M609.8,626.4c-2.7,0.2-5.5,1.2-7.1-2c-0.8-1.6-0.4-3.1,0.9-4.3c1.5-1.4,3.3-1.5,5-0.5C611.6,621.3,610.2,624,609.8,626.4z"
		/>
	<path d="M216.1,379.9c-5.3,0.4-7.4-0.6-7.5-3.5c-0.1-2.3,2-4.2,4.4-4C216.2,372.7,217,374.6,216.1,379.9z"/>
	<path d="M203.7,371.8c2.3,0,4.2,1.7,4.2,3.8c0,2.1-1.9,4-4.1,4c-2.1,0-3.9-1.7-4-3.7C199.6,373.7,201.4,371.8,203.7,371.8z"/>
	<path d="M597.3,618.3c2.3-0.1,4.2,1.7,4.3,3.8s-1.9,4-4.1,4c-2.1,0-3.9-1.7-4.1-3.7C593.3,620.3,595.1,618.4,597.3,618.3z"/>
	<path d="M198.4,378.7c-2.1,0-2.1-1.8-3.3-2.2c-1.5-0.2-0.8,1.8-2.5,2c-0.5-2.4-0.3-4.7,0.5-7c1.5-0.7,2.8-0.3,4.1,0
		c1.7,0.5,2.6,1.9,1.5,3.3C197.5,376.1,197.8,377.3,198.4,378.7z"/>
	<path d="M592,625.2c-2.1,0.4-1.9-1.9-3.2-2.1c-1.5-0.1-0.7,1.9-2.1,1.9c-1-0.3-1-2.9,0.1-6.9c1.4-0.9,2.8-0.3,4.2,0
		c1.5,0.4,2.4,1.8,1.5,3.1C591.5,622.5,591.4,623.8,592,625.2z"/>
	<path d="M960,527.6c7,1.6,12.3,5.5,15.5,12C971,534.8,965.6,531,960,527.6z"/>
	<path d="M561.2,297.8c-2.4-2.3-4.7-4.8-7.4-6.8c-2.6-1.9-5.3-3.5-7.9-5.4C552.8,287.4,558.1,291.3,561.2,297.8z"/>
	<path d="M981.1,547.1c2.3,3.1,5.2,14.4,5.3,20.8C984.5,560.6,982.9,554.1,981.1,547.1z"/>
	<path d="M566.2,304.6c2.8,5.8,4,12.1,4.7,18.5C569,317,567.8,310.8,566.2,304.6z"/>
	<path d="M535.5,405.9c-0.2,3.1-2.7,1.9-4.3,2.5C531.9,406.3,534.3,407.1,535.5,405.9L535.5,405.9z"/>
	<path fill="#FFFFFF" d="M520,136.4c0.3,0,0.6,0.1,1,0.1c-0.4,0.6-0.8,1.2-1.5,0.4C519.6,136.8,519.8,136.6,520,136.4z"/>
	<path d="M990.1,301.4c-0.1,0.5-0.2,1.1-0.9,1.3c-0.4-0.8,0.1-1.1,0.6-1.6C989.9,301.2,990,301.3,990.1,301.4z"/>
	<path fill="#FFFFFF" d="M890.9,493.4c-4,0.7-8,1.4-11.9,2.1c-3.8,0.7-7.6,0-11.4-0.5c-4.2-0.5-8.5-0.7-12.8-0.8
		c-4.6-0.1-8.6-1.2-11.6-5c-1.6-2-3.7-3.6-6.5-3.9c-1-0.1-1.2-0.9-1.7-1.7c1.2-0.3,1.9,1.2,3.2,0.8c0.4-1.7-0.9-2.8-1.8-4
		c-1.8-2.2-3.2-4.5-2.9-7.6c0.2-2.2-1.3-3.9-2.5-5.9c1.2-3.8,4.5-6.2,7.4-9.6c2,4.9,3.5,9.5,5.7,13.9c2,4.1,3.1,8.8,6.7,12.4
		c0.5-0.8,0.6-0.9,0.6-0.9c-4.1-10.8-7.8-21.8-13.5-32c-2.9-5.1-4.7-10.7-6.8-16.1c-2-5.3-0.9-11.1-0.9-16.7c0-1.5,0.6-3.1-0.5-4.4
		c-1.2-0.7-1.3,0.6-2.1,1c0-1.8,0.1-3.6-0.6-5.1c2-2.6,3.7,0.9,5.7-0.2c1.2-3.4-2.4-4.1-3.8-6.1c-0.7-1.9,1.1-4.2-0.7-6.3
		c-3.5,2.5,0,5.6-0.9,8.6c-1.9-3.4-4.2-6-3.6-9.8c0.2-1-0.1-2.3-0.6-3.3c-2.5-4.8-2.7-10.2-4.3-15.2c-1.2-3.7-0.3-7.4,0.1-11
		c0.8-7.4,1.9-14.7,2.9-22c0.3-2,0.5-4-0.5-6c2.1-2.3,4.5-4.4,6.3-7.4c0.8,1.3,0.8,2.3,1,3.4c0.1,0.9-0.1,1.9,0.2,2.7
		c3.3,7.3,1,15.1,1.9,22.6c0.2,1.6-0.6,3.1-1,4.6c-1.4,5.2-3,10.4-1,15.8c-0.3,0.3,0.1,0-0.2,0.2c-0.1,0.1-0.1-0.1,0.1-0.3
		c1.2-0.2,1.8-0.9,1.5-2.1c-1.4-7.7,1.4-14.8,2.8-22.2c1.1-5.9,1.6-11.6-0.5-17.5c-1.1-3.2-2.2-6.9-0.5-10.5c0.2-0.5,0.2-1.2,0-1.6
		c-1.2-1.8-0.6-3.5,0.3-5c3.8-5.9,4.6-12.8,6.5-19.3c1.9-6.6,2.7-13.4,2.1-20.2c2.3-0.8,4.3-1.3,6,0.6c0.9,1,2.2,0.2,3.2,0.7
		c1.1,0.5,2.5,0.1,3.3,1.4c-0.4,6.4-2.4,11.9-8.3,15.4c-4.2,2.5-6.4,6.5-6.4,11.5c-0.1,0.2-0.2,0.3-0.2,0.3c0.1,0.3,0.3,0.3,0.5,0
		c1.7,0.1,1.7-1.2,1.9-2.2c0.6-3.1,2.5-5.2,4.9-7c1.7-1.3,3.7-2.1,5.2-3.7c0.9-0.9,2.1-0.6,3.2-0.5c23.6,0.4,47.2,0.9,70.8,1.4
		c1.1,0,2.2-0.1,3.1,0.9c0.4,0.5,1.2,0.6,1.8,0.8c4,1.3,6.2,0.7,7.3-1.8c1.9-4.3,1-7.4-2.8-9.4c-1.7-0.9-3.3-1.8-4.6-3.8
		c6.1-1.6,10.5,3.7,15.8,3c0.3,4-1.3,7.8,1,11.5c-0.3-3.4,1-6.6,0.7-10.1c1.9-2.4,5,0.4,7.2-2.1c0.9,4.8-0.5,8.8-1.5,12.7
		c-0.7,3-2.3,5.8-3.4,8.8c-0.9,2.2-1.5,4.5-0.6,6.9c0.2,0.5,0.2,1.1,0,1.6c-3.8,10.6-3.7,21.6-3.8,32.6c-0.1,7.2-0.2,14.3-0.2,21.5
		c0,8.1-1,16.3-4.9,23.8c-1.7,3.2-2.4,6.6-2.3,10.4c0.1,7.2-0.4,14.3-1.4,21.4c-5.5-0.8-9.8,2-10.9,9c-3.1-6.2-7.7-10.3-14-12.7
		c4-5.9,2.5-12.9,4.2-19.1c0.7-2.5,0.4-5.4,3.7-7.4c-2.6-0.7-2.3-2.3-2.3-4.1c-2.4,1.4-3.2,3.5-3.9,5.5c-1.5,4.5-2.5,9.3-1.5,13.9
		c0.9,3.8-0.9,6.6-1.9,9.7c-1.4,0.3-2.2-0.4-3-1c-7.5-5.1-15.9-7.8-24.8-8.9c-1.9-0.2-3.8-0.4-5.6,0.4c-0.4,0.2-1,0.5-1.3,0.3
		c-3.3-1.7-6.6-0.5-9.5-0.2c-4.4-2.4-6.4-6.5-8.9-10.1c-1.7-2.5-1.6-5.9-1.5-8.8c0.2-10.2-2.9-19.6-5.9-29.2
		c-3.4-11-6.3-22.3-7.5-33.8c-0.4-3.5,0.2-7.2-0.8-10.7c-0.4-1.2-0.6-2.5-1.6-3.6c-1,0.6-0.8,1.5-0.8,2.2c0.3,11,2,21.8,4.5,32.6
		c2.2,9.5,4.7,18.9,7.7,28.2c1.1,3.5,1.2,7.3,1.4,11c0.2,3.8,1.3,7.5,1.5,11.3c0.1,2.6,2.5,4.5,4.1,6.4c7.6,8.7,12.3,18.7,13.6,30.2
		c0,0.4,0.3,0.8,0.6,1.5c2.1-1,4.8,1.2,6.2-1.3c10.8,1.1,16.1,9,21,16.9c1.9,3.1,1.9,7.4,1.7,11.3c-0.4,6.3-0.8,12.5-2.4,18.6
		c-0.6,2.4-2.6,3.8-4.5,5.3C893,491.9,891.6,492.3,890.9,493.4L890.9,493.4z"/>
	<path fill="#FFFFFF" d="M780.3,296.6c1.1,7.2,4.6,13.5,8,19.8c1.5,2.8,3.6,5.1,5.8,7.5c3.5-2.8,6.1-6.1,7.5-10.2
		c0.8-2.5,0.5-5-0.8-7.2c-2.1-3.5-4.8-6.5-8.2-8.8c-2.9-2-6-3.9-9.3-6.1c0.5,2.3,1.6,3.5,3.2,4.5c3.6,2.5,7,5.2,9.8,8.6
		c3.8,4.7,3.9,7.8,0.1,12.6c-0.7,0.9-1.4,2-2.9,2.6c-5.4-9.2-10.8-18.4-12.8-30.5c1-2.5,2.2-6.3-1.7-9.9c-3.4-3-7.2-2.6-11.7-1.8
		c2.5-3.8,5.2-3.4,8.2-2.7c7.3,1.5,7.4,7.3,7.5,13.6c2.9-5.3,1.4-11.8-3.2-14c-6-2.9-10.8-3.7-14.7,2.7c-15.2-0.8-30.5-1.6-45.7-2.4
		c-0.9-1.3-0.5-2.5-0.2-3.4c2.8-8.4,6-16.7,11.9-23.5c3.6-4.1,8.4-7.1,12.5-10.7c7.7-6.7,16.7-9.9,26.8-11.4c11.7-1.7,22.8,0,33.3,5
		c6.1,2.9,11,7.4,14.3,13.3c2.6,4.5,5,9,7.7,13.4c3,4.9,3.8,10.7,4.5,16.4c0.2,1.7,0.2,3.4,0.6,5c0.5,2,0.5,3.8,0,5.9
		c-1,3.7-0.4,7.6-0.9,11.4c-0.2,2-0.5,4-1.2,5.8c-2.6,6.9-6.6,13.2-9.4,20.1c-1.9,4.7-6.5,7-10.4,9.8c-5.8,4.1-11.3,9-18.3,11.1
		c-9.5,2.9-19.2,4.7-29.2,3.1c-11.4-1.8-20.2-8.3-27.4-17c-3.1-3.7-6.3-7.3-8.8-11.5c-4.4-7.2-8.8-14.3-8.8-23.6
		c16.1,0.3,32.2,0.6,48.3,0.9c1.2,2.4,2.6,4.4,5.4,5.2c-3.2,4.3-5.1,9-7.5,13.4c-2.5,4.8-3.6,9.9-4.1,15.1
		c-0.5,4.9,1.8,8.9,5.4,12.2c2,1.8,5.2,1.2,7.7-0.8c1.8-1.5,2.8-3.5,3.4-5.7c2.3-8.5,2.5-17.1,1.3-25.7c-0.3-2.5-2.4-4.6-1.4-7.4
		c0.1-0.4,0.2-0.9,0.3-1.5C777.9,300.2,780.2,299.6,780.3,296.6L780.3,296.6z"/>
	<path fill="#FFFFFF" d="M756.4,456.1c1.8,0.7,2.9-0.8,4.3-1.5c-0.6,3.7,2.3,5.7,3.7,8.5c-0.3,1-1.8,0.1-2.2,1.5
		c0.3,2.2,3.8,1.3,4.2,3.7c-0.2,0.7-1.6,0.1-1.7,1.4c2,2.1,6,2.5,6.2,6.6c2.7-1.1-0.9-4,2.1-4.9c0.1,0,0.5,0,0.7,0.2
		c2.7,3.9,7.2,4.3,11.2,5.4c2.7,0.7,4.9,2.1,7.4,3.8c-1.3,0.4-2.2,0.7-3.4,1.1c0.1-2.1-0.8-3.1-2.9-2.8c-1.6,0.2-2.9,0-4.4-1.4
		c-2.2-2.1-2.7,0.8-3.8,2.1c0.7,1,1.3,1.8,2,2.7c1.2,0.5,2.5-0.1,4.3,0.4c-5.3,2-10.1,3.7-14.9,5.5c-2.7-1.2-5.4-2.1-8.4-2.5
		c-2.9-0.4-4.9-2.3-5.9-4.9c-1.9-5-4.6-9.5-7.6-13.8c-5.3-7.7-5.1-15.5-1.8-23.7c0.7-1.8,1.6-3.5,2.3-5.2c0.5-1.2,0.5-2.4-1.7-2.7
		c0.8,2.1-0.4,3.6-1.1,5.2c-2.9,6.4-5.1,13-2.5,20.2c0.7,1.9,1.6,3.7,2.6,5.5c3,5,6.2,9.9,8.4,15.3c1.4,3.4,4.2,5.8,7.8,6.9
		c1.4,0.4,2.8,0.7,4.2,1.7c-0.2,1.3-2.1,2.1-1.5,3.8c0.9,0.8,1.8-0.7,3.1,0.1c0.5,3.6,1.1,7.4,1.7,11.2c-1.6,0.7-3.2,0.8-4.5,0.2
		c-3.5-1.9-7.2-1.7-10.8-1.7c-7.1,0-14.3,0-21.3-1.2c-0.1-0.7,0.2-1.3,0.5-1.3c8.5-0.8,17.1-1.5,25.6-2.3c1-0.1,1,1.2,2.3,1
		c-0.1-2.3,3.7-1.9,3.6-4.9c-1.3-0.3-3,0.9-3.6-1.6c-1.8,2.8-4.2,2.9-6.5,3.1c-4.4,0.3-8.7,0.5-13.1,0.8c-1.8,0.1-3.6-0.2-4.9,1.5
		c-0.5,0.7-1.5,0.3-2.2,0.4c-4.9,0.5-9.8,1.1-14.7,0.5c-1.3-0.2-2.7-0.1-4,0.3c-9.4,2.7-18.5,0.3-27.6-1.7c-1.9-0.4-3.7-0.7-5.6-0.2
		c-5.8,1.4-11.6,2.7-17.5,3.2c-1.6,0.1-3.1,0.5-4.6,1.5c-3.4-6-6-12.2-8.3-18.7c2.2,2.9,4.5,5.8,6.7,8.6c0.6-0.2,0.7-0.5,0.6-0.8
		c-6.2-7.8-8.1-17.2-9.6-26.6c-1.4-8.3-2.1-16.7-2.4-25.1c0-0.6,0.1-1.1,0.1-1.6c2.5-2.1,5.8-2.2,8.6-2.8c9.9-1.9,19.7-4.3,29.9-4.2
		c3.5,0,6.8,1.2,10.3,1.6c4.7,0.5,9.4,0.2,14.1,0.2c1,0,2,0.5,3.2,0.3c0.7-1.3,2-1.8,3.6-2.3c4.6-1.2,9.5-1.7,13.6-4.5
		c1.3-0.9,3-1.5,4.7-0.3c7.7-7.8,16.8-11.2,27.9-8.2c-2.2,1-4,2.5-6.5,2.2c-1.3-0.1-2.4,0.5-3.4,1.2c-4.4,3-9.1,5.3-14,7.4
		c-2.1,0.9-3.8,2-3.2,4.7c0.3,1.2-0.6,2.2-1.3,3c-3.4,3.8-3.5,8.2-2.3,12.7c1.5,5.3,3.3,10.5,4.9,15.7c1.3,4.1,0.5,8.5,1.4,12.6
		c0.5,2.1,0.8,4.2,2.2,5.9c1.7,2.1,3,2.5,7.2,2.1c0.1-0.7-0.3-1-0.8-1.3c-4.3-2.3-6.1-6.3-5.4-10.7c1.2-7.8-1.7-14.6-4.3-21.5
		c-0.7-1.8-1.3-3.6-1.8-5.4c-0.8-3-0.6-5.7,1.5-8.2c1.4-1.6,2.4-3.5,2.4-5.7c5.2-2.8,10.3-5.3,15.2-8.3c3.2-1.9,6.6-3.6,9.8-5.5
		c1-0.6,1.9-0.7,2.9-0.5c2.8,0.5,5.7,1,9.3,1.7c-6.9,4-13.9,6.5-19.5,11.6c1,1.3-0.8,2.1-1.4,3.3c-0.4,1.2,1.2,1.6,1.2,2.5
		c-0.6,1.3-2.5,1.3-2.7,3c1.1,1.2,2.4,0.6,3.6,0.4c0-1.4,0.1-1.6,1.2-2.7c0,2,0,3.9,0,5.7c-2,0.9-2.9,3-4.5,4.3
		c0.5,1.5,2.1,1.1,2.7,2.1c-0.6,1.1-2.1,1.4-2.5,2.7C754.6,454.8,756.2,455.1,756.4,456.1c0,0.4,0,0.7,0.1,0.8
		C756.4,456.8,756.4,456.5,756.4,456.1z"/>
	<path fill="#FFFFFF" d="M610.1,458.6c0.4,1.7,0.7,3,1.2,4.9c1.4-2.6,1.8-4.7,1.6-7.2c8.7-7.1,18.5-12.1,30.4-14
		c-0.2,12,1.9,23.7,4.7,35.1c-3.5,2.2-7.1,1.5-10.5,2.8c2.5,1.6,3.8,1.6,9.8,0c0.5,0.8,0.4,1.4-0.6,1.8c-1.6,0.5-3.3,0.7-4.9,1.1
		c-2.9,0.7-4.8,2.3-5.8,5c-0.4,1-1.4,1.4-1.6,2.3c0.1,4.7,0.9,9,2,13.4c1.3,5,1.1,10.2,1.3,15.4c0.3,11.2-3,21.7-7,32
		c-3.1,8-4.6,16.4-5.4,24.9c-0.6,5.8-0.4,11.7-0.6,17.6c-1.8,1.6-4.2,2.7-5.1,5.9c-1.1-3.8-1.9-6.9-2.8-10c-1.4,2.7-0.8,5.4-0.7,8.6
		c-4.8-1.1-9.1-2.7-13.6-4.3c3.1-12.8,3.1-25.6,2.4-38.4c-0.4-6.3-2.1-12.4-2.3-18.7c-0.4-14.4-0.2-28.7,1.5-43c0.2-2,0.3-4,0-6
		c-1.3-7.5-1.1-15,0.5-22.4C605.1,462.5,607.4,460.5,610.1,458.6z"/>
	<path fill="#FFFFFF" d="M890.8,493.5c1.6,0.6,3.3,1,4.9-0.7c1,2.1,2.6,1.8,4.1,1.4c5.4-1.2,10.7-2.5,15.5-5.4
		c1.3-0.8,2.7-0.9,4.1-0.9c6.7,0,13.4,1.3,19.8,0.6c1.2,0.6,0.3,1.4,1.1,2.3c4.5,1.8,9.9,2.1,14.9,3.3c3.6,0.9,7.5,0.5,10.9,2.8
		c1.5,1,3.7,0.5,5.6,0.5c1.4,0.1,2.9,0.2,4.6,0.2c0.1,5.4-1.3,10.5-0.7,15.6c-1.1,1-2.4,1.5-3.3,2.7c-1.8,2.4-5.1,1.7-7.5,3
		c-1,0.6-1.9-0.8-2.8-1.7c1.2-3.3,1.4-6.6-1.6-9.3c1.5-2.8,2.7-5.6,1.3-8.2c0.3-1.6,1.6-1.8,2-3.1c-1.1-0.6-2.5-0.5-3.3,0.2
		c-1.3,1.1-2.6,1.1-4,1.2c-11.8,1-23.5,0-35.3-0.6c-6.8-0.3-13.7-0.1-20.5,0.2c3.7,1.5,7.7,0.5,11.7,1.2c0.5,5.1,0.1,10.2,2.5,15
		c-0.4-5.2,0-10.3,0.3-15.5c9.4,1.2,18.6,1.1,27.9,2c0.4,1.1,0.9,2.2,1.3,3.3c0.8-1-0.3-2.2,0.3-3.2c8.9-1.2,13.4-1.1,14.5,0.4
		c-0.6,0.9-1.7,0.4-2.5,0.7c-0.7,0.3-1.5,0.3-2,0.4c-1.1,0-0.7-1.3-1.7-1.1c-1.6,0.9-0.4,11.3,1.7,14c0.1-3.9-1.1-7.6-0.9-11.5
		c1.8-0.6,3.6-0.7,5.3-0.2c1.5,2.8-2.1,2.4-2.4,4.1c0.7,0.8,1.6-0.2,2.5,0c1.1,2.3,0.1,4.5-0.8,6.3c0.1,1.3,0.9,0.3,1.3,0.7
		c0.1,1-0.2,2-0.8,2.9c-4.2-0.4-8.5,0.2-12.7,0.4c-4.3,0.2-8.5,0.1-12.8-0.8c-1.8-3.5-0.9-7.5-2.3-11.1c-1,3.4-1,6.9-0.2,10.6
		c-1.8,0.6-3.5-0.5-5.5-0.1c1.1,1.3,3,0.3,4,1.9c-18.4,0.2-36.3-3.7-54.4-4c-18.1-0.3-36-3.2-54.2-2.9c0.1-2.3,0.6-4.2-0.2-6.4
		c-1.4,1.9-0.1,4.2-1.3,5.9c-16.1,0.6-31.7-3.6-47.9-4.8c0.6-4.5,0.5-8.9-1.1-13.5c5.7,0.8,11-0.1,16.2,1.6c0.6,2.8,1.2,5.4,1.8,8.1
		c0.3,0,0.5-0.1,0.8-0.1c0.2-2.5-0.5-5.1,0.1-8.1c5.2-0.3,10.4-1,15.8-0.7c-5-2.2-10.3,0.2-15.4-0.5c-5.1-0.7-10.1-1.6-15.4-1.7
		c3.8-1.5,7.6-3,11.3-4.6c5.2-2.3,10.4-3.8,16.2-1.8c2.1,0.7,4.7,0.5,7,0.2c8-0.9,14.9,2.6,22,5.2c1.9,0.7,3.8,1.4,6.1,2.4
		c-6.3,1.1-12.3,1-18.6,1.3c7.4,2.1,14.4,2.3,21.3-0.4c1.9,0.1,3.6,0.6,5.3,1.6c3.2,1.9,6.9,2.1,10.4,2.2c7.6,0.3,15.2,1.3,22.9,1.9
		c1.2,1.3,1.4,3.2,2.3,4.8c0.9-1.7,0.2-3.3,0.5-5.1c2.3-0.9,5-1.4,7.3-2.6C889.2,495.6,890.6,495.1,890.8,493.5L890.8,493.5z"/>
	<path fill="#FFFFFF" d="M809.9,481.8c-1.5-3-4.2-3.4-7.1-3.1c-4.2,0.5-7.8-0.8-11.4-3c-4.1-2.5-8.6-4.5-12.2-7.8
		c-4.3-4-7.7-8.7-8.7-14.7c6.9,8,13.2,16.7,22.6,22.2c0.5,0.3,1,0.5,1.8-0.2c-6.1-3.8-10.6-9.2-15.5-14.2c-3.2-3.2-6.1-6.6-9.1-10
		c-1.4-1.5-1.3-3.5-1.5-5.4c-0.1-1,0.6-2.2-0.6-3.6c-2.7,5.5-0.5,10.5,0.8,15.3c1.4,5.2,5.4,8.8,9.5,13c-10-4.5-14.9-11.8-15.7-22.1
		c-0.3-4.3-0.6-8.5,0.3-12.7c0.2-1.1,0.6-2.2-0.9-3c-1.6,0.9-2,2.5-2.3,4c-1.1,0.4-1.5-0.4-2.5-0.7c3.9-3.9,8.6-5.9,13.7-9
		c-1.7,8.2-0.9,15.4,2.6,22.3c-2.3-7.5-2.6-15.1-1.1-22.9c1.5-1.5,3.2-2,5.6-1.9c2.7,0,5.5-1.1,8.2-1.7c7.6-1.8,15.1-4.2,23-5.1
		c2-0.3,3.8-1.3,5.4-2.5c3.2-2.3,6.7-4,10.8-3.3c1.6,2.9,2.1,5.7,2,8.8c-0.4,11.8,2.9,25.2,9.9,34.6c0.2,0.9-0.7,1.1-0.9,1.6
		c-0.3,0-0.6,0-0.7-0.1c-1.4-1.8-2.9-1.5-4.4-0.2c-2.6,2.1-3.6,4.7-3.5,8.2c0.1,4.9,2.6,9,3.2,13.5c0.9,6,4.3,9.3,9.3,12.4
		c-5.9-0.3-10-4.2-15.1-5.3C820.3,484,815.5,481.5,809.9,481.8z"/>
	<path fill="#FFFFFF" d="M648.1,484.9c2.4,6.9,4.7,13.7,9,19.7c3.3,0,6.5-1.2,10.1,0.3c-2,5.3-0.3,10.8-0.8,16.2
		c-0.2,1.7,0.3,2.9,2.7,1.9c-1.9,3.8-3.6,7.7-4.9,11.8c-1,3.2-1.6,6.4-1.3,9.6c0.5,6.2-0.1,12.3-0.1,18.5c0,7.3-0.2,14.6,1.8,21.5
		c-0.7,1.1-1.6,0.9-2.3,0.8c-2.1-0.3-3.7,0.7-5.1,2.1c-1.9,1.9-3.8,3.9-5.5,6c-1.5,1.9-3.4,2.9-5.7,3.3c-4.8,0.7-8.8,3.1-12.6,6
		c3-0.2,6.3,2,8.8-1.8c0.7-1.1,2.2-0.9,3.2-1.3c1.3,0,1.4,1.6,2.5,1.7c1.4-0.2,0.3-2,1.5-2.3c1.3,0,1.4,1.7,2.9,1.9
		c2.2-0.3,1.8-2.5,2.2-4c0.7-0.3,1.4,0.4,2.1-0.2c1.5-1.5-0.1-3.6,0.6-5.8c1.5,4.2,4.1,7.5,3.5,12c-0.4,3-0.1,6-0.1,9
		c-1,1.2-2.3,1.4-3.5,1.6c-1-0.3-0.5-1.7-1.8-1.7c0.1,0-0.2-0.1-0.3,0.1c-2.9,3.6-6.7,3.1-10.5,2.1c-1.8-0.5-3.7-1.1-5.5-1.4
		c-1.4-0.3-2.7-0.2-3.5,1.4c1.1,2.3,3.7,1.7,5.5,2.8c-1.8,1.4-4,1-5.8,1.7c-1.5-6.7-3-13.1-2.7-19.7c0.1-1.8-1.1-3.1-2.6-4.1
		c-0.8-0.6-2-0.5-2.9-1.7c0.5-11.3,0.9-22.7,4.4-33.9c2.9-9.2,7-18,8.3-27.7c1.6-11.9,1.5-23.7-2.3-35.2c-1.9-5.6,1.4-10.4,7.3-10.7
		C645.6,485.2,646.6,485,648.1,484.9z"/>
	<path fill="#FFFFFF" d="M952.2,422c1.6-0.2,2.8,0.5,4,1.4c1.4,1.1,2.8,2.2,4.3,3.3c1.5,1,3,1.9,4.7,3c-0.9,1.2-2.1,1.6-3.6,1.9
		c-4.3,0.7-5.8,3.3-3.6,6.9c1.8-2.2,3.7-4.2,5.8-5.9c3.6-2.9,6.2-3.2,10.2-0.5c-0.5,1.8-1.1,3.7-1.7,5.7c-1.1-1.3,0.5-2.7-0.6-4.1
		c-1.9,0.3-1.6,2.1-2.4,3.4c-1.7-0.7-2.4,0-3.2,1.8c-1.1,2.6-1.1,5.4-2.3,8.1c-1.8,0.3-3.4,1.3-4.5,3.2c-1,1.6-3,2.4-4.7,3.1
		c-3.4,1.4-6.5,3.9-10.5,2.2c-0.1,1.8,0.3,2.7,0.9,3.8c2.7,0.4,4.9,2,6.7,3.6c1,0.3,1.3-0.7,2-0.6c0.9,0.8,0.5,1.7-1.2,3
		c0.1,1.6,1.6,2.4,2,3.4c-1.5,1.7-2.8,3.3-4.2,4.8c-6.3,0.4-9.5-3.4-11.6-8.8c0.6-1,3.1-0.6,2.9-3c-2.4-0.6-3.9,1-6.3,2.3
		c3.4,2.5,2.6,7.2,7,9.6c-7.6,4.1-15.2,6.5-23,8.9c0.4-1.7,2-2.6,1.8-4.2c1.8-0.7,2.3-3.1,4.1-3.3c-1.8,0.2-2.4,2.4-4,3.3
		c-3.7,1.9-6.8,4.7-10.4,5.9c-0.7,1.1,0,1.6,0.6,2.4c-2.3,0.8-4.3,1.4-6.9,2.3c3.8-7,3.7-14.3,5-21.3c0.9-5.2-0.7-9.4-2.2-13.8
		c-0.6-1.8-1.4-3.5-2.2-5.3c-1.9-4.3-3.3-8.7,0.8-12.7c-2.7-0.6-4.9,0.8-5.8,3.3c-1,2.7-1.3,5.3,0.4,7.9c1.5,2.4,2.9,4.8,4.2,7.3
		c2.5,4.8,1.5,10,1.4,15.1c0,4-1.3,8-1.4,12c-0.1,3.4-2.3,5.5-3.6,8.1c-0.3,0.6-1.2,1-2.1,0.8c1.5-3.4,5.2-6.2,2.2-10.7
		c2.4-5.8,1.6-12.4,2.7-19.9c-3.4-6.9-7.8-14.6-15.6-19.8c-0.7-0.5-1.6-0.8-2.5-1.1c-3.7-1.2-7.3-2.7-10.3-4.7
		c-1.4,0.7,0,1.7-1.4,2.7c-0.7-7.8-3.2-14.8-7.7-21c13.9-4.5,48.4,7.2,54.5,18.4c-2.8-0.1-5.3-1-7.9-1.3c-3.4-0.5-5.4,0.5-6.4,3
		c11.8-0.6,11.8-0.6,18.5,2.9c0.5,1.2,0,2.4-0.1,3.6c-2.1,1.8-2.1,1.8-2.6,4c1.3,0.1,1.9-1,3-1.5c1,1.2,0.9,3.7,2.8,3.5
		c2-0.2,2.1,2.3,4.1,1.9c-0.9-2.2-2.5-3.8-3.6-5.6c-0.6-0.9-1.2-1.9-0.6-2.7c1.3-1.9,0.7-3.9,0.7-5.9c-0.1-4.7,2.4-7,7.1-6.3
		c1.5,0.2,3.1,0.5,4.6-0.9c0,1.7-1.9,2.5-1,4.1c1.1,0.6,1.9,0.2,2.1-1c0.7-3.1,2.7-4.5,5.7-4.9c0.9,1-0.9,1.8,0.1,3
		c0.6,0.4,1.6,0.1,2.5,0.2c1.3-1.1,0.2-2.1-0.2-3.2C951.4,426.1,951.9,424.1,952.2,422L952.2,422z"/>
	<path fill="#FFFFFF" d="M690.8,587.1c-0.7,8.7,0.3,15.3,3.1,22.3c2-1.3,1.6-3.2,1.3-5.1c-0.4-1.8-0.8-3.7-0.9-5.6
		c1.6,2.1,2.7,4.3,2.6,7c2.3,1.3,4.5,1.3,6.9,0.8c2.8-0.7,5.7-1.1,8.6-1.8c1.6-0.4,2.8,0.1,4.6,1.2c-7.4,1.7-13.9,4.5-20.7,6.6
		c8.3-1.3,16.1-4.3,24.4-5.6c1.6,4.7,0.5,9.6,1.8,14.1c-3.1-1.7-6.2-0.6-9.2,0.2c-7.1,1.8-14,4-21.1,5.8
		c-15.1,3.9-30.4,6.9-45.4,11.3c-3.1,0.9-6.1,2.3-9.5,2.3c0-4.4,0-8.9,0-13.4c-3.1-2.3-7.3-2.2-11.5-4.3c8.4-1.4,15.7-4.6,23.5-5.1
		c3.9-0.3,7-2.5,10.1-3.5c8.7,1.7,17.1,2.5,25.4,0.1c2.8-0.8,4.5-3.4,7.6-3.7c-0.2-0.4-0.4-0.8-0.6-1.3c-3.7,0.5-7.3,1.5-11.3,2.8
		c-1.7-7.5-2.5-15-2.7-22.5C682.4,588.7,686.6,587.9,690.8,587.1z"/>
	<path fill="#FFFFFF" d="M710,292.1c5.9-5.1,6.1-7.5,0.9-14.6c2.5-0.7,4.9-0.6,7.2-0.4c13.1,1.2,26.2,1.4,39.3,2.2
		c5.5,0.3,11,0.6,16.5,0.9c4.2,0.3,5.6,2,5.6,6.2c0,1.5-0.5,2.8-0.9,4.2c-0.8,2.3-2.2,3.3-4.8,3.2c-15.5-0.4-31-0.7-46.5-1
		c-4.4-0.1-8.7-0.2-13.1-0.3C713,292.5,711.6,292.6,710,292.1z"/>
	<path fill="#FFFFFF" d="M853.1,295.4c2.1-3.6,2.1-7.2,3.1-10.6c1.3-0.8,2.8-0.4,4.2-0.3c21.6,1.1,43.3,2.2,64.9,3.4
		c3.2,0.2,5.6,2.4,8.4,3.5c0.6,1.9,0,3.6-0.1,5.6C906.9,296.5,880.3,296,853.1,295.4z"/>
	<path fill="#FFFFFF" d="M812.2,234.1c2.4,0.3,4.1,1.9,6.4,1.8c2.5,2.9,5.2,5.8,7.5,8.9c2.2,2.8,4,5.8,4.8,9.5
		c0.6,2.7,2.5,5,3.6,7.6c2.7,6.4,3.5,13.2,4.4,20c0.2,1.7-0.1,3.3-0.4,5c-1.4,6.4-2.2,13.1-4,19.4c-2.7,9.3-6.4,18.1-13.4,25.6
		c-7,7.6-15.9,10.4-24.8,13.6c-0.6-0.9,0.1-1,0.3-1.2s0.6-0.3,0.9-0.5c6-4,12.1-7.9,18-12.1c4.7-3.3,7.4-8.7,10.2-13.6
		c3.9-6.8,5.3-14.5,7.8-21.8c1.1-3.1,0-6.8,0-10.3c0-4.4,0-8.9-0.6-13.3c-0.5-3.3-0.5-6.7-2.9-9.3c-0.6-0.6-0.4-1.5-0.6-2.2
		c-1-3.7-2.2-7.2-3.8-10.7c-2.8-6-6.8-10.8-12.1-14.6C813,235.4,812.5,235,812.2,234.1z"/>
	<path fill="#FFFFFF" d="M762.5,331.9c-0.5,0.1-0.9,0.2-1.3,0.3c-0.1-0.2-0.4-0.4-0.3-0.5c1.7-3.9,0.3-8.5,2.5-12.3
		c2.5-4.3,3.6-9.1,6.1-13.4c1.6-2.9,3.9-5.7,3-9.5c1.8,2.6,1.8,2.6,1.3,5c-1.2,5.7-0.6,11.4,0.5,17c1.3,6.5-0.1,12.7-2.6,18.6
		c-0.9,2.1-2.8,3.3-5.2,2.9c-1.9-0.3-3.2-2.8-3.3-5.5C763.2,333.7,762.8,332.8,762.5,331.9z"/>
	<path fill="#FFFFFF" d="M990.7,497.6c-0.4,1.9,0,3.8,0.3,5.7c0.3,1.8,0.5,3.5,0.7,5.2c-4,4.1-9.7,2.9-14.5,5.5
		c-0.4-6.3,0.9-11.9,1-17.9c2.4,0.8,4.7-0.6,6.1,2.2c0.4,0.8,2,1,3,0.1c0.9-0.7,2-0.9,3.2-1L990.7,497.6z"/>
	<path fill="#FFFFFF" d="M689.1,564.2c-0.6,0-1.1,0-1.9,0c-2.6-15.1,0.9-28.9,8.5-42.7c0.7,3.6-0.4,13.9-1.7,17.1
		c-3.2,7.9-4.6,16.1-4.8,24.6C689.3,563.5,689.2,563.8,689.1,564.2z"/>
	<path fill="#FFFFFF" d="M705.7,276.4c2.3,1.1,4,3,5.7,4.7c2,2.1,1.8,4-0.1,6.4c-0.4,0.5-0.7,1.2-1.1,1.7c-2.3,2.9-5.9,3.5-8.6,1.5
		c-3.3-2.5-3.8-5.2-1.6-8.7C701.5,279.6,703.1,277.6,705.7,276.4z"/>
	<path fill="#FFFFFF" d="M670.4,519.7c0.6-5.1-0.3-10.2,0.1-15.7c6.5-0.3,12.6-4.7,19.7-0.9C681.9,506.8,675.9,512.8,670.4,519.7z"
		/>
	<path fill="#FFFFFF" d="M957.1,297.8c0-2.9,0-5.2,0-8c5.1,0,10.1,0,15,0.8c2,0.3,3.2,2,3.1,4.2c-0.1,2.1-1.6,2.9-3.4,3
		C966.9,297.8,962.1,297.8,957.1,297.8z"/>
	<path fill="#FFFFFF" d="M634.8,640c-4.1-3.2-8.4-3.3-12.6-4.3c-0.7-3.7-0.9-7.3-1.3-11.4c4.5,2.1,8.9,3.2,13.6,4.1
		C634.3,632.1,634.2,635.6,634.8,640z"/>
	<path fill="#FFFFFF" d="M612.8,606.5c-6.8-1.6-13.4-3.1-17.7-9.1c1.4-1.3,1.3,1.2,2.5,0.8c1-0.6,1.1-2.2,2.6-2.9
		c5.3,3.7,11.9,4.5,17.8,7.3C616.7,604.4,614.7,605.2,612.8,606.5z"/>
	<path fill="#FFFFFF" d="M923.4,484.8c6.7-3.5,11.6-3.3,15.6,0.9C934.1,485.4,929.1,485.1,923.4,484.8z"/>
	<path fill="#FFFFFF" d="M960.2,451.6c4.7-1,7.6-5.7,12.9-5.4C968.9,448.4,965.1,451.1,960.2,451.6z"/>
	<path fill="#FFFFFF" d="M1004.4,466.2c0.9,2.2,1.1,3.9-1.7,5c1.4-2,1.3-3.8,0.8-5.6c-0.4-1.4-0.2-2.7,1.6-3.3
		c0.9,0.3,1.3,1.1,1.7,2.3C1006.1,465,1005.4,465.5,1004.4,466.2z"/>
	<path fill="#FFFFFF" d="M688,579.8c-0.7-4.4-2.2-8.8-0.3-13.9C688.2,571,687.6,575.5,688,579.8z"/>
	<path fill="#FFFFFF" d="M979.2,447.6c2,1.5,4.2,0.6,6.5,0.6c-1.5,1.1-3,2.2-4.5,3.2c-2.9,0-1.6-2.4-2.2-3.7L979.2,447.6z"/>
	<path fill="#FFFFFF" d="M1001.3,447.5c-1.6-0.1-2.4-1-3.6-1.5c0.8-1.7,1.4-3.1,3.6-3.5C1001.3,444.1,1001.3,445.6,1001.3,447.5z"/>
	<path fill="#FFFFFF" d="M1004.7,458.1c0.8-1.7,1.1-3.1,1.4-4.6c1,0.5,1.8,0.9,2.9,1.4C1008,456.4,1007.8,458.6,1004.7,458.1z"/>
	<path fill="#FFFFFF" d="M833,457.5c-1.1,2.1-2.2,4.3-3.3,6.4C829,460.9,830.3,458.8,833,457.5z"/>
	<path fill="#FFFFFF" d="M990.6,497.4c0.5-0.6,1.1-1,2-1.1c2.1,2,0.6,3.9-0.1,6c-0.9-1.7-0.1-3.6-1.8-4.7L990.6,497.4z"/>
	<path fill="#FFFFFF" d="M974.9,459.1c1.6-1.1,3.1-2.6,5.5-1.2C978.8,460.2,976.8,459.5,974.9,459.1z"/>
	<path fill="#FFFFFF" d="M797.1,481c3,0,6-0.6,9,0.5C803.1,482.3,800.1,481.2,797.1,481z"/>
	<path fill="#FFFFFF" d="M780.4,296.6c-1.2-0.6-2.5,1.4-3.9-0.3c1.1-0.8,1.2-2.8,3.4-2.2C780.5,294.8,779.9,295.8,780.4,296.6
		L780.4,296.6z"/>
	<path fill="#FFFFFF" d="M987.2,476.3c-1.3-0.6-2.6-0.7-2.4-2.3c0.2-1.4,1.3-1.2,2.4-1.5C987.2,473.8,987.2,474.9,987.2,476.3z"/>
	<path fill="#FFFFFF" d="M979.1,453.1c-1.2,1.6-2.2,2.6-4.4,1.8C975.9,453.4,976.8,452.2,979.1,453.1z"/>
	<path fill="#FFFFFF" d="M968.7,477c0.7-0.3,1.3-0.4,2-0.2c0.1,2,0.1,2-2.1,3.4C968.6,479,968.7,478,968.7,477z"/>
	<path fill="#FFFFFF" d="M958.4,457.6c1.4-1.4,2.8-1.7,4-2.4c0.9,0.2,1.4,0.7,1.5,1.7C962.2,457.1,960.5,457.3,958.4,457.6z"/>
	<path fill="#FFFFFF" d="M999.9,455.6c0.6-1.9,1.6-3.1,3.9-1.8C1002.7,455.4,1001,455,999.9,455.6z"/>
	<path fill="#FFFFFF" d="M987.6,469.9c-1.6,0.6-3.2,1.6-5.4,1C984.1,469.6,985.8,469.2,987.6,469.9z"/>
	<path fill="#FFFFFF" d="M955.5,489.7c-1.7,0.1-3.4,0.3-5.1-0.7C952.6,487,954,489.1,955.5,489.7z"/>
	<path fill="#FFFFFF" d="M939.6,282.7c1.2,0.3,1.9,0.9,2.8,2c-1.4,0.4-2.5,0.6-3.5-0.1C938.5,283.8,938.9,283.3,939.6,282.7z"/>
	<path fill="#FFFFFF" d="M972,495.2c-1.7,0.1-3.5,0.6-5.3-0.8C968.8,494,970.4,494.5,972,495.2z"/>
	<path fill="#FFFFFF" d="M996.1,488.6c-0.6,1.9-1.4,2.9-2.5,3.8C993.2,490.6,994,489.5,996.1,488.6z"/>
	<path fill="#FFFFFF" d="M982.8,465c1-0.5,2-1.4,3.3-0.8C985.2,465.6,985.2,465.6,982.8,465z"/>
	<path fill="#FFFFFF" d="M690.4,575.3c-0.8-1.6-1.1-3.3-0.8-5.5C690.6,571.8,690.5,573.5,690.4,575.3z"/>
	<path fill="#FFFFFF" d="M992.9,429.3c1.1-0.5,2-1.6,3,0.2C994.8,430.4,994,430,992.9,429.3z"/>
	<path fill="#FFFFFF" d="M980.4,432.6c0-1.5,1-2.4,2.2-3.1c-0.4,1.3-0.6,2.6-2,3.4C980.6,432.8,980.5,432.7,980.4,432.6z"/>
	<path fill="#FFFFFF" d="M945.8,283.7c1.7,0.3,2.4,1,2.7,2.4C946.9,285.9,946.5,285,945.8,283.7z"/>
	<path fill="#FFFFFF" d="M968,474.4c-1.4,0.8-2.7,0.8-4.7,0.4C965.2,474.4,966.6,474.1,968,474.4z"/>
	<path fill="#FFFFFF" d="M979.1,447.7c-2.4-1.1-0.3-3-0.9-4.4c0,1.5,0.5,2.9,1.1,4.3L979.1,447.7z"/>
	<path fill="#FFFFFF" d="M965.1,487.6c1.1-0.9,1.9-0.3,3.3,0.2C967,489,966,487.8,965.1,487.6z"/>
	<path fill="#FFFFFF" d="M626.3,639c-1.9,0-2.8-0.5-4.6-1.2C623.8,637.5,624.8,637.9,626.3,639z"/>
	<path fill="#FFFFFF" d="M980.8,488.6c0.8,1.7,0.2,2.2-1.5,2.1C979.1,489.6,979.2,488.9,980.8,488.6z"/>
	<path fill="#FFFFFF" d="M771,295.8c-0.6,1.1-0.8,1.5-1.1,2c-1.1,0-1.6-0.6-1.9-1.6C768.8,295.4,769.6,296,771,295.8z"/>
	<path fill="#FFFFFF" d="M944.7,487.9c-1.3,0.1-2.1-0.4-2.9-0.9c0.2-0.4,0.3-0.8,0.6-1.3C943.4,486.1,943.9,486.9,944.7,487.9z"/>
	<path fill="#FFFFFF" d="M1001.3,475.7c-0.8-1.6-0.1-2.1,0.8-2.7C1003.5,474.7,1002.2,474.9,1001.3,475.7z"/>
	<path fill="#FFFFFF" d="M980.7,432.9c-0.7,0.8-1.5,1.6-2.4,2.5c0.1-2,0.1-2,2.1-2.8C980.5,432.7,980.6,432.8,980.7,432.9z"/>
	<path fill="#FFFFFF" d="M997.9,436.3c0.6-1.2,1.6-0.9,2.2-1.4c0.5,0.2,0.5,0.4,0.4,0.6C999.8,436.2,999.3,437.3,997.9,436.3z"/>
	<path fill="#FFFFFF" d="M993.5,436.1c-0.3,1.8-1.2,2.3-2.7,2.7C991.4,437.5,992.1,436.8,993.5,436.1z"/>
	<path fill="#FFFFFF" d="M937.9,479.3c-0.4,1.6-1,1.6-2,0.7C936.3,479.1,937,479.1,937.9,479.3z"/>
	<path fill="#FFFFFF" d="M942.3,478.2c-1.1,0.6-1.7,0.6-2.2,0C940.7,476.9,941.2,477.6,942.3,478.2z"/>
	<path fill="#FFFFFF" d="M966,469c0.8-1.2,1.4-1.3,2.2-0.2C967.5,469.4,966.9,469.2,966,469z"/>
	<path fill="#FFFFFF" d="M988.5,430.2c0.7-0.1,0.9,0.3,1.3,0.8c-0.4,0.7-1.1,1-1.8,1.1l0.1,0.1C987.8,431.4,988.5,430.8,988.5,430.2
		L988.5,430.2z"/>
	<path fill="#FFFFFF" d="M689.8,584.5c-1-0.5-0.9-1.1-0.6-1.7C690,583,690.2,583.5,689.8,584.5z"/>
	<path fill="#FFFFFF" d="M765.8,465.4c0.9,0.2,1.2,0.6,1.4,1.1C766.5,466.6,766,466.3,765.8,465.4z"/>
	<path fill="#FFFFFF" d="M1000.6,461.9c-0.2-0.8,0.2-1.2,0.4-1.7C1002,460.8,1001.7,461.3,1000.6,461.9z"/>
	<path fill="#FFFFFF" d="M982.2,461.6c-0.9-0.3-1.2-0.8-0.2-1.5C982.7,460.5,982.7,461,982.2,461.6z"/>
	<path fill="#FFFFFF" d="M988.6,430.1c-0.6-0.5-0.7-1,0-1.7C989.3,429.2,988.7,429.6,988.6,430.1L988.6,430.1z"/>
	<path fill="#FFFFFF" d="M987.9,432.1c0,0.6-0.5,0.6-0.9,0.8C987.1,432.2,987.4,432,987.9,432.1L987.9,432.1z"/>
	<path fill="#FFFFFF" d="M1002.5,438c0,0.8-0.2,1.1-0.7,1.3C1001.3,438.6,1001.6,438.3,1002.5,438z"/>
	<path fill="#FFFFFF" d="M966.2,481.6c-0.6,0.3-0.9,0.2-0.8-0.5C965.9,480.9,966.1,481.1,966.2,481.6z"/>
	<path fill="#FFFFFF" d="M964.2,485.3c-0.3,0-0.6-0.1-0.9-0.1c0-0.2,0.1-0.4,0.1-0.5c0.3,0.1,0.6,0.2,0.9,0.3
		C964.2,485,964.2,485.1,964.2,485.3z"/>
	<path fill="#FFFFFF" d="M441.2,232.7c-3.1,2-6.7,2.5-10.1,3.7c-2.8,1-5.5,1.7-7.9,3.4c-1.9-0.3-3.7-0.6-5.6-0.9
		c-1.8-3.3-2.9-6.5-2.4-10.7c1-8.9,1.5-17.9,1.1-26.8c-0.1-1.4-0.6-2.9,1.6-4.4c-0.8,10.4-0.2,20.3,2.5,30
		c-1.3-10.4-1.9-20.8-1.7-31.3c0.7-1.6,1.8-3.2,3.9-4.9c0.5,5.4,2,10,4,14.5s4.6,8.7,8.7,11.7c-5.7-8.5-10.6-17.4-11.7-28.2
		c3.6-1.9,5-6.5,8.8-9.1c12.1-0.6,24.5-0.5,36.3,1.7c0.1,0.1-0.2-0.3-0.6-1c16.1,0.5,29.2,7.4,41,17.4c-2.6,0.6-5-0.5-7.4-0.7
		s-4.9-0.2-6.5,3c3.5-0.2,6.5-1.1,9.6-0.7c3.1,0.4,5.6,2.1,8.2,3.2c0.6,1.3-0.1,2.3,0.1,3.3c-0.8,1.4-3,1.7-2.4,3.8
		c1.2,0.3,1.7-1.1,3-1c0.2,3.5,4.1,2.8,5.7,5.3c0.1-6.5,0-6.6-4.1-6.5c2.3-3.2,1-6.6,1.5-9.8c0.4-2.2,3.5-4.1,5.7-3.6
		c1.8,0.4,3.5,0.5,5.2-0.5c-0.1,1.4-2.3,2.3-0.5,4.3c2.4-1.9,2.5-6.6,6.9-6c0.6,0.8-0.8,1.5-0.2,2.5c0.8,0.6,1.8,0.1,2.6,0.4
		c1.2-1.2,0.1-2.1-0.1-3.1c1.6-1.9,3.3-3.9,1-6.5c-2.2,0.8-0.8,2.6-1.6,4.3c-4,0.5-7.7,3.1-12.5,2.7c-5.8-0.5-8.4,1.9-9.4,8.4
		c-2.1-4.2-4.7-7.1-8-9.5c2.7-7-3.8-9.2-7.4-13c1.8-0.9,2.2,0.7,3.2,1.1c3.4,1.3,5.7,0.3,6.6-3.3c0.2-0.9,0.5-1.8,0.4-2.7
		c-0.1-1.4-0.4-2.9-0.6-4.2c-3.5-2.6-4.1-2.9-6.8-2.6c1-2.6,3.5-2,5.1-2.9c2.1,0.9,3.7,2.5,6.1,2c0.6,2.9-0.2,6,2.9,8
		c0.2-2.1,0.3-3.9-0.2-6.1c3,1.6,3.8,4.4,5.5,6.6c1.8-2.6,1.7-2.7-6.7-9.7c3.7,0.3,6.3,2.7,9.4,2.6c0.9,1.3,1.7,2.5,2.5,3.8
		c2.3,3.7,2.2,6.4-0.8,9.7c-2.1,2.3-3.6,4.8-4.5,7.8c-0.3,1-0.8,1.9,0.2,3.4c1.9-2.4,2-5.6,4-7.6s3.3-4.5,4.5-7.5
		c4.4,0,8.9,0,12.7,0c4.9-4,2.7-7.4,0.3-10.9c-3.5-0.4-7-0.3-10.6-0.1c-4.3,0.3-8.4-0.9-12.6-1.8c-2.6-0.6-5.1-2.3-7.9-0.6
		c-0.4,0.2-1.5-0.3-2.2-1.1c1.1-5.3,4-9.8,6.6-14.5c0.8-1.4,1.6-2.6,0.7-4.5c4-1.3,6.2-4.4,8.8-7.2c7.4-7.8,16.8-10.9,27.4-10.2
		c3.5,0.2,7.2,0.2,10.4,2.1c0.5,0.3,1.1,0.6,1.6,0.5c4-1,6.6,1.5,9.4,3.5c1.3,0.9,2.4,2.1,3.8,2.8c7.8,4.1,11.1,11.2,13.2,19.2
		c0.2,0.8,0.2,1.6,0.6,2.2c3.7,5.5,2.9,11.6,2.1,17.6c-1,7.1-3.6,13.7-6.8,20c-0.6,1.1-0.9,2.6-2.8,2.6c0.5-1.7,2.9-2.4,2.3-4.4
		c-1-0.9-1.6,0.3-2.5,0.3c-0.4-2,2-3.8,0.6-6c-2.2,0.1-2,2.4-3.5,3.2c-1-1.7,0.9-4.1-0.8-5.7c-2.7,1.8-3,3.7-1.6,7.5
		c-0.4,0.8-1.1,1-1.9,1.1c-0.8-0.6-0.2-2.1-1.4-2.3c-1.7-1-3.4,2.1-4.7-0.4c-2.7,1-4.3,3.1-6.6,4.5c-3.3-0.9-6.7-2.6-10.3-0.8
		c-0.6,0.3-1.4-0.3-2.1-0.8c-2.8-2-5.8-3.9-8.6-5.9c-1.2-0.8-2.4-1.4-3.9-0.9c4.3,2.2,7.4,6,12.1,8c-1.1,1.3-2.2,1.7-3.7,1.9
		c-3.8,0.6-5,2.8-3.5,6.2c4.6-3.2,7.7-10.8,15.3-5.7c-0.5,1.8-1,3.4-1.4,5.1c-1.2-1,0.3-2.3-0.7-3.4c-1.7,0.1-1.5,1.8-2,2.6
		c-5.5,1.4-3.5,6.7-5.7,9.4c-5,5.2-11,8.3-18.3,8.7c-0.4,1.3,0.3,2.2,0.8,3.4c2.5,0.4,4.5,1.7,6,3.1c1.2,0.8,1.7-0.7,2.5-0.1
		c0.6,1.4-0.9,1.8-1.4,2.6c0.2,1.5,1.5,2.2,2,3.3c-1,1.1-1.9,2.2-3.2,3.6c1.7-4.3,1.5-5.5-1-7s-6.1-1.4-7.6,0.3
		c2,2.1,3.8,4.7,7.1,1.8c1.3,1.9-1,2.2-0.7,3.2c-1.1,0.5-1.8-0.8-2.7-0.3c-0.6,1.1,1,1.3,1,2.2c-1.3,0.4-2.3-0.5-7.9-7.4
		c0.3-0.8,1.1-0.8,1.8-1.2c0.6-0.3,1.1-0.7,1.1-1.5c-2.3-0.6-2.8-0.5-5.7,2.1c3.1,2,2.2,6.4,6.1,8.6c-7.1,4.3-14.7,6-22.3,9
		c0.7-1.5,2-2.1,2.3-4.1c-3.7,1.7-6.4,4.3-9.5,5.3c-0.9,1.1,0.1,1.5,0,2.4c-1.8,0.6-3.6,1.2-6.1,2c3.5-6.3,3.3-12.8,4.6-19
		c1.6-7.4-1.8-13.4-4.3-19.6c-1.5-3.9-2.4-7.4,0.6-11c0.1-0.1-0.1-0.4-0.1-0.6c-0.8-0.8-1.5-0.2-2.1,0.2c-3.2,2-4.3,6-2.9,9.6
		s4.3,6.3,5.2,10.2c1.1,5,0.7,10.1,0.3,15.2c-0.2,2.7-1,5.3-1,8c0,3.4-2.3,5.5-3.8,8c-0.2,0.3-0.8,0.4-1.4,0.1
		c0.8-1.4,1.6-2.8,2.3-4.3c0.4-1,1.2-2.3,0.6-3.2c-1.6-2.4-0.3-4.5,0.1-6.7c0.6-3.2,0.9-6.4,0.8-9.7c-0.1-1.2-0.3-2.5,1.3-3.2
		c-3.8-7.8-7.8-15.3-15.3-19.9c-4.2-2.6-9-4.1-14.2-2.5c-0.3,0.1-0.6,0.3-1,0.3c-9.3,0.2-15.1,6.6-21.4,12.2c-2.8,2.5-4.5,5.9-5,9.7
		c-0.1,0.8-0.2,1.5-0.5,2.3C434.8,229.7,436.9,232.7,441.2,232.7L441.2,232.7z"/>
	<path fill="#FFFFFF" d="M299.7,184.1c15.1-0.5,30.1-1,45.3-1.6c1.1,2.2,2.7,3.9,5.2,4.6c-3.4,5.1-5.2,10.7-7.5,16
		c-1.7,3.9-1.8,8.1-1.8,12.2c-0.1,4.1,2.3,7.5,5.4,10.1c2.7,2.2,7.3,0.4,9.2-3.3c1-2,1.4-4.3,1.7-6.5c0.9-6.9,0.8-13.9-0.6-20.8
		c-0.5-2.5-2.4-4.6-1.7-7.3c0.1-0.3,0.2-0.6,0.3-1.2c1.7-0.2,3.4-0.6,4.3-2.7c3.1,9.2,7.6,17.2,14.2,24.1c1.9-1.6,3.2-3.2,4.4-5
		c3.8-5.9,3.3-10-1.5-15.1c-3.2-3.4-7.3-5.5-11.3-7.8c-0.9-0.6-1.9-1-3.1-1.4c0.5,1.6,1.5,2.7,3,3.6c3.2,1.9,6.2,4.1,8.8,6.7
		c4.9,4.9,5.1,8.3,0.8,13.8c-0.4,0.5-0.9,1-1.7,1.9c-5.5-8.7-11.3-16.9-13.7-28.3c0.9-2.4,1.6-6-2.2-9.2c-3.4-2.9-7.1-1.6-11.1-1.1
		c1.9-2.9,4-3.4,6.9-3.1c7.3,0.8,8.2,6.2,8.5,12.7c2.5-6.4-0.1-11.9-3.7-13.2c-5.9-2.2-10.3-2.9-13.6,3.3c-14.5,0-29,0-43.7,0
		c0.1-6,2.8-11,4.8-16.2c2.3-6.3,6.4-11.3,11.5-15.4c3.8-3.1,7.1-6.8,11.2-9.6c4.3-3,8.9-4.9,13.7-6.1c6.7-1.6,13.6-3,20.6-2.1
		c9.6,1.2,18.7,3.6,25.9,10.8c1.7,1.7,3.3,3.3,4.5,5.4c2.2,4,4.8,7.8,7.5,11.6c3,4.3,3.8,9.5,5.2,14.5c1.8,6.4,0.9,12.8,1.1,19.3
		c0.1,5-1.3,9.6-3.4,14.2c-1.8,3.9-3.7,7.9-5,12.1c-1.1,3.6-3.9,6.2-6.9,8.5c-6.3,4.8-12,10.7-19.5,13.6c-8.7,3.4-17.9,5.4-27.3,4.4
		c-10.9-1.1-19.4-6.9-26.8-14.7c-4.8-5.1-9.6-10.2-12.7-16.4C302.4,195,299.1,190.3,299.7,184.1z"/>
	<path fill="#FFFFFF" d="M422.3,168.1c2.4,0.2,4.4,2.7,7.1,1.5c0.1-1.3-1.1-1.1-1.4-1.8c0-0.3,0.1-0.4,0.4-0.4
		c22.7,0,45.4-0.1,68.1-0.2c2.5,0,4.7,0.8,7.3,0.8c2.7-0.1,3.8,3.2,2.3,7.2c-24,0.8-48.2,1.6-72.6,2.4c0.9-4.8,0.8-5.2-2.6-7
		c-0.4,1.5,1,2.1,1.4,3.5c-0.1,1.4-1,2.5-2,3.8c-4.3,5.6-9.6,10.4-13.6,16.2c-1.6,2.4-2.4,5-2.4,7.9c0,3.9,0.3,7.9,0,11.8
		c-0.5,5.9,0.1,11.8-1.1,17.6c-0.4,1.8,0.4,3.3,0.8,4.9c1.4,5.6,4.2,10.6,5.6,16.2c0.4,1.8,1.6,3.4,0.2,5.3c-0.2,0.3,0,0.9,0,1.3
		c0.5,3.2,1.1,6.3,1.8,9.5c0.2-5.4-0.3-10.8,0.4-16.2c2.6-3,6.1-4.9,9.6-6.9c-3.7,0.6-7.1,1.9-10.2,4.5c-0.4-1.7-0.8-3.1-1.1-4.2
		c0.6-1.5,1.7-2.1,2.8-2.6c7.5-2.9,14.5-7.2,22.3-9.3c2.2-0.6,3.2-2.5,3.9-4.3c0.7-2,1-4.1,1.5-6.4c-2,0.7-2.2,2.3-2.7,3.5
		c-0.6,1.3-0.9,2.8-1.3,4.2c-1.9,0.6-3.5,1.5-5.5,1.6l0.1,0.1c-1.8-3.6-2.1-7.6-0.4-11c1.3-2.6,2.8-5.2,5.1-7.3
		c3.2-2.9,7-4.9,10.2-7.7c4.1-3.6,9-3.8,13.8-3.9c4.1-0.1,7.9,2.2,11,5.1c3.3,3.1,5.9,6.9,8.1,10.7c1.4,2.6,1.6,6.1,1.5,9.3
		c-0.2,6.3-0.8,12.5-2.2,18.7c-0.2,1-0.8,2.1-1.6,2.9c-5.8,6.3-10.8,13.6-19.6,16.4c-3.7,3.9-8.2,2.7-12.5,1.9
		c-5.2-0.9-9.2,0.8-13.4,3.7c-7.2,5.1-14.7,9.5-24,9.6c-3.7,0.1-7.3,0.8-10.9,2.1c-0.6,0.2-1.3,0.5-1.9,0.5
		c-5.7-0.9-11.7,0-17.7-1.4c0.9-2.3,0.4-4.3,0-6.4c-1.1-5.7-0.8-11.4-1.5-17.1c-1.3-10.5,2.6-20.3,3.8-30.5c0.3-2.1,1.7-3.3,3.7-4.3
		c8.6-4.1,14.2-10.7,16.4-20.1c0.1-0.5,0.3-1.1,0.6-1.6c3.4-5.9,3.8-12.6,5.2-19c1.1-4.8,1.7-9.7,1.3-14.9c2.4,0,4.4,0.2,5.9,1.7
		C423.7,169.5,422.5,168.7,422.3,168.1L422.3,168.1z"/>
	<path fill="#FFFFFF" d="M262.6,252.5c-1-1.6-2-3.1-2.9-4.8c-4.6-8.4-5.9-17.6-7-26.9c-0.7-6.2-1.6-12.5-1.5-19.4
		c16.1-3.7,32-8.6,48.8-3.9c3.8,6.7,8.3,13.1,13.8,18.7c-0.4,6.8-3.2,14.1,4.4,19c-1.6-5.2-3.3-10.4-2.2-16.4
		c3.7,3.9,8,6.6,11.9,9.6c5.4,4.2,11.4,5.8,18.1,5.8c13.8-0.1,27.3-1.8,40.3-7c0.3,3.4-0.5,6.4-1.5,9.1c-1,1.3-2.4,1-3.5,1.6
		c0.4,1.3,2.2,0.7,2.6,2.2c-2,0.1-3.8,1.1-5.7-0.9c-1.8-1.9-2.8,0.3-3.7,1.8c0.7,0.9,1.3,1.8,1.9,2.5c1.2,0.6,2.3-0.2,3.6,0.5
		c-4.6,1.7-9,3.3-13.5,5c-2.5-1-5.1-2-7.9-2.3c-2.7-0.3-4.3-2.2-5.6-4.5c-0.5-1-0.6-2.4-2.5-2.7c0.6,3.2,2.2,5.4,4.3,7.4
		c2.2,2.1,5.4,2.2,7.9,3.6c0.2,1.5-1.6,2-1.2,3.5c0.7,1.2,1.8-0.5,2.9,0.5c0.5,3.2,1.1,6.7,1.7,10.3c-1.4,0.8-3,0.8-4.2,0.2
		c-3.4-1.8-7-1.5-10.5-1.6c-6.6-0.1-13.2,0-19.8-1.6c4.3-1.1,8.6-2.2,13.2-1.9c4.5,0.2,8.9-1.3,13.6-0.3c0-1.9,3.3-1.6,3.4-4.3
		c-1.3,0-2.7,0-3.8-1.2c-1.2,1.8-2.8,2.4-4.7,2.4c-2.4,0-4.7,0.5-7.1,0.4c-6.8-0.3-13,2.7-19.7,3c-0.9,0-1.8,0.2-2.7,0
		c-3.6-0.5-7.1-0.6-10.7,0.4c-4.9,1.3-9.8,0.7-14.7-0.2c-3.4-0.6-6.9-1-10.2-2.1c-1.2-0.4-2.4-0.3-3.7,0c-5.8,1.3-11.6,2.7-17.6,3.1
		c-1.2,0.1-2.4,0.5-3.7,1.4c-3.3-5.6-5.6-11.5-7.8-17.5c2.1,2.7,4.2,5.3,6.2,8C262.2,252.8,262.4,252.6,262.6,252.5z"/>
	<path fill="#FFFFFF" d="M247.8,205.7c-0.1,11.4,1.8,22.3,4.6,33c-3.5,1.6-6.6,1.8-9.6,2.8c3.1,1.7,6,0.1,9.1-0.2
		c0.1,2-1.4,1.8-2.3,1.9c-4.1,0.6-7.2,2.1-9.1,6.3c-1.2,2.7-0.8,5-0.4,7.4c0.8,5.2,2.1,10.3,2.5,15.6c0.8,12.1-1.7,23.6-6.2,34.8
		c-4.3,10.7-5.5,21.9-5.9,33.3c-0.1,2.5,0,4.9,0,7.4c-1.8,1.4-4,2.5-4.9,4.9c-0.8-3.1-1.6-6-2.9-8.8c-0.8,2.5-0.4,5-0.3,7.9
		c-4.5-0.9-8.5-2.5-12.7-3.9c0.6-3.5,1.3-6.9,1.6-10.3c1-11,1.3-21.9-0.5-32.9c-2.7-16.9-1.4-33.8,0.1-50.7c0.2-2,0.3-4,0-6
		c-1.2-7-1.1-14.1,0.5-21c0.6-2.7,2.7-4.7,5.3-6.2c0.8,1.3,0.2,2.8,1.3,4.1c1.3-2.1,1.3-4.2,1.5-6.6
		C227.6,212.1,236.7,207.4,247.8,205.7z"/>
	<path fill="#FFFFFF" d="M445.7,271.8c1.6-2.1,3.2-2.7,5.7-2.3c4.1,0.8,8.3,1.9,12.6,1.1c1-0.2,0.9,0.8,1.7,1.1
		c0.5-1.1,1.2-2.1,2.6-2.4c2.4-0.6,4.5-2,6.7-3.1c0.5-0.3,1.2-0.5,1.3-1c1.6-4.9,6.9-6.8,8.8-11.6c1.8,1.3,3.4,1,5,0.6
		c4.9-1.2,9.8-2.4,14.2-5.2c1.2-0.7,2.3-0.7,3.5-0.6c6.3,0.2,12.5,1.1,19.1,0.6c-0.5,2.8,1.7,2.8,3.3,3.1c5.2,1.1,10.4,1.7,15.5,3
		c5.1,1.3,10.1,3.2,15.7,2.6c-0.2,5.3-1.1,10-1,14.8c-8.9,6.1-9.5,6.3-12.6,3.9c1-3.1,1.4-6.3-1.5-8.9c1.7-2.7,2.2-5.3,1.3-7.8
		c0.1-1.5,1.7-1.6,1.7-2.8c-0.9-0.7-2.1-0.5-2.7,0.1c-1.7,1.5-3.7,1.3-5.6,1.4c-10.3,0.7-20.6-0.3-30.9-0.6
		c-6.7-0.2-13.4,0-20.1,0.2c3.5,0.9,7.1,0.4,10.8,0.8c0.8,4.8,0.2,9.8,2.5,14.3c0-4.8-0.2-9.6,0.4-14.4c8.7,0.5,17.3,1.1,25.9,1.6
		c0.9,0.9,1.2,1.9,1.7,3.5c0.1-1.3,0.2-2.2,0.3-3.2c2-0.8,4.2-0.8,6.3-0.6c2.4,0.3,5-1.2,7.3,0.5c-2,0.6-3.9,2.3-6.2-0.3
		c-0.4,5,0,9.1,1.5,13.2c0.6-3.4-0.6-6.6-0.2-10.1c1.9-0.9,3.7-1.4,5.3,0.3c-0.3,2-2.2,1.7-2.7,3.1c0.6,1.1,1.6-0.3,2.4,0.3
		c0.9,2,0.1,4-1,5.8c1.9,0.9,1.2,2,0.6,3.2c-8-0.4-15.9,1.7-24.1-0.3c-1.8-3.1-1-6.8-2.2-10.2c-0.9,3.2-0.9,6.5-0.3,9.9
		c-1.6,0.7-3.1-0.5-4.7,0c0.5,1.2,1.9,0.1,2.5,1.4c-12,1.2-23.6-1.5-35.3-2.5C469.2,273.2,457.4,273.8,445.7,271.8z"/>
	<path fill="#FFFFFF" d="M292.9,341.2c-1.7,7.4,0.3,14.3,2.2,21.4c1.2-0.9,1.2-0.9,0.8-10.3c1.4,2.3,2.4,4.3,2.3,6.8
		c1.9,1.3,4,1.4,6.1,0.9c2.6-0.6,5.3-1.1,7.9-1.7c1.5-0.3,3.1-0.5,4.6,1.1c-6.7,1.5-12.8,4.1-19.1,6.2c7.7-1.4,15.2-4,23-5.4
		c1.2,4.3,0.9,8.6,1.2,12.8c-4.7-0.8-9.1,0.9-13.5,2.2c-11,3.2-22,6-33.2,8.5c-9.1,2-18.1,4.4-27,7.1c-2,0.6-4,1.1-6.4,1.4
		c0.2-4.4,0.4-8.5,0.6-12.5c-3.1-2.5-7.2-2.2-10.9-4.3c8.1-1.3,15.2-4.4,23-4.9c3.4-0.2,5.9-2.5,8.4-3.2c4.2,1,8,1.2,11.8,1.5
		c5.3,0.5,10.4-1.4,15.6-2c0.1,1.8-1.8,0.6-2.3,1.5c-8.2,1.9-16.7,2.2-24.9,4c-4.3,1-8.6,2.2-12.8,3.4c12.2-4.4,25.1-4.9,37.6-7.3
		c0.4-1.1,2.5,0.3,2.3-1.5c-0.3-0.3-0.8-0.5-0.7-1c0.9-1.7,3.6-0.4,4.4-3.2c-3.8,0.3-7.1,1.5-10.9,2.5c-1.7-7-2.2-14-2.6-21.1
		C284.9,343.1,289.1,343,292.9,341.2z"/>
	<path fill="#FFFFFF" d="M277.4,340.6c-2.4,0.2-4.7-0.4-6.9-0.6c-1.9-5.9-1.9-11.7-1.8-17.5c0.1-7.3-0.7-14.6,0.1-21.8
		c1.7-16.6,10.5-28.5,25.6-35.8c1.8-0.9,3.8-1.1,5.9-0.8c3.7,0.6,7.3,1,11,0.4c1.4-0.2,2.7-0.1,4,0.2c2.1,0.5,4.3,0.6,6.4,0.3
		c7.9-1.1,15.6,0.5,23.4,1.4c1.3,0.1,2.7,0.1,4,0.1c11.5,0.3,22.8,2.1,34.1,3.4c0.7,2.6,1.1,5,1.1,7.7c-10.6-0.7-20.9-0.3-31.3-1.9
		c-14-2.2-28-3.3-42.2-2c-5.4,0.5-10.9,0-16.3,1.9c-7.2,2.6-12.2,7.1-15,14.3c-4.3,11-4,22.4-3.3,33.8c0.3,4.5,0.8,8.9,1.4,13.4
		C277.8,338.3,277.6,339.4,277.4,340.6L277.4,340.6z"/>
	<path fill="#FFFFFF" d="M355.4,180.3c-20.2,0.7-40.8,1.4-62.3,2.1c4.9-5.1,5.9-9.8-0.3-14c5.2-1.6,9.8-0.7,14.3-0.7
		c14.8-0.2,29.6-0.1,44.4-0.1c5.5,0,7.9,3.1,6.4,8.4C357.5,177.3,357.3,178.9,355.4,180.3z"/>
	<path fill="#FFFFFF" d="M277.3,340.6c0.5,0,0.9,0.7,1.7,0.2c0.9-5.8-0.2-11.6-0.6-17.4c-0.6-9.1-0.4-18.2,1.8-27.1
		c2.1-8.1,7.2-13.6,15.1-16.7c-12.4,19-9.7,39.8-7.7,60.8c-2.5,0.6-4.9,2-7.5,1.4c-1.7-0.4-2.2,1.4-3.5,1.4l0.1,0.1
		C277.2,342.5,277.7,341.6,277.3,340.6L277.3,340.6z"/>
	<path fill="#FFFFFF" d="M376.9,227.1c4.2-2.2,6.8-6.2,10.9-8.6c11-6.4,16.1-16.7,18.9-28.5c0.4-1.5,0.7-3.1,1.3-4.5
		c2.1-5.2,1.7-10.5,0.9-15.8c-0.6-3.7-0.3-7.5-1.2-11.3c-0.8-3.5-0.8-7-3.4-9.8c-0.4-0.4-0.4-1.3-0.6-1.9c-3-9.4-7.7-17.7-16.4-23
		c-0.5-0.3-0.8-0.7-1.5-1.3c2.6-0.1,4.4,1.6,6.5,1.3c3.4,3.9,7.6,7,10.1,11.4c5.3,9.5,9.9,19.3,11.3,30.3c0.2,1.7,0.3,3.3-0.1,5
		c-1.4,7.3-1.6,14.9-3.6,22.1c-1.5,5.3-3.2,10.5-6.1,15.3C397.8,218.3,388.4,224.1,376.9,227.1z"/>
	<path fill="#FFFFFF" d="M344.8,220.6c0.8-2,0.5-3.6-2.2-4.2c1.3-1.6,1.2-3.3,0.9-5.1c-0.3-2,0.3-4.1,1.1-5.9
		c2.1-5,3.5-10.4,6.1-15.3c1-1.9,2.2-3.7,1.2-6c-0.1-0.2,0.4-0.7,0.8-1.5c0.9,2,1.2,3.5,0.9,5.5c-0.6,5.3,0.1,10.5,1.4,15.6
		c1.5,5.9,0.7,11.9-1.6,17.4C351.6,225.3,348.2,225,344.8,220.6z"/>
	<path fill="#FFFFFF" d="M276.6,343.3c0.2,0.9,1.2,0.8,1.8,1.3c0.3,7,0.5,13.9,2.2,20.7c-4.5,3.5-8.9-0.1-13.7,0.4
		c1.1-8,0.5-15.7-0.9-23.5C270.1,342.6,273.4,343,276.6,343.3L276.6,343.3z"/>
	<path fill="#FFFFFF" d="M381.8,254.2c0,4.3,0.4,8.4,1.2,12.8c-5-0.5-9.7-1.1-14.7-1.6c0-4.2,0.6-8.4-1.5-12.7
		C372,253.5,376.8,252.6,381.8,254.2z"/>
	<path fill="#FFFFFF" d="M575.9,268c-4,3.7-9.1,2.8-13.9,5c0-5.8,0.8-11,1.3-16.3c1.6-0.4,3,0.2,4.4,0c1.8,2.4,1.8,2.4,9-0.2
		c1.8,1.7,0.7,3.4,0,5.3c-1.2-0.9-0.2-2.7-1.9-4C574.6,261.5,575.7,264.6,575.9,268z"/>
	<path fill="#FFFFFF" d="M291.2,320.2c-2.2,0.5-2.1-0.9-2.3-2c-0.7-4.7-1-9.4-0.1-14.1c1.7-8.1,3.1-16.3,8.2-23.3
		c1.2,0.5,0.6,1.4,0.5,2c-0.6,5.8-1.2,11.5-3.3,17.1C291.9,306.3,291.2,313.2,291.2,320.2z"/>
	<path fill="#FFFFFF" d="M288.4,167.5c2.2,1,3.8,2.5,5.4,4c2.6,2.4,1.9,5.7-1.6,8.8c-2.3,2.1-5,2.3-7.3,0.5
		c-2.9-2.2-3.5-4.4-1.8-7.5C284.3,171,285.8,169,288.4,167.5z"/>
	<path fill="#FFFFFF" d="M292.5,262.5c-8.2,3.7-13.8,9.2-18.9,15.6c0.2-4.7-0.3-9.4-0.2-14.3c4.3-0.9,8.5-1.9,12.8-2.6
		C288.2,260.8,289.9,262.2,292.5,262.5z"/>
	<path fill="#FFFFFF" d="M226.7,376.5c4.3,2.2,8.5,3.1,12.7,4.1c0.5,3.9-0.8,8,1.1,12c-3.1-4.4-8.1-3.8-12.6-5.2
		C227.5,383.9,227.1,380.5,226.7,376.5z"/>
	<path fill="#FFFFFF" d="M503.4,184.2c0.2,1.8,0.7,3.4,0.2,5.6c-8.2-3.9-15.5-9.5-24.5-11c0-0.3,0.1-0.5,0.1-0.8
		c5.6,0,11.2,0,17.1,0C497.1,181.3,500.3,182.4,503.4,184.2z"/>
	<path fill="#FFFFFF" d="M207.2,349.3c5.1,3.8,11.4,4.2,16.7,7.2c-1.2,1.8-3.1,2.3-4.5,3.6c-6.3-1.6-12.7-2.7-16.6-8.6
		c1.3-1.1,1.2,1.2,2.4,0.5C205.6,351.3,206.3,350.5,207.2,349.3z"/>
	<path fill="#FFFFFF" d="M527.6,167.3c3.9-0.4,7.8-0.3,11.7-0.1c2.1,0.1,3.3,1.9,3.2,4s-1.7,2.8-3.6,2.8c-3,0.1-6,0-9.3,0
		C528.8,172.1,527.1,170.2,527.6,167.3z"/>
	<path fill="#FFFFFF" d="M591.7,150c7.8,7.4,8.4,25.2,1.6,37c-0.7-1.5-0.2-2.7,0.1-4c0.8-4.3,2.7-8.3,2.7-12.8
		C596.2,163.4,595.2,158.6,591.7,150z"/>
	<path fill="#FFFFFF" d="M382.6,246.6c0,2.2-0.2,3.8-0.9,5.7c-3.5,0.3-6.9-1-10.5-0.3c0-0.2-0.1-0.5-0.1-0.7
		C374.8,249.7,378.5,248.2,382.6,246.6z"/>
	<path fill="#FFFFFF" d="M511.7,245.5c6.3-3.2,10.9-3,15.3,0.8C521.7,246.5,517.1,245.8,511.7,245.5z"/>
	<path fill="#FFFFFF" d="M290,334.9c-1-3.9-1.5-8-0.8-12.1c0.3,0,0.6,0,0.8,0C290,326.8,290,330.8,290,334.9z"/>
	<path fill="#FFFFFF" d="M586.4,232.6c1-1.6,1.3-3,0.7-4.8c-0.5-1.4-0.5-2.9,1.5-3.4c0.8,0.3,1.1,1,1.4,1.7c-0.2,1-1.3,1.2-1.8,2.3
		C588.4,229.9,588.9,231.9,586.4,232.6z"/>
	<path fill="#FFFFFF" d="M548.1,213.5c3.8-0.1,5.5-5.3,9.9-3.9C554.6,210.5,552.2,213.9,548.1,213.5z"/>
	<path fill="#FFFFFF" d="M584.9,210.3c-1.5,0.1-2.2-0.9-3.4-1.2c0.7-1.7,1.5-3,3.6-3.6C585.1,207.2,585,208.8,584.9,210.3z"/>
	<path fill="#FFFFFF" d="M588.3,220.4c0.4-1.6,1.1-2.8,0.8-4.5c1.2,0.6,2,1.1,3,1.7C591.1,218.8,590.9,220.8,588.3,220.4z"/>
	<path fill="#FFFFFF" d="M422.3,168c-2-1-4.5-0.9-6.4-2.5C418.4,164,419.8,164.6,422.3,168L422.3,168z"/>
	<path fill="#FFFFFF" d="M563.8,210.5c2.6,1,2.6,1,6.4,0.1c-1.9,1.8-4,2-6,3C564.1,212.4,564,211.4,563.8,210.5L563.8,210.5z"/>
	<path fill="#FFFFFF" d="M565.2,220.3c-1.6,2-3.4,1.4-5.2,1.4C562,219.7,562.2,219.7,565.2,220.3z"/>
	<path fill="#FFFFFF" d="M355.6,182.8c1.2-1.1,1.4-2.8,3.2-2.5C359.2,182.9,359,183.1,355.6,182.8z"/>
	<path fill="#FFFFFF" d="M563,198.6c0.6-2.1,2.7-3.1,3.9-4.7C566.8,196.5,565,197.6,563,198.6z"/>
	<path fill="#FFFFFF" d="M537.4,249.1c1.9-1.3,3.2,0.4,4.7,1.4c-1.6-0.2-3.1-0.4-4.7-0.6C537.4,249.7,537.4,249.4,537.4,249.1z"/>
	<path fill="#FFFFFF" d="M587.7,216.7c-1.8,0.7-3,1.1-4.6,1.7C584,216.3,585,215.3,587.7,216.7z"/>
	<path fill="#FFFFFF" d="M571.7,234.3c0,1,0,2,0,3.1c-1.1-0.2-2.2-0.2-2.3-1.6C569.3,234.2,570.5,234.2,571.7,234.3z"/>
	<path fill="#FFFFFF" d="M566.9,232.3c2-1,3.4-1.6,5.2-0.8C570.5,232,569.1,233.1,566.9,232.3z"/>
	<path fill="#FFFFFF" d="M556.2,238.1c0.7,2.1-0.9,2.4-2.2,3.4c0.1-1.3,0.2-2.3,0.3-3.2C555,238,555.6,237.9,556.2,238.1z"/>
	<path fill="#FFFFFF" d="M350.3,182.6c-0.1,0.8-0.2,1.4-0.7,1.7c-1,0.1-1.5-0.5-1.9-1.5C348.5,182.2,349.3,182.4,350.3,182.6z"/>
	<path fill="#FFFFFF" d="M557.3,255.4c-1.8,0.2-3.2,0.3-5-0.7C554.3,254.2,555.7,254.6,557.3,255.4z"/>
	<path fill="#FFFFFF" d="M579.7,249.4c-0.2,1.3-1,2.3-1.9,3.4C577.8,250.7,577.8,250.7,579.7,249.4z"/>
	<path fill="#FFFFFF" d="M531.4,248.4c-0.9-0.3-2.1,0-2.6-1.7C530.4,246.4,530.7,247.7,531.4,248.4z"/>
	<path fill="#FFFFFF" d="M292,326.7c0.1,1.3,0.3,2.6,0.4,3.9C291.5,329.5,291.4,328.2,292,326.7z"/>
	<path fill="#FFFFFF" d="M570.8,226.6c-1.1,1.3-2.3,0.7-4.1,0.6C568.4,226.3,569.4,225.7,570.8,226.6z"/>
	<path fill="#FFFFFF" d="M553.3,235.5c-1.1,0.8-2.2,1.3-3.4,0.3C551,235.7,552.2,235.6,553.3,235.5z"/>
	<path fill="#FFFFFF" d="M550.9,248.2c0.9-0.7,1.8-0.7,2.7,0.1C552.6,249.6,551.8,248.4,550.9,248.2z"/>
	<path fill="#FFFFFF" d="M586.3,234.5c0,1.6-0.4,2.2-1.9,2.1C584.4,235.5,584.8,234.9,586.3,234.5z"/>
	<path fill="#FFFFFF" d="M565.6,249c0.9,1.8,0,2.1-1.4,2.1C564,250,564.3,249.3,565.6,249z"/>
	<path fill="#FFFFFF" d="M581.7,200c0.4-1.2,1.6-0.8,2.4-1.2C583.5,199.6,583.2,200.9,581.7,200z"/>
	<path fill="#FFFFFF" d="M579.6,193.7c-1,0.7-1.5,0.1-2-0.3C578.7,192.7,578.7,192.7,579.6,193.7z"/>
	<path fill="#FFFFFF" d="M572.8,192.9c0.2,0.8,1.3,1.5,0.7,2.8C572.4,194.9,572.8,193.8,572.8,192.9z"/>
	<path fill="#FFFFFF" d="M523.4,241.1c0.4-0.8,0.9-1,1.6-0.7C525,241.9,524.4,241.9,523.4,241.1z"/>
	<path fill="#FFFFFF" d="M577.4,199.8c-0.1,1.6-1.1,1.9-2.1,2.3C575.6,201.2,576.1,200.4,577.4,199.8z"/>
	<path fill="#FFFFFF" d="M419.7,244.1c-1-1.6-0.6-2,0.8-1.8C421,243.1,420.2,243.4,419.7,244.1z"/>
	<path fill="#FFFFFF" d="M228.4,389.4c1.4-0.3,2.1,0.1,2.7,0.8C230,390.7,229.2,390.2,228.4,389.4z"/>
	<path fill="#FFFFFF" d="M553.8,230.4c-0.8,0.8-1.3,0.7-1.9,0.2C552.3,229.6,552.9,229.5,553.8,230.4z"/>
	<path fill="#FFFFFF" d="M563.9,210.5c-1,0-1.3-0.5-1-1.4C564,209.2,563.9,209.9,563.9,210.5L563.9,210.5z"/>
	<path fill="#FFFFFF" d="M584.4,223.7c-0.3-0.6-0.2-1.1,0.3-1.4C585.7,223.1,585.1,223.4,584.4,223.7z"/>
	<path fill="#FFFFFF" d="M590.1,193.7c-0.1,1.1-0.5,1.4-0.9,1.8C588.5,194.5,589.3,194.3,590.1,193.7z"/>
	<path fill="#FFFFFF" d="M291.5,339.3c-0.8-0.6-0.6-1.1-0.4-1.6C291.7,338.1,292.3,338.4,291.5,339.3z"/>
	<path fill="#FFFFFF" d="M529.1,239.3c-0.9,1-1.3,0.4-1.7-0.2C527.9,238.6,528.4,238.7,529.1,239.3z"/>
	<path fill="#FFFFFF" d="M585.8,201.6c0.2,0.4,0.3,0.8-0.3,1.1C584.9,202.1,585.3,201.8,585.8,201.6z"/>
	<path fill="#FFFFFF" d="M566.6,222.1c0.6,0.7,0.7,1.1,0.5,1.5C566,223.7,566,223.2,566.6,222.1z"/>
	<path fill="#FFFFFF" d="M523.2,134.7c0.1,0.5-0.3,0.7-0.9,0.9C522.3,134.9,522.7,134.8,523.2,134.7z"/>
	<path fill="#FFFFFF" d="M548.8,245.5c0.8-0.3,1,0,1.2,0.3C549.6,246.3,549.3,246,548.8,245.5z"/>
	<path fill="#FFFFFF" d="M563.6,206.3c0.1,0.7-0.1,1.1-0.7,1.2C562.5,206.9,562.7,206.5,563.6,206.3z"/>
	<path fill="#FFFFFF" d="M1028.8,275.8c4.3,3.7,5.6,8.7,5.5,13.7c-0.1,7.9-0.6,16-4.8,23.1c-0.6,1-0.8,2.1-2,2.8
		c0.3-3.3,1.2-6.3,2.3-9.3c3.8-9.8,3.1-19.6-0.6-29.2C1029,276.6,1028.9,276.2,1028.8,275.8z"/>
	<path fill="#FFFFFF" d="M1020.7,326.4c0.7-1.7,1.7-3.3,3.5-5C1023.7,324,1021.8,324.9,1020.7,326.4z"/>
	<path fill="#FFFFFF" d="M1018,329.9c-1,1-2,1.9-3,2.9l-0.1-0.1c1-1,2-2.1,2.9-3.1C1017.9,329.7,1018,329.8,1018,329.9z"/>
	<path fill="#FFFFFF" d="M954.9,255.4c0.3,0.1,0.6,0.1,1,0.2c-0.2,0.7-0.5,1.1-1.3,0.9C954.8,256.1,954.9,255.8,954.9,255.4
		L954.9,255.4z"/>
	<path fill="#FFFFFF" d="M1011.2,335.5c0.3-0.7,0.7-1,1.4-1C1012.4,335.3,1011.9,335.6,1011.2,335.5z"/>
	<path fill="#FFFFFF" d="M606.3,625.2c-2.2-0.9-2.3-2.1-1.9-3.3c0.2-0.8,1-1.3,1.8-1.3c1.4,0,2.3,0.7,2.5,2.4
		C608,623.8,605.6,622.6,606.3,625.2z"/>
	<path fill="#FFFFFF" d="M215,376.4c-1.9,0.5-1.9,0.5-2.6,2c-1.7-0.1-1.9-1.3-1.8-2.6c0.1-1.1,0.9-1.7,1.8-1.7
		C213.9,374,214.9,374.7,215,376.4z"/>
	<path fill="#FFFFFF" d="M206,375.6c-0.2,1.6-1,2.4-2.4,2.3s-2.2-1.1-2-2.5c0.1-1.3,1-2,2.2-2C205.2,373.4,206,374.3,206,375.6z"/>
	<path fill="#FFFFFF" d="M597.5,624.5c-1.5-0.2-2.3-1-2.3-2.4c0-1.5,1-2.2,2.4-2.1c1.2,0.1,2,0.9,2,2.2
		C599.7,623.6,598.9,624.3,597.5,624.5z"/>
	<path fill="#FFFFFF" d="M197.3,373.7c-1.2,1.5-2.1,1.5-3-0.1C195.4,372.3,196.2,372.9,197.3,373.7z"/>
	<path fill="#FFFFFF" d="M591,620.3c-1.2,1.5-2.1,1.5-3-0.1C589.1,618.8,589.9,619.4,591,620.3z"/>
	<path d="M924,302.3c0.2-0.9,0.3-1.8,1.2-2.5c1.5,2.1,3.5,3.7,5.7,5.1c3.1,1.9,4,6.1,2.4,9.5c-0.2,0.4-0.4,0.8-0.1,1.3
		c0.5,1.2,1.4-0.4,1.8,0.1c1,1.1,0.6,2.1,0.6,3.1c0,0.9-0.4,2.1,0,2.6c2,2.8,0.7,5.6,0.2,8.4c-0.5,2.7,0,5.5-0.5,8.8
		c-2.1-3.2-2.3-6-1.5-9.1c0.7-2.7,1.6-5.4,0.2-8.9c-2,3.8-3.3,7.1-3.9,10.7c-1.2,7.4-3.8,14.3-6,21.3c-2.6,8.2-6.3,16.1-8.2,24.6
		c-0.6,2.9-0.8,5.7-0.4,8.7c0.3,2.2,0.6,4.4-0.8,6.6c-1.7-0.5-1.5-1.8-1.6-3c-0.9-6.9,0.4-13.6,2.5-20.2c1.1-3.6,2.6-7,3.2-10.8
		c1.1-7,4.7-13.3,6.7-20.1c1.9-6.2,3.3-12.5,5.6-18.6c0.9-2.5,0.6-5.6,0.4-8.3c-0.1-2.6-1.6-4.6-4-5.9
		C926.1,304.9,924.9,304,924,302.3z"/>
	<path d="M840.5,366.9c1.3,0.9,1.3,2.2,1.1,3.3c-0.5,4.3-0.6,8.5,0,12.7c0.1,0.6,0.1,1.5-0.3,1.9c-1.6,1.7-1,3.5-0.6,5.4
		c0.4,1.7,0.8,3.4,1.5,5.2c2-3.1,1.8-7,4.4-9.9c0.4,3.3,0.9,6.2-1.5,9.4c-2.2,3-4.7,6-6.1,9.5c-0.3,0.8-0.5,1.7-1.4,2.2
		c-3.1-1.7-2.6-4.6,2-9.6c-1.4-3.4-2-7-0.4-10.6c0.3-0.7,0-1.3-0.3-1.9c-0.7-1.4-0.7-2.8-0.6-4.3c0.5-4.3,1-8.5,1.5-12.8
		C839.8,367.3,840.2,367.1,840.5,366.9z"/>
	<path d="M858.2,444.2c-1.9-0.5-2.4-1.8-2.3-3c0.2-2.8-1.3-5.1-1.8-7.7c-1.1-5.7-5.8-8.8-9.4-12.6c-2.8-2.9-6.1-5.4-7.7-9.2
		c-0.5-1.2-1.2-2.3-0.6-4.3c2.2,3.6,3.6,7.2,6.1,10.2c4.5,0.2,6.9,3.4,9.5,6.8c2.7,3.4,3.9,7.5,5.8,11.2
		C859,438.2,858.4,441.1,858.2,444.2z"/>
	<path d="M841.8,440.2c0.3-3.9,4-6.5,2.5-10.6c2.8,1,2.6,3.1,2.4,5c-0.2,1.8-1.2,3.3-2.5,4.7c-2.9,3.2-3.2,5.7-1.3,9.5
		c-0.2,0.7-0.6,1.6-0.7,2.4c-0.1,0.8,0.4,1.8-0.6,2.6c-1.7-0.3-2.3-1.6-1.8-2.8c0.6-1.7,0-3.1-0.4-4.5
		C838.5,443,838.8,442.1,841.8,440.2z"/>
	<path d="M854.5,474c-2.1-0.5-2.5-1.4-2.6-2.7c-0.1-3.9,3-10.2,6.6-13C856.4,463.3,858.2,469.3,854.5,474z"/>
	<path d="M926.6,374.4c-0.9,4,1.7,6.6,3.1,9.7c1.2,2.5,2.4,5,3.5,7.6c0.4,0.9,1.3,2,0.3,3.1c-1.4,0.5-1.8-0.6-2.2-1.4
		c-1.5-2.6-2.9-5.3-3.8-8.2c-0.7-2.1-1-4.3-2.2-6.2C924.2,377.5,924,375.6,926.6,374.4z"/>
	<path d="M859.2,457.8c-1.7-2.9,0.8-4.8,1.3-7c0.7-2.9,2.8-3.9,5.4-4.9c0.1,2.8-2.9,3.5-3.6,5.7
		C861.6,453.6,861.8,456.2,859.2,457.8z"/>
	<path d="M835.6,419.9c-2.1-2.2-2.8-4.1-2.3-7.2C835.6,414.8,835.1,417.1,835.6,419.9z"/>
	<path d="M838.2,430.9c-1.3-0.9-1.4-2.1-1.6-3.1c-0.5-1.8-1.6-3.5-1.9-5.9C836.6,424.2,837.3,426.3,838.2,430.9z"/>
	<path d="M839.1,310.9c-0.3,1.6,1.2,3.2-0.1,4.8c-2-2-2-2.9-0.2-5.1C838.9,310.6,839,310.7,839.1,310.9z"/>
	<path d="M941,324.5c1.5,3.1,1.6,3.7,1.4,6.6C941.1,329.2,940.7,327.3,941,324.5z"/>
	<path d="M917.3,391.8c-0.9-2.7,0.8-3.8,2.4-5.6C919.6,388.6,919,390.2,917.3,391.8z"/>
	<path d="M920.9,388.9c0.7,2.8-1,4-1.8,5.5C919.5,392.7,919.5,390.8,920.9,388.9z"/>
	<path d="M922.8,380.9c-0.3,1.5-0.8,2.8-1.6,4.1C920.1,381.8,920.1,381.8,922.8,380.9z"/>
	<path d="M828.8,379.4c0.3,1.7-0.4,3.1-1,5C826.9,381.4,827,381,828.8,379.4L828.8,379.4z"/>
	<path d="M830,386.7c0.4,0.7,0.2,1-0.1,1.3C828.9,387.6,829.3,387.2,830,386.7z"/>
	<path d="M845.8,383.2c-0.1,0.4-0.3,0.6-0.7,0.5c-0.3,0-0.7-0.3-0.5-0.6c0.1-0.3,0.4-0.5,0.7-0.6
		C845.7,382.5,845.8,382.9,845.8,383.2z"/>
	<path d="M652.6,459.2c13.5,14.2,31.5,19,49.1,24.4c1.3-0.5,0.5-1.8,1.5-2.5c0.1,1,0.3,1.8,0.4,2.9c2.5,2,6.5,1.6,9.1,5
		c-3-0.7-5-2.4-7.6-2c-1,1,1.1,2-0.2,3.1c-2-0.5-1.4-2.8-3-4.2c-8.5-2.7-17.5-5.5-26.1-9.2c-7.5-3.2-14-7.9-20.4-12.9
		C654.1,462.6,653,461.2,652.6,459.2z"/>
	<path d="M716.3,496c-23.1-4-43.5-13.6-60.6-29.8C673.3,481.4,694.6,489.1,716.3,496z"/>
	<path d="M729.9,433.1c-5.6,5.4-11.5,10.3-13.6,18.1c-2.1,7.8-0.9,15.1,2.1,22.4c-3.3-1.1-4.8-2.8-5.5-6.4c-0.5-2.8-0.6-5.5-0.1-8.4
		c1.5-10,5.6-18.6,13.7-24.9C727.2,433.3,727.9,432.1,729.9,433.1z"/>
	<path d="M655.2,478.8c4.7,8.3,12.1,13.3,21.1,17.6C668.5,496.6,655.3,485.4,655.2,478.8z"/>
	<path d="M771.4,482.5c-6.4-5.3-11.2-11.9-14.8-19.3C761,469.9,766.9,475.7,771.4,482.5z"/>
	<path d="M718.6,481.5c1.5,3.2,2,6.7,4.8,9.4C718.4,489.9,716.4,485.7,718.6,481.5z"/>
	<path d="M696.2,459.4c-4.2-0.4-10.4-3.2-12.7-5.5C687.8,455.7,692,457.6,696.2,459.4z"/>
	<path d="M653,453.5c-1.2-2.2-0.7-4,1.2-6C655.1,450.1,653.2,451.6,653,453.5z"/>
	<path d="M756.4,456.1c1,1.5,2.1,3,3.2,4.7C757.1,460.3,756.7,459.6,756.4,456.1L756.4,456.1z"/>
	<path d="M756.8,442.2c0.8,1.6,0.8,1.6-1,2.6C755,443.4,755.9,442.8,756.8,442.2z"/>
	<path d="M616.2,549.9c-3.3-7.9-7.5-15.3-6.8-24.1C611.9,528.1,617,546,616.2,549.9z"/>
	<path d="M635,474.1c-3.7,0.2-5.9,3.3-9.1,4.3c-0.2,0.1-0.5-0.3-0.8-0.4C626.6,474.2,630.4,472.6,635,474.1z"/>
	<path d="M610.5,510.3c0.6-4.1,0.7-8.3,2.7-12C614,501.2,613.2,504.7,610.5,510.3z"/>
	<path d="M606.9,487.6c-1.9-2.5-1.4-4.1,2.8-8.7C609.4,482.3,608.3,484.9,606.9,487.6z"/>
	<path d="M646.3,474.4c-2.8,0.1-5.2-0.3-7.7,0.4C642.6,471.4,644.9,471.2,646.3,474.4z"/>
	<path d="M624.1,489.2c3.4,1,6.4,5.1,6.3,8.6C627.6,495.2,626.6,491.7,624.1,489.2z"/>
	<path d="M616.3,578.4c1.5,2.1,2.4,3.8,1.5,5.9C615.5,582.8,615.5,582.7,616.3,578.4z"/>
	<path d="M616,574.1c-1.9-2.7-1.9-3-0.6-6.2C617,570,616.4,572.1,616,574.1z"/>
	<path d="M611.5,470.8c-0.6,2.2-0.5,4.6-2.2,6.8C608.5,475.5,608.5,475.5,611.5,470.8z"/>
	<path d="M610.2,518.5c-1.2-2.5-1.2-3.1,0.8-6.5C611.5,514.4,611.4,516.3,610.2,518.5z"/>
	<path d="M623.3,486.8c-2.5-1.5-3-3.4-2.7-6.3C622.1,482.7,623.1,484.3,623.3,486.8z"/>
	<path d="M616.2,565.4c-1-1-1.1-2.2-1-4.1C616.7,562.8,616.5,564.1,616.2,565.4z"/>
	<path d="M612,464.5c1.3,0,1.5,0.8,1.6,1.7c-0.2,0.1-0.5,0.3-0.6,0.2C612.1,466.1,611.5,465.5,612,464.5z"/>
	<path d="M970,514.1c-1.7-5.2-2.7-10.4-2.1-15.8C970.5,503.4,971,508.7,970,514.1z"/>
	<path d="M810.4,496.8c1.8,4.1-1,8.3,1,12.1C808.1,507.6,807.6,501.3,810.4,496.8z"/>
	<path d="M798.9,498.8c2,1.5,1.9,3.1,1.8,4.6c0,1.4,0.1,2.8,0.4,4.2C799.1,505.2,798.4,502.5,798.9,498.8z"/>
	<path d="M874.5,512.5c-0.5-1.4-0.4-2.9,0.1-4.6C875.5,510.3,875.5,510.3,874.5,512.5z"/>
	<path d="M780,441.4c-1.3,8.9,3.1,15.2,8.9,21c2.2,2.2,4.6,4.3,6.9,6.4c0.6,0.6,1.5,1,1.3,2.1c-1.2,0.7-2-0.2-2.7-0.7
		c-7.4-5.3-13.5-11.5-15.9-20.6C777.8,446.6,778,443.8,780,441.4z"/>
	<path d="M803.9,424.7c-2.8,4.1-6.7,7.4-8.3,12.3C796.5,431.7,798.9,427.4,803.9,424.7z"/>
	<path d="M789.7,449.8c2.7,5.9,5.3,11.8,7.9,17.7C793.5,462.2,792,455.8,789.7,449.8z"/>
	<path d="M945.7,470.8c1.2-0.4,1.7,0.6,2.8,0.4c0.4-0.9,2.1-1.5,1.1-3.6c-3.5,3.4-5.4,0.4-7.6-1.8c0.3-1,1.2-1.4,2.3-2
		c1.2,0.9,2.8,0.5,4.3,1c3.6,1.2,4.8,3.7,2.9,6.5C949.5,474.4,948.1,474.3,945.7,470.8z"/>
	<path d="M921.2,478.6c1.5-3.8,6.3-6.3,9.5-5c-0.5,1.1-1.5,1.3-2.4,1.6c-1.9,0.6-3.8,1.1-5,3C922.8,478.9,921.9,478.8,921.2,478.6
		L921.2,478.6z"/>
	<path d="M879.4,418c4.6,0.3,8.6,2,11.8,5.4C887.4,421.4,883.2,420,879.4,418L879.4,418z"/>
	<path d="M923.3,449c4.3,1.2,7.1,4.2,9.6,7.5C931,456.3,926.1,452.2,923.3,449L923.3,449z"/>
	<path d="M923.3,448.9c-3.8-0.3-5.1-1.4-5.7-4.9C920.9,444.2,921,447.9,923.3,448.9L923.3,448.9z"/>
	<path d="M907.8,447.2c3.7-1.5,5.4-1.3,7.2,0.9C912.4,449,910.2,447.1,907.8,447.2z"/>
	<path d="M875.5,424.3c-1.6,0.1-2.4,0-2.9-1.2C873.8,422.5,874.6,422.9,875.5,424.3z"/>
	<path d="M879.5,417.9c-0.7,0-1.2-0.3-1.8-1.2C878.7,416.9,879.2,417.1,879.5,417.9L879.5,417.9z"/>
	<path d="M687.8,614.7c-1.6,1.4-3.7,1.4-5.6,1.6c-14,2-27.8,4.8-41.4,8.5c-0.4,0.1-0.9,0.1-1.5,0.1
		C642.5,622.1,674.3,615.5,687.8,614.7L687.8,614.7z"/>
	<path d="M689.5,604.7c-2.6-1.8-2.6-2.2-0.3-4.4C691.1,602.2,691.1,602.3,689.5,604.7z"/>
	<path d="M680.5,593.1c0-1.6,0.9-2.3,2.4-2.6c1.5,0.8,1,1.8,0.3,2.8C682.3,594.4,681.4,594.3,680.5,593.1z"/>
	<path d="M687.9,614.8c0.8-0.9,1.8-1.3,3-0.9C690,614.9,688.9,614.8,687.9,614.8L687.9,614.8z"/>
	<path d="M988.2,500c1.4,1.8,1.7,3.6,2.3,5.7C988.5,503.8,988.3,503.4,988.2,500z"/>
	<path d="M554.5,179.9c0.1,1.2-0.9,1.7-1.8,2.2c-4.1,2.5-12.6,1.2-15.6-2.5c-0.6-0.8-1.6-1.6-1-2.9c1.3-0.1,1.4,1.1,2,1.6
		c3,2.6,7.1,2.2,9.4-1.1c3.9-5.6,2.4-11.6-3.5-14.8c-0.8-0.4-1.6-0.8-2.5-1.3c-1.2,0.8-2.5,1.7-3.9,2.6c1-3,4.2-4.7,9.5-5.1
		c4-0.3,9.1,3,11.1,7.4c2,4.5,0.7,8.5-2.5,12c-1.6-1-0.8-2.3-0.5-3.6c1.3-5.6-0.3-9.2-5.4-12c4.4,5,4.5,10.2,0.7,15.7
		C551.9,179.3,553.8,178.3,554.5,179.9z"/>
	<path fill="#FFFFFF" d="M554.5,179.9c-2.7,0.8-5.5,0.9-9.2,0.9c2.9-3.4,6.7-5.6,6.2-10.2c-0.4-4.3-2.4-7.6-6.5-9.5
		c6.4-3.4,14.1,6,12.4,11.6c-0.6,1.8-1.1,3.6-1.7,5.4C555.4,178.8,555,179.3,554.5,179.9z"/>
	<path d="M510,239.7c0.9-3.7,5.5-6,8.8-4.5C515.7,236.7,512.6,237.6,510,239.7z"/>
	<path d="M511.3,211.8c4.1,1,6.8,3.9,9.6,7.4C518.6,218.7,514.7,215.5,511.3,211.8L511.3,211.8z"/>
	<path d="M481.2,187.8c-3.2-1.6-6.5-2.7-9.4-4.7C475.5,183.5,478.8,184.8,481.2,187.8z"/>
	<path d="M511.4,211.8c-3.7-0.4-4.7-1.3-5.2-4.5C509.3,207.3,509.3,210.8,511.4,211.8L511.4,211.8z"/>
	<path d="M497.3,210.1c2.2-1.4,4.4-1.1,6.7,0.6C501.4,212.2,499.4,210.1,497.3,210.1z"/>
	<path d="M433.6,188c-1.5-0.1-2.2-0.5-3.4-1.3C431.8,186.4,432.5,186.9,433.6,188z"/>
	<path d="M525.1,174.3c-0.3-1-0.5-1.6,0.2-2.1C525.9,173,525.9,173,525.1,174.3z"/>
	<path d="M466.2,188.4c-1,0.5-1.3,0.1-1.6-0.4C465.3,187.2,465.7,187.3,466.2,188.4z"/>
	<path d="M399.9,271.3c-2.6,0-2.9-1.6-3.3-2.9c-0.7-2.6-1.2-5.3-1.2-8c-0.1-5.5,1-10.9,2.4-16.2c0.3-1.1,0.8-2,2-2.7
		C397.7,251.3,397.1,261.2,399.9,271.3z"/>
	<path d="M392.7,278.3c-3.2-4.1-4.5-23.6-1.9-28.4C389.9,259.6,390.6,268.7,392.7,278.3z"/>
	<path d="M409.9,248c-1.3,6.5-4.6,11.9-4.4,18.8C403,263.1,405.9,251.4,409.9,248z"/>
	<path d="M404,269.2c0.7,3.4,1.6,6.7,0.2,10.1C402.4,275.9,402.2,272.5,404,269.2z"/>
	<path d="M452.7,222.8c-1.2-3.3,0.1-5.8,3.7-7.8C455.3,217.7,454.5,220.2,452.7,222.8z"/>
	<path d="M404.7,221.9c-0.4,2.2-0.9,4.5-1.3,6.7c-0.2,0.9-0.4,1.7-1.5,1.9l0.1,0.1c0-2,0-4,0.7-5.9
		C403.1,223.6,403.3,222.3,404.7,221.9L404.7,221.9z"/>
	<path d="M390.9,237.2c1.7,2.6,1.4,5.5,0.8,8.3C390.4,242.9,391.2,240,390.9,237.2z"/>
	<path d="M402,230.6c-0.3,2.9,0.2,6-2,8.5C399.9,236,400,233.1,402,230.6L402,230.6z"/>
	<path d="M407.1,273.6c0.4,1.4,0.5,2.7-0.7,4.1C405.7,276,406.7,274.8,407.1,273.6z"/>
	<path d="M392.7,228.1c0.9,1.3,0.5,1.9-0.4,2.5C391.6,229.7,391.9,229.1,392.7,228.1z"/>
	<path d="M398.7,272.9c1.2,0.6,0.8,1.4,0.7,2.1C398.2,274.5,398.6,273.7,398.7,272.9z"/>
	<path d="M404.8,222c0-0.7-0.1-1.5,0.9-1.9C405.7,220.9,405.5,221.6,404.8,222L404.8,222z"/>
	<path d="M303,244.4c1.1-0.6,0.1-1.9,1.2-2.4c0.9,0.8-0.2,2,0.7,2.8c2.4,1.9,6.1,1.4,8.4,4.9c-2.8-1.1-4.8-2.4-7.2-2.2
		c-0.8,1,1.1,1.9-0.1,2.9c-1.8-0.4-1.3-2.4-2.4-3.7c-3.7-1.2-7.7-2.5-11.8-3.8c-11.2-3.5-21.8-8.3-30.9-15.9
		c-1.8-1.5-3.6-2.9-4.1-5.5C269.5,234.8,286.4,239.4,303,244.4z"/>
	<path d="M260.9,228.8c16.3,13.7,35.7,21,55.7,27C303.8,256.7,267.4,238.9,260.9,228.8z"/>
	<path d="M346.4,246.5c-4.9,0.7-7.4-0.9-8.5-5.5c-0.5-2-0.3-4.2-1.3-6.4c1.8,0,2.7,0.7,3.7,1.4C341.3,240.7,341.3,240.7,346.4,246.5
		z"/>
	<path d="M278.1,256.5c-8.4-1.4-18.3-10-19.2-16.5c2.5,3.4,5.1,6.7,8.3,9.5C270.5,252.3,274.6,254,278.1,256.5z"/>
	<path d="M318.8,242.2c1.3,3.3,2,6.4,4.1,8.8C318.9,250.7,316.9,246.8,318.8,242.2z"/>
	<path d="M297.4,222.3c-4-1.2-7.7-3-11.4-5c0.1-0.2,0.2-0.4,0.3-0.6c3.8,1.6,7.6,3.3,11.4,4.9C297.6,221.9,297.5,222.1,297.4,222.3z
		"/>
	<path d="M256.7,216.3c-0.4-2.4-0.6-4.2,1.5-5.4C258.4,213.2,258.4,213.2,256.7,216.3z"/>
	<path d="M368.5,243.3c-1.8-0.6-3.1-1.7-3.7-4C367.2,240,367.8,241.7,368.5,243.3z"/>
	<path d="M222.5,307c-3.3-7.8-7.2-14.6-6.4-22.9C218.2,286.3,223,302.9,222.5,307z"/>
	<path d="M231,239.3c1.7-3.8,4.5-5,9.1-3.9C236.8,236.1,234.4,238.8,231,239.3z"/>
	<path d="M219.6,258.3c0.8,2.6-0.5,7.6-2.5,11.2C217.5,265.7,217.8,261.9,219.6,258.3z"/>
	<path d="M216.3,239.9c-0.5,3.4-1.2,5.8-2.8,8.1C211.9,245.7,212.2,244.6,216.3,239.9z"/>
	<path d="M235.8,257.8c-2.6-2.4-3.6-5.6-6.4-8.3C233.2,250.9,235.9,254.5,235.8,257.8z"/>
	<path d="M243.6,236c3.7-3.1,5.6-3.2,7.2-0.5C248.4,236,246,235.2,243.6,236z"/>
	<path d="M221.8,323.6c1.2,2.2,0.9,4.1,0.7,6.2C220.5,327.6,220.4,327.1,221.8,323.6z"/>
	<path d="M223.8,339.4c-2-2.1-2-2.1-1.3-5.4C224.1,335.5,224.6,337.1,223.8,339.4z"/>
	<path d="M217.6,271.2c0.7,2.3,0.1,4-0.7,5.8C215.5,275,215.6,274.4,217.6,271.2z"/>
	<path d="M226.8,242c0.9,1.6,2.1,3.2,2.4,5.6C226.6,246.1,226.4,244.2,226.8,242z"/>
	<path d="M217.9,232.4c-0.4,2.1-0.4,4.3-2,6.2C215.3,236.8,215.3,236.8,217.9,232.4z"/>
	<path d="M222.6,321.7c-1.3-1.3-1.2-2.4-1.1-3.7C223.1,319,222.7,320.1,222.6,321.7z"/>
	<path d="M220.1,228.4c-1.2-0.1-1.8-0.6-1.9-1.5c0.2-0.2,0.4-0.4,0.5-0.4C219.8,226.6,219.9,227.4,220.1,228.4z"/>
	<path d="M553.5,258.4c2.4,4.7,2.9,9.6,1.9,14.8C553.7,268.4,552.9,263.5,553.5,258.4z"/>
	<path d="M288,368.1c-3.2,1.7-6.9,1.9-10.3,2.2c-10.9,1.2-21.3,4.5-31.9,6.8c-0.5,0.1-1,0.5-1.9-0.2
		C258.3,371.5,273.3,370.3,288,368.1L288,368.1z"/>
	<path d="M291.5,354c1.1,1.4,1.3,2.6,0.5,3.9c-1.2,0.6-2,0-2.3-0.8C289.2,355.7,290,354.8,291.5,354z"/>
	<path d="M282.8,347.1c0.5-1.2,1.1-2.2,2.7-2c1.1,1.3,0.4,2.2-0.5,2.9C284.2,348.6,283.4,348.3,282.8,347.1z"/>
	<path d="M290.2,366.9c0.5,0,1.1,0,2.1,0c-1.5,1.3-2.8,1.5-4.3,1.2v0.1C288.6,367.4,289.8,367.8,290.2,366.9L290.2,366.9z"/>
	<path d="M572.7,260.3c1.1,1.4,1.4,3,1.9,4.7C572.8,263.3,572.8,263.3,572.7,260.3z"/>
</g>
</svg>
