<?xml version="1.0" encoding="utf-8"?>
<!-- Generator: Adobe Illustrator 19.1.0, SVG Export Plug-In . SVG Version: 6.00 Build 0)  -->
<svg version="1.2" baseProfile="tiny" id="Layer_2" xmlns="http://www.w3.org/2000/svg" xmlns:xlink="http://www.w3.org/1999/xlink"
	 x="0px" y="0px" width="900px" height="600px" viewBox="144 97 900 600" xml:space="preserve">
<svg style="overflow: visible;" viewBox="-144 -97 900 600" xmlns="http://www.w3.org/2000/svg"><g fill="#e6e6e6"><path d="m206.8 163.6c0-5.1 4.1-9.2 9.3-9.2s9.2 4.2 9.2 9.2-4.1 9.2-9.3 9.2-9.2-4.1-9.2-9.2zm17.3-.1c0-4.5-3.5-8.2-8.2-8.2s-8.2 3.7-8.2 8.3c0 4.5 3.5 8.2 8.2 8.2s8.2-3.7 8.2-8.3zm-13 0c0-2.8 2.1-5.1 5.1-5.1 1.9 0 2.9.6 3.9 1.5l-1.4 1.7c-.8-.7-1.5-1.1-2.5-1.1-1.7 0-2.8 1.4-2.8 3.1s1.1 3 2.8 3c1.1 0 1.7-.5 2.5-1.1l1.4 1.4c-1.1 1.1-2.1 1.7-4 1.7-2.9 0-5-2.3-5-5.1z"/><path d="m226.6 154.7h3.4l4.2 13.2 4.4-13.3h2.6l4.4 13.3 4.2-13.2h3.3l-6.2 18h-2.7l-4.4-12.8-4.4 12.8h-2.7z"/><path d="m252.8 165.8c0-3.9 3.1-7 7.2-7 4.2 0 7.2 3.2 7.2 7s-3.1 7-7.3 7c-4 0-7.1-3.1-7.1-7zm11.3 0c0-2.3-1.7-4.3-4.2-4.3s-4.1 2-4.1 4.3 1.7 4.3 4.1 4.3c2.7.1 4.2-1.9 4.2-4.3z"/><path d="m269.5 159.1h3.1v3c.8-2 2.4-3.4 4.8-3.3v3.2h-.2c-2.7 0-4.6 1.7-4.6 5.4v5.1h-3.1z"/><path d="m279.1 153.9h3.1v11.1l5.6-6h3.8l-5.4 5.5 5.5 8h-3.5l-4.1-5.8-1.9 2v3.9h-3.1z"/><path d="m291.7 165.8c0-3.9 3.1-7 7.2-7 4.2 0 7.2 3.2 7.2 7s-3.1 7-7.3 7c-4 0-7.1-3.1-7.1-7zm11.3 0c0-2.3-1.7-4.3-4.2-4.3s-4.1 2-4.1 4.3 1.7 4.3 4.1 4.3c2.6.1 4.2-1.9 4.2-4.3z"/><path d="m308.2 167.6v-8.6h3.1v7.6c0 2.1 1.1 3.3 2.9 3.3s3-1.3 3-3.3v-7.6h3.1v13.4h-3.1v-2.1c-.8 1.3-2.1 2.3-4.2 2.3-3.1.2-4.8-1.8-4.8-5z"/><path d="m323.9 168.8v-7.1h-1.7v-2.6h1.7v-3.7h3.1v3.7h3.6v2.6h-3.6v6.6c0 1.2.6 1.7 1.7 1.7.7 0 1.3-.2 1.9-.5v2.5c-.8.5-1.7.7-2.8.7-2.3 0-3.9-.9-3.9-3.9z"/><path d="m333.2 154.7h3.2v15h9.4v2.9h-12.5v-17.9z"/><path d="m356 172.5v-1.7c-.9 1.1-2.3 2-4.4 2-2.6 0-4.8-1.4-4.8-4.2 0-3 2.3-4.4 5.4-4.4 1.7 0 2.6.2 3.7.5v-.2c0-1.9-1.2-2.9-3.3-2.9-1.5 0-2.6.3-3.9.8l-.8-2.5c1.5-.7 2.9-1.1 5.1-1.1 4 0 5.9 2.1 5.9 5.7v8zm.1-5.6c-.8-.3-1.9-.5-3.1-.5-2 0-3.1.8-3.1 2.1s1.1 2 2.6 2c2 0 3.5-1.1 3.5-2.9z"/><path d="m364.9 170.5v2.1h-3.1v-18.7h3.1v7.4c1-1.4 2.4-2.5 4.5-2.5 3.2 0 6.3 2.5 6.3 7s-3.1 7-6.3 7c-2.1 0-3.5-1.1-4.5-2.3zm7.7-4.7c0-2.6-1.7-4.3-3.9-4.3s-3.9 1.7-3.9 4.4c0 2.6 1.8 4.3 3.9 4.3s3.9-1.7 3.9-4.4z"/><path d="m376.9 170.8 1.4-2.1c1.4 1.1 3 1.7 4.4 1.7s2.1-.5 2.1-1.5-1.3-1.4-2.8-1.8c-.1 0-.2-.1-.2-.1-2-.6-4.2-1.4-4.2-4s2.1-4.1 4.8-4.1c1.7 0 3.5.6 5 1.5l-1.2 2.2c-1.3-.8-2.6-1.3-3.8-1.3s-1.9.5-1.9 1.4 1.3 1.4 2.8 1.8c.1 0 .2.1.2.1 2 .6 4.2 1.5 4.2 4 0 2.9-2.2 4.2-5 4.2-1.9 0-4-.7-5.8-2z"/><path d="m505.6 163.6c0-5.1 4.1-9.2 9.3-9.2s9.2 4.2 9.2 9.2-4.1 9.2-9.3 9.2-9.2-4.1-9.2-9.2zm17.4-.1c0-4.5-3.5-8.2-8.2-8.2s-8.2 3.7-8.2 8.3c0 4.5 3.5 8.2 8.2 8.2s8.2-3.7 8.2-8.3zm-13.1 0c0-2.8 2.1-5.1 5.1-5.1 1.9 0 2.9.6 3.9 1.5l-1.4 1.7c-.8-.7-1.5-1.1-2.5-1.1-1.7 0-2.8 1.4-2.8 3.1s1.1 3 2.8 3c1.1 0 1.7-.5 2.5-1.1l1.4 1.4c-1.1 1.1-2.1 1.7-4 1.7-2.9 0-5-2.3-5-5.1z"/><path d="m525.4 154.7h3.4l4.2 13.2 4.4-13.3h2.6l4.4 13.3 4.2-13.2h3.3l-6.2 18h-2.7l-4.4-12.8-4.4 12.8h-2.7z"/><path d="m551.7 165.8c0-3.9 3.1-7 7.2-7 4.2 0 7.2 3.2 7.2 7s-3.1 7-7.3 7c-4.1 0-7.1-3.1-7.1-7zm11.2 0c0-2.3-1.7-4.3-4.2-4.3s-4.1 2-4.1 4.3 1.7 4.3 4.1 4.3c2.7.1 4.2-1.9 4.2-4.3z"/><path d="m568.3 159.1h3.1v3c.8-2 2.4-3.4 4.8-3.3v3.2h-.2c-2.7 0-4.6 1.7-4.6 5.4v5.1h-3.1z"/><path d="m577.9 153.9h3.1v11.1l5.6-6h3.8l-5.4 5.5 5.5 8h-3.5l-4.1-5.8-1.9 2v3.9h-3.1z"/><path d="m590.6 165.8c0-3.9 3.1-7 7.2-7 4.2 0 7.2 3.2 7.2 7s-3.1 7-7.3 7c-4.1 0-7.1-3.1-7.1-7zm11.2 0c0-2.3-1.7-4.3-4.2-4.3s-4.1 2-4.1 4.3 1.7 4.3 4.1 4.3c2.6.1 4.2-1.9 4.2-4.3z"/><path d="m607 167.6v-8.6h3.1v7.6c0 2.1 1.1 3.3 2.9 3.3s3-1.3 3-3.3v-7.6h3.1v13.4h-3.1v-2.1c-.8 1.3-2.1 2.3-4.2 2.3-3 .2-4.8-1.8-4.8-5z"/><path d="m622.7 168.8v-7.1h-1.7v-2.6h1.7v-3.7h3.1v3.7h3.6v2.6h-3.6v6.6c0 1.2.6 1.7 1.7 1.7.7 0 1.3-.2 1.9-.5v2.5c-.8.5-1.7.7-2.8.7-2.3 0-3.9-.9-3.9-3.9z"/><path d="m632 154.7h3.2v15h9.4v2.9h-12.6z"/><path d="m654.8 172.5v-1.7c-.9 1.1-2.3 2-4.4 2-2.6 0-4.8-1.4-4.8-4.2 0-3 2.3-4.4 5.4-4.4 1.7 0 2.6.2 3.7.5v-.2c0-1.9-1.2-2.9-3.3-2.9-1.5 0-2.6.3-3.9.8l-.8-2.5c1.5-.7 2.9-1.1 5.1-1.1 4 0 5.9 2.1 5.9 5.7v8zm.1-5.6c-.8-.3-1.9-.5-3.1-.5-2 0-3.1.8-3.1 2.1s1.1 2 2.6 2c2 0 3.5-1.1 3.5-2.9z"/><path d="m663.7 170.5v2.1h-3.1v-18.7h3.1v7.4c1-1.4 2.4-2.5 4.5-2.5 3.2 0 6.3 2.5 6.3 7s-3.1 7-6.3 7c-2.1 0-3.5-1.1-4.5-2.3zm7.8-4.7c0-2.6-1.7-4.3-3.9-4.3-2.1 0-3.9 1.7-3.9 4.4 0 2.6 1.8 4.3 3.9 4.3s3.9-1.7 3.9-4.4z"/><path d="m675.8 170.8 1.4-2.1c1.4 1.1 3 1.7 4.4 1.7s2.1-.5 2.1-1.5-1.3-1.4-2.8-1.8c-.1 0-.2-.1-.2-.1-2-.6-4.2-1.4-4.2-4s2.1-4.1 4.8-4.1c1.7 0 3.5.6 5 1.5l-1.2 2.2c-1.3-.8-2.6-1.3-3.8-1.3s-1.9.5-1.9 1.4 1.3 1.4 2.8 1.8c.1 0 .2.1.2.1 2 .6 4.2 1.5 4.2 4 0 2.9-2.2 4.2-5 4.2-2 0-4.1-.7-5.8-2z"/><path d="m61 298.6c0-5.1 4.1-9.2 9.3-9.2s9.2 4.2 9.2 9.2-4.1 9.2-9.3 9.2c-5.1 0-9.2-4.2-9.2-9.2zm17.4-.1c0-4.5-3.5-8.2-8.2-8.2s-8.2 3.7-8.2 8.3c0 4.5 3.5 8.2 8.2 8.2s8.2-3.7 8.2-8.3zm-13.1-.1c0-2.8 2.1-5.1 5.1-5.1 1.9 0 2.9.6 3.9 1.5l-1.4 1.7c-.8-.7-1.5-1.1-2.5-1.1-1.7 0-2.8 1.4-2.8 3.1s1.1 3 2.8 3c1.1 0 1.7-.5 2.5-1.1l1.4 1.4c-1.1 1.1-2.1 1.7-4 1.7-2.8.1-5-2.2-5-5.1z"/><path d="m80.9 289.7h3.4l4.2 13.2 4.4-13.3h2.6l4.4 13.3 4.2-13.2h3.3l-6.2 18h-2.7l-4.4-12.8-4.4 12.8h-2.7z"/><path d="m107.1 300.8c0-3.9 3.1-7 7.2-7s7.2 3.2 7.2 7-3.1 7-7.3 7c-4 0-7.1-3.1-7.1-7zm11.3 0c0-2.3-1.7-4.3-4.2-4.3s-4.1 2-4.1 4.3 1.7 4.3 4.1 4.3c2.6.1 4.2-1.9 4.2-4.3z"/><path d="m123.7 294h3.1v3c.8-2 2.4-3.4 4.8-3.3v3.2h-.2c-2.7 0-4.6 1.7-4.6 5.4v5.1h-3.1z"/><path d="m133.4 288.9h3.1v11.1l5.6-6h3.8l-5.4 5.5 5.5 8h-3.5l-4.1-5.8-1.9 1.9v3.9h-3.1z"/><path d="m146 300.8c0-3.9 3.1-7 7.2-7s7.2 3.2 7.2 7-3.1 7-7.3 7c-4.1 0-7.1-3.1-7.1-7zm11.2 0c0-2.3-1.7-4.3-4.2-4.3s-4.1 2-4.1 4.3 1.7 4.3 4.1 4.3c2.6.1 4.2-1.9 4.2-4.3z"/><path d="m162.4 302.6v-8.6h3.1v7.6c0 2.1 1.1 3.3 2.9 3.3s3-1.3 3-3.3v-7.6h3.1v13.4h-3.1v-2.1c-.8 1.3-2.1 2.3-4.2 2.3-3 .2-4.8-1.8-4.8-5z"/><path d="m178.1 303.8v-7.1h-1.7v-2.7h1.7v-3.7h3.1v3.7h3.6v2.6h-3.6v6.6c0 1.2.6 1.7 1.7 1.7.7 0 1.3-.2 1.9-.5v2.5c-.8.5-1.7.7-2.8.7-2.3.1-3.9-.9-3.9-3.8z"/><path d="m187.4 289.7h3.2v15h9.4v2.9h-12.5v-17.9z"/><path d="m210.2 307.5v-1.7c-.9 1.1-2.3 2-4.4 2-2.6 0-4.8-1.4-4.8-4.2 0-3 2.3-4.4 5.4-4.4 1.7 0 2.6.2 3.7.5v-.2c0-1.9-1.2-2.9-3.3-2.9-1.5 0-2.6.3-3.9.8l-.8-2.5c1.5-.7 2.9-1.1 5.1-1.1 4 0 5.9 2.1 5.9 5.7v8zm.1-5.6c-.8-.3-1.9-.5-3.1-.5-2 0-3.1.8-3.1 2.1s1.1 2 2.6 2c2 0 3.5-1.1 3.5-2.9z"/><path d="m219.2 305.5v2.1h-3.1v-18.7h3.1v7.4c1-1.4 2.4-2.5 4.5-2.5 3.2 0 6.3 2.5 6.3 7s-3.1 7-6.3 7c-2.2 0-3.6-1.1-4.5-2.3zm7.7-4.7c0-2.6-1.7-4.3-3.9-4.3s-3.9 1.7-3.9 4.4c0 2.6 1.8 4.3 3.9 4.3s3.9-1.7 3.9-4.4z"/><path d="m231.2 305.8 1.4-2.1c1.4 1.1 3 1.7 4.4 1.7s2.1-.5 2.1-1.5-1.3-1.4-2.8-1.8c-.1 0-.2-.1-.2-.1-2-.6-4.2-1.4-4.2-4s2.1-4.1 4.8-4.1c1.7 0 3.5.6 5 1.5l-1.2 2.2c-1.3-.8-2.6-1.3-3.8-1.3s-1.9.5-1.9 1.4 1.3 1.4 2.8 1.8c.1 0 .2.1.2.1 2 .6 4.2 1.5 4.2 4 0 2.9-2.2 4.2-5 4.2-2 0-4.1-.7-5.8-2z"/><path d="m360.6 298.6c0-5.1 4.1-9.2 9.3-9.2s9.2 4.2 9.2 9.2-4.1 9.2-9.3 9.2-9.2-4.2-9.2-9.2zm17.4-.1c0-4.5-3.5-8.2-8.2-8.2s-8.2 3.7-8.2 8.3c0 4.5 3.5 8.2 8.2 8.2s8.2-3.7 8.2-8.3zm-13.1-.1c0-2.8 2.1-5.1 5.1-5.1 1.9 0 2.9.6 3.9 1.5l-1.4 1.7c-.8-.7-1.5-1.1-2.5-1.1-1.7 0-2.8 1.4-2.8 3.1s1.1 3 2.8 3c1.1 0 1.7-.5 2.5-1.1l1.4 1.4c-1.1 1.1-2.1 1.7-4 1.7-2.8.1-5-2.2-5-5.1z"/><path d="m380.5 289.7h3.4l4.2 13.2 4.4-13.3h2.6l4.4 13.3 4.2-13.2h3.3l-6.2 18h-2.7l-4.4-12.8-4.4 12.8h-2.7z"/><path d="m406.7 300.8c0-3.9 3.1-7 7.2-7 4.2 0 7.2 3.2 7.2 7s-3.1 7-7.3 7c-4.1 0-7.1-3.1-7.1-7zm11.3 0c0-2.3-1.7-4.3-4.2-4.3s-4.1 2-4.1 4.3 1.7 4.3 4.1 4.3c2.7.1 4.2-1.9 4.2-4.3z"/><path d="m423.3 294h3.1v3c.8-2 2.4-3.4 4.8-3.3v3.2h-.2c-2.7 0-4.6 1.7-4.6 5.4v5.1h-3.1z"/><path d="m433 288.9h3.1v11.1l5.6-6h3.8l-5.4 5.5 5.5 8h-3.5l-4.1-5.8-1.9 2v3.9h-3.1z"/><path d="m445.6 300.8c0-3.9 3.1-7 7.2-7 4.2 0 7.2 3.2 7.2 7s-3.1 7-7.3 7c-4.1 0-7.1-3.1-7.1-7zm11.3 0c0-2.3-1.7-4.3-4.2-4.3s-4.1 2-4.1 4.3 1.7 4.3 4.1 4.3c2.6.1 4.2-1.9 4.2-4.3z"/><path d="m462.1 302.6v-8.6h3.1v7.6c0 2.1 1.1 3.3 2.9 3.3s3-1.3 3-3.3v-7.6h3.1v13.4h-3.1v-2.1c-.8 1.3-2.1 2.3-4.2 2.3-3.1.2-4.8-1.8-4.8-5z"/><path d="m477.8 303.8v-7.1h-1.8v-2.7h1.7v-3.7h3.1v3.7h3.6v2.6h-3.6v6.6c0 1.2.6 1.7 1.7 1.7.7 0 1.3-.2 1.9-.5v2.5c-.8.5-1.7.7-2.8.7-2.2.1-3.8-.9-3.8-3.8z"/><path d="m487.1 289.7h3.2v15h9.4v2.9h-12.5v-17.9z"/><path d="m509.9 307.5v-1.7c-.9 1.1-2.3 2-4.4 2-2.6 0-4.8-1.4-4.8-4.2 0-3 2.3-4.4 5.4-4.4 1.7 0 2.6.2 3.7.5v-.2c0-1.9-1.2-2.9-3.3-2.9-1.5 0-2.6.3-3.9.8l-.8-2.5c1.5-.7 2.9-1.1 5.1-1.1 4 0 5.9 2.1 5.9 5.7v8zm.1-5.6c-.8-.3-1.9-.5-3.1-.5-2 0-3.1.8-3.1 2.1s1.1 2 2.6 2c2 0 3.5-1.1 3.5-2.9z"/><path d="m518.8 305.5v2.1h-3.1v-18.7h3.1v7.4c1-1.4 2.4-2.5 4.5-2.5 3.2 0 6.3 2.5 6.3 7s-3.1 7-6.3 7c-2.2 0-3.5-1.1-4.5-2.3zm7.7-4.7c0-2.6-1.7-4.3-3.9-4.3s-3.9 1.7-3.9 4.4c0 2.6 1.8 4.3 3.9 4.3s3.9-1.7 3.9-4.4z"/><path d="m530.8 305.8 1.4-2.1c1.4 1.1 3 1.7 4.4 1.7s2.1-.5 2.1-1.5-1.3-1.4-2.8-1.8c-.1 0-.2-.1-.2-.1-2-.6-4.2-1.4-4.2-4s2.1-4.1 4.8-4.1c1.7 0 3.5.6 5 1.5l-1.2 2.2c-1.3-.8-2.6-1.3-3.8-1.3s-1.9.5-1.9 1.4 1.3 1.4 2.8 1.8c.1 0 .2.1.2.1 2 .6 4.2 1.5 4.2 4 0 2.9-2.2 4.2-5 4.2-1.9 0-4.1-.7-5.8-2z"/><path d="m659.5 298.6c0-5.1 4.1-9.2 9.3-9.2s9.2 4.2 9.2 9.2-4.1 9.2-9.3 9.2-9.2-4.2-9.2-9.2zm17.3-.1c0-4.5-3.5-8.2-8.2-8.2s-8.2 3.7-8.2 8.3c0 4.5 3.5 8.2 8.2 8.2 4.8 0 8.2-3.7 8.2-8.3zm-13-.1c0-2.8 2.1-5.1 5.1-5.1 1.9 0 2.9.6 3.9 1.5l-1.4 1.7c-.8-.7-1.5-1.1-2.5-1.1-1.7 0-2.8 1.4-2.8 3.1s1.1 3 2.8 3c1.1 0 1.7-.5 2.5-1.1l1.4 1.4c-1.1 1.1-2.1 1.7-4 1.7-2.9.1-5-2.2-5-5.1z"/><path d="m679.3 289.7h3.4l4.2 13.2 4.4-13.3h2.6l4.4 13.3 4.2-13.2h3.3l-6.2 18h-2.6l-4.4-12.8-4.4 12.8h-2.7z"/><path d="m705.5 300.8c0-3.9 3.1-7 7.2-7 4.2 0 7.2 3.2 7.2 7s-3.1 7-7.3 7c-4 0-7.1-3.1-7.1-7zm11.3 0c0-2.3-1.7-4.3-4.2-4.3s-4.1 2-4.1 4.3 1.7 4.3 4.1 4.3c2.7.1 4.2-1.9 4.2-4.3z"/><path d="m722.1 294h3.1v3c.8-2 2.4-3.4 4.8-3.3v3.2h-.2c-2.7 0-4.6 1.7-4.6 5.4v5.1h-3.1z"/><path d="m731.8 288.9h3.1v11.1l5.6-6h3.8l-5.4 5.5 5.5 8h-3.5l-4.1-5.8-1.9 2v3.9h-3.1z"/><path d="m744.4 300.8c0-3.9 3.1-7 7.2-7 4.2 0 7.2 3.2 7.2 7s-3.1 7-7.3 7c-4.1 0-7.1-3.1-7.1-7zm11.3 0c0-2.3-1.7-4.3-4.2-4.3s-4.1 2-4.1 4.3 1.7 4.3 4.1 4.3c2.6.1 4.2-1.9 4.2-4.3z"/><path d="m760.9 302.6v-8.6h3.1v7.6c0 2.1 1.1 3.3 2.9 3.3s3-1.3 3-3.3v-7.6h3.1v13.4h-3.1v-2.1c-.8 1.3-2.1 2.3-4.2 2.3-3.1.2-4.8-1.8-4.8-5z"/><path d="m776.6 303.8v-7.1h-1.7v-2.7h1.7v-3.7h3.1v3.7h3.6v2.6h-3.6v6.6c0 1.2.6 1.7 1.7 1.7.7 0 1.3-.2 1.9-.5v2.5c-.8.5-1.7.7-2.8.7-2.3.1-3.9-.9-3.9-3.8z"/><path d="m785.9 289.7h3.2v15h9.4v2.9h-12.5v-17.9z"/><path d="m808.7 307.5v-1.7c-.9 1.1-2.3 2-4.4 2-2.6 0-4.8-1.4-4.8-4.2 0-3 2.3-4.4 5.4-4.4 1.7 0 2.6.2 3.7.5v-.2c0-1.9-1.2-2.9-3.3-2.9-1.5 0-2.6.3-3.9.8l-.8-2.5c1.5-.7 2.9-1.1 5.1-1.1 4 0 5.9 2.1 5.9 5.7v8zm.1-5.6c-.8-.3-1.9-.5-3.1-.5-2 0-3.1.8-3.1 2.1s1.1 2 2.6 2c2 0 3.5-1.1 3.5-2.9z"/><path d="m817.6 305.5v2.1h-3.1v-18.7h3.1v7.4c1-1.4 2.4-2.5 4.5-2.5 3.2 0 6.3 2.5 6.3 7s-3.1 7-6.3 7c-2.1 0-3.5-1.1-4.5-2.3zm7.7-4.7c0-2.6-1.7-4.3-3.9-4.3-2.1 0-3.9 1.7-3.9 4.4 0 2.6 1.8 4.3 3.9 4.3 2.2 0 3.9-1.7 3.9-4.4z"/><path d="m829.6 305.8 1.4-2.1c1.4 1.1 3 1.7 4.4 1.7s2.1-.5 2.1-1.5-1.3-1.4-2.8-1.8c-.1 0-.2-.1-.2-.1-2-.6-4.2-1.4-4.2-4s2.1-4.1 4.8-4.1c1.7 0 3.5.6 5 1.5l-1.2 2.2c-1.3-.8-2.6-1.3-3.8-1.3s-1.9.5-1.9 1.4 1.3 1.4 2.8 1.8c.1 0 .2.1.2.1 2 .6 4.2 1.5 4.2 4 0 2.9-2.2 4.2-5 4.2-1.9 0-4-.7-5.8-2z"/><path d="m206.3 434.2c0-5.1 4.1-9.2 9.3-9.2s9.2 4.2 9.2 9.2-4.1 9.2-9.3 9.2-9.2-4.1-9.2-9.2zm17.4-.1c0-4.5-3.5-8.2-8.2-8.2s-8.2 3.7-8.2 8.3c0 4.5 3.5 8.2 8.2 8.2s8.2-3.7 8.2-8.3zm-13.1-.1c0-2.8 2.1-5.1 5.1-5.1 1.9 0 2.9.6 3.9 1.5l-1.4 1.7c-.8-.7-1.5-1.1-2.5-1.1-1.7 0-2.8 1.4-2.8 3.1s1.1 3 2.8 3c1.1 0 1.7-.5 2.5-1.1l1.4 1.4c-1.1 1.1-2.1 1.7-4 1.7-2.9.1-5-2.2-5-5.1z"/><path d="m226.1 425.3h3.4l4.2 13.2 4.4-13.3h2.6l4.4 13.3 4.2-13.2h3.3l-6.2 18h-2.7l-4.4-12.8-4.4 12.8h-2.7z"/><path d="m252.4 436.4c0-3.9 3.1-7 7.2-7 4.2 0 7.2 3.2 7.2 7s-3.1 7-7.3 7c-4.1 0-7.1-3.1-7.1-7zm11.2 0c0-2.3-1.7-4.3-4.2-4.3s-4.1 2-4.1 4.3 1.7 4.3 4.1 4.3c2.7.1 4.2-1.9 4.2-4.3z"/><path d="m269 429.7h3.1v3c.8-2 2.4-3.4 4.8-3.3v3.2h-.2c-2.7 0-4.6 1.7-4.6 5.4v5.1h-3.1z"/><path d="m278.6 424.5h3.1v11.1l5.6-6h3.8l-5.4 5.5 5.5 8h-3.5l-4.1-5.8-1.9 2v3.9h-3.1z"/><path d="m291.3 436.4c0-3.9 3.1-7 7.2-7 4.2 0 7.2 3.2 7.2 7s-3.1 7-7.3 7c-4.1 0-7.1-3.1-7.1-7zm11.2 0c0-2.3-1.7-4.3-4.2-4.3s-4.1 2-4.1 4.3 1.7 4.3 4.1 4.3c2.6.1 4.2-1.9 4.2-4.3z"/><path d="m307.7 438.2v-8.6h3.1v7.6c0 2.1 1.1 3.3 2.9 3.3s3-1.3 3-3.3v-7.6h3.1v13.4h-3.1v-2.1c-.8 1.3-2.1 2.3-4.2 2.3-3 .2-4.8-1.8-4.8-5z"/><path d="m323.4 439.4v-7.1h-1.7v-2.6h1.7v-3.7h3.1v3.7h3.6v2.6h-3.6v6.6c0 1.2.6 1.7 1.7 1.7.7 0 1.3-.2 1.9-.5v2.5c-.8.5-1.7.7-2.8.7-2.3 0-3.9-.9-3.9-3.9z"/><path d="m332.7 425.3h3.2v15h9.4v2.9h-12.5v-17.9z"/><path d="m355.5 443.1v-1.7c-.9 1.1-2.3 2-4.4 2-2.6 0-4.8-1.4-4.8-4.2 0-3 2.3-4.4 5.4-4.4 1.7 0 2.6.2 3.7.5v-.2c0-1.9-1.2-2.9-3.3-2.9-1.5 0-2.6.3-3.9.8l-.8-2.5c1.5-.7 2.9-1.1 5.1-1.1 4 0 5.9 2.1 5.9 5.7v8zm.1-5.6c-.8-.3-1.9-.5-3.1-.5-2 0-3.1.8-3.1 2.1s1.1 2 2.6 2c2 0 3.5-1.1 3.5-2.9z"/><path d="m364.4 441.1v2.1h-3.1v-18.7h3.1v7.4c1-1.4 2.4-2.5 4.5-2.5 3.2 0 6.3 2.5 6.3 7s-3.1 7-6.3 7c-2.1 0-3.5-1.1-4.5-2.3zm7.7-4.7c0-2.6-1.7-4.3-3.9-4.3-2.1 0-3.9 1.7-3.9 4.4 0 2.6 1.8 4.3 3.9 4.3 2.2 0 3.9-1.7 3.9-4.4z"/><path d="m376.5 441.4 1.4-2.1c1.4 1.1 3 1.7 4.4 1.7s2.1-.5 2.1-1.5-1.3-1.4-2.8-1.8c-.1 0-.2-.1-.2-.1-2-.6-4.2-1.4-4.2-4s2.1-4.1 4.8-4.1c1.7 0 3.5.6 5 1.5l-1.2 2.2c-1.3-.8-2.6-1.3-3.8-1.3s-1.9.5-1.9 1.4 1.3 1.4 2.8 1.8c.1 0 .2.1.2.1 2 .6 4.2 1.5 4.2 4 0 2.9-2.2 4.2-5 4.2-2 0-4.1-.7-5.8-2z"/><path d="m505.1 434.2c0-5.1 4.1-9.2 9.3-9.2s9.2 4.2 9.2 9.2-4.1 9.2-9.3 9.2-9.2-4.1-9.2-9.2zm17.4-.1c0-4.5-3.5-8.2-8.2-8.2s-8.2 3.7-8.2 8.3c0 4.5 3.5 8.2 8.2 8.2s8.2-3.7 8.2-8.3zm-13.1-.1c0-2.8 2.1-5.1 5.1-5.1 1.9 0 2.9.6 3.9 1.5l-1.4 1.7c-.8-.7-1.5-1.1-2.5-1.1-1.7 0-2.8 1.4-2.8 3.1s1.1 3 2.8 3c1.1 0 1.7-.5 2.5-1.1l1.4 1.4c-1.1 1.1-2.1 1.7-4 1.7-2.9.1-5-2.2-5-5.1z"/><path d="m525 425.3h3.4l4.2 13.2 4.4-13.3h2.6l4.4 13.3 4.2-13.2h3.3l-6.2 18h-2.7l-4.4-12.8-4.4 12.8h-2.7z"/><path d="m551.2 436.4c0-3.9 3.1-7 7.2-7 4.2 0 7.2 3.2 7.2 7s-3.1 7-7.3 7c-4.1 0-7.1-3.1-7.1-7zm11.2 0c0-2.3-1.7-4.3-4.2-4.3s-4.1 2-4.1 4.3 1.7 4.3 4.1 4.3c2.7.1 4.2-1.9 4.2-4.3z"/><path d="m567.8 429.7h3.1v3c.8-2 2.4-3.4 4.8-3.3v3.2h-.2c-2.7 0-4.6 1.7-4.6 5.4v5.1h-3.1z"/><path d="m577.5 424.5h3.1v11.1l5.6-6h3.8l-5.4 5.5 5.5 8h-3.5l-4.1-5.8-1.9 2v3.9h-3.1z"/><path d="m590.1 436.4c0-3.9 3.1-7 7.2-7 4.2 0 7.2 3.2 7.2 7s-3.1 7-7.3 7c-4.1 0-7.1-3.1-7.1-7zm11.2 0c0-2.3-1.7-4.3-4.2-4.3s-4.1 2-4.1 4.3 1.7 4.3 4.1 4.3c2.6.1 4.2-1.9 4.2-4.3z"/><path d="m606.5 438.2v-8.6h3.1v7.6c0 2.1 1.1 3.3 2.9 3.3s3-1.3 3-3.3v-7.6h3.1v13.4h-3.1v-2.1c-.8 1.3-2.1 2.3-4.2 2.3-3 .2-4.8-1.8-4.8-5z"/><path d="m622.2 439.4v-7.1h-1.7v-2.6h1.7v-3.7h3.1v3.7h3.6v2.6h-3.6v6.6c0 1.2.6 1.7 1.7 1.7.7 0 1.3-.2 1.9-.5v2.5c-.8.5-1.7.7-2.8.7-2.3 0-3.9-.9-3.9-3.9z"/><path d="m631.5 425.3h3.2v15h9.4v2.9h-12.5v-17.9z"/><path d="m654.3 443.1v-1.7c-.9 1.1-2.3 2-4.4 2-2.6 0-4.8-1.4-4.8-4.2 0-3 2.3-4.4 5.4-4.4 1.7 0 2.6.2 3.7.5v-.2c0-1.9-1.2-2.9-3.3-2.9-1.5 0-2.6.3-3.9.8l-.8-2.5c1.5-.7 2.9-1.1 5.1-1.1 4 0 5.9 2.1 5.9 5.7v8zm.1-5.6c-.8-.3-1.9-.5-3.1-.5-2 0-3.1.8-3.1 2.1s1.1 2 2.6 2c2 0 3.5-1.1 3.5-2.9z"/><path d="m663.3 441.1v2.1h-3.1v-18.7h3.1v7.4c1-1.4 2.4-2.5 4.5-2.5 3.2 0 6.3 2.5 6.3 7s-3.1 7-6.3 7c-2.2 0-3.6-1.1-4.5-2.3zm7.7-4.7c0-2.6-1.7-4.3-3.9-4.3s-3.9 1.7-3.9 4.4c0 2.6 1.8 4.3 3.9 4.3s3.9-1.7 3.9-4.4z"/><path d="m675.3 441.4 1.4-2.1c1.4 1.1 3 1.7 4.4 1.7s2.1-.5 2.1-1.5-1.3-1.4-2.8-1.8c-.1 0-.2-.1-.2-.1-2-.6-4.2-1.4-4.2-4s2.1-4.1 4.8-4.1c1.7 0 3.5.6 5 1.5l-1.2 2.2c-1.3-.8-2.6-1.3-3.8-1.3s-1.9.5-1.9 1.4 1.3 1.4 2.8 1.8c.1 0 .2.1.2.1 2 .6 4.2 1.5 4.2 4 0 2.9-2.2 4.2-5 4.2-2 0-4.1-.7-5.8-2z"/></g></svg><g>
	<path d="M893.8,291.7c-0.1-2.1,1.5-3.3,2.6-4.7c2.6-3.3,5.3-6.5,7.9-9.8c0.8-1,1.4-2.1,2.2-3.4c-3.6-6.8-5.2-14.3-6.7-22.1
		c-5.3-0.5-10.6-1-15.7-2.7c-2.3,2.2-4,4.9-7.1,7.1c1.9-4.2,4.2-7.3,6.8-10.2c9.9,3.3,20.4,2.5,29.2,6.8c4-0.9,6.2-5.4,10.5-4.6
		c0.3,1.7-1.3,1.6-1.5,2.8c5.3,4.4,10.7,8.9,16.1,13.4c-0.1,8.2-1.6,16.4-3,24.6c0.6,0.5,1.3-0.2,1.7,0.5c-0.2,1.4-2.7,1.1-2.4,3.2
		c2-0.5,3.4-2,5.3-2.8c-0.2-9.1,1.8-17.8,2.9-26.6c-6.1-4.8-12.4-8.8-18.5-14.6c2.3,0.2,3.8,0,4.7-1.7c0.7,0.3,1.3,0.5,1.7,0.8
		c2.8,3,6.3,5.1,9.8,7.3c1.1,0.7,2.1,1.5,3.1,2.2c4.6,3.2,6.6,7.3,4.7,12.8c-1.3,4-2.1,8.1-1.3,12.3c0.6,3.3-1.6,6.2-0.8,9.5
		c-2.4,1.7-4.9,2.9-8.4,3.8c1.8-2.8,4.8-2.9,6.8-5c-1.1-4.9,0.1-10.1,0.4-15.3c0.1-2,0.2-3.9,1.4-5.8c1.9-3.4,1-6.8-2-9.3
		c-2.5-2-5.2-3.7-7.9-5.3c2.4,3,5.9,4.7,8.2,7.3c-0.4,9.4-2.7,18.4-2.7,27.9c-3,2-6.5,4.2-10,6.4c1.6,5.1,1,10.1,1,15.2
		c0,9.7,1.1,19.4,3.3,29c1.2,5.4,2.3,10.9,3.3,16.4c1.7,8.7-0.4,17.1-1.9,25.5c-0.6,3.3-0.7,6.4,0,9.6c1.2,5.3,2.2,10.7,3.3,16
		c0.4,2.1,0.5,4.2,0.3,6.2c-0.6,4.7,0.4,9.2,0.5,13.9c4.5,0.6,7.5-3.7,11.4-3c1.8-1.5-0.1-3.9,2-4.9c2.3,2.3,2.3,3.2-0.6,6.9
		c-0.1,0.9,1.5,1.7,0.7,2.5c-1.1,1.4-2.2,0.4-3.1,0.7c-1.1-1,0.2-2,0-2.9c-4.7-0.8-5,4.2-7.7,6.3c-1.6-2.2,0.4-3.1,1-4.9
		c-2,1.4-4,1.3-5.9,1c-3.4-0.5-6.2,1.7-6.3,5.1c-0.1,2.6,0.7,5.3-0.8,7.7c-0.4,0.7,0.2,1.5,0.7,2.2c1.3,1.7,2.5,3.6,3.5,5.6
		c-2.1-2-6.2-1.3-6.5-5.3c-1.3,0.1-1.9,1.6-3.3,1.3c-0.5-2.1,1.5-2.6,2.5-3.9c0.1-1,0.2-2.2,0.3-3.4c-5.7-4.3-12-4.7-18.7-3
		c0.4-2.3,1-2.8,3.5-3.3c1.8-0.4,3.4,0.1,5.1,0.4c1.8,0.4,3.6,0.7,5.6,0.7c-1.7-2.6-3.8-4.7-6.6-6.2c-4.4-2.4-8.8-4.8-13.2-7.1
		c-4.2-2.2-8.7-3.7-13.4-4.5c-0.3,1.3-0.2,2.4,0,3.5c1,1.2,2.7,1.5,3.4,3.2c-1.3,0.7-2-0.9-3.5-0.7c0.4,6-1.5,12.2,2,18.1
		c0.5,0.8,0.9,1.6,1.6,2.2c5,4.6,9.9,11.7,12.9,18.7c-0.9,1-1.3,2.2-1.2,3.8c0.4,5.2-0.5,10.2-2,15.1c2.9,4.4-0.6,7.3-2,10.9
		c2.9-1.6,4.8-4.3,5.3-7.5c0.9-6.8,1.9-13.5,1.8-20.4c-0.1-4.7-1.3-8.5-3.7-12.2c-1.1-1.8-2-3.7-2.9-5.6c-1.5-3.5,0.9-8.7,4.4-10
		c0.6-0.2,1.1-0.1,1.6,0.9c-4.3,4.1-2.1,8.6-0.4,13.2c0.2,0.5,0.5,1.1,0.7,1.6c2.5,5.7,4.8,11.3,3.5,18c-1.3,6.7-1.1,13.7-4.9,20.1
		c2.5,0,4.3-1.2,6.1-1.6c0.8-1-0.8-1.3-0.1-2.3c3.5-1.5,6.7-4,10.4-6.2c0.2,2-1.2,2.6-1.7,4.1c8-2.4,15.6-5.1,23.5-8.9
		c-4.4-2.4-3.3-7.3-7-9.5c2-1.9,3.8-2.9,6.2-2.8c0.3,2.5-2.3,2.1-3.1,3.4c2.4,3,3.1,7.7,8.2,8c0.3-0.9-1.5-1.2-0.7-2.3
		c0.9-0.5,1.6,0.8,2.8,0.4c0-1.1,2.2-1.7,1-3.4c-3.6,1.6-3.6,1.6-7.8-2c0.2-1.2,1.4-1.4,2.1-2c1.2,0,2,0.7,3.1,0.8
		c4.9,0.4,6.4,3.2,4.1,8.1c1-0.9,1.6-1.4,2.1-1.9c0.5-0.5,1.2-0.7,1.4-1.5c-0.5-1.3-1.8-2.1-2.1-3.7c0.3-1,2.5-1.3,1.1-3.3
		c-0.6-0.6-0.9,1.3-1.7,0.9c-2-1.7-4.2-3.3-6.7-3.7c-1.3-0.9-0.8-2.3-1.4-3c0.4-0.7,0.9-1,1.3-0.9c5.5,1.3,9.4-2.3,13.5-4.9
		c1.8-1.1,2.6-3.8,5.2-3.7c1.9-3.7,0.4-8.8,5.3-10.5c1.3-0.7,0.8-2.7,2.6-3.1c1.5,1-0.3,2.6,1,4c0.3-2,0.8-3.8,1.5-5.4
		c-4.1-3.1-6.5-3-10.3,0.3c-1.1,0.9-2.2,1.7-3.3,2.6c-1,0.8-1.1,2.6-2.8,2.8c-2-3.2-0.6-5.9,3.7-6.5c1.5-0.2,2.6-0.6,3.9-2
		c-4.9-2-8.2-6.3-13.1-8.5c1.6-0.8,2.8-0.2,4.1,0.7c3.1,2.2,6.3,4.3,9.5,6.5c0.7,0.5,1.5,1,2.2,0.7c3.9-1.7,7.5-0.2,11.1,1
		c2.3-1.5,4.1-3.6,6.8-4.9c1.5,2.6,3.5-0.6,5.5,0.5c1,0.4,0.6,1.8,1.4,2.6c0.6-0.3,1.2-0.6,1.9-1c-1.1-3.1-1.5-6.1,1.3-8.7
		c2.5,1.9,0,4.5,1.2,6.5c1.6-0.7,1.4-3.3,3.5-3.6c2,2.3-0.8,4.3-0.5,6.4c0.9,0.3,1.4-1.2,2.6-0.6c1.1,2.4-1.7,3.1-2.4,5
		c1.7,0.2,3.2-1.5,5.1-0.1c-0.9,3.3,0.1,7-1.2,10.5c1,0.6,2.2-0.6,3.1,0.9c0.1,2.6-3.1,3.6-3.7,6.3c2.5,1,4.3-2.5,7-1
		c0.4,1.2,0.8,2.5,2.2,3.4c1.3,1,0.8,2.6,0,3.8c-1.1,1.8-2.4,3.4-3.7,5.4c1.2,2.3,0.4,4.4-1.6,6.1c0.7,1.6,2.5-0.2,3,1.3
		c-0.2,2.4-13.1,24.7-15.7,27.1c1.3,1.7,2.2,3.5,1.1,5.7c-0.6,1.2-0.2,2.3-0.1,3.4c0.4,3.1-0.3,5.6-3.3,7.4c-2.8,1.7-5.7,2.7-9,3.2
		c-3.4,0.5-7.4,0.5-10,3.8c-1.5,2-3.9,1.4-6.7,0.5c1,2.1,1.8,3.1,3.2,3.5c3.4,0.8,6.2,2.8,8.7,5c9,8.3,16.7,17.3,18.9,30.1
		c0.9,5.4,1.2,10.7,1.6,16.2c0.9,14-1,28.1,0.9,42.1c0.3,2.3,0.1,4.6-0.1,7c-0.4,5,0.7,9.9,0.6,14.9c2.7-0.5,5.4-0.3,7.4-1.5
		c5.9-3.6,12.5-1.9,18.7-3.4c0.4-0.1,0.9,0.2,1.9,0.4c-0.4,5.2-0.8,10.4-1.2,15.9c-2.7-2.7-2.8-3.2-2.3-14.1
		c-3.6,0.7-7.3,0-10.9,1.2c-2.4,0.8-4.9,1.3-7.4,1.8c-2.7,0.5-5.8,0.4-7,3.5c-1.3-0.4-1.1-1.3-1.1-2.1c0-11.9-0.7-23.7-1.4-35.5
		c-0.4-6.5,0.3-13,0.1-19.5c-0.3-10.5-0.3-21.2-3-31.5c-1.7-6.5-5.1-12.1-9.7-17c-1.7-1.9-3.1-4.1-5-5.8c-3-2.6-6.4-4.5-9.8-6.5
		c-5.5-3.2-11.2-3.2-17.1-3.3c-12.4-0.3-24.9,0.2-37.3,0.2c-3.6,0-7.1-0.9-10.7-1.3c-14.5-1.4-28.9-3.1-43.4-3.9
		c-12.6-0.7-25.3-1.5-38-1.7c-13.8-0.2-27.6-1.3-41.3-3.5c-12-1.9-24.2-3.2-36.4-3.5c-5.3-0.1-10.6-1-15.9-1.6
		c-3.5-0.4-6.9-0.5-10.4,0.1c-1.1,0.2-2.4,0.3-3.5,0.1c-7-1.2-14.2,0.4-21.1-1.2c-1.7-0.4-3.3,0.1-4.7,0.8
		c-7.5,3.6-14,8.5-19.1,15.3c-5.6,7.5-8.4,15.9-8.9,24.9c-0.4,7.1,0.3,14.4,0.2,21.6c-0.1,6.3-0.2,12.5,1.8,18.8
		c2.5,1,5.4,0.3,8,1.5c0.2,0.2,0.2,0.4,0.1,0.6c-0.1,0.2-0.2,0.2-0.2,0.2c-1.3,2.8-3.6,3.2-6.4,2.8c-2.9-0.4-4,0.6-3.5,3.5
		c0.7,4.4,0.4,8.8,0.5,13.2c0.1,3.7,5.5,6.7,8.6,4.8c1.2-0.7,1.4-1.9,1.2-3c-1-6.2-0.6-12.5-2-18.5c0.4-1.3,1.2-2.1,1.9-3.1
		c0.8-0.2,1.5-0.6,2.2-0.9c5.8-2.6,6.1-2.6,5.5-8.9c-0.6-6.7-0.3-13.4-0.7-20.2c-0.5-10,1.7-19.3,5.5-28.4c0.4-0.9,0.8-1.7,1-2.6
		c0.1-0.3,0-0.5-0.3-0.8c-4,2.8-6.8,6.7-8.3,11.2c-2.4,7.2-3,14.8-2.9,22.3c0.1,7.6,0.7,15.3,1.3,22.9c0.2,3.4-0.7,4.7-3.5,4.9
		c0-10.2-2.5-20.3-2.2-30.6c0.1-4.9,0-9.9,1.1-14.6c1.6-7.2,3.4-14.6,9.3-19.8c5.7-5,12.6-7.2,20.2-7.3c6.2-0.1,12.3-0.7,18.4-0.9
		c8.7-0.2,17.4,0.5,26,1.7c11.5,1.5,23,2.7,34.6,2.9c11.8,0.3,23.7,1.5,35.5,1.9c9.8,0.3,19.5,0.5,29.2,1.8
		c13.3,1.9,26.7,1.1,40,2.7c12.7,1.5,25.4,2.5,38.2,3.3c8,0.5,16,0.5,24,1.3c3.8,0.4,7.8,0.7,11.2,2.5c3.9,2,7.2,5.2,10,8.8
		c8.6,11.1,11.7,24,11.8,37.8c0,4.8,0.8,9.6,0.2,14.2c-1.8,13.2,0,26.3-0.5,39.5c-0.2,3.8,0,7.6,0,11.6c3.4,0.6,6.3,0.5,9.1,2
		c-0.1-25.7-2.4-50.8,0.1-76c-0.8,25,0.8,49.9,1.6,74.8c1.2,0.5,2.2-0.9,3.6-0.1c-2.8,1.8-5.2,3.8-8.8,3c-0.9-0.2-0.1-1-1.1-1.7
		c-2.6-0.8-5.3,0.5-8,1.7c-7.4,3.3-14.9,6.5-22.9,8.3c-1.5,0.3-3.1,0.6-4.3,2c-1,1.2-2.8,1.3-4.4,1.5c-0.1-0.5-0.2-0.8-0.2-0.9
		c3.7-1.2,6.8-3.6,10.6-4.8c7.7-2.3,15-5.4,22-8.6c0.3-0.6,0.4-0.8,0.4-1c-0.8-9,1.2-17.9,0.3-27c-1.1-11.1,0.7-22.3-0.2-33.4
		c-0.6-7.6,0-15.4-2.1-22.9c-2.7-9.6-8.1-17.7-15.8-24.1c-3-2.5-7-3.2-10.8-3.7c-6.1-0.8-12-2.3-18.2-2.5
		c-8.6-0.3-17.1-1.5-25.7-1.9c-10.6-0.6-21-2.2-31.6-2.6c-5.6-0.2-11.1-0.7-16.7-0.8c-8.6-0.1-17.2-1.1-25.7-1.8
		c-7.9-0.7-15.8-0.4-23.7-1.1c-14.9-1.2-29.9-1.2-44.9-1.9c-5.6-0.3-11-1.6-16.6-2.1c-12.4-1.1-24.8-1.9-37.2-0.7
		c-4,0.4-8,1.2-11.8,2.7c0.7,7-1.4,13.6-3,20.1c-2.1,8.4-3.9,16.8-3.7,25.4c0,1.5,0.2,3,0.4,4.5c0.4,3.2,0.5,6.3-1.8,8.8
		c0.9,3,2.1,5.9,0,8.7c-0.1,0.2-0.2,0.3-0.2,0.5c-1.5,1.9-3.6,2.1-5.7,2c-2-0.1-3.6,0.6-5,0.9c-0.8,0.8-1.1,1.6-0.9,2.2
		c1.3,4,0.8,8.3,1.7,12.4c0.8,3.6,1.9,4.4,5.6,3.7c1.4-0.3,2.6-0.9,4.1-0.8c1.3,0.1,2.3,0.7,2.4,2c0.1,1.2-0.6,1.8-1.6,2.5
		c-4.4,3.1-9.5,3.8-14.6,4.5c-2.5,0.4-5,0.2-7.6-0.1c-4.8-0.6-9.7-1.1-14.2,1.3c-0.8,0.4-1.8,0.5-2.7,0.6
		c-7.1,0.8-13.8,2.9-20.7,4.5c1.1,0.5,2.3,0.6,3.4,1.2c2.5,1.4,3.9,3,3.4,6.3c-1.1,7.6-0.2,8.4,7.1,6.2c17.2-5.2,35-8.3,52.3-13.2
		c5.3-1.5,10.5-3.1,15.8-4.4c2.8-0.7,5.7-1.3,8.4,0.6c0.1,0.2,0.2,0.3,0.2,0.5c0.1,0.9,0,1.6-1.2,1.5c-2.6-0.2-5,0.7-7.5,1.5
		c-23.2,8-47.1,13.5-70.9,19.4c-6.4,1.6-13,1.8-19.2-1.5c-1.4-0.7-1.5-0.6-3.5,0.2c-2.8-5.9-1.8-12.5-3.4-18.9
		c5-1.3,10-2.5,15.2-3.8c-1.2-3.2-0.9-6.7-4-9.2c3.4-2.9,0.1-7.2,2.8-10c-0.9-2-2-3.8-4.4-3.5c-2.3,0.3-3.4,1.8-4,4.2
		c-1,4.1-4,6.7-7.5,8.8c-1.1,0.6-2.2,0.7-3.4,0.4c-7.9-2.3-14.9-6.3-20.9-12.1c-1.1-1-2.1-2.3-1.3-4c1-1.1,2.4-1.1,3.4-1.5
		c1.7,0.1,1.7,1.7,2.8,2.3c0.8-1.6,1.4-3.8,4-2.1c0-10.6,0.9-20.9,2.4-31.1c0.7-4.7-0.3-9.5-1.4-14.1c-2.4-10.3-2.7-20.6-1.9-31.1
		c0.6-7.8,0.3-15.8,1.1-23.6c0.8-8.3,0.2-16.7,0.8-25c0.4-5.2,3.2-8.7,6.7-11.7c5.7-5.1,11.9-9.7,19.2-12.3
		c3.9-1.4,7.9-2.5,11.9-3.8c1.5-0.5,3.2-0.5,4.6-1.5c0.7-1.2,0.1-2.9,1.5-3.9c1.1-0.2,2.5-0.2,3.5-0.8c5.9-3.5,12.7-3.5,19.1-4.8
		c3.6-0.7,7.3-1.5,11-1.7c4.8-0.3,9.4-0.4,14.2,0.6c12.9,2.9,25.4,1.3,37-5.2c1-0.6,2.1-0.9,3.2-1.2c3.9-1.2,7.6-2.7,10.9-5.3
		c5.1-3.9,10.7-4.4,16.8-2.9c5.7,1.4,11.6,2.4,17.4,3.4c2,0.4,3.9,0.8,5.4,2.3c6.7-1.3,13.3-2.6,19.9-4c4.5-0.9,8.8-2.2,13.1-4.2
		c7.7-3.5,16.1-4.8,24.7-4.2c2.2,0.1,4.4,0,7,0c1-5.5,2.2-11.2,0.1-17.3c1.7,0.5,2.8,0.7,4,1.1c1,5.4,0.1,10.8-0.6,16.2
		c-0.8,5.5-1.7,11-2.3,16.5c-0.9,10.2,2.1,19.1,7,27.7c2.1,3.7,4.2,7.7,2.8,11.8c-1.3,3.8-0.4,6.9,0.4,10.3c0.1,0.2,0,0.5,0,0.7
		c-0.1,0.2-0.2,0.4-0.6,0.8c-3-2.6-3.7-6.3-2.8-9.5c1.2-4.4-0.2-8-1.9-11.7c-0.9-1.9-2-3.6-3.2-5.7c-3.3,1.2-6.4,3.1-9.4,5
		c-1.6,1-3.5,2.4-3,5c0.2,1-0.8,1.6-1.4,2.3c-1.1,1.2-2.1,2.5-3.1,3.7c-1.1,1.4-1.5,2.7-0.3,4.4c0.9,1.3,1.7,2.8,1.5,4.6
		c-0.4,2.8,1,4.9,2.6,6.9c1,1.2,2.2,2.4,2.4,4.1c-1.1,1.2-1.9-0.5-2.8-0.2c-0.3,0.5,0,1.1,0.4,1.1c4.2,0.7,6.9,3.7,9.6,6.5
		c1.1,1.1,2.5,1.7,4,2.1c2.7,0.7,5.5,0.8,8.3,1c5.2,0.2,10.4,0.8,15.6,1.4c6,0.6,11.9-0.6,17.5-2.6c5.1-1.8,8.5-5.4,9.2-11.5
		c1-8.4,1.9-16.7,0.4-25.1c-0.1-0.5-0.6-1-0.9-1.4c-3.2-4.5-6.5-9.1-10.8-12.6c-0.9-0.7-1.3-1.5-1.5-2.6c-0.8-3.6-1.3-7.3-1.4-11
		c-0.3-11.1-2.2-21.9-5.2-32.6c-0.9-3.2-2.3-6.3-4.3-9.1c-1.4-2-2.6-4.1-2.8-6.7c-0.1-1.3-0.2-2.7,1.8-2.5c-1.4-3.3-1.1-6.6-0.8-9.8
		c0.5-5.1,0.9-10.2-0.8-15.2c-0.8-2.3-0.9-4.8-1.2-7.2c-0.8-7.1-2.6-13.9-4.7-20.7c-2.2-7-1.1-14.1-0.4-21.1
		c0.6-5.9,1.3-11.8,1.6-17.6c0.2-4.1,1.8-5.8,4.6-7.9c2.5-1.8,4.3-4.5,6.3-7c1.5-1.9,2.9-3.9,5.2-4.7c1.1-3.9-3.8-4-3.7-6.6
		c-1.4-1.3-3.3-0.5-4.5-2.2c2.7-1.9,4.8,0.5,7.1,0.5c0.7,1.6,1,3.2,2.6,4.4c1.7,1.3,1.9,4,0.3,5.6c-4.6,4.8-8.2,10.8-14.2,14.2
		c-1.2,0.7-1.8,1.7-1.8,3.1c0.1,10.8-1.5,21.6-1.6,32.4c-0.1,4.3,1.2,8.5,2.7,12.6c1.6,4.8,2.2,9.7,3.3,14.6
		c3,12.4,1.3,24.9,2.3,37.4c0.1,1.3,0.2,2.6,1.1,3.5c3.9,3.9,4.6,9,5.6,14c0.8,4.3,1.4,8.7,3.5,12.6c5.3,0.7,10,2.9,14.9,5
		c1.4-2.3,1.2-4.7,0.6-7c-1.4-5.9-1.6-11.7,0.1-17.6c0.5-1.6,0.2-3.2,0.1-4.8c-0.3-4.2-0.1-8.4,1.2-12.4c0.5-1.6,0.4-3.2,0-4.8
		c-1.1-3.7-1-7.5-1.4-11.2c-1-9.1,0.8-17.8,2-26.6c1.2-8.4,3.5-16.6,4.7-25c0.4-2.6,0.4-5.3,1.5-7.9c-2.2-1.9-5.1-2.6-6.5-5.1
		c-4.7,0-9.1-0.6-13.4-2c5.8-0.2,11.5-0.6,17.6,0.2c3-4.5,6.2-9.1,9.2-13.7c1.1-1.7,0.1-3.7-0.3-5.3c-1.5-6.5-3.4-13-5.2-19.8
		c-4.8,0.2-8.9-2.5-14-3c1.9,7.9,3.8,15.3,5.7,23.2c-1.8,3.8-4.9,7.3-8.1,10.5C898,288.2,896.4,290.6,893.8,291.7L893.8,291.7z"/>
	<path d="M507.9,146.6c1.1,1.3,0.3,2.4-0.5,3.4c-2,3-3.7,6.1-5.2,9.4c-0.4,0.8-0.8,1.6-0.8,2.8c2.5-0.2,4.6-1.4,6.9-1.3
		c7.3,0.3,13.2,3.6,17.9,8.7c4.4,4.8,7.7,10.4,10.5,16.6c-0.8,1.1-1.4,2.3-1.2,3.9c0.4,4-0.2,7.9-1,11.8c-0.5,2.2-1.3,4.2-0.1,6.6
		c0.8,1.6-0.4,3.6-1.3,5.3c-0.6,1.1-1.3,2.2-2,3.3c0.6,0.9,1.5,0.1,1.7-0.1c1.6-2.6,3.9-4.8,4.2-8.2c0.6-6.9,1.7-13.8,1.6-20.8
		c0-4.5-1.3-8.2-3.5-11.9c-1.2-2-2.3-4-3.2-6.2c-1.8-4.1,0.5-9.2,4.8-10.7c0.3-0.1,0.6,0.1,0.9,0.1c0.5,0.6,0.5,1.2,0.1,1.6
		c-2.9,3-2.3,6.4-1.1,9.7c1.2,3.3,2.6,6.4,3.9,9.7c1.8,4.6,2.5,9.1,1.6,14.2c-1.2,6.9-1.1,14.2-5,20.8c2.6,0.1,4.4-1.2,6.4-1.6
		c0.8-0.9-0.8-1.4,0.3-2.9c3.6-0.8,6.5-4.6,10.9-5.6l-0.1-0.1c-0.4,1.7-1.9,2.8-3.1,4.5c8.6-3.1,17-5.6,25.4-9.9
		c-4.7-2.3-3.4-7.6-7.3-9.9c2.2-1.9,4-3.1,6.6-2.8c0.1,2.4-2.2,2.2-3.2,3.2c2.2,3.9,3.8,8.5,9.4,8.9c-0.3-1.1-2-1.2-1.9-2.6
		c1.1-0.8,1.8,0.7,3.1,0.5c-0.1-1.2,2.3-1.8,0.9-3.9c-3.7,3.5-5.6,0.2-7.9-2c0.3-1.1,1.3-1.5,2.3-2.1c1.1,0.3,2.3,0.7,3.5,0.8
		c4.6,0.5,6.1,3.6,3.8,7.7c-0.2,0.4-0.1,0.9-0.2,1.3c-0.2,0.1-0.2,0.2-0.2,0.2c-0.1,0,0,0,0.2-0.2c1.1-1.5,2.3-2.9,3.5-4.6
		c-0.4-0.6-1.2-1.8-2.2-3.2c0.7-1,2.8-1.3,1.6-3.3c-0.7-0.6-1.1,0.9-2.3,0.5c-1.9-1.6-4.2-3.3-7.2-3.8c-0.3-1.1-0.7-2-0.9-2.9
		c0.3-0.8,0.9-1,1.4-1c6.7,0.6,11.6-2.6,15.8-7.2c0.8-0.8,1.2-1.1,3.8-1.9c0.9-2.8,1.2-5.9,2.5-8.8c0.8-1.7,0.7-1.7,3.2-1.6
		c1.1-1,0.5-3.3,2.7-3.6c1.2,1.3-0.3,2.7,0.6,4.3c0.6-2.1,1.2-3.9,1.7-5.8c-3.2-3.1-6.6-3.3-10-0.4c-2.4,2-5,3.7-6.5,6.6
		c-2.2-2.3-2.3-4-0.4-5.3c1.3-0.9,2.5-2.1,4.3-1.9c1.4,0.1,2.4-0.7,3.5-2c-5.2-2.1-8.7-6.6-14.3-8.9c2.4-0.9,3.7-0.1,5.1,0.9
		c3.2,2.3,6.5,4.4,9.8,6.7c0.8,0.6,1.6,1.3,2.5,0.8c3.9-2,7.4-0.2,11.3,1c2.3-1.4,4.3-3.7,6.7-4.9c1.1-0.2,1.5,0.3,1.8,1
		c4.3-1.5,4.3-1.5,5.9,1.9c0.4-0.1,0.9-0.3,1.3-0.5c0.3-0.1,0.5-0.4,0.8-0.6c-1.6-4.4-1.3-6.4,1.5-8.7c2.1,1.9-0.1,4.4,1.1,6.5
		c1.6-0.7,1.4-3.2,3.7-3.7c1.8,2.6-0.8,4.7-0.9,7.1c1.1,0.2,1.7-1.7,3.2-0.8c0.8,2.5-2,3.2-2.8,5.1c1.8,0.2,3.6-1.9,5.6-0.1
		c-1.2,3.5,0.2,7.4-1.4,10.9c1.1,0.7,2.2-0.8,3.3,1.1c0.4,2.6-3.5,3.6-3.7,6.5c2.5,0.8,4.3-2.4,7.1-1.3c0.7,1.2,0.7,2.9,2.5,3.9
		c1.4,0.7,0.7,2.6,0,3.8c-1.2,2-2.6,3.8-4.1,5.9c2.1,2.6-0.1,4.5-1.5,6.4c0.9,1.2,2.3-0.3,2.9,0.7c0.8,0.8,0.6,1.6,0.1,2.3
		c-2,2.7-3,5.9-5.3,8.4c-1.5,1.7-2.5,3.9-3.4,6.1c-1.8,4.4-3.9,8.6-7.6,12c1.6,1.8,2.1,3.9,1,6.1c-0.6,1.2-0.1,2.2,0.1,3.4
		c0.4,3.1-0.3,5.6-3.2,7.5c-3.1,1.9-6.2,3-10,3.6c-3.4,0.5-7.4,0.4-10,3.8c-1.1,1.4-2.8,2.1-4.7,1.2c-0.7-0.3-1.3-0.4-2,0.6
		c0.8,0.9,1.4,2.1,2.9,2.4c4.1,1,7.4,3.5,10.3,6.3c9,8.6,16.6,18,18.6,31c0.8,5.3,1,10.5,1.4,15.8c1.1,14.4-1,28.7,0.9,43.1
		c0.9,6.7-0.5,13.5,0.3,20.2c0.2,1.3-0.2,2.6,0.5,4.3c3-2,6.9-0.6,10-3.5c1.4-1.3,4.7-0.8,7.1-1c3-0.3,6-0.3,9-0.9
		c1.6-0.3,3.2,0.2,2.9,1.9c-0.7,4.9-0.9,9.9-1.7,14.8c-3.6-4.3-2.2-9.4-1.8-14.5c-4.5,0.9-8.9,0.1-13.1,1.8c-2.3,1-4.9,1.4-7.5,1.6
		c-2.6,0.2-4.9,0.9-6.1,3.4c-1-0.2-1.2-0.7-1.2-1.3c0-13.5-1-26.9-1.6-40.4c-0.4-8,0.9-16,0.1-24c-0.9-9.4-0.3-19.1-3.4-28.3
		c-2-6-5.2-11.4-9.5-16c-1.7-1.8-3.1-3.8-4.8-5.5c-3.1-3.1-6.5-5.9-10.9-7.3c-1-0.3-1.9-0.8-2.6-1.7c-0.4-0.6-1.1-1.2-1.7-1.1
		c-3.5,0.6-6.7-1-10.2-1c-14.6,0.3-29.3,0.9-43.9,0c-9.7-0.6-19.4-2.2-29.1-2.9c-10.4-0.8-20.8-2.5-31.3-2.4c-2,0-3.5,0.5-5,1.9
		c-1.8,1.8-3.9,3.3-6.1,5.1c2.8,1,5.6,1.2,8.3,1.3c18.4,0.5,36.6,2.3,54.9,3.9c9.9,0.9,19.9,1.6,29.9,1.7c5.3,0,10.6,0.9,16,1.3
		c7.4,0.6,12.7,4.7,17.1,10c6.1,7.4,10.4,16,12,25.5c1.3,8,2.1,16.1,1.5,24.3c-1.1,16.7-0.4,33.4-0.6,50.1c0,3,0.4,6,0.7,9.2
		c2.9,0.6,5.8,0.4,8.9,2c-0.1-26.6-2.5-52.9,0.1-79.2c-0.8,26,0.8,51.9,1.7,77.9c1.8,0.3,3.3-1,5.3-0.7c-4.2,2.4-8,5.2-12.9,3.3
		c0.5-0.3,1.5,0.2,2.1-0.7c-3-1.9-6-0.4-8.5,0.8c-9.3,4.4-18.9,7.8-28.8,10.2l0.1,0.1c-0.1-2.3,1.9-2.2,3.1-2.5
		c7.4-2,14.3-5.4,21.5-8c1.5-0.6,3-1.2,4.3-2.3c0.1-0.3,0.2-0.7,0.2-1c-0.6-9.6,1.2-19.1,0.3-28.8c-1.1-11.3,1-22.8-0.1-34.1
		c-0.6-6.6-0.4-13.2-1.3-19.8c-0.8-5.6-3-10.5-5.7-15.2c-2-3.6-4.6-6.7-7.2-9.9c-4.1-5.1-9.9-7.2-16.2-8c-6.2-0.7-12.2-2.3-18.6-2.5
		c-9.3-0.3-18.5-1.2-27.8-2.1c-20.6-2.1-41.2-3.2-61.9-4c-1.3-0.1-2.6-0.3-3.8,0.4c-6,3.3-13.1,3.9-19.2,7.2c-2.2,1.3-5,1.5-7.5,0.8
		c-3.7-1-7.4-0.8-11.1-0.9c-6.7-0.2-8-1.4-9-7.9c-0.1-0.7-0.3-1.3-0.4-2c-7.9-1.9-15.8-1.4-23.6-1.6c-7.1-0.1-14.1-0.5-21.1-1.7
		c-6.8-1.2-13.6-1.5-20.4-1.9c-7.5-0.4-15-0.8-22.6-0.1c-5.5,0.5-10.7,1.9-16.1,3c0.9,3.3,0.4,6.4-0.2,9.4
		c-1.5,6.9-3.3,13.8-4.7,20.7c-1.5,7.5-2.6,15.1-1.4,22.8c0.5,3,0.5,6.1-1.9,8.5c0.5,3,2.6,6-0.1,8.9c-0.1,0.2-0.1,0.3-0.2,0.5
		c-1.3,2-3.4,2.3-5.5,2.4c-1.4,0.1-2.8,0.1-4.1,0.4c-1.8,0.4-3.1,1.6-2.5,3.5c1.1,3.9,1.2,8,1.8,12c0.6,4.4,1.7,5.1,6,4.2
		c1.2-0.3,2.5-0.7,3.8-0.7c1.4-0.1,2.6,0.5,2.8,2c0.2,1.5-0.7,2.2-1.9,2.9c-8.4,4.9-17.5,4.9-26.8,4c-3.3-0.3-6.7-0.1-10,1.3
		c-3.7,1.6-7.9,1.7-11.9,2.4c-4.9,1-9.6,2.6-14.3,3.3c2.1,0,4.1,1.1,6.2,2.1c1.8,0.8,1.8,2.5,2,4.1c0.3,2.9-0.5,6,0.5,8.6
		c1.6,1,2.8,0.5,4,0.2c19.9-6.1,40.4-9.8,60.4-15.3c5.8-1.6,11.5-3.8,17.5-4.6c1.9-0.2,3.7-0.4,5,1.5c0.1,0.2,0.1,0.3,0.2,0.5
		c0,0.3,0.1,0.7,0.1,1.1c-5.3-0.4-9.9,1.9-14.7,3.4c-12.1,3.9-24.2,7.6-36.5,10.5c-10.1,2.4-20,5.1-30.1,7.5c-8,1.9-16,2.6-23.1-1.8
		c-0.9-0.1-1,0.2-1.2,0.5c-0.2,0.2-0.6,0.3-0.8,0.4c-0.7-0.3-1-0.8-1.2-1.3c-1.3-4-1.6-8.2-2-12.4c-0.2-1.9,0.1-3.9-1.3-6.1
		c5.8-1.1,11-2.6,16.4-4c-1.7-3.1-1-7-4.3-9.4c3.5-3.1,0-7.7,3-10.6c-1.1-2-2.2-4-4.8-3.6c-2.4,0.4-3.5,2-4.1,4.5
		c-1.1,4.3-4.4,7-8.1,9.1c-1,0.6-2,0.6-3.1,0.3c-8.4-2.4-15.8-6.7-22-12.8c-0.4-0.4-0.7-0.9-1-1.4c-0.3-0.5-0.5-1-0.7-1.5
		c0.5-2.6,2.9-2,4.1-2.9c1.5,0.4,1.8,1.7,2.8,2.8c0.9-1.8,1.5-4.3,4.2-2.4c0.1-10.7,0.8-21.2,2.4-31.7c0.9-5.6-0.3-11.1-1.5-16.5
		c-1.5-6.5-2-13.1-2.4-19.7c-0.2-3.1,0.3-6.2,0.6-9.3c0.7-8,0.4-16,1.1-24c0.6-6.3,0.7-12.7,0.5-19.1c-0.1-4.3,0.1-8.5,0.7-12.8
		c0.6-4.4,3.8-7.2,6.7-9.8c6-5.5,12.6-10.2,20.4-13c4-1.5,8.2-2.5,12.3-3.8c1.5-0.5,3.2-0.5,4.7-1.7c-0.1-3,1.3-4.7,4.5-4.5
		c0.2,0,0.4-0.1,0.7-0.2c12.7-5.3,26.2-6.5,39.8-7c1.8-0.1,3.5,0.1,5.1,0.7c4,1.4,8,0.7,12,0.1c3.3-0.4,6.6-1.1,10-1.3
		c1.7-0.1,3.4-0.5,5-1.3c7.8-3.6,16.3-5.5,23.6-8.9c1.5,0,1.7,1.1,2.8,1.2c8.7-5,18-6.7,28.1-3.1c1.9-5.5,5.6-10.3,9.2-15.2
		c1-1.4,1.8-3.4,4.1-3.3l-0.1-0.1c0,0.5-0.1,0.9-0.1,1.6c8.5,0.3,16.6,2.8,25,3.2c-3,1.4-6.2,0.4-9.3,0.9c1.7,6.7,6.3,12.3,6.9,19.2
		c-4.8-5.7-7.5-12.5-9.7-19.6c-4.9-0.5-9.7-1.5-14.7-1.1c-2.9,4.7-6.5,8.9-8.6,14c-0.4,1-0.8,1.9-0.5,3c2.1,8.1,3.6,16.3,6,23.5
		c5.9,2.9,12.1,2.8,17.7,5.6c2.5-7.3,5.1-14.6,7.6-21.8c1.9,0.8,1.2,2,0.9,3c-1.2,5.5-3.3,10.6-5.5,15.8c-0.5,1.2-1.2,2.3-1.2,3.6
		c-0.1,3.5-2.9,2.5-4.8,2.7c-1.8,1.8-0.7,3.6-0.4,5.3c0.5,2.6,1.7,5.1,3.1,7.4c0.8,1.3,1.5,2.6-0.1,3.6c-1.5,1-2.7-0.2-3.5-1.3
		c-3.1-3.9-4.9-8.4-5.7-13.3c-0.2-1.3,0-2.9-1.9-3.3c-1.5,1.1-0.9,2.5-0.7,3.8c0.7,3.9,2.4,7.5,3.8,11.2c0.5,1.4,1.2,2.8-0.4,3.7
		c-1.6,0.8-2.6-0.4-3.4-1.6c-2.7-4-4-8.6-5.1-13.2c-0.6-2.8-1.2-5.4-3.2-7.8c-2.1-2.4-2.5-6.1-2.9-9.4c-0.3-2.2-0.7-4.3-1.8-6.1
		c-4.2,0.1-1.7,7.3-6.9,5.9c1.7,0.4,2.7,1.4,1.8,3.2c-1.7,3.5-0.8,6.8,0.6,10.1c0.9,2,1.7,4.1,2.1,6.3c0.2,1,0.2,1.9-0.7,2.5
		c-1,0.7-1.8,0.1-2.8-0.4c-5.1-2.3-6.5-7.7-9.8-11.4c-0.1-0.2-0.3-0.4-0.2-0.6c1-3.4,0.5-7.2,1.3-10.4c0.6-2.4,1.7-5.1,3.8-7.3
		c1.6-1.7,2.8-3.6,5-4.6c1-0.4,1.7-1.2,1.5-2.9c-2.8-2-6.1-1.8-9.4-1.3c-4.5,0.6-8.9,1.9-13.3,2.9c-8,1.9-15.6,5.2-23.3,8.1
		c-3.5,1.3-7,2.3-10.7,1.3c-1.1-0.3-2.1-0.4-2.6-0.3c3,0.1,6.6,1.2,10.2,0.3c0.9-0.2,1.7,0.7,1.9,1.7c0.3,1.4-0.4,2.3-1.6,2.7
		c-1.8,0.7-3.8,1-5.8,1.3c-6,1-11.8,1.1-17.8-0.8c-8.5-2.6-17.3-2.7-26.1-0.6c-6.6,1.6-13.5,2.1-20.1,3.9c-3.7,1-4.2,1.5-4,5.5
		c0.6,10.9,1.9,21.7,4.1,32.4c1.2,5.8,2.8,11,6.4,15.6c0.4,0.5,0.7,0.9,0.9,1.5c0.6,1.2,0.5,2.3-0.8,3c-1.1,0.6-2.1,0.1-2.7-0.9
		c-1-1.5-1.6-3.1-2.5-4.2c1.7,2.7,3.4,5.8,5,9c1.2,2.5,3,3.2,5.7,2.8c6-0.9,12.1-1.4,17.9-3.2c5-1.6,9.6,0.8,14.4,1.7
		c7.4,1.3,14.7,2.1,22.1,0c1.9-0.5,3.9-0.5,5.9-0.3c5.8,0.7,11.4,0,17.1-1.7c4.3-1.3,9.2-1.3,13.8-1.2c4.3,0.1,8.1-1.3,11.7-3.5
		c0-2.1-1.7-2.1-2.8-2.7c-3.8-2-6.5-4.8-7.8-8.9c-0.4-1.3-0.3-2.6,1.2-3.2c1.2-0.5,2.5-0.1,3,1.1c1.9,4.5,5.9,5.2,9.9,6.6
		c5,1.7,9,0.1,13.4-1.9c-0.4-2-1.9-2.9-3.4-3.3c-3.6-1.2-6.4-3.7-9.5-5.7c-1.5-1-2.8-2.3-1.4-4c1.4-1.8,2.8-0.7,4.1,0.6
		c0.5,0.5,1,1.3,1.4,1.2c-3.4-4.5-10-5.9-12.9-11.6c-1.1-2.2-1.5-4.3,0.3-6.1c1.4-1.3,3.4-2.4,5.4-1.5c2.1,0.9,0.5,2.9,1,4.6
		c1.5,0.3,3-1.3,4.6-0.3c1.5,0.9,2,2.5,3,3.8c3.3,4.1,6.4,8.6,11.3,11.1c1.4,0.7,2.6,1.5,4.4,1.2c0.5-1.8-1-2.8-1.6-4.2
		c-0.5-1.2-1-2.3,0.3-3.1c1.2-0.7,2.3-0.1,2.9,1c2.2,4.1,5.5,6.6,10.1,7.8c1.9,0.5,2.6,2.1,1.5,4.1c-1.6,3-3.4,3.8-7.7,2.9
		c0.7,1.3,1.1,3.1-0.6,3.5c-4.7,1.1-7.9,5.3-12.2,5.3c1.3-0.4,3.2-0.5,5.2,0.3c1.2,0.5,2.1,1.1,1.9,2.5c-0.3,1.5-1.5,2.1-2.9,1.9
		c-2.7-0.4-5.3-0.4-8-0.4c-0.7,0-1.4,0-2.3,0.9c-0.8,2.6,0.3,5.4,0.8,8.1c0.2,1.1,1.4,1.4,2.5,1.7c2.6,0.7,5.3,0.6,8,0.5
		c2.5-0.1,5.1-0.3,7.6-0.1c3.1,0.3,3.9-0.6,3.9-3.8c0.1-4.6-0.4-9.3,0.4-13.9c0.5-3.1,1.5-6.1,3-8.9c0.9-1.6,0.9-3,0.1-4.5
		c-1.4-2.6-2.5-5.3-3.4-8c-0.5-1.4-1.4-3,0.5-4c1.6-0.9,2.5,0.4,3.4,1.6c0.3,0.5,0.7,0.9,1.8,0.9c2.8-5.5,2.4-11.6,3.4-17.5
		c-2.6-1.2-3.8-0.2-4.6,1.6c-0.4,0.7-0.3,1.6-0.4,2.4c-0.2,1.5,0.7,3.8-1.6,4c-2.5,0.3-2.1-2.1-2.6-3.7c-0.8-2.7-0.3-5.2,0.6-7.8
		c2-1.1,4.2-1.2,6.4-1.5c4.1-0.6,8.3-1.1,12.8-2.4c1-5.6,3.6-10.8,5.6-16.5c-4.8-2.6-9.9-1-14.7-1.9c5.7-1,11.4-2.1,17,1.8
		c-0.4,4-2.7,7.7-3.9,10.5c0.2,11.5,0.7,22-4.7,31.9c-0.3-3.6,0.2-7,1-10.3c1-4.3,1.4-8.6,0.3-13.3c-1.6,0.4-3.4,0.8-5,1.2
		c-2,3.8-2.1,6.7-0.3,8.6c-0.2,1.2-0.5,2.5-0.7,3.8c-0.4-0.4-0.7-0.6-1-0.9c-1.4,11-5.5,21.2-7.7,31.9c-0.8,4-1.5,7.9-1.2,12.1
		c0.6,7.4,0.8,14.9,0.5,22.3c-0.1,2.6,0.3,5.1,0.6,7.6c2,1.6,4.2,2,6.6,2.1c4.9,0.2,9.9-0.9,14.8,0.9c1.4,0.5,3.2,0,4.4-0.8
		c3.7-2.8,8.2-2.9,12.3-4.6c0.8-0.3,2.1,0,2.2-1.6c0-0.4,1-1.1,1.6-1.1c5.6-0.5,8.7-5,12.7-8c3.7-2.8,6.8-6.3,10.7-8.9
		c1-0.6,1.2-1.7,2.1-2.8c4.1,0.6,8.4,0.2,12.6,0.4c5.9,0.2,10.4-2.5,13.9-6.7c2.2-2.6,5.1-4.9,5.8-8.7c0.3-1.7,2.6-2.4,4.3-3
		c1.9-6.3,2.2-12.6,2.8-19c0.4-4.3-1-8.4-1-12.6c0-0.2-0.2-0.4-0.3-0.6c-4.2-5.3-7.3-11.5-13.3-15c-5.2-3.1-10.9-3.5-16.4-1.5
		c-7.2,2.7-13.7,6.8-19,12.4c-3.9,4.1-7.4,8.8-6.4,15.2c0.3,1.7,0.6,3.3,1.5,4.8c3.1-0.5,5.7-2.9,9.2-2.4
		c-8.8,6.1-18.4,11-26.7,18.2c2.4,3.1,2.7,7.3,5.4,10.3c1.6,1.8,1,4.4,0.9,6.8c-0.1,3.2-1.2,6.1-2.4,9c-0.3,0-0.5,0-0.8-0.1
		c0.2-2.4,0-4.9,0.6-7.2c1.3-6-1-11.4-4.6-15.1c-4.6-4.7-4.9-9.9-4.7-15.5c0.3-8.9,0.8-17.9,0.3-26.8c-0.4-6.4,1.5-11.3,6.3-16.1
		c4.4-4.4,8.8-8.8,13.2-13.3c2.6-2.7,1.6-7.1-2.3-8.4c-4.8-1.7-9.8-3.6-14.7-3.8c-3.8-0.2-7.6-1.4-12,0.3c1.8-3.4,5.3-2,6.6-4
		c6.4,1.1,12.4,2.5,18.4,4.5c3,1,6,2,7.4,5.3c1.2,2.6,1.1,5.2-0.8,7.5c-0.5,0.6-1.2,1.3-1.3,2c-0.6,5.6-4.9,7.8-9.1,10.1
		c-0.4,0.2-0.8,0.5-1.2,0.8c-0.2,0.1-0.3,0.4-0.5,0.6c0.3,1.2,1.4,2.1,1.5,3.3c10.6,2.9,21,1.7,31.4-0.3c2.1-4.7,4.1-9.3,7.2-13.3
		C506.1,148.4,506.8,147.2,507.9,146.6L507.9,146.6z"/>
	<path d="M483,122.7c-4.3,0.8-8.3,0-12.1-2.4c0.4-0.5,0.6-0.8,0.7-0.8c7.4,1.4,14.9,0.1,22.3,1.1c2.1,0.3,4.1,0.7,6.3,1.5
		c2,4.6,3.9,9.2,6,14.1c5.1-2.4,10.1-0.2,15.4,0.2c-0.3-4.6-0.8-9,0.3-13.5c0.5-2,1.1-3.2,3.3-3.8c6.1-1.6,12-3.4,18-5.2
		c1.8-0.5,4-0.5,4.6-3.3c9.2,4.8,19.2,7.4,25.8,16.2c-0.1,0.8-1.2-0.6-2.1,0.2c-0.4,7.8-0.9,15.9-2,24.3c2.2,0,4.5-0.5,6.3,0.9
		l-0.2,0.2c-1.7,1.9-3.8,1.8-6.1,1.4c-3.7-0.7-6.8,2-6.8,5.8c0,2.6,0.9,5.2-0.8,7.7c-0.4,0.6,0.1,1.5,0.6,2.2
		c1.4,1.9,2.7,3.9,3.8,6.1c-2.1-2.2-6.4-1.4-6.8-5.6c-1.7,0.3-2.5,1.9-4.1,2l0.1,0.1c0.1-2.2,1.4-3.6,3.2-4.6
		c0.1-1.3,0.2-2.4,0.3-3.7c-6-4.4-12.6-5.1-19.8-2.9c-0.2-2.5,1.6-2.9,3.2-3.4c3.1-0.9,6,0.5,8.9,0.8c0.9,0.1,1.8,0.3,2.8,0.5
		c-3-8.5-30.8-20.5-46.5-20.2c-0.9,2,0.7,3.5,1.3,5.2c0.4,1.3,1.5,2.7-1,3.1l0.1,0.1c-3.6-6.1-7.1-12.2-9.3-19c-0.4-1.3-1.1-2.6,0-4
		c-2.8,0-5.4,0.2-8,0c-2.4-0.2-5.4,1.2-6.8-2C482.8,121.7,482.6,122.1,483,122.7L483,122.7z"/>
	<path d="M200.1,330.7c1.9,0.4,3.3-1,5.3-0.1c-2.1,3.3,0,7-1.1,10.3c-1.3,0.5-1.2-1.1-2.2-1.1c-0.3,1.7,0.8,3.4-0.1,5.3
		c-1.2,0.6-2.5,1.7-3.9,2.4c-1.9,1-3-1.3-4.3-2.1c-2.9,0.3-1.1,4.1-3.7,4.6c-1,0.1-0.7-1.3-1.6-1.7c-3.1,0.9,0.4,5.6-3.7,6.1
		c-1.2-1.7-4.7-0.7-5.3-4.2c-6.1,4.5-12.6,2.7-19,1c-1.8,2.9-2.6,5.9-3.5,9.1c8,5,15.9,10,26,9.1c1.1-0.1,2.3,0.4,3.4,0.4
		c2,0.1,3.8-0.2,5.8-0.6c3.6-0.7,7.3-1.3,10.8-2.3c0.9-0.3,1.8,0.3,2.6,0.8c2.8,1.8,5.9,2.1,9,1.2c2.6-0.8,4.8-0.6,6,2.1
		c4.5,0.9,9.4-0.4,13,3.3c-1.1,1.7-2.6,1.8-4.1,1.7c-5.1-0.4-10.2-0.9-15.3-1.3c-3.5-0.2-6.4-1.8-9.4-3.4c-1.7-1-3.2-1-4.9,0
		c-1.6,0.9-3.3,1.7-5.3,0.8c-0.4-0.2-1-0.2-1.3,0c-2.1,1.5-4.5,1.7-7,1.5c-7.6-0.7-15.4,0-22.3-4.2c-1.2-0.7-2.4-1.4-3.4-2.4
		c-1.9-1.8-3.5-4-6.1-4.8c0.3-4.8,0.8-9.1,3.6-12.3c4.6-1.7,8.7,0.4,12.9,0.3c1.3,0,2.5,0,3.7-0.8c2.5-1.8,5.4-2.6,8.4-3.3
		c5.7-1.3,10.4-3.7,12.8-9.5C196.9,334.5,199.5,333.6,200.1,330.7z"/>
	<path d="M819.8,279.8c-1.2,0.3-1.2-0.6-1.4-1.4c-1.9-7.2-3-14.5-4.7-21.8c-0.3-1.4,0.5-2.4,1.2-3.5c3.6-6.2,8.7-11.2,13.8-16.5
		c6.2,2.2,12.9,2.2,19.1,4.9c3.1,1.3,6.6,1,9.9,1.6c7,1.2,7.2,1.5,8.3,8.4c0.2,1.1,0.4,2.3,0.6,3.3c4.2,2.1,9.3,0.8,13.2,4.1
		c-2.1,2.2-3.1,0-4.5-0.6c-2.6-0.3-4.4,2.9-7.2,1.8c-0.6-1.5,1.2-1.4,1.2-2.4c-0.7-0.7-1.5-0.5-2.4,0c0.1,2.9,0,5.9,0.7,8.9
		c0.4,1.7,0,3.1-0.8,4.6c-3.1,5.6-6.3,11.1-11,15.6c-1,1-1.4,2.1-1.5,3.4c-0.8,10.9-3.6,21.5-5.4,32.3c-0.8,5-1.6,10.3-1,15.3
		c1.1,8.8,0.3,17.7,1.7,26.5c0.8,4.9,2.3,9.9,1,15.2c-0.5,2,0.5,4.3,1.4,6.3c0.4,0.9,1,1.8,0.4,2.9c-3.5-2.7-5.5-8.2-4-12
		c0.6-1.5,0.2-2.7,0-4.1c-1.8-11.7-3.6-23.4-3.4-35.3c0.2-13.2,3.2-26,5.7-38.9c0.6-3,1.9-6,1.4-9.2c-0.1-0.5,0.4-1.1,0.8-1.5
		c4.8-6,8.5-12.8,13-19c0.6-0.8,0.9-1.6,0.6-2.6c-1.9-6.6-2.7-13.4-4.4-20.3c-10.8-2.4-21.8-3.5-32.5-6.8c-4.8,4.9-9,10.4-13.8,15.7
		C818.5,263,819.9,271.3,819.8,279.8L819.8,279.8z"/>
	<path d="M585.8,599.6c1.8,0.9,3.3-1.3,5.1,0.5c-2.5,2.8,0.3,6.4-1.2,9.4c-1,0.6-1.2-0.9-2-0.7c-0.4,1.6,0.7,3.1-0.1,4.7
		c-2.5,1.5-5,4.7-7.8,0.4c-2.8,0.4-1.3,3.6-3.3,4.3c-1.2,0.4-0.9-1.6-2.5-1.2c-1.9,1,0.8,4.7-2.6,5.5c-1.5-1.3-4.3-0.9-5.5-3.9
		c-5.8,4.3-12,2.3-18.1,0.8c-1.7,2.9-2.5,5.8-3.2,8.7c7.8,5,15.6,9.3,25.2,8.8c3.3-0.2,6.4,0.1,9.8-0.6c2.6-0.6,5.2-1,7.8-1.8
		c1.4-0.4,2.5,0,3.6,0.6c2.6,1.5,5.3,2,8.3,1.2c2.1-0.6,4.2-1,5.8,1.5c0.8,1.3,2.8,0.7,4.3,0.9c2.9,0.3,6.1-0.1,8.3,2.8
		c-1,1.6-2.5,1.6-4,1.5c-5-0.4-9.9-1-14.9-1.3c-3.1-0.2-5.8-1.7-8.4-3.1c-1.7-1-3.2-1.1-4.8-0.1c-1.9,1.2-3.9,1.6-5.8,0.4
		c-2.7,2-5.5,2.3-8.4,1.6c-1.8-0.5-3.7-0.1-5.6-0.1c-6.6-0.1-12.7-1.6-17.8-5.9c-1.9-1.6-3.4-3.8-5.8-4.6c0.3-4.5,0.7-8.6,3.4-11.8
		c4.3-1.7,8.3,0.3,12.4,0.2c1.2,0,2.3,0.1,3.3-0.7c2.6-1.9,5.7-2.6,8.7-3.4c5.1-1.3,9.5-3.5,11.7-8.8
		C582.6,603.6,585.2,602.7,585.8,599.6z"/>
	<path d="M311.8,318.9c1-0.2,2.2-0.3,2.1,0.9c-0.1,2.2,1.5,3.3,2.5,4.8c2.8,4,4.3,8.4,3.3,13.8c8.7-1,17.2-5.7,26,0.3
		c0.9,3.7,1.6,8.1,1.1,12.7c-0.2,1.4-0.4,2.8-2.2,3l0.1,0.1c-2-2-1.9-4.6-2.2-7.1c-0.5-4.9-1.3-5.3-6-4.3c-4.7,1-9.2,2.5-13.8,3.7
		c-1,0.3-2,0.5-3.1,0.7c-1.4,0.2-2.7,0-3.1-1.5c-0.3-1.5,0.8-2.4,2.1-2.7c4-1,8-2.5,12-3.4c1-0.2,2-0.6,2.8-0.7
		c0.7-0.1,0.2,0.4,0.2,0c0-0.1-0.1-0.2-0.3-0.1c-2.7,0.9-5.5,1.5-8.3,2.2c-5.1,1.3-7.2-0.2-8.2-5.2c0.3,1.3,0.5,2.7,0.8,4
		c0.3,1.3-0.3,2.3-1.4,2.9c-1.3,0.7-2.1,0-3.1-0.8c-1.9-1.8-1.4-4.3-2.1-6.5c-1-3.4-1.2-7.1-1.6-10.6
		C309.4,322.5,310.4,320.6,311.8,318.9L311.8,318.9z"/>
	<path d="M692.8,589c1.2-1,2.1-0.5,2.1,0.8c0,1.8,1.1,2.6,2,3.8c2.9,3.8,4.3,8.2,3.6,13.3c2.7,0.4,5-0.3,7.3-1
		c5.9-1.9,11.6-1.7,17.4,1.2c1.1,4,1.7,8.3,1.2,12.7c-0.1,1.2-0.2,2.7-2.1,2.5l0.1,0.1c-2.3-1.6-1.6-4.2-2.1-6.4
		c-1-5-1.3-5.1-6.1-4.2c-4.9,1-9.6,2.8-14.5,3.8c-1.6,0.3-3.5,1-4-1.3c-0.4-1.9,1.4-2.4,2.8-2.8c4.6-1.5,9.3-2.8,13.4-3.8
		c-3.1,0.3-6.5,2.2-10.3,2.3c-4.7,0.1-5.6-0.8-5.9-5.5c0.1,1-0.1,2.1,0.4,3.1c0.9,1.8,0.6,3.3-1.4,3.9c-2,0.7-2.9-1-3.2-2.3
		c-0.9-4-2.1-8-2.5-12.2C690.6,594.1,690,591.1,692.8,589L692.8,589z"/>
	<path d="M602,413.6c-0.2,0.4-0.4,0.8-0.6,1.2c-1.1,0.4-1.5-1-2.7-0.9c-5.8,4.9-13,3.7-19.9,3.8c-1,0-2.3-0.6-2.3-2.1
		c5.6-0.5,11.2-1,17-1.5c-1.1-5.7-1-11.2,0.1-17.1c-4.7,0.4-9.1-0.6-13.7,0c-2.4,0.3-3.5,1.5-3.5,3.9c-0.1,2.9,0.2,5.9-0.5,8.7
		c-0.6,2.1,0.3,4.4-1,6.5c-1.8-0.2-2.4-1.5-2.1-2.7c1.4-6.1,0.9-12.4,1.9-18.6c0.2-1,0.4-2,1.4-2.4c1.5,0.6,0.4,2.1,1.6,3.2
		c6-0.9,12.5-1.2,19.2-1.3c-1.7,6.5-1.4,12.7-2.2,19.3c4.2-1.5,7.8-3.6,12.4-4.1c-2.1,2.5-5.3,1.8-6.8,4
		C600.9,414,601.5,413.9,602,413.6L602,413.6z"/>
	<path d="M970.3,679.5c0,1.1-0.4,1.6-1.4,0.8c-0.9-0.8-2-0.8-2.5,0c-1.6,2.5-4.2,2.3-6.5,2.6c-3,0.4-6,0.6-9,0.7
		c-1.8,0.1-3.7-0.1-4.8-2.3c5.6-0.5,10.8-0.9,16.5-1.4c-0.9-5.4-0.9-10.7,0.1-16.5c-4.2,0.4-8.2-0.7-12.3-0.1
		c-3.7,0.6-4.2,1-4.1,4.7c0.1,4.3-0.5,8.5-0.9,12.7c0,0.3-0.3,0.6-0.6,1c-1.9-0.3-2.2-1.8-1.9-3.1c1.2-5.4,1.1-10.8,1.6-16.2
		c0.1-1.2,0.1-2.6,1.5-3.3c1.6,0.3,0.5,1.8,1.6,3c5.8-0.9,12.1-1.3,18.5-1.1c-1.9,6.2-1.5,12.2-2.3,18.6c3.9-2,7.4-3.4,11.3-4
		c-1.3,2.1-4.3,1.6-5.7,3.5C969.5,679.6,969.9,679.6,970.3,679.5L970.3,679.5z"/>
	<path d="M406.8,120.1c0.1-0.5,0.3-0.9,0.9-0.9c7.2,0.3,14.2,0.5,21.4,1.7c6.8,1.1,9.9,4.5,12.1,10c0.8,2,1.8,4,2.8,6
		c1,0.6,1.2-1,2.1-0.6c1.7,0.6,2.7,1.9,3.6,3.7c-1.7,1.7-1.3,4.1-2,6.5c-2.2-0.7-3-2.5-3.7-4c-2.4-4.9-4.7-9.9-6.8-14.9
		c-1-2.5-2.4-4.1-5.3-4.2c-6.8-0.1-13.3-3.2-20.3-2.2C409.8,121.4,408.2,120.8,406.8,120.1L406.8,120.1z"/>
	<path d="M602.1,413.7c8.4-3.7,16.7-7.4,25.1-11.2c12-5.3,24.2-10.1,36-16c1.2-0.6,2.4-1.4,3.7-1.2c0.5,1.3-0.3,1.4-0.9,1.7
		c-8.3,4.8-17.2,8.2-25.9,12.1c-11.1,4.9-22.3,9.8-33.7,14.1C604.9,413.9,603.5,414.2,602.1,413.7L602.1,413.7z"/>
	<path d="M970.4,679.5c7.8-3.5,15.7-7,23.5-10.4c11.9-5.3,24-10,35.6-15.8c1.1-0.5,2.2-1.4,3.5-0.7c0,1-0.7,1.1-1.3,1.4
		c-15.2,8.1-31.2,14.4-47,21.1c-3.2,1.4-6.3,2.9-9.6,4C973.5,679.6,972,679.8,970.4,679.5L970.4,679.5z"/>
	<path d="M819.8,279.9c7.1,1.1,14.2,2.2,21.1,4c3.1,0.8,5.3,3.7,8.6,4.6c-10.5,0.4-20.4-2.3-30.8-4.6c2-1.5,3.9-0.7,5.9-0.9
		C823.2,281.3,820.6,281.9,819.8,279.9L819.8,279.9z"/>
	<path d="M865,374.6c3.1-2,5-4.4,6.5-7.4c1.6,2.6,1,3.7-4.6,9.6c-1.1,0.5-1.4-1.2-2.4-0.8c-2.9,2.6-2.7,7.4-6.3,9.4
		c-1.8-0.7-1.8-1.9-1.3-3c0.8-2.2,1.7-4.4,3.6-5.8c1.8-1.3,2.4-2.9,2.4-5c0.1-3.3,0.1-6.7,1.3-9.9c0.5-1.4-0.3-2.7-0.1-4.1
		c0.2-1.5,0.3-3,1.7-4.2c-0.1,2.7,1.8,5.4-0.3,8.2c-0.4,0.6-0.4,1.6-0.3,2.3C865.3,367.3,865.4,370.8,865,374.6z"/>
	<path d="M441.3,197c0,2.7-0.7,5.3-1.2,7.8c-1.5,8.8-1.7,17.8-3.3,26.6c-0.5,2.8,0.4,5.5,0.7,8.3c-2.2-2.4-3.4-5.3-3.1-8.5
		c1.1-9.7,1.7-19.5,3.9-29C438.9,200.3,439.3,198.2,441.3,197z"/>
	<path d="M882.4,433.4c1.1,1.8,0.4,3.1-0.7,3.6c-3.6,1.6-4.2,5.5-6.6,8.1c-0.2,0.2-0.2,0.8-0.4,0.9c-4.8,2-4.1,6.7-5.4,10.4
		c-0.6,1.6-1,3.4-2.9,4.1c-1.6-0.3-2.1-1.3-1.7-2.8c1.2-5.1,1.2-10.9,7.3-12.5C874.1,439.6,879.4,437.5,882.4,433.4z"/>
	<path d="M661.9,371.1c-7,2.4-14,4.8-21,7.3c-4.3,1.5-8.9,2.6-12.6,4.9c-6.5,4-13.6,6.4-20.4,9.3c-2.8,1.2-5.7,2.2-8.9,2.3
		C619.5,385.9,639.8,376.1,661.9,371.1z"/>
	<path d="M857.5,434.7c-1.8-3.6,0.6-6.6,1.6-9.8c0.5-1.7,2.5-2.3,4.8-2.3c-0.7-2.9,1.6-4,3-5.3c1.1-4.9-2.8-7.8-3.8-11.7
		c5.1,2.3,5.3,7.4,7.2,12c-4.5,3.6-6.1,9.7-11.1,13c0.1,1.7,1.2,3.2,0.4,4.7C858.5,436,858,435.2,857.5,434.7L857.5,434.7z"/>
	<path d="M1028.3,638.6c-3.4,1.1-6.8,2.2-10.2,3.4c-7.2,2.6-14.7,4.7-21.5,8c-4.9,2.3-9.7,4.8-14.6,6.9c-4.5,1.9-9,3.7-13.7,4.9
		c-1.1-0.7-0.4-1.3,0.2-1.6c19.6-7.4,38.4-17,58.9-22.2c0.2-0.1,0.4,0,0.7,0C1028.2,638.2,1028.2,638.4,1028.3,638.6z"/>
	<path d="M449.6,204.6c0.2,2.7,0.5,5.4-0.6,7.3c-2.2,3.8-1.8,7.8-1.6,11.8c0.1,1.7,0,3.2-0.7,4.7c-1,2.1-0.7,4.3-0.4,6.5
		c0.2,1.7,1.1,3.6-0.4,5.2c-1.7,0-1.7-1.3-1.8-2.2c-0.5-3.6-1.1-7.2,0.6-10.6c0.8-1.5,0.1-2.9,0-4.4c-0.3-3.9-0.9-7.9,2.1-11.2
		c0.8-0.9,0.6-2.2,0.8-3.3C447.8,207,447.8,205.6,449.6,204.6z"/>
	<path d="M456.2,231.8c1.4,1.2,1.1,2.4,0.6,2.9c-1.9,1.9-1.2,4.4-1.9,6.5c-1.2,3.6-2.1,7.2-3.1,10.8c-0.4,1.3-1.4,2.4-2.6,3.2
		c-1.5,0.9-2.6,0.6-3.3-0.9c0.1-1.4,1.1-2.2,1.7-3.1c2-2.9,4.2-5.7,4.6-9.5C452.6,238.2,455.4,235.5,456.2,231.8z"/>
	<path d="M575.7,152.1c1.9-2.9,5-3,7.8-3.4c2.1-1.3-0.2-3.9,1.8-5c2.7,2.1,2.6,3.6-0.4,6.9c-0.5,1.2,1.4,2,0.1,3.6
		c-0.7,0.5-1.8,0-2.7,0c-1.1-1.1,0.6-2,0-3c-2.1-0.3-3.3,0.9-4.8,2.1c-1.5,1.2-0.3,4-3.1,4.3c-2.3-2.3,1.5-3.4,1.2-5.3L575.7,152.1z
		"/>
	<path d="M612.6,627.5c-5.5,0.3-7.6-0.8-7.6-3.8c0-2.4,2.2-4.3,4.7-4C612.9,620.2,613.7,622.1,612.6,627.5z"/>
	<path d="M226.1,358.8c-2.7,0.2-5.6,1.2-7.3-2c-0.8-1.6-0.5-3.2,0.8-4.4c1.5-1.5,3.4-1.6,5.1-0.6C228,353.5,226.6,356.2,226.1,358.8
		z"/>
	<path d="M482.9,122.8c0.9,0.5,1.2,1.4,1.4,2.3c1.2,6.5,3.6,12.7,5.7,18.9c0.3,1,0.9,1.9,0.5,3c-1.2-0.4-1.4-1.5-1.8-2.4
		c-2.8-6.4-4.8-13-5.9-19.9C482.6,124,482.6,123.3,482.9,122.8L482.9,122.8z"/>
	<path d="M893.7,291.7c-0.1,0.7,0.1,1.4-0.9,2.2c-5.5-0.5-11.3-0.9-16.8-3c2.8-1,5.7-0.5,8.5-0.3
		C887.7,290.8,890.7,291.8,893.7,291.7L893.7,291.7z"/>
	<path d="M213.5,358.5c-2.3,0-4.3-1.9-4.3-4.1c0-2.1,1.7-3.9,4-4c2.3-0.1,4.4,1.7,4.5,3.9C217.8,356.5,215.8,358.5,213.5,358.5z"/>
	<path d="M600.1,627.1c-2.3,0-4.3-1.8-4.3-4.1c0-2.1,1.7-3.9,3.9-4c2.3-0.1,4.4,1.7,4.5,3.8C604.3,625.1,602.3,627.1,600.1,627.1z"
		/>
	<path d="M594.2,626.1c-1.1,0.3-1.5-0.2-1.9-0.8c-0.4-0.6-0.7-1.2-1.2-1.4c-1.6-0.1-0.9,1.9-2.8,2c-0.5-2.5-0.3-4.9,0.6-7.2
		c1.4-0.7,2.7-0.3,3.9,0c2,0.5,3,2.1,1.7,3.5C593.3,623.7,594,624.9,594.2,626.1z"/>
	<path d="M207.8,357.6c-2.2,0-2.2-1.9-3.4-2.3c-1.5-0.2-0.8,1.9-2.6,2c-0.7-2.4-0.1-4.8,0.3-7.1c1.7-0.8,3.1-0.4,4.4,0
		c1.8,0.5,2.7,2,1.5,3.4C206.9,355,207.2,356.1,207.8,357.6z"/>
	<path d="M612.6,269.9c-5-5.4-10.6-9.9-17.2-13.3c0.4-0.3,0.6-0.5,0.7-0.5C603.3,258.5,609.2,262.7,612.6,269.9z"/>
	<path d="M921.7,444.4c0.8,0.1,1.3,0,1.5,0.2c2.7,4.3,7.8,5.6,11.2,9c1.1,1.1,2.6,1.9,2.7,4.2c-2.3-1-3.4-2.8-4.9-4.1
		c-2.3-1.9-4.3-4.1-7.4-5C923,448.2,921.5,447,921.7,444.4z"/>
	<path d="M964.2,528.7c7.1,1.3,13.1,5.8,15.6,11.9C975.3,535.9,970.1,531.9,964.2,528.7z"/>
	<path d="M491.7,217.5c0.1-4.3,0.3-8.1,1.3-12.4C495.5,209.9,495,214.6,491.7,217.5z"/>
	<path d="M858.9,320.3c0.3-3-0.3-5.9-0.1-9c0.1-2.7,2.1-4.5,1.6-7.2c1.8,0.3,2.2,1.3,1.8,2.1c-1.6,3.6-2.3,7.4-2,11.4
		C860.3,318.5,859.9,319.7,858.9,320.3L858.9,320.3z"/>
	<path d="M861.7,390.8c1.3,1.6,2.7,3.3,4,4.8c1.2,0.5,1.4-1.2,2.7-0.9c-0.4,1.8-0.8,3.6-2.1,5C863.7,398,861.8,394.8,861.7,390.8z"
		/>
	<path d="M849.2,269.5c-3.9,3.9-7.2,8.3-11.1,12.2C841.6,274.6,845.7,269.9,849.2,269.5z"/>
	<path d="M861.6,302.4c-4.5-2.2-4.8-6.6-1-8.9C863,296.3,859.3,299.6,861.6,302.4z"/>
	<path d="M617.4,276.5c1.2,0.5,1.8,1.5,2.1,2.6c1.7,6.2,3.5,12.4,3.9,18.9C621.4,290.9,619.7,283.6,617.4,276.5L617.4,276.5z"/>
	<path d="M991,568.3c-1.7-6.5-3.3-12.9-5.1-19.6C988.1,551,990.6,560.5,991,568.3z"/>
	<path d="M855.6,347.1c0,4.9,0,9.9,0,14.8c-0.4,0-0.7,0-1.1,0C853.8,356.9,854.4,352,855.6,347.1z"/>
	<path d="M858.8,320.2c0,2.8-0.2,5.5-1.1,8.2c-0.6,1.8-0.2,3.7,0.1,5.5c0.3,1.4,0.6,2.9,0.1,5C855.5,332.1,856.4,326.1,858.8,320.2
		L858.8,320.2z"/>
	<path d="M507.8,175.1c-2.5,3.3-5.1,6.5-7.2,10.8C499.8,182.3,504,176.1,507.8,175.1z"/>
	<path d="M554.7,205.3c0.2-2.4,1.1-4.2,3.8-4.6c1-0.2,1.8-1,2.7-1.5c1.2-0.7,2.3-0.6,3.6,0.3C561.2,201.1,557.9,203.1,554.7,205.3
		L554.7,205.3z"/>
	<path d="M495.5,177c-1.7,3.1-2.2,6.2-4.4,8.5C489.6,182.5,491.2,179.1,495.5,177z"/>
	<path d="M935.4,474.1c-1.8,1.6-3.5,2.2-5.3,2.5c-1.8,0.3-2,3-4.1,2.7C926.3,475.9,930.8,473.2,935.4,474.1z"/>
	<path d="M510.7,188.3c2.4-3.9,8.6-5.7,12.3-3.4C518.6,184.6,514.8,186.5,510.7,188.3z"/>
	<path d="M451.9,133.8c0.4,1.2,2.2,1.3,2.3,3.5c-3.2-1.1-6.3-1.4-8.9-3.5C447.6,133.3,449.8,134.2,451.9,133.8L451.9,133.8z"/>
	<path d="M557.5,173.8c4,1.3,8.1,4.8,9.3,8C564.8,181.2,559.4,176.4,557.5,173.8L557.5,173.8z"/>
	<path d="M462.9,129.4c1.4-3.8,3.9-6.8,6.8-9.4C468.5,124,465.6,126.7,462.9,129.4z"/>
	<path d="M523,146.6c-3.6-1.9-7.3-3.2-10.7-5.3C516.5,141.8,520.3,143.2,523,146.6z"/>
	<path d="M483.3,160c0.7-3.5,3-6.1,5-8.8C487.7,154.7,485.5,157.3,483.3,160z"/>
	<path d="M485.8,200.7c2.1-2.3,4.9-0.7,6.6,3.7C490.1,202.8,488.4,201.1,485.8,200.7z"/>
	<path d="M557.5,173.7c-4.4-0.5-6-1.7-6.6-5.2c2.9-0.8,2.8,2.5,4.5,3.2l-0.1-0.1C555.5,173,557,172.9,557.5,173.7L557.5,173.7z"/>
	<path d="M855.5,267.2c3.2-0.8,6.2-0.3,9.2,0.9C861.5,268.7,858.4,269,855.5,267.2L855.5,267.2z"/>
	<path d="M488.4,186.5c-0.5,5.4-0.5,5.4-3,6.9C485.2,190.4,486.5,188.3,488.4,186.5z"/>
	<path d="M494.6,191.7c-1.5,1.9-1.6,5.1-4.9,5.4C490.4,194.4,491.9,192.5,494.6,191.7z"/>
	<path d="M848.5,257c-0.7-3.7-1.4-7.4-2.1-11.4C848.1,247.7,849.1,252.2,848.5,257z"/>
	<path d="M912.3,447.1c2.3-0.6,4.7-1,7.2,1.2c-2.8,1.2-4.9-0.6-7.2-0.6C912,447.7,912,447.5,912.3,447.1z"/>
	<path d="M548.8,172.7c-3.4,0.6-5.6-0.9-8-1.4C543.4,170.7,546,169.9,548.8,172.7z"/>
	<path d="M862.6,467.6c-0.6-2.1-1.3-4.2,0.8-6.1C864.4,463.9,864.4,464,862.6,467.6z"/>
	<path d="M497.8,146c2.5-0.1,5-1.8,7.6,0.5c-2.5,0-5.1,0-7.6,0C497.5,146.5,497.4,146.3,497.8,146z"/>
	<path d="M912,274.9c2.5-0.2,5.1-0.3,7.9,1.3c-1,0.2-1.4,0.3-1.7,0.3C916.2,276.2,914.2,275.3,912,274.9z"/>
	<path d="M500.1,197.6c0.9-2.4,2.8-3.6,4.6-5.4C503.8,195.6,502.7,196.9,500.1,197.6z"/>
	<path d="M450.8,194.7c0.6,2.7,0.6,2.7-0.7,4.9C448.9,197.6,449.9,196.2,450.8,194.7z"/>
	<path d="M866.8,334.7c0.7,1.9,0.5,3.7-0.2,5.5C865.7,338.3,865.6,336.5,866.8,334.7z"/>
	<path d="M861.4,404.8c-1.8-0.1-3-1-4-2.4C859.5,401.1,859.8,401.3,861.4,404.8z"/>
	<path d="M584,391.5c-1,2.6-3.3,1.9-5.3,2.2C580.1,391.9,582.2,391.9,584,391.5L584,391.5z"/>
	<path d="M866.6,280.3c-0.8-2.6-0.8-2.6,2.6-3.1C868.9,278.8,868.2,279.8,866.6,280.3z"/>
	<path d="M865.7,350.4c-1.7-2.2-1.6-3.9-0.1-6.3C866.2,346.5,866.3,348.2,865.7,350.4z"/>
	<path d="M861.1,476.6c1.2,1.4,1.1,2.7,1.4,4.1C859.8,479.8,859.8,479.8,861.1,476.6z"/>
	<path d="M438.4,246.8c-0.2-2-0.8-3.6,0.5-5.3C440.4,243.5,439,244.9,438.4,246.8z"/>
	<path d="M452,133.9c1.8-0.6,3.5-1,5.7,0C455.3,135.7,453.7,133.9,452,133.9L452,133.9z"/>
	<path d="M874.5,363c0.4,1.9-0.1,2.8-1.6,3.7C872.1,364.9,872.7,364,874.5,363z"/>
	<path d="M856.9,292.3c-1.5-1.6-1.5-1.6-0.5-3.5C857.6,289.8,857.9,290.7,856.9,292.3z"/>
	<path d="M857.4,434.7c0.1,1.1,0.1,2.1-1,2.7C855,435.2,855,435.2,857.4,434.7L857.4,434.7z"/>
	<path d="M870.4,389.7c0.5,1.4,0.6,2.7-1.3,3.4C868.2,391.3,869.3,390.6,870.4,389.7z"/>
	<path d="M863,290.1c1.3,1.3,1.4,2.2,0.4,3.2C862.1,292.5,862.4,291.6,863,290.1z"/>
	<path d="M500,186.3c0.8,1.6,0.8,2.5-0.8,3.3C498.4,188.4,498.7,187.5,500,186.3z"/>
	<path d="M435.3,197.9c0.9,0.9,1,1.6,0.3,2.6C434.5,199.7,434.9,198.9,435.3,197.9z"/>
	<path d="M446.3,242.7c0.4,1.4,0,2.1-0.9,2.6C444.8,244.2,445,243.5,446.3,242.7z"/>
	<path d="M855.5,267.2c-1.2,0.1-2.5,0.3-3.6-0.6C853.1,266.7,854.4,266.5,855.5,267.2L855.5,267.2z"/>
	<path d="M864,469.9c1.6,1,1.6,1.8,1,2.9C863.8,472.3,863.8,471.5,864,469.9z"/>
	<path d="M874,272c-0.1-1.4,0.1-2.1,1.2-2.4C875.9,270.7,875.3,271.2,874,272z"/>
	<path d="M435.7,191.9c-0.6-1-0.3-1.6,0.1-2.4C436.8,190.6,436.3,191.2,435.7,191.9z"/>
	<path d="M430.8,218.5c-0.2-1.4,0.2-2.2,0.9-2.8C432.3,216.8,432,217.6,430.8,218.5z"/>
	<path d="M872.3,280.9c-0.3-1.5,0.6-1.4,1.3-1.8C873.9,280.4,873.4,280.8,872.3,280.9z"/>
	<path d="M440.4,253.3c-0.7-0.7-0.5-1.1,0.1-1.5C441.3,252.3,441.1,252.7,440.4,253.3z"/>
	<path d="M872.1,273.2c0,0.7-0.1,1.2-1.1,1.1c-0.5-0.5-0.3-1,0.2-1.3C871.5,272.8,871.9,272.8,872.1,273.2z"/>
	<path d="M617.5,276.4c-0.3-0.4-0.5-0.8-0.8-1.3C617.3,275.4,617.1,276.1,617.5,276.4L617.5,276.4z"/>
	<path d="M873.8,357.8c1.1,0.2,1.3,0.7,0.9,1.4C874,359.1,873.8,358.7,873.8,357.8z"/>
	<path d="M509.9,140c-1,0.1-1.4-0.2-1.6-0.7C509.1,138.9,509.3,139.6,509.9,140z"/>
	<path fill="#FFFFFF" d="M766.7,495.5c-1.4,1.2-2.5,0-3.9-0.6c-1.2,2.2-3.3,2.3-5.4,2.5c-3.8,0.3-7.6,0.5-11.5,0.8
		c-2.8,0.2-5.4,0.7-8.2,1.6c-3.5,1.2-7.7,1.6-11.7,1.1c-3.8-0.4-7.6-0.5-11.4,0.5c-4.9,1.3-9.9,0.7-14.9-0.2
		c-3.9-0.7-7.8-1.1-11.6-2.4c-1.5-0.5-3-0.3-4.5,0.1c-6,1.5-12,2.8-18.2,3.2c-1.4,0.1-2.6,0.7-4.1,1.4c-3.2-5.8-5.8-11.8-8.6-18.6
		c3.2,2.8,4.7,6.2,7.8,8.2c-1.1-1.7-2.2-3.4-3.2-5.1c-3.6-5.9-4.9-12.5-6.1-19.1c-1.9-9.9-2.6-20-3.1-30c2.7-2.4,6-2.4,9-3
		c9.7-1.9,19.3-4.2,29.3-4.2c2.3,0,4.6,0.3,6.9,0.8c6,1.4,12.2,0.8,18.3,0.8c1.1,0,2,0.2,3.2,0.5c1-1.6,2.5-2.2,4.2-2.6
		c4.6-1.2,9.4-1.7,13.5-4.4c1.4-0.9,3.1-1.5,4.9-0.4c7.7-7.8,16.8-11.2,27.8-8.2c-1.5,1.3-3.4,2.3-5.3,2.2c-2.3,0-4,0.9-5.7,2
		c-4.1,2.7-8.5,4.7-13,6.7c-1.9,0.9-3.6,1.8-3,4.4c0.3,1.3-0.4,2.3-1.2,3.2c-3.7,4-3.7,8.6-2.3,13.4c1.4,4.9,3.2,9.7,4.7,14.6
		c1.4,4.6,0.9,9.4,1.6,14.1c0.9,5.7,3.7,8.2,9.6,7.6c0.2-1-0.7-1.1-1.2-1.4c-4.6-2.7-5.7-7.1-5.1-11.7c0.7-5.2-0.4-9.9-2.1-14.6
		c-1.2-3.3-2.5-6.5-3.6-9.8c-1.3-3.7-1.5-7.2,1.4-10.4c1.4-1.5,2-3.4,2.1-5.4c5.2-2.7,10.2-5.3,15.1-8.2c3.3-2,6.8-3.7,10.2-5.7
		c0.9-0.5,1.7-0.6,2.7-0.5c2.9,0.5,5.9,1.1,9.7,1.7c-7.1,4-14,6.5-19.7,11.6c0,1.3-0.1,1.6-1.5,3.6c-0.3,1.1,1,1.5,1.2,2.3
		c-0.2,0.8-0.9,1-1.5,1.4c-0.5,0.4-1.3,0.7-1.2,1.5c1.6,0.9,1.6,0.9,3.7,0.5c0.5-0.7-1-2,1-2.2c0.3,1.6,0.4,3.4,0.2,5.2
		c-1.8,1.2-3,3-4.6,4.4c0.2,1.7,1.9,1.3,2.6,2.1c-0.4,1.3-2.4,1.4-2.4,3.3c0.1,1.2,1.6,1.7,2.3,2.6c-0.6,0.6-0.2,1.3-0.1,1.9
		c-0.2-0.7-0.4-1.3,0-2c1.3-0.1,2.3-1.1,3.5-1.8c-0.3,3.5,2.1,5.7,3.8,8.5c-0.4,1-2.3,0.1-2.2,1.6c0.5,2.2,3.7,1.2,4.2,3.5
		c0.1,1.2-1.6,0-1.4,1.8c1.6,1.9,5.9,2.2,5.9,6.4c2.6-1.1-0.9-4.4,2.3-4.9c0.1,0,0.3,0,0.3,0c3.1,4,7.8,4.6,12.3,5.8
		c2.3,0.7,4.4,1.9,6.6,3.7c-1.2,0.4-2.2,0.6-3,0.9c-0.9-0.6,0.3-1.8-0.7-2.1c-0.7-0.6-1.3-0.6-1.8-0.6c-1.9,0-3.5,0.2-5.2-1.6
		c-1.9-1.9-2.7,0.8-3.7,2.2c0.7,0.9,1.3,1.9,2,2.7c1.3,0.7,2.5-0.1,3.9,0.5c-4.8,1.8-9.6,3.5-14.5,5.3c-2.7-1.2-5.7-2.1-8.8-2.6
		c-2.7-0.4-4.6-2.3-5.6-4.8c-1.9-4.9-4.5-9.5-7.5-13.7c-5.7-8.1-5.4-16.5-1.7-25.1c0.7-1.6,1.5-3.2,2.1-4.8c0.6-1.6,0-2.4-2.1-2.2
		c1.3,1.9,0,3.2-0.7,4.7c-2.7,5.9-4.9,11.8-3.4,18.5c0.7,2.9,1.8,5.5,3.3,8c3,5,6.2,9.8,8.4,15.2c1.5,3.6,4.3,6,8.1,7
		c1.3,0.4,2.6,0.9,4,1.4C767.9,492.5,765.8,493.6,766.7,495.5L766.7,495.5z"/>
	<path fill="#FFFFFF" d="M611.3,459.1c0.7,1.6,0.2,3.1,1.3,4.6c1.3-2.2,1.7-4.5,1.4-6.9c8.9-7.3,18.9-12.2,30.7-14.1
		c-0.4,12.2,2.3,24.1,4.5,35.7c-3.6,1.6-6.9,1.6-10,2.8c3.2,1.9,6.3,0.2,9.4-0.2c0.6,0.8,0.3,1.4-0.5,1.7c-0.9,0.3-1.8,0.5-2.7,0.6
		c-6.8,0.5-10.9,7.1-9.5,13.7c1.2,5.5,2.7,11,2.8,16.8c0.2,7.6,0.3,15.2-1.7,22.8c-2.2,8.1-5.1,15.9-7.7,23.8
		c-1.8,5.7-2,11.7-2.9,17.5c-0.9,5.9-0.5,11.8-0.6,17.6c-2,1.6-4.3,2.7-5.2,5.8c-1.1-3.8-1.9-6.9-3-10.8c-1.4,3.5-0.6,6.3-0.4,9.6
		c-4.8-1.5-9.3-2.8-13.8-4.6c2.8-11.3,2.9-22.7,2.7-34c-0.1-5.2-1-10.4-1.9-15.5c-1.9-11.1-0.6-22.2-0.7-33.4
		c0-4.7,0.6-9.3,1.1-13.9c0.5-4.4,0.5-8.8-0.1-13.2c-0.9-6.6-0.6-13.2,1-19.7C606.3,463,608.6,460.9,611.3,459.1z"/>
	<path fill="#FFFFFF" d="M773.8,506.8c0.3-4.8,0.4-9.1-1.2-13.6c5.7,1,11.1,0.1,16.3,1.6c1,2.7,0.8,5.7,2.5,8.1
		c0.3-2.6-0.3-5.2,0.2-8.1c5-0.2,9.8-1,14.8-1.3c-9.9,0.7-19.8-0.9-30.4-1.4c3.7-1.6,6.8-2.9,9.9-4.2c0.6-0.3,1.3-0.4,2-0.7
		c5.5-2.5,11-3.8,17-1.8c2.1,0.7,4.6,0.4,6.9,0.2c7.9-0.9,14.7,2.6,21.7,5.2c1.9,0.7,3.8,1.6,6.6,2.4c-5.9,1.1-11.2,1-16.3,1.9
		c6.5,1.5,12.9,1.7,19.8-0.8c1.1,0.2,2.8,0.8,4.5,1.8c2.9,1.7,6.2,1.9,9.5,2.1c8,0.4,16,1.3,24,2c1.2,1.3,1.5,3.2,2.2,5.6
		c1.2-2.4,0.1-4.3,0.8-6c3.6-1.2,7.2-2.2,10.5-4.5c1.1-0.8,3.9-1.9,6-0.2c0.8,0.7,1.8,0.3,2.7,0.1c5.7-1.2,11.3-2.6,16.4-5.7
		c1.2-0.7,2.4-0.7,3.7-0.7c6.7,0.1,13.4,1.3,19.9,0.6c1.6,0.4,0.4,1.5,1.4,2.5c5.5,1.7,11.8,2.5,17.9,3.7c2.7,0.6,5.4,0.4,7.8,2.3
		c1.3,1,3.4,0.4,5.1,0.6c1.7,0.1,3.4,0.2,5.3,0.3c0.3,5.4-1.1,10.6-0.8,15.4c-2.8,4.3-7.2,4.9-11,6.5c-1.2-0.4-1.8-1.2-2.6-2
		c1.2-3.4,1.4-6.6-1.5-9.4c1.3-2.8,2.8-5.6,1.3-8.2c0.2-1.7,1.6-2,1.9-2.9c0-0.5-0.3-0.5-0.7-0.6c-2.4-0.6-4,1.6-6.5,1.7
		c-7.9,0.4-15.8,0.5-23.7,0c-11-0.7-22-1-33.8-0.5c4.6,1.7,8.7,0.5,12.7,1.2c0.5,5.1,0.1,10.3,2.5,15.1c-0.3-5.1,0.2-10.2,0.2-15.5
		c12.8,0.8,25.3,2.1,37.9,1.5c-0.4,5.2,0,10.1,1.4,14.8c0.3,0,0.6-0.1,0.9-0.1c-0.4-3.7-0.7-7.4-1.1-11.2c2-0.7,3.8-0.8,5.5-0.2
		c1.5,2.9-2.5,2.3-2.4,4.2c0.8,0.8,1.8-0.6,2.6,0.1c1,2.4-0.2,4.5-1,6.4c0.2,1,0.7,0.5,1.3,0.6c0.1,1-0.2,1.9-0.7,2.8
		c-8.6-0.4-17.2,1.6-25.9-0.3c-1.7-3.4-1-7.4-2.2-11.1c-1.4,3.5-0.9,7-0.5,10.6c-1.8,0.8-3.3-0.7-5-0.1c0.1,0.8,0.9,0.7,1.4,0.9
		c0.6,0.2,1.4-0.1,1.9,0.7c-8.2,0.7-16.2-0.4-24.3-1.3c-12.1-1.3-24.3-2.2-36.5-2.7c-9.8-0.4-19.6-1.4-29.4-2.1
		c-6.4-0.4-12.8-0.2-19.3-1c0-1.9,0.6-3.8-0.2-6c-1.6,2,0,4.3-1.4,6C805.8,512.2,790.1,508.2,773.8,506.8z"/>
	<path fill="#FFFFFF" d="M780,470.3c-6.7-3.4-12.2-7.9-13.6-15.9c-1.1-6.2-2.1-12.4-0.7-18.6c0.3-1.3-0.1-2.3-0.5-3.4
		c2.4-1.8,5-3.2,8.3-5c-1.4,8.1-0.8,15.4,2.9,22.2c-0.4-1.9-0.9-3.8-1.3-5.8c-1.2-5.1-0.7-10.2-0.3-15.3c0.2-2.4,1.8-4,3.7-3.9
		c4.5,0.2,8.4-1.6,12.6-2.3c0.5-0.1,0.9-0.1,1.5,0.4c-2.4,5.7-4.5,11.6-4,18.1c1.4-5.2,2.1-10.6,4.6-15.6c1.4-2.7,3-4.5,6.1-5
		c3.9-0.5,7.6-2.2,11.6-2.4c0.6,0,1.2-0.3,1.6-0.6c5.4-3.8,11.9-4.6,18.1-5.8c5.9-1.2,12-0.3,18.8-0.1c-1.3,5.8-3,11.4-2.1,17.2
		c0.9,5.9,2.6,11.5,3.8,17.4c-0.6,1-1.8,1.4-2.8,1.7c-5.6,1.7-9.4,6.1-13.9,9.5c-2.6,1.9-3.3,4.7-3.2,8.3c0.2,5,3,9.3,3.5,13.9
		c0.7,6.1,4.6,8.7,9.2,12.1c-3.2-0.6-5.7-1-7.9-2.4c-3-1.9-6.3-3-9.7-3.8c-4.4-1-8.4-3.4-13.2-2.6c-1.6-3.1-4.2-3.6-7.1-3.2
		c-4.4,0.5-8.1-0.8-11.8-3c-4.2-2.5-8.7-4.5-12.3-7.9c-4.2-4-7.6-8.6-8.6-14.6c7.2,8.4,13.8,17.3,23.6,22.8c0.9-0.6,0.7-1,0.5-1.2
		c-9.6-6.6-16.6-15.8-24.5-24.1c-1-1.1-1.1-2.5-1.2-3.9c-0.1-1.5,0-3,0-5c-2.3,1.8-2.2,3.8-2,5.8c0.6,8.2,3.5,15.3,9.7,20.9
		C779.6,469.5,779.8,469.9,780,470.3L780,470.3z"/>
	<path fill="#FFFFFF" d="M931.3,291.9c0.9,0.6,1.2,0.8,1.9,1.3c-4.4,4.8-11.1,5.7-15.8,9.7c4.2-1.3,8.3-2.5,12.4-5
		c0.4,3.5,2.3,6.5,0.3,9.8c-0.4,0.6-0.1,1.6-0.1,2.4c0.2,8.1,0.4,16.1,1.7,24.2c1.5,9.6,4.4,18.9,5.5,28.5c0.4,3.4-0.6,6.4-1.1,9.4
		c-2.1,12.4-1.1,24.5,2.4,36.5c0.1,0.4,0.3,0.9,0.3,1.4c-0.1,5.4-0.4,10.9-0.1,16.3c0,0.5-0.3,1.1-0.4,1.6c-4.5,0.6-7.4,2.6-8.3,8.5
		c-2-1.6-2.5-4.2-4.3-5.8c-2.3-2-4.4-4-7.6-4.7c-3.4-0.7-5.4-3.8-8.6-5.4c1.2-3.2,0.7-6.4,1-9.5c0.1-1.4-1.3-2-1.4-3.4
		c-0.2-3-0.5-5.9-0.2-9c0.3-3.4,1.5-6.7,0.5-10.5c-0.9-3.6-0.3-7.6,1.4-11.2c0.7-1.4,0.9-2.9,0.5-4.4c-3.3-12.1-2.5-24.1,0.3-36.1
		c1.6-7.1,2.8-14.4,4.2-21.5c0.8-3.7,0.3-7.3,0.3-11c0-0.9,0.3-1.8,0.4-2.8c-1-1.8-2.7-3-4.4-4.6c4.8-5.3,9.7-10.5,12.7-17.3
		c-1.6-1-1.7-2.5-1.9-4.2c-0.5-7-2.9-13.6-4.8-20.3c-0.3-0.9-0.5-1-2.4-1.6c1.4-1.3,3.2-1.2,4.8-2c4.2,4.4,9.2,7.9,13.8,11.7
		c2,1.6,2.7,3.4,2.5,6c-0.5,6.3-2.3,12.3-2.9,18.5C933.8,289.1,933.6,291,931.3,291.9z"/>
	<path fill="#FFFFFF" d="M649.7,485.9c2.2,6.8,4.7,13.5,8.9,19.5c3.3,0.1,6.5-1.2,10,0.3c-1.7,5.1-0.1,10.5-0.6,15.9
		c-0.2,1.7,0,3,2.4,3.1c-2.1,3.7-3.5,7.6-4.8,11.6c-1,3-1.6,6.1-1.3,9.3c0.7,5.9-0.1,11.8-0.1,17.7c0,7.8-0.2,15.6,2.2,23.7
		c-6-1.5-8.5,2.6-11.4,6c-2.5,3-5.4,5.2-9.5,5.7c-4.1,0.5-7.4,3.1-10.9,5.3c3.6,1.5,6.4,1.1,8.7-1.2c1.1-1.1,2.5-1.2,3.7-1.5
		c1.2,0.1,1.2,1.5,2.3,1.6c1.5,0,0.3-1.9,1.5-2.3c1.3,0,1.5,1.7,3,1.9c2.2-0.3,1.8-2.4,2.2-4c2.7-0.2,2.7-0.2,2.7-5.7
		c3.6,5.9,4.2,9.7,3.3,20.9c-0.4,0.7-1,0.9-1.7,1.1c-0.5,0.2-1.1,0.3-1.5,0.5c-1.1-0.3-0.6-1.7-2.1-1.7c0.1,0-0.2-0.1-0.3,0.1
		c-2.9,3.7-6.7,3.1-10.5,2.1c-1.9-0.5-3.8-1.1-5.7-1.5c-1.5-0.3-2.8-0.2-3.4,1.6c1.1,2.2,3.8,1.4,5.4,2.8c-1.7,1.2-3.8,1-5.9,1.6
		c-1-6-3-11.7-2.7-17.7c0.2-4-1.4-6.4-5.5-7.4c0-7.2,0.6-14.4,1.5-21.5c1-7.9,3.2-15.5,6.1-22.8c6.5-16,7.6-32.4,4.5-49.2
		c-0.5-2.7-2.1-5.1-2-8.1c0.2-4.2,3.2-7.5,7.3-7.6C646.9,485.9,648.2,485.9,649.7,485.9z"/>
	<path fill="#FFFFFF" d="M692.9,588.9c-1,7.2,0,15.3,2.8,22.2c1.8-1.8,1.8-1.8,0.3-10.5c1.8,1.8,2.3,3.1,2.9,7.1
		c2.2,1.3,4.6,1.1,7.1,0.6c2.5-0.5,5-1.1,7.5-1.7c1.8-0.4,3.5-0.6,5.1,0.9c-6.8,2.2-13.7,4.4-20.5,6.5c0.1,0.2,0.1,0.4,0.2,0.7
		c8.2-1.8,16.1-4.7,24.6-6.1c1.4,4.6,0.9,9.3,1.5,13.8c-5-1-9.7,0.8-14.3,2.1c-12.4,3.6-24.9,6.7-37.4,9.5
		c-9.4,2.1-18.7,4.6-27.9,7.5c-2,0.6-4,1-6,1.3c0-4.7,0-9.1,0-13.6c-3.3-2.4-7.5-2.3-11.4-4.3c9.5-2.1,18.2-5,27.3-5.9
		c2.6-0.3,4.1-3,6.6-2.8c11.5,1.9,22.7,3.4,33.2-4.5c-2.4-1-4.1,0.3-5.8,0.6c-1.9,0.3-3.8,0.9-6.1,1.5c-1.8-7.4-2.4-14.9-2.8-22.6
		C684.3,590.5,688.6,589.7,692.9,588.9z"/>
	<path fill="#FFFFFF" d="M676.7,588.8c0-0.2,0-0.4,0.1-0.6l-0.1,0.1c2.8-1,1.6-3.3,1.6-5.1c-0.2-10.5-2-21.1-0.8-31.6
		c0.8-7.3,1.6-14.5,6.3-20.7c3-4,6.9-6.7,11.6-8.6c-13,20.4-10.3,42.6-8.1,65C684,588.7,680.4,589.4,676.7,588.8L676.7,588.8z"/>
	<path fill="#FFFFFF" d="M676.7,588.8c-0.2,3.1,1,6.1,1.2,9.2c0.2,5.4,0.4,10.9,2.1,16.1c-5,3.7-9.8-0.3-14.9,0.5
		c1.4-8.8,0.4-17-0.8-25.4c3.4,0.4,6.1,0.6,8.9,0.9C674.6,590.4,675.9,590.3,676.7,588.8L676.7,588.8z"/>
	<path fill="#FFFFFF" d="M997.6,503.3c-0.9-1.4-0.5-3-1.8-4.3c-0.7,3.7,0.9,7,0.8,10.6c-3.9,4-9.7,2.9-14.8,5.5
		c0.1-6.4,0.8-12.1,1.4-18.1c2.4,0.5,4.7-0.2,6.2,2.2c0.5,0.7,1.8,0.6,2.9,0c1.6-0.9,3.4-1.5,5.1-2.2
		C999.7,499.1,997.8,501.1,997.6,503.3z"/>
	<path fill="#FFFFFF" d="M698.1,523.5c-0.8,6.4-0.5,12.9-3.1,19.1c-2.5,6.2-3.4,13-3.7,19.7c-0.1,1.1,0.2,2.3-0.3,3.4
		c-2,0.6-2.1-0.9-2.2-2.2c-0.7-4.8-1-9.7-0.2-14.6c1.2-6.9,2.8-13.6,5.6-20.1C695.1,526.9,696.4,525.1,698.1,523.5z"/>
	<path fill="#FFFFFF" d="M766.7,495.6c0.8-0.5,1.6-1,2.9-1c1.1,3.7,1.2,7.7,2,11.6c-1.7,0.7-3.3,0.8-4.6,0.1
		c-3.4-1.8-6.9-1.7-10.5-1.7c-7.3,0-14.6,0-21.8-1.2c1.1-1.6,4.3-2.3,14-2.5c4.8-0.1,9.6-1.2,14.5-0.4c0.7-0.6,1.3-1.7,2.5-2.2
		C766.9,497.8,767.4,496.8,766.7,495.6L766.7,495.6z"/>
	<path fill="#FFFFFF" d="M672.2,505.1c4.6-0.9,9.1-1.9,13.6-2.8c2.1-0.4,4,1,6,1.6c-4.1,1.7-7.4,4.6-10.7,7.3
		c-3.3,2.7-5.9,6.2-8.9,9.4C672.8,515.5,671.9,510.4,672.2,505.1z"/>
	<path fill="#FFFFFF" d="M623.3,637.8c-0.4-3.9-0.8-7.5-1.2-11.6c4.6,2.3,9.1,3.4,13.8,4.3c0,4.4-1,8.7,0.9,12.9
		C633.5,638.6,628.2,639.1,623.3,637.8z"/>
	<path fill="#FFFFFF" d="M619.1,604.6c-1.3,1.8-3.3,2.5-4.8,3.7c-10.4-2.1-13.8-3.5-18.1-9.2c1.3-0.9,1.3,0.9,2.2,1
		c1.3-0.6,1.4-2.3,2.8-3.1C606.5,600.9,613.3,601.4,619.1,604.6z"/>
	<path fill="#FFFFFF" d="M944.1,486.4c-5.5,0.3-10.6-0.7-15.8-0.7C932.8,481.9,939.5,482.1,944.1,486.4z"/>
	<path fill="#FFFFFF" d="M964.8,452c4.7-0.8,7.5-5.7,12.8-5.3C973.5,448.8,969.7,451.7,964.8,452z"/>
	<path fill="#FFFFFF" d="M983.1,446.1c1.6,3.9,4.4,2.9,7.8,1.8c-1.6,2.1-3.3,2.8-4.8,4C984.4,451.2,983.5,449.6,983.1,446.1z"/>
	<path fill="#FFFFFF" d="M690.1,581.7c-1.4-4.4-1.7-8.8-0.7-13.3C690.4,572.8,689.5,577.3,690.1,581.7z"/>
	<path fill="#FFFFFF" d="M1010.1,462.8c1,0.3,1,1.2,1.5,1.6c-0.3,1.3-1.5,1.6-1.9,2.6c-0.4,1,1,1.9,0.3,3c-0.5,0.8-1.1,1.5-2.2,1.8
		c1.3-1.9,1.4-3.8,0.7-5.9C1007.9,464.4,1008.6,463.3,1010.1,462.8z"/>
	<path fill="#FFFFFF" d="M1006.4,448.1c-1.7-0.6-2.7-1.1-3.6-1.9c0.7-1.6,1.5-3,3.6-3.6C1006.4,444.4,1006.4,446.1,1006.4,448.1z"/>
	<path fill="#FFFFFF" d="M1014.2,455.5c-1.3,1.3-1.4,3.8-4.2,3.2c0.2-1.6,1.4-2.9,1-4.7C1012.2,454.5,1013.1,454.9,1014.2,455.5z"/>
	<path fill="#FFFFFF" d="M963.6,502.1c-1.6,0.3-3.3,0.6-4.8,0.8c-0.6-0.5-0.7-1-0.6-1.8c1.9-0.4,3.8-1.4,5.5,0
		C963.7,501.4,963.6,501.7,963.6,502.1z"/>
	<path fill="#FFFFFF" d="M836.2,458.2c-1.1,2.1-2.1,4.1-3.3,6.5C832.4,461.3,832.8,460.5,836.2,458.2z"/>
	<path fill="#FFFFFF" d="M982.4,435c1.6-1.8,3.1-3.5,4.9-5.5C986.5,432.9,986.1,433.4,982.4,435z"/>
	<path fill="#FFFFFF" d="M809.3,482.7c-3-0.3-6.1-0.6-9.1-0.8c3-0.2,6.1-0.7,9.1,0C809.3,482.2,809.3,482.5,809.3,482.7z"/>
	<path fill="#FFFFFF" d="M985.4,458.4c-1.9,2.2-3.8,1.6-6.3,1.4C981.2,458.4,982.8,457.3,985.4,458.4z"/>
	<path fill="#FFFFFF" d="M992,473.3c0,1.3,0,2.4,0,3.7c-1.2-0.4-2.4-0.5-2.4-2C989.6,473.5,990.7,473.5,992,473.3z"/>
	<path fill="#FFFFFF" d="M979.6,455.4c0.9-1.7,2-2.5,4.1-2.1C982.9,455.2,981.8,456,979.6,455.4z"/>
	<path fill="#FFFFFF" d="M968.7,457.5c-1.8,0.2-3.4,0.3-5.5,0.5c1.2-1.5,2.8-1.5,3.7-2.3C968.1,456,968.4,456.6,968.7,457.5z"/>
	<path fill="#FFFFFF" d="M955,490.3c1.9-1.7,2.4-1.6,5.8,0.7C958.8,490.7,957.2,490.5,955,490.3z"/>
	<path fill="#FFFFFF" d="M973.2,481.3c0.1-1.7,0.2-2.7,0.3-3.6c1-0.3,2-0.9,2.2,0.6C976,480.1,974.4,480,973.2,481.3z"/>
	<path fill="#FFFFFF" d="M1004.6,456c0.8-1.7,1.8-3.1,4.2-1.7C1007.7,455.7,1006.1,455.7,1004.6,456z"/>
	<path fill="#FFFFFF" d="M992.6,470.5c-1.6,0.6-3.1,1.6-5.2,1C989.2,470.2,990.8,469.7,992.6,470.5z"/>
	<path fill="#FFFFFF" d="M692,572.4c0.2,1.6,0.4,3.1,0.7,5C691.5,575.3,691.5,575.3,692,572.4z"/>
	<path fill="#FFFFFF" d="M1000.8,489.6c-0.3,1.4-1,2.5-2,3.4C998.7,491,998.7,491,1000.8,489.6z"/>
	<path fill="#FFFFFF" d="M762.7,434.8c0,0.8,0,1.6-0.5,2.3c-0.8-0.1-1.6-0.2-2.1-1c0.6-0.9,1.5-1.3,2.5-1.4L762.7,434.8z"/>
	<path fill="#FFFFFF" d="M968.8,475.2c1.3-0.2,2.6-0.3,3.9-0.5C971.5,476.2,970.1,475.6,968.8,475.2z"/>
	<path fill="#FFFFFF" d="M932.6,253.1c-1.1-1-2.3-1.9-3.4-2.9c1.9,0.1,2.6,1.6,3.9,2.4C933,252.8,932.8,253,932.6,253.1z"/>
	<path fill="#FFFFFF" d="M971.3,495.2c2-0.4,3.5,0.4,5,0.4C973.9,496.2,973.9,496.2,971.3,495.2z"/>
	<path fill="#FFFFFF" d="M948.6,488.8c-1.7-0.7-1.7-0.7-2-2.2c1.2,0,1.6,1.1,2.2,1.7c0.1,0.1,0.1,0.2,0,0.3
		C948.9,488.7,948.7,488.8,948.6,488.8z"/>
	<path fill="#FFFFFF" d="M985.4,489.1c0.5,1.9,0.5,1.9-1.4,2.3C983.8,490.4,984.2,489.7,985.4,489.1z"/>
	<path fill="#FFFFFF" d="M987.7,465.8c0.9-1.1,2-1.2,3.6-0.9C990.3,466.7,988.9,465.9,987.7,465.8z"/>
	<path fill="#FFFFFF" d="M998.2,436.8c-0.3,1.4-1.2,2.1-2.9,2.5C996.1,437.9,997,437.1,998.2,436.8z"/>
	<path fill="#FFFFFF" d="M969.3,488.5c1.4-1,2.3-0.6,3.4-0.1C971.4,489.7,970.6,488.8,969.3,488.5z"/>
	<path fill="#FFFFFF" d="M998.2,429.5c1.9-0.7,1.9-0.7,2.1,0.8C999.5,430.5,999,430.1,998.2,429.5z"/>
	<path fill="#FFFFFF" d="M1008.2,474.1c-0.6,1.4-1,2.3-2.5,1.6C1006,474.7,1006.2,473.8,1008.2,474.1z"/>
	<path fill="#FFFFFF" d="M627.1,641c-1.1,0.4-2-0.2-2.9-0.7c0.1-0.7,0.6-0.4,0.9-0.4C625.9,640,626.6,640.3,627.1,641z"/>
	<path fill="#FFFFFF" d="M993.5,430.6c0.8,0.9,0.8,0.9-1.4,2.2C992.8,431.7,993.2,431.1,993.5,430.6L993.5,430.6z"/>
	<path fill="#FFFFFF" d="M1005.3,435.6c-0.6,1.1-1,1.9-2.5,1C1003.4,435.8,1004,435.4,1005.3,435.6z"/>
	<path fill="#FFFFFF" d="M941.8,479.8c0.2,1.6-0.3,2-1.4,1C940.3,479.7,941.5,480.4,941.8,479.8z"/>
	<path fill="#FFFFFF" d="M972.8,469.1c-0.7,0.9-1.3,0.8-2.2,0.4C971.2,468.9,971.6,468.2,972.8,469.1z"/>
	<path fill="#FFFFFF" d="M944.4,478.9c0.9-1.2,1.4-0.6,2-0.1C945.8,479.6,945.2,479.4,944.4,478.9z"/>
	<path fill="#FFFFFF" d="M986.8,460.6c0.5,0.4,0.6,0.9,0.3,1.3c-0.3,0.4-0.7,0.2-0.9-0.1C985.9,461.4,986.1,461,986.8,460.6z"/>
	<path fill="#FFFFFF" d="M1005.7,462.3c-0.3-0.7-0.3-1.2,0.6-1.7C1006.9,461.5,1006.5,462,1005.7,462.3z"/>
	<path fill="#FFFFFF" d="M690.8,584.2c0.9,0.5,1.3,0.9,1.1,1.8C690.4,585.9,691.1,585,690.8,584.2z"/>
	<path fill="#FFFFFF" d="M969,485.9c-0.7,0.5-1.1,0.1-1.4-0.4C968.4,484.9,968.6,485.6,969,485.9z"/>
	<path fill="#FFFFFF" d="M993.5,430.6c-0.5-0.5-0.8-1-0.4-1.7C994.2,429.3,993.5,430,993.5,430.6L993.5,430.6z"/>
	<path fill="#FFFFFF" d="M973.4,484.6c0.4-0.1,0.5,0.2,0.6,0.5c0,0-0.2,0.2-0.2,0.2C973.4,485.3,973.3,485,973.4,484.6z"/>
	<path fill="#FFFFFF" d="M762.5,434.6c0.1-0.7,0.2-1.3,1.2-1.7c0,0.9-0.4,1.4-1,1.8L762.5,434.6z"/>
	<path fill="#FFFFFF" d="M982.8,444.8c-0.4-1,0.2-1.1,0.5-1.5C983.8,444.1,983.5,444.5,982.8,444.8z"/>
	<path fill="#FFFFFF" d="M954.9,480.2c0.1,0.6-0.3,0.8-0.8,0.9C953.7,480.2,953.9,479.9,954.9,480.2z"/>
	<path fill="#FFFFFF" d="M768.8,466.2c0.6-0.1,0.8,0.4,1,0.9C769.1,467.2,768.6,467.2,768.8,466.2z"/>
	<path fill="#FFFFFF" d="M780.1,470.3c0.7,0,1.1,0.3,1.5,1C780.7,471.3,780.2,471,780.1,470.3L780.1,470.3z"/>
	<path fill="#FFFFFF" d="M421.5,171.1c1.3,1.1,0.6,2.5,0.7,3.8c0.2,2.2,0.6,4.3,1.1,6.5c0.1-3-0.7-6.2,1.8-9
		c2.3-0.3,4.9-0.7,7.9-1.2c-2.2,8.8-1.9,17.8-5.9,26.1c-2.2-1.8-3.2-4.6-4.9-7c0.3,2.8,1.1,5.5,2.5,7.7c2.2,3.5,1.7,7.2,0.4,10.4
		c-2.8,6.7-2.6,13.6-2.1,20.6c0.1,1.9,0,3.7-0.6,5.8c-8.5-0.9-17.2,0.6-26-1.4c0.4-4.6,0.4-9.3-1.4-14.2c5.5,1.4,10.5,0.2,15.5,0.9
		c-3.5-2.3-7.4-1.4-11.9-1.8c4.6-2.7,10-3,13.7-7.6c0.9-0.4,2.8,0.6,4.8-0.3c-1.1-1.5-3.4-0.9-3.9-2.8c3.7-1.1,8.5,1.2,11.3-3.3
		c-0.8-1.4-2.1-1.9-3.5-1.8c-3.1,0.1-5.2-1.3-6.7-4c-1-1.8-2-3.6-3.7-5c1,3.3,3,6,5,9.2c-12-1.5-18.4-9.5-23.9-18.4
		c-2.6,0.9-1.1,2.4-1.1,3.6c-3.3,0.6-3.9-2.4-5.8-3.8c0.7-1.4,2.4-1.9,2.5-3.8c-1.1,0.4-2.2,0.7-3.2,1.2c-2.4,1.1-2.7,2.5-1.2,4.7
		c0.5,0.7,1,1.3,1.4,2c0.4,0.7,0.7,1.4,1,2.1c3.5,0.9,7.5,3.7,9.1,8.1c1,0.3,1.3-0.8,2.1-1.1c1.1,1.2,2.3,2.5,3.6,4
		c-1.2,0.6-2.3,0.2-3.3,0.4c-1.1-0.6,0.2-1.2-0.1-1.9c-0.9-1-2.3-0.6-3.5-1.1c-1.1-0.6-2.2-1.3-3.5-1.3c-0.6,0.5-0.3,1,0,1.2
		c3.2,2.2,5.9,5.2,9.9,6.1c2,0.5,3.7,1.3,4.8,3.1c0.8,1.4,1.7,2.2,3.5,1.9c-4.5,2.6-9.3,3.8-13.7,5.7c-2.8-1.3-5.5-2.3-8.4-2.6
		c-3.3-0.4-5.4-2.5-6.8-5.4c-0.5-1.1-0.6-2.5-2.6-2.6c1.7,7.6,7.1,10.6,14,12.1c-1,2.1-1.8,3.8-2.6,5.4c-1.5,0.9-1.8-1.2-3.3-0.6
		c-1.3,2.3-4,2.1-6.5,2.3c-4.7,0.4-9.5,0.6-14.3,0.8c-1.5,0.1-3.1-0.2-4.1,1.3c-0.3,0.4-0.7,0.6-1.2,0.6c-4.4-0.2-8.7,1.5-13.2,0.7
		c-3.1-0.5-6.3-0.6-9.3,0.3c-5.4,1.5-10.8,1.3-16.2,0.3c-4.3-0.8-8.7-1.2-12.9-2.7c-1.5-0.5-3-0.3-4.5,0.1
		c-6.2,1.5-12.4,2.9-18.8,3.4c-1.6,0.1-3.1,0.5-4.5,1.7c-3.6-6.5-6.3-13-8.7-19.7c2.4,3,4.7,6.1,7.2,9.2c0.2-0.5,0.5-0.8,0.4-0.9
		c-6.9-9-8.9-19.8-10.6-30.6c-1.3-8.5-1.9-17.1-2.3-25.7c2.6-2.5,6.1-2.5,9.1-3.1c10.6-2.1,21.1-4.8,32-4.4
		c4.9,0.2,9.9,1.1,14.6,2.7c5.6,1.9,11.3,0.6,16.9-0.4c1.5-0.3,3.2-0.2,4.2-2.1c-5.6,1.3-10.9-0.7-17-0.5c3.5-2.1,6.4-3.2,9.8-2.4
		c2.4,0.5,4.7,0.3,6.8-0.8c6.5-3.1,13.4-5.2,20.2-7.6c6.3-2.2,12.9-3.6,19.6-4.4c4.1-0.5,8.1,0.3,12,1.6c0.5,2.5-1.1,4.8-4.6,6.4
		c-2.6,1.2-2.6,1.2-3.1,4c-0.7,0.8-2,0.7-2.6,1.8c-0.5,0.8,0.6,1.6,0.4,2.2c-0.6,1.8-2.6,1.8-3,3.4c-0.1,2.1,2.5,2.2,3,3.9
		c-0.3,2.3-3.6,1.7-4,4.5c4.4,3.3,5.1,10.1,11.3,13c-0.2-2.5-1.1-4.3-1.8-6.2c-2.9-7.8-2.9-7.8-0.8-14.7c-1.5-1.4-2.2,1.6-3.8,0.5
		c0-1.8,2.9-3,1-5.1c1.2-0.7,2.1-1.2,3-1.8c0.8,1.7-1,3.1-0.2,5.6c2.1-3.9,3.9-7.3,6.8-10.6c1.3,6.7,3.3,12.7,5.2,19
		c0.8,0.4,1.7,0.9,2.8,1.5c0.9,7.5,2.3,15,7.3,21.2c-2.5-6.7-5.3-13.3-5.4-20.8c2.3-0.3,4.2,0.8,6.4,0.9c0.3,7.4,1.8,14.2,7.6,19.3
		c-1.4-2.9-3.4-5.6-4.1-8.8c-0.7-3.1-2-6.2-0.9-9.6c1.7-0.2,3.1,0.3,4.4,1c1.5,0.9,2.3,0.1,3.2-0.9L421.5,171.1z"/>
	<path fill="#FFFFFF" d="M236.6,332.5c-0.6-2.6-1-4.2-1.4-5.8c-0.4-1.6-0.9-3.3-1.6-4.9c-1.3,2.8-0.5,5.7-0.6,9.1
		c-5-1.4-9.6-2.9-14.3-4.7c3.5-14.1,3.3-28.1,2.4-42.1c-0.4-6.1-2.1-12.1-2.3-18.3c-0.4-14.7-0.2-29.5,1.5-44.2
		c0.3-2.9,0.2-5.8-0.2-8.7c-1-7.5-1-15.1,0.8-22.4c0.7-2.8,3.1-5.1,5.9-6.8c1,1.4,0.1,3.3,1.6,4.8c1-2.4,1.6-4.6,1.4-7.2
		c9.3-7.5,19.6-12.8,32-14.7c-0.4,12.7,2.2,25.1,4.8,37.1c-3.8,2-7.4,1.6-10.6,3.2c3.5,2,6.7,0.2,10.1-0.4c0.6,1.3,0,1.9-1.2,2.1
		c-1.8,0.3-3.6,0.9-5.4,1.2c-2.9,0.6-4.4,2.4-5.4,4.8c-0.4,1-1.1,1.7-1.8,2.4c0,4.7,0.7,9.1,1.9,13.5c1.5,5.9,1.6,12,1.6,18
		c0.1,11.6-3.3,22.4-7.4,33c-3.2,8.3-4.7,17-5.6,25.8c-0.6,6.3-0.4,12.5-0.6,18.9C240,327.7,237.6,329,236.6,332.5z"/>
	<path fill="#FFFFFF" d="M266.9,211.7c2.3,7.2,4.9,14.1,9.3,20.4c3.4,0,6.9-1.2,10.7,0.2c-2,5.5-0.4,11.2-0.9,16.8
		c-0.2,1.7,0.1,3,2.3,3.2c-2.1,4-3.5,7.9-4.8,11.9c-1.1,3.3-1.6,6.6-1.3,9.9c0.6,6.5-0.2,13-0.1,19.5c0.1,7.3-0.1,14.6,1.8,21.8
		c0.1,0.4,0,0.9,0,1.8c-5.4-1.3-8.1,2.2-10.9,5.7c-2.7,3.4-5.9,6.1-10.6,6.6c-4.3,0.5-7.7,3.3-11.1,5.9c3.3-0.2,7,2,9.5-2.2
		c0.5-0.8,2.1-0.8,2.6-1c1.8-0.1,1.8,1.7,3.1,1.6c1.3-0.3,0.3-1.8,1.2-2.3c1.7-0.4,1.8,2,3.6,1.9c2-0.5,1.8-2.5,2.2-4.2
		c5.3,0,1.4-4.3,3-6.6c0.9,2.4,1,4.8,2.9,6.3c0.4,0.3,0.4,1.1,0.4,1.6c0,4.9,0,9.7,0,14.4c-1.1,1.3-2.5,1.3-3.5,1.7
		c-1.1-0.4-0.8-1.9-2.2-1.9c-3.2,3.8-7.3,3.7-11.6,2.3c-1.9-0.6-3.8-1-5.7-1.5c-1.5-0.4-2.7,0-3.6,1.5c1.2,2.4,3.8,1.8,6,2.9
		c-1.9,1.4-4.1,1.3-6.2,1.6c-1.5-6.2-3.2-12.4-2.9-18.8c0.2-4.3-1.9-6.1-5.5-7.3c-0.5-4.4,0.2-8.8,0.4-13.1
		c0.6-13,4.3-25.3,8.8-37.4c5.9-15.9,6.2-32.2,2.8-48.7c-0.4-2-1.7-3.8-1.8-6c-0.2-5,3.1-8.6,8.2-8.7
		C264.2,211.6,265.4,211.7,266.9,211.7z"/>
	<path fill="#FFFFFF" d="M506.6,238.6c3.7-0.8,6.9-2.7,10.1-4.6c1-0.6,2.5-1.3,0.7-2.9c4.3-2.6,7.1-6.7,10.5-10.6
		c1.7,1.1,3.5,0.8,5.4,0.3c5.5-1.4,11.1-2.7,15.9-5.9c1.1-0.7,2.2-0.6,3.3-0.6c5.5,0.3,10.9,0.6,16.4,0.8c1.7,0.1,3.4,0,5.1,0
		c1.1,0.5,0,1.3,0.5,2c1.6,1.1,3.7,1.4,5.7,1.7c5.8,1.1,12,1.2,17.4,3.4c5,2.1,10.1,1.8,15.3,2.5c0,5.6-1.3,11-1,16.1
		c-3,4.1-7.4,5.2-11.6,6.6c-1.2-0.4-1.8-1.2-2.5-2.2c1.3-3.4,1.4-6.7-1.6-9.6c1.3-3,2.7-5.9,1.3-8.6c0.1-1.9,2.1-2.1,2-3.6
		c-1.2-0.5-2.6-0.3-3.3,0.4c-1.8,1.7-3.9,1.3-5.9,1.4c-12,0.9-23.9-0.2-35.8-0.7c-7.3-0.3-14.5-0.1-21.8,0.2c4,1.5,8.2,0.7,12.7,1.2
		c0.3,5.3,0.1,10.8,2.5,15.9c-0.2-5.5,0-10.9,0.3-16.4c15.6,1.9,31,1.9,46.3,1.8c0.1,0,0.2,0.6,0.3,1.1c-1.7,0.3-3.4,0.7-4.8,0.9
		c-1.1,0-0.8-1.3-1.7-1.3c-1.6,0.7-0.8,10.8,1.5,15.1c0.4-4.4-1.1-8.3-0.7-12.3c1.9-0.7,3.8-0.9,5.7-0.2c0,1.7,0,1.7-2.7,4.1
		c0.8,0.9,1.8-0.2,2.6,0.1c1.5,2.7-0.6,5.1-0.9,7.7c-0.2,0.1,0.7,0.4,0.6,0c-0.1-0.2,0.4-0.5,0.9-1c0.2,1.4-0.2,2.4-0.6,3.5
		c-4.5,0.2-9,0.3-13.4,0.7c-4.6,0.4-9-0.2-13.5-0.6c-2.1-3.7-1.3-7.9-2.1-12.4c-1.2,2.4-1.1,2.4-1.3,6c-0.1,2,0.3,3.9,0.5,5.8
		c-2,0.8-3.8-0.9-5.7-0.1c0.9,1.4,2.6,0.6,3.9,1.6c-5.6,0-11,0.6-16.3-0.1c-16.3-2.2-32.5-3.7-48.9-3.8c-3.3,0-6.5-1.5-10-0.7
		c2.2-4.6,6.2-7,10.6-6.5c2,0.2,3.9,0.6,5.9,0.8c1.9,0.2,3.7-0.1,6-0.7C508.9,236.7,506.7,236.8,506.6,238.6L506.6,238.6z"/>
	<path fill="#FFFFFF" d="M311.9,318.9c-1.3,8.2,0.3,16,2.9,24.2c3.8-4-0.1-7.8,0.8-11.8c1.5,2.5,2.6,4.9,2.5,7.5
		c2.4,1.4,4.7,1.4,7.2,0.8c2.8-0.7,5.7-1.1,8.5-1.8c1.8-0.5,3.4-0.3,5.4,1.2c-7.7,1.6-14.5,4.8-21.8,6.9c8.7-1.4,17-4.6,25.9-5.9
		c1.2,5,1,9.9,1.4,14.7c-3.1-1.4-6.2-0.4-9.2,0.4c-11.9,3.3-23.7,6.8-35.7,9.4c-13.5,3-26.9,6.3-40.1,10.4c-1.4,0.4-2.9,0.6-4.5,0.9
		c0-4.9,0-9.5,0-14.3c-3.4-2.5-7.9-2.3-11.6-4.2c11.7-4,24.2-4.5,34.8-9.2c4.6,0.6,8.6,1.2,12.7,1.5c4.9,0.4,9.7-0.5,14.4-1.8
		c2.8-0.8,4.8-3.2,7.5-4.5c-4.2-0.1-8.1,1.2-12.2,2.3c-1.8-7.9-2.5-15.7-2.9-23.7C302.9,320.8,307.5,320.2,311.9,318.9z"/>
	<path fill="#FFFFFF" d="M295.3,318.1c-2.7-0.3-5.5-0.6-8.4-0.9c-1.5-5.8-2.1-11.6-1.9-17.6c0.2-7.4,0-14.8-0.2-22.3
		c-0.2-9.7,2.7-18.7,8.2-26.8c5-7.4,11.5-13,19.5-17c2.6-1.3,5.1-1.9,8-1.5c4.1,0.6,8.3,1.2,12.5,0.3c1.3-0.3,2.5-0.1,3.8,0.3
		c2.5,0.6,5.1,0.7,7.6,0.4c8.9-1.1,17.5,0.5,26.2,1.6c0.6,0.1,1.2,0.1,1.7,0.1c11.2-0.2,22.2,1.7,33.3,2.8c2.5,0.2,5,1.4,7.6-0.4
		c0.8-0.6,2.5-0.1,3.7,0.2c1.9,0.5,3.9,0.7,6,0.9c0.6,3.2,0.7,6.4,0.5,9.8c-8.4-1.2-16.8-1-25.1-1.3c-5.8-0.3-11.6-0.5-17.3-1.4
		c-9-1.4-18.1-2.3-27.3-2.9c-10.5-0.6-20.9,0.3-31.3,0.8c-9.7,0.5-18,4.4-23.3,13.1c-0.5,0.8-0.9,1.6-1.3,2.4
		c-5.6,12.7-5.5,26.1-4.5,39.6C293.9,305,295.2,311.5,295.3,318.1L295.3,318.1z"/>
	<path fill="#FFFFFF" d="M465.2,165.2c8.1,2,16,2.2,24.2,1.5c-2.5,2.1-5,4.3-7.6,6.4c-5.2,4.1-8.5,9.2-8.1,16.1
		c-0.1,1.1-1.5,0.5-1.9,1.8c0.3,2.3,0.6,4.9,2.4,7.3c-3.5,3.5-7.8,5.9-11.8,8.8c-1.3-0.3-2.6-0.6-4.5-1c0.5-13.9-0.2-27.9,0.5-41.9
		c1.4-1.1,2.8-2.2,4.2-3.2c0.3-0.2,0.6-0.3,0.9-0.4C464.9,161.8,464.8,163.5,465.2,165.2z"/>
	<path fill="#FFFFFF" d="M295.2,318.2c1.5-0.7,1.8-2.1,1.7-4.9c-0.4-10.9-2.1-21.8-1-32.7c0.8-7.4,1.5-14.7,6-21.2
		c2.5-3.6,5.7-6.4,9.4-8.6c1.6-0.9,3.3-1.5,4.7-2.9c-6.4,9-9.4,19.2-11.2,29.9c-1.1,6.3-0.4,12.7-0.2,19.1
		c0.3,6.8,0.4,13.7,1.8,20.4c-3.7,1.8-7.5,2.1-11.3,2.2l0.1,0.1C295.2,319.1,295.2,318.6,295.2,318.2L295.2,318.2z"/>
	<path fill="#FFFFFF" d="M295.1,319.5c0.3,0.8-0.5,1.2-0.8,1.8c0.2,0.8,1,0.4,1.4,0.7c0.6,7.8,0.5,15.7,2.7,23.5
		c-5,3.9-10-0.2-15.4,0.5c1.1-9,0.7-17.5-1.1-26.2C286.8,319.5,291,321.8,295.1,319.5L295.1,319.5z"/>
	<path fill="#FFFFFF" d="M613.5,242c0.1-6.6,1-12.5,1.5-18.6c1.9,0.1,3.5,0.3,5,0.4c3.6,5.5,6.7-0.9,10.3-0.1
		c1.7,1.9,0.4,3.8-0.5,6.2c-0.8-1.6-0.3-3.2-1.9-5c-0.4,4.3,1,7.9,1.1,11.6C624.8,240.6,618.9,239.6,613.5,242z"/>
	<path fill="#FFFFFF" d="M317.7,250.6c-0.8,6.1-0.4,11.9-2.5,17.2c-3.2,8.5-4.9,17.1-5,26.1c0,0.3-0.1,0.7-0.2,1
		c-0.4,0.1-0.7,0.1-1,0.2c-0.2,0-0.4-0.1-0.7-0.2C304.6,283.4,309.5,258.8,317.7,250.6z"/>
	<path fill="#FFFFFF" d="M385,227.2c3.1-1.6,3.9-5.1,7.2-7c0.8,4.7,1.4,8.7,2.1,13c-2.2,0.4-4.1,0.4-6.1-0.7
		c-2.9-1.5-6.1-1.2-9.2-1.2c-7.9,0-15.7-0.1-24-1.4c2.9-3.1,6.7-1.2,9.8-2.3c3.2-1.1,7.1-0.6,10.7-0.5
		C378.6,227.2,382,225,385,227.2z"/>
	<path fill="#FFFFFF" d="M290.3,231.7c4.8-1,9.3-2,13.9-2.9c2.5-0.5,4.7,0.9,7.2,1.7c-9,4.6-12.5,7.5-21.2,18.3
		C290.7,242.7,290.2,237.4,290.3,231.7z"/>
	<path fill="#FFFFFF" d="M239.3,370.2c-0.4-4.1-0.8-7.9-1.3-12.2c4.7,2.7,9.6,3.6,14.4,4.7c0.1,4.6-0.8,9,0.9,13.3
		C249.9,371.1,244.3,371.8,239.3,370.2z"/>
	<path fill="#FFFFFF" d="M234.9,335.5c-1.3,2-3.4,2.8-5.1,4c-9.1-1.2-15.1-4.3-18.7-10c0.7,0.5,1.5,0.9,2.4,1.5
		c0.8-1.1,1.6-2.1,2.6-3.3C221.8,331.6,228.8,332.4,234.9,335.5z"/>
	<path fill="#FFFFFF" d="M557,211.4c7-4,12.6-3.7,17.1,0.7C568.4,212.4,563.1,211.4,557,211.4z"/>
	<path fill="#FFFFFF" d="M308.9,297.7c0,4.6,0,9.3,0,13.5c-1.4-2-1.8-8.1-0.8-13.5C308.4,297.6,308.6,297.6,308.9,297.7z"/>
	<path fill="#FFFFFF" d="M643.4,187.5c0.4,0.4,0.7,0.8,0.9,1.1c0.2,0.3,0.2,0.6,0.4,1.1c-0.7,0.7-1.4,1.5-2.2,2.4
		c1,2.1,0.9,3.9-2.3,5.2c2.1-2.4,1.8-4.6,1.2-6.9C641,189,641.7,188,643.4,187.5z"/>
	<path fill="#FFFFFF" d="M609.4,170.6c-2.1,2.8-6.3,1.6-7.6,4.8c-1.4,0.2-2.7,0.3-3.9,0.4C602.2,175.1,604.1,169.5,609.4,170.6z"/>
	<path fill="#FFFFFF" d="M616.1,172.3c2.3,1.2,4.4,0.4,6.8-0.6c-3,3.7-4.8,4.5-7.1,3.5c0-0.9,0-1.8,0-2.7L616.1,172.3z"/>
	<path fill="#FFFFFF" d="M635.3,170.3c1.1-1.9,1.9-3.6,4.2-3.9c-0.1,1.9-0.2,3.7-0.3,5.9C637.8,171.6,636.7,171,635.3,170.3z"/>
	<path fill="#FFFFFF" d="M643.9,178.2c1.4,0.7,2.4,1.1,3.4,1.6c-1.2,1.4-1.4,3.6-4.2,3.5C642.9,181.6,644.4,180.2,643.9,178.2z"/>
	<path fill="#FFFFFF" d="M611.3,184.3c1.7-1.2,3.4-2.7,5.8-1.3C615.6,185.4,613.4,184.5,611.3,184.3z"/>
	<path fill="#FFFFFF" d="M624.4,198.5c-0.1,1.5-0.1,2.6-0.2,3.8c-1.2-0.3-2.4-0.4-2.5-2C621.7,198.5,623,198.7,624.4,198.5z"/>
	<path fill="#FFFFFF" d="M619.1,153.1c-0.1,2.9-2.3,4.2-4.3,5.6C615.4,156.2,617.8,155.2,619.1,153.1z"/>
	<path fill="#FFFFFF" d="M598.1,180c1.1,0.5,1.5,1,1.8,1.9c-1.9,0.2-3.7,0.4-5.9,0.7C595.3,181,597,181,598.1,180z"/>
	<path fill="#FFFFFF" d="M591.8,217c-2.2-0.3-4-0.6-5.8-0.8C587.1,214.2,588.1,214.3,591.8,217z"/>
	<path fill="#FFFFFF" d="M606.9,202.7c0.2,2.3,0.2,2.3-2,3.7C604.7,203.4,604.7,203.4,606.9,202.7z"/>
	<path fill="#FFFFFF" d="M610.9,179.9c1.4-1.7,2.3-2.8,4.4-2.3C614.8,179.7,613.5,180.3,610.9,179.9z"/>
	<path fill="#FFFFFF" d="M641.6,178.9c-1.1,1.1-2.7,1.1-4.3,2C639,177.6,639,177.6,641.6,178.9z"/>
	<path fill="#FFFFFF" d="M623.5,189.8c-1.2,2-2.7,1-4,0.7C620.6,189.8,621.8,189,623.5,189.8z"/>
	<path fill="#FFFFFF" d="M624.8,195.6c-1.6,0.7-3.3,1.4-5.2,1.1C621.4,195.2,622.1,195,624.8,195.6z"/>
	<path fill="#FFFFFF" d="M608.7,222.4c-2.2,0-3.8,0.2-5.9-0.9C605.1,221.1,606.7,221.4,608.7,222.4z"/>
	<path fill="#FFFFFF" d="M631.1,219.2c-0.5-2.4,0.9-3.1,2.5-4.1C633.4,217,632.4,218,631.1,219.2z"/>
	<path fill="#FFFFFF" d="M615.6,217.5c0.4-1.2,0.4-2.2,1.7-2.3C618.1,217,618.1,217,615.6,217.5z"/>
	<path fill="#FFFFFF" d="M311.8,307.2c-1.4-1.6-1.1-3.4-0.7-5.3C311.3,303.7,311.5,305.4,311.8,307.2z"/>
	<path fill="#FFFFFF" d="M615.9,172.6c-1.5-1.3-1.7-2.6-0.8-5.2c-0.1,1.8,0,3.5,1,5L615.9,172.6z"/>
	<path fill="#FFFFFF" d="M630.5,153.1c0.9-1,1.8-1.8,2.9-0.5C632.7,154.6,631.4,153,630.5,153.1z"/>
	<path fill="#FFFFFF" d="M599.6,200.8c1.4-0.8,3-0.1,4.5-0.6C602.7,201.3,601.1,200.9,599.6,200.8z"/>
	<path fill="#FFFFFF" d="M635.4,160.3c0.7-1.4,2.1-1,3-1.5C637.8,159.8,637.2,161.2,635.4,160.3z"/>
	<path fill="#FFFFFF" d="M604,214.5c-1.1,0.8-2.1,0.4-3.1-0.3C602.1,213.1,603,213.9,604,214.5z"/>
	<path fill="#FFFFFF" d="M628.1,162.9c0.3-1.4,1.4-2,2.5-3.1C630.8,162,629.2,162.2,628.1,162.9z"/>
	<path fill="#FFFFFF" d="M579.1,214.6c-0.8-0.6-2.9,0.1-2.4-2.3C578.1,212.6,578.7,213.6,579.1,214.6z"/>
	<path fill="#FFFFFF" d="M638.9,201.3c0.3-2,0.3-2,2.1-1.5C640.4,200.6,640.3,201.6,638.9,201.3z"/>
	<path fill="#FFFFFF" d="M243.8,373.9c-1.7,0.2-2.8-0.6-3.9-1.3C241.3,372.3,242.5,372.7,243.8,373.9z"/>
	<path fill="#FFFFFF" d="M310,314c1.7,2.5,0.3,2.4-1.2,2.7C309.8,315.9,309.9,315.2,310,314z"/>
	<path fill="#FFFFFF" d="M571.8,207c-0.8,0-1.2-0.4-1.6-0.8c0.3-0.6,0.8-0.8,1.4-0.8C572.4,205.8,572.1,206.3,571.8,207z"/>
	<path fill="#FFFFFF" d="M619.6,187.1c-1.6-0.5-1.9-1-1-1.7C619.6,185.5,619.3,186.2,619.6,187.1z"/>
	<path fill="#FFFFFF" d="M638.9,184.8c1,1.1,0.6,1.6-0.2,2C638.2,186.2,638.5,185.6,638.9,184.8z"/>
	<path fill="#FFFFFF" d="M625.2,155.7c0.6-1.5,0.6-1.5,1.8-1.2C626.6,155.3,625.9,155.5,625.2,155.7L625.2,155.7z"/>
	<path fill="#FFFFFF" d="M602,194.5c0.5-0.7,1-1.4,2-0.5C603.6,195.4,602.8,194.8,602,194.5z"/>
	<path fill="#FFFFFF" d="M459.6,209.5c0,0.8-0.2,1.1-0.7,1.3C458.1,210,458.3,209.6,459.6,209.5z"/>
	<path fill="#FFFFFF" d="M407.5,203c1.8,0.5,2.6,0.8,1,2.1C408.2,204.5,408,204,407.5,203z"/>
	<path fill="#FFFFFF" d="M574.6,204.1c0.8-0.5,1.4-0.5,2,0.3C575.9,205.2,575.3,204.8,574.6,204.1z"/>
	<path fill="#FFFFFF" d="M392.3,190.4c-0.1-0.1-0.2-0.2-0.4-0.3c0.1,0,0.2,0,0.3,0.1C392.3,190.2,392.3,190.3,392.3,190.4z"/>
	<path fill="#FFFFFF" d="M598.8,211.2c0.6-0.4,1-0.2,1.2,0.5C599.4,212.1,599.1,211.8,598.8,211.2z"/>
	<path fill="#FFFFFF" d="M639.2,163.2c0.4-0.6,0.6-0.9,0.9-1.3C640.6,162.8,640.3,163.1,639.2,163.2z"/>
	<path fill="#FFFFFF" d="M586.1,198.9c-0.2,0.6-0.7,0.8-1.3,0.9C584.9,198.8,585.5,198.9,586.1,198.9L586.1,198.9z"/>
	<path fill="#FFFFFF" d="M605.4,211c-0.4,0.1-0.7-0.2-0.7-0.4c0-0.4,0.4-0.4,0.6-0.1C605.5,210.6,605.4,210.9,605.4,211z"/>
	<path fill="#FFFFFF" d="M584.3,183.8c0.3,0.2,0.5,0.5,0.9,0.8C584.3,184.8,584.2,184.4,584.3,183.8z"/>
	<path fill="#FFFFFF" d="M584.9,206.7c-0.5-0.7-0.3-1,0.1-1.3C585.7,205.8,585.4,206.2,584.9,206.7z"/>
	<path fill="#FFFFFF" d="M625.1,155.6c0,0.8-0.7,0.6-1.2,1.4C624.2,155.8,624.5,155.5,625.1,155.6L625.1,155.6z"/>
	<path fill="#FFFFFF" d="M549.6,114.3c7,3.5,13.2,7.9,20,11.5c-1.3,8.1-2.2,16.3-1.8,24.9c-4.4,0.5-6.2,5.3-10.6,6.2
		c-2.1-3.3-5.7-5.1-7.8-8.5c-1-0.1-2.1,0.3-3.2-0.3c-7.6-4.2-14.8-9.1-23.3-11.1c-0.8-3.2,2.1-4.7,2.4-7.3c0.3-2.4-0.8-4.8,0.2-7.5
		C533.8,120.3,542.3,118.9,549.6,114.3z"/>
	<path fill="#FFFFFF" d="M558.3,158.8c0.7-0.5,1.2-0.5,1.5,0.2c0.1,0.4,0,0.9-0.5,1.2C558.7,159.9,558.6,159.3,558.3,158.8z"/>
	<path fill="#FFFFFF" d="M447.4,142.4c-1.5-0.4-1.7-1.3-1.9-2.2C446.7,140.2,447.1,140.9,447.4,142.4z"/>
	<path fill="#FFFFFF" d="M611.4,624.4c-1.5-0.5-2.5-0.1-2.4,1.6c-2.1-0.3-2.3-1.6-2-3.1c0.2-1,1.1-1.6,2.1-1.5
		C610.8,621.6,611.7,622.4,611.4,624.4z"/>
	<path fill="#FFFFFF" d="M225.1,355.5c-1.4,0.4-3.4-0.7-2.6,2c-2.1-0.5-2.3-1.7-2.1-3c0.2-1,1.1-1.6,2-1.6
		C224,352.8,224.8,353.7,225.1,355.5z"/>
	<path fill="#FFFFFF" d="M213.6,352.1c1.4,0.3,2.3,1.1,2.1,2.6c-0.1,1.3-1,2.1-2.3,2.1c-1.5,0-2.3-1-2.3-2.4
		C211.1,352.9,212.2,352.2,213.6,352.1z"/>
	<path fill="#FFFFFF" d="M602.3,622.9c-0.1,1.6-0.9,2.6-2.3,2.5c-1.5,0-2.3-1-2.3-2.5c0-1.3,0.9-2.2,2.2-2.2
		C601.2,620.7,602.1,621.5,602.3,622.9z"/>
	<path fill="#FFFFFF" d="M593.2,621.1c-1.3,1.6-2.2,1.5-3.1-0.1C591.2,619.6,592.1,620.2,593.2,621.1z"/>
	<path fill="#FFFFFF" d="M206.7,352.4c-2,1.4-2,1.4-2.9-0.4C204.8,351.1,205.6,351.6,206.7,352.4z"/>
	<path d="M654.2,459.7c13.7,14.3,31.8,19.3,49.5,24.6c1.2-0.6,0.6-1.7,1.4-2.4c0.2,1,0.4,1.9,0.7,2.8c2.6,2,6.6,1.5,9.1,5.3
		c-3-1.2-5.3-2.5-7.8-2.5c-0.7,1.1,1,1.9,0.1,3.2c-2.1-0.4-1.5-2.8-3.2-4.2c-16.7-5-34.1-10.3-47.8-23.2
		C655.2,462.4,654.2,461.4,654.2,459.7z"/>
	<path d="M718.4,497.3c-25-5.1-47.1-15.5-64.7-34.4c4.6,3.9,9.1,8.1,14.2,11.5c5.1,3.5,10.5,6.3,16.1,9c5.6,2.7,11.2,5.6,17.3,7.4
		c5.9,1.8,11.7,3.7,17.5,5.6C718.6,496.7,718.5,497,718.4,497.3z"/>
	<path d="M720.2,474.4c-5.5-2.6-6.1-7.6-5.6-12.5c1-11.2,5.2-20.9,14.3-27.9c0.8-0.6,1.4-1.7,3.2-0.6c-5.4,5.5-11.5,10.3-13.6,18.2
		C716.4,459.5,717.7,466.9,720.2,474.4z"/>
	<path d="M656.8,479.6c2.5,4,5.6,7.4,9,10.4c3.4,2.9,7.7,4.6,11.8,7.4C669.5,496.8,657,486.1,656.8,479.6z"/>
	<path d="M759.1,463.7c4.4,7,10.6,12.6,15,19.6C767.5,478,762.9,471.2,759.1,463.7z"/>
	<path d="M720.8,482.2c1.7,3.2,2.1,6.7,4.7,9.3C720.8,490.9,718.7,487,720.8,482.2z"/>
	<path d="M686.6,454.9c3.9,1.7,7.8,3.4,11.8,5.1c-0.1,0.2-0.2,0.4-0.3,0.7c-4.2-1.1-8-3.1-11.8-5.1
		C686.4,455.3,686.5,455.1,686.6,454.9z"/>
	<path d="M654.5,453.7c-0.9-3.2-0.8-3.5,1.5-5.4C656.5,450.5,655.1,452,654.5,453.7z"/>
	<path d="M759.8,457c0,1.9,2,2.8,2,4.7C760.3,460.5,758.1,459.7,759.8,457L759.8,457z"/>
	<path d="M760.3,443.3c0.1,1.5-0.7,1.7-1.7,1.9c-0.1-0.3-0.4-0.6-0.4-0.9C758.3,442.9,759,442.5,760.3,443.3z"/>
	<path d="M617.7,551.6c-3.7-8.3-7.8-15.8-7.1-24.8C612.9,529.2,618,546.6,617.7,551.6z"/>
	<path d="M636.3,474.6c-3.9,2.3-8.5,4.2-9.8,4.1C627.8,474.9,632.6,472.9,636.3,474.6z"/>
	<path d="M614.6,499.2c0.9,4.5-2,8.1-2.8,12.2C612.4,507.3,612.2,502.9,614.6,499.2z"/>
	<path d="M607.7,488c-2-3.6,1.3-5.4,2.6-8C610.8,483.1,609.2,485.5,607.7,488z"/>
	<path d="M625.7,489.9c3.1,2,5.6,4.4,6.2,8.2C628.8,496.2,628.1,492.4,625.7,489.9z"/>
	<path d="M639.6,475.4c4.5-3.3,6.5-3.5,8.3-0.5C645.2,475,642.6,475.2,639.6,475.4z"/>
	<path d="M618.9,586.3c-2.5-1.8-2.2-3.7-1.3-6.2C618.9,582.1,620.1,583.7,618.9,586.3z"/>
	<path d="M616.6,569.8c1.4,1.9,0.8,4,0.7,6C615.2,574,615.7,571.9,616.6,569.8z"/>
	<path d="M611.2,519.1c-1.2-2.2-0.4-3.8,0.8-5.5C612.9,515.7,612.4,517.5,611.2,519.1z"/>
	<path d="M622.1,481.9c1.1,1.7,2.3,3.3,2.5,5.8C622,486.1,621.5,484.2,622.1,481.9z"/>
	<path d="M610.3,477.9c-0.9-1.7-0.3-3,1.2-4.3C612.4,475.6,611.2,476.7,610.3,477.9z"/>
	<path d="M617.3,567.7c-0.7-1.8-1.1-2.9-0.7-4.1C617.6,565,617.6,565,617.3,567.7z"/>
	<path d="M614.7,467.3c-1.2-0.5-2.1-0.8-1.7-2.2C614.4,465,614.7,465.7,614.7,467.3z"/>
	<path d="M612.1,471.1c0.9,0.7,0.7,1.3,0.3,1.9C611.3,472.6,611.5,472,612.1,471.1z"/>
	<path d="M974.4,515.9c-1.6-5.9-2.3-11.2-2.6-16.9C974.9,501.3,976.3,510.9,974.4,515.9z"/>
	<path d="M813.7,497.3c1.4,4.5-1,8.5,0.8,12.3c-1.2,0.3-2-0.2-2.5-1.2C811.1,506.5,811.8,500.6,813.7,497.3z"/>
	<path d="M803.4,507.1c-1.6-2-2.1-4.2-1.3-7.2C804.5,502.3,803.6,504.8,803.4,507.1z"/>
	<path d="M878.5,509.2c0.6,1.4,1,2.9-0.2,5C877.6,512,877.9,510.6,878.5,509.2z"/>
	<path d="M948.7,504.6c-0.1-0.9-0.8-1.7-0.4-2.8C949.3,502.8,948.5,503.8,948.7,504.6z"/>
	<path d="M800.2,471.5c-0.7,0.6-1.3,0.1-1.9-0.3c-8.4-5.5-14.9-12.4-17.2-22.6c-0.6-2.5-0.2-4.9,1.9-6.9c-1.5,8,2.3,14.1,7.2,19.5
		c2.6,2.8,5.6,5.2,8.3,7.8C799.3,469.8,800.5,470.1,800.2,471.5z"/>
	<path d="M832.8,454.9c-2.1-4.8-2.8-9.7-2.1-14.9C831.9,444.8,834,449.6,832.8,454.9z"/>
	<path d="M798.4,437.2c1.1-5.3,3.5-9.7,8.5-12.3C804.1,429,800.4,432.5,798.4,437.2z"/>
	<path d="M792.9,450.5c2.6,6.1,5.4,12.2,8.7,18.5C798.5,466.5,794.3,457.6,792.9,450.5z"/>
	<path d="M819.7,447.9c-1.1,2.8-0.5,5.5,0.8,8.3C816.8,455.4,816.5,451.3,819.7,447.9z"/>
	<path d="M808.5,443.5c-0.7,4.3-0.1,8.6,0.3,13.6C806.5,451.4,806.4,447.4,808.5,443.5z"/>
	<path d="M811.9,471.6c2.2,2.7,5,5.2,5.5,9.1C814.9,478.1,813.2,475,811.9,471.6z"/>
	<path d="M844.3,445.3c-1.2-2,0-3.2,0.7-4.5C845.4,442.2,846.2,443.7,844.3,445.3z"/>
	<path d="M799.3,442.6c0.4,1.6-0.6,2.4-0.8,3.4C798.4,444.9,798.1,443.7,799.3,442.6z"/>
	<path d="M826.5,413.4c-0.1,1.1-0.8,0.9-1.3,1.2C825.1,413.6,825.7,413.6,826.5,413.4z"/>
	<path d="M932.5,384c-1.5-1-1.3-2.1-1.8-3c-1.2-2.1-2.1-4.2-4.6-5.3c-2.6-1.2-3.7-4-4.2-6.5c-0.8-3.8-1.5-7.8-1.2-11.8
		c0.1-1.1,0-2.4,1.3-3.3c1.7,2.6,1,5.6,1.1,8.3c3.1,2.5,3.1,2.6,2.9,9.9C928.8,375.6,933.1,378.2,932.5,384z"/>
	<path d="M925.4,426.8c-2.3-6.1-3-12.5-3.1-19c3.1,6,4.8,12.2,4.7,18.8C926.5,426.7,926,426.8,925.4,426.8z"/>
	<path d="M919.4,389.6c1.7,1.4,2.3,3.2,1.8,4.6c-1,3.3-0.5,6.4,0.1,9.6c0.1,0.7,0.2,1.4-0.6,1.8
		C918.4,403.3,917.9,397.8,919.4,389.6z"/>
	<path d="M911.2,366.6c3.5,0.2,6.4,1.5,8.8,3.8c-0.1,0.3-0.2,0.5-0.4,0.8c-2.9-1.3-5.9-2.5-8.8-3.8
		C910.9,367.1,911.1,366.9,911.2,366.6z"/>
	<path d="M915.2,383.2c-3.9-1.3-4-1.6-2.3-4.1C914.4,380,914.3,381.9,915.2,383.2z"/>
	<path d="M640.7,626.9c1.3-1.6,3.3-1.6,5-2c6.6-1.7,13.2-3.6,19.9-4.8c4.1-0.7,8.4-0.6,12.6-1.4c4.7-0.9,9.6-1.4,14.2-2.8
		c-3.9,2.2-8.3,2.5-12.6,3.3c-4.3,0.8-8.7,1.3-13,2c-4.4,0.7-8.8,2-13.2,3.1C649.3,625.2,645.1,626.5,640.7,626.9z"/>
	<path d="M691.4,606.6c-2.7-2-2.6-2.4,0-4.3C692.8,604.5,692.8,604.5,691.4,606.6z"/>
	<path d="M685.7,592.4c-0.1,2.5-0.6,3.9-3.3,2.9C682.4,593.2,683.3,592.3,685.7,592.4z"/>
	<path d="M995,506.4c-1.3-1.5-2.2-3-2-5.3C994.7,502.8,994.6,504.7,995,506.4z"/>
	<path d="M323.6,210.1c0.9-1,0.2-2.1,1.3-3c0.6,1.1-0.1,2.3,0.8,3.5c2.5,1.8,6.6,1.5,8.6,4.8c-2.5-1-4.9-1.9-7.5-2.2
		c-1.1,1.2,1.3,2.2,0,3.6c-2-0.6-1.5-2.9-2.8-4.3c-3.9-1.2-8-2.6-12.2-3.9c-12.7-4-24.8-9.3-35.2-17.9c-3.1-2.5-4.2-3.7-4.8-6.5
		C285.8,199.3,304.7,204.4,323.6,210.1z"/>
	<path d="M271.3,187.6c9,9.4,19.9,15.9,31.4,21.7c11.5,5.8,23.8,9.1,36.2,13.5C324.5,224.9,283.1,203.4,271.3,187.6z"/>
	<path d="M378.6,148.5c-3.3,1.8-7,1.5-10.5,2.1c-4.2,0.7-8.5,1.2-12.7,1.8c-1.9,0.3-3.4,1.2-4.8,3.3c-0.6-3.6,1.5-4.2,3.2-4.7
		c3-0.9,6.1-1.5,9.2-2c4.4-0.7,8.7-1.1,13.1-1.6C377,147.4,377.9,147.4,378.6,148.5z"/>
	<path d="M340.6,199.6c-6.1-3.6-7.8-11.7-4.6-20.3c1.2,0.4,1.6,1.4,1.6,2.4C337.3,187.9,338.3,193.8,340.6,199.6z"/>
	<path d="M372.4,212.1c-6.7,1.6-10.2-1.5-10.8-12.9c0.7-0.6,1.3,0.1,1.8,0.3c0.6,0.3,1.2,0.7,2.1,1.2
		C365.1,206,367.9,209.5,372.4,212.1z"/>
	<path d="M393.4,153.6c1.8,1,1.7,2.1,1.7,3.1c-0.7,9.7,0.5,19.2,3.6,28.4C392.9,175.4,392.7,164.8,393.4,153.6z"/>
	<path d="M274.2,204.8c5,8.8,12.9,14.2,22.5,18.8C288.2,223.6,274.5,212,274.2,204.8z"/>
	<path d="M361.3,162.2c-8.1,4.6-15.6,8.9-17.7,18.2c-1.4-0.3-1.3-1.2-1.2-2c0.2-2.1,1.1-4,2.4-5.7c3.4-4.2,7.7-7.4,12.4-9.9
		C358.4,162.3,359.5,161.8,361.3,162.2z"/>
	<path d="M399.1,180.5c4.2,6.3,8.5,12.6,11.7,19.6C405.6,194.3,402,187.6,399.1,180.5z"/>
	<path d="M341.2,207.4c1.5,3.9,2.3,7.3,4.8,10.2C341,216.7,339,212.6,341.2,207.4z"/>
	<path d="M304.6,178.9c4.4,1.9,8.7,3.9,13.1,5.8c-5-0.5-9.2-2.9-13.5-5.1C304.3,179.3,304.4,179.1,304.6,178.9z"/>
	<path d="M273.3,172.3c0.8,2.5-0.9,4.1-1.5,6C271.1,176.1,270.8,174,273.3,172.3z"/>
	<path d="M396.8,209.2c-2.1-1-3.3-2.5-4.3-4.4C394.9,205,395.7,205.9,396.8,209.2z"/>
	<path d="M226.1,254.3c2.4,2.7,7.7,21.3,7.3,25.9C229.6,271.6,225.3,263.8,226.1,254.3z"/>
	<path d="M242.1,204.5c2.5-4.4,7.2-6.3,10.9-4.4C249,200.2,246.6,204.3,242.1,204.5z"/>
	<path d="M230.3,225.6c0.8,4.6-2.1,8.4-2.9,12.7C227.9,233.9,227.7,229.4,230.3,225.6z"/>
	<path d="M226.1,205.6c0,3.2-1.4,5.8-2.6,8.6C221.2,211.9,222.2,209.1,226.1,205.6z"/>
	<path d="M248.4,225.2c-3.3-2.9-4.2-6.7-7.4-9.4C244.7,216.8,247.9,220.8,248.4,225.2z"/>
	<path d="M256.9,200.8c3.4-3.4,6.2-3.7,8.3-0.8C262.3,200.7,259.5,199.6,256.9,200.8z"/>
	<path d="M232.5,298.7c1.3,2.5,0.6,4.6,0.9,7C231.1,303.8,230.9,302.5,232.5,298.7z"/>
	<path d="M233.4,310.4c1.6,1.5,2.1,3.3,1.7,5.3C232.6,315.4,232.3,314.5,233.4,310.4z"/>
	<path d="M228,240c0.2,2.7,0.2,4.6-1.2,6.5C225.5,244.1,225.6,243.1,228,240z"/>
	<path d="M240.5,213.1c-2.6-1.2-3-3.3-2.6-6.5C239.3,208.9,240.2,210.8,240.5,213.1z"/>
	<path d="M225.5,203.3c-0.4-1.8-0.2-3.3,1.7-4.4C227.8,200.9,227.1,202.2,225.5,203.3z"/>
	<path d="M233.5,297.1c-1.4-1.7-1.3-2.9-1.2-4.9C233.6,293.9,233.7,295.1,233.5,297.1z"/>
	<path d="M230.5,192.2c-1.4-0.4-2.1-0.9-2-2.2C230.1,189.7,230.3,190.7,230.5,192.2z"/>
	<path d="M227.6,198.3c-0.6-0.9-0.6-1.5,0.4-2.1C228.3,196.9,228.7,197.5,227.6,198.3z"/>
	<path d="M606.3,242.2c-2.5-5.8-3.4-14.1-2-17.3C606.6,230.8,607.3,236.4,606.3,242.2z"/>
	<path d="M500.8,239.9c-1.3-0.2-2.7-0.4-4.6-0.8c2.1-1.1,3.4-0.8,4.8,0C500.9,239.4,500.9,239.6,500.8,239.9z"/>
	<path d="M579,231.1c-0.2-0.8-0.8-1.6-0.4-2.8C579.6,229.2,578.8,230.2,579,231.1z"/>
	<path d="M506.6,238.6c-0.2,0.7,0,1.7-1.2,2C504.7,239.2,505.4,238.8,506.6,238.6L506.6,238.6z"/>
	<path d="M310.9,348.1c-17.8,3.6-35.6,7.1-53.5,10.7c0.6-1.1,1.7-1.2,2.6-1.4c7.3-1.8,14.5-3.9,21.9-5.3c6-1.2,12.1-1.1,18.1-2.3
		c3.6-0.7,7.2-1.3,10.7-2.3C310.8,347.6,310.8,347.9,310.9,348.1z"/>
	<path d="M310.3,337.5c-2.6-1.8-2.6-2.4,0.1-4.5C312.1,335.5,312.1,335.8,310.3,337.5z"/>
	<path d="M304,322.7c1,1.7,0.4,2.7-0.8,3.5c-1,0.7-1.7,0.1-2.3-0.9C301.1,323.7,302,322.8,304,322.7z"/>
	<path d="M625.5,227.7c1.1,1.6,1.6,3.4,2.2,5.5C625.6,231.4,625.5,230.9,625.5,227.7z"/>
	<path d="M566.3,127.8c-5.2-5.3-12.4-6.3-17.8-10.8C554.7,117.7,566,124.4,566.3,127.8z"/>
</g>
</svg>
