<?xml version="1.0" encoding="utf-8"?>
<!-- Generator: Adobe Illustrator 19.1.0, SVG Export Plug-In . SVG Version: 6.00 Build 0)  -->
<svg version="1.2" baseProfile="tiny" id="Layer_2" xmlns="http://www.w3.org/2000/svg" xmlns:xlink="http://www.w3.org/1999/xlink"
	 x="0px" y="0px" width="900px" height="600px" viewBox="144 97 900 600" xml:space="preserve">
<svg style="overflow: visible;" viewBox="-144 -97 900 600" xmlns="http://www.w3.org/2000/svg"><g fill="#e6e6e6"><path d="m206.8 163.6c0-5.1 4.1-9.2 9.3-9.2s9.2 4.2 9.2 9.2-4.1 9.2-9.3 9.2-9.2-4.1-9.2-9.2zm17.3-.1c0-4.5-3.5-8.2-8.2-8.2s-8.2 3.7-8.2 8.3c0 4.5 3.5 8.2 8.2 8.2s8.2-3.7 8.2-8.3zm-13 0c0-2.8 2.1-5.1 5.1-5.1 1.9 0 2.9.6 3.9 1.5l-1.4 1.7c-.8-.7-1.5-1.1-2.5-1.1-1.7 0-2.8 1.4-2.8 3.1s1.1 3 2.8 3c1.1 0 1.7-.5 2.5-1.1l1.4 1.4c-1.1 1.1-2.1 1.7-4 1.7-2.9 0-5-2.3-5-5.1z"/><path d="m226.6 154.7h3.4l4.2 13.2 4.4-13.3h2.6l4.4 13.3 4.2-13.2h3.3l-6.2 18h-2.7l-4.4-12.8-4.4 12.8h-2.7z"/><path d="m252.8 165.8c0-3.9 3.1-7 7.2-7 4.2 0 7.2 3.2 7.2 7s-3.1 7-7.3 7c-4 0-7.1-3.1-7.1-7zm11.3 0c0-2.3-1.7-4.3-4.2-4.3s-4.1 2-4.1 4.3 1.7 4.3 4.1 4.3c2.7.1 4.2-1.9 4.2-4.3z"/><path d="m269.5 159.1h3.1v3c.8-2 2.4-3.4 4.8-3.3v3.2h-.2c-2.7 0-4.6 1.7-4.6 5.4v5.1h-3.1z"/><path d="m279.1 153.9h3.1v11.1l5.6-6h3.8l-5.4 5.5 5.5 8h-3.5l-4.1-5.8-1.9 2v3.9h-3.1z"/><path d="m291.7 165.8c0-3.9 3.1-7 7.2-7 4.2 0 7.2 3.2 7.2 7s-3.1 7-7.3 7c-4 0-7.1-3.1-7.1-7zm11.3 0c0-2.3-1.7-4.3-4.2-4.3s-4.1 2-4.1 4.3 1.7 4.3 4.1 4.3c2.6.1 4.2-1.9 4.2-4.3z"/><path d="m308.2 167.6v-8.6h3.1v7.6c0 2.1 1.1 3.3 2.9 3.3s3-1.3 3-3.3v-7.6h3.1v13.4h-3.1v-2.1c-.8 1.3-2.1 2.3-4.2 2.3-3.1.2-4.8-1.8-4.8-5z"/><path d="m323.9 168.8v-7.1h-1.7v-2.6h1.7v-3.7h3.1v3.7h3.6v2.6h-3.6v6.6c0 1.2.6 1.7 1.7 1.7.7 0 1.3-.2 1.9-.5v2.5c-.8.5-1.7.7-2.8.7-2.3 0-3.9-.9-3.9-3.9z"/><path d="m333.2 154.7h3.2v15h9.4v2.9h-12.5v-17.9z"/><path d="m356 172.5v-1.7c-.9 1.1-2.3 2-4.4 2-2.6 0-4.8-1.4-4.8-4.2 0-3 2.3-4.4 5.4-4.4 1.7 0 2.6.2 3.7.5v-.2c0-1.9-1.2-2.9-3.3-2.9-1.5 0-2.6.3-3.9.8l-.8-2.5c1.5-.7 2.9-1.1 5.1-1.1 4 0 5.9 2.1 5.9 5.7v8zm.1-5.6c-.8-.3-1.9-.5-3.1-.5-2 0-3.1.8-3.1 2.1s1.1 2 2.6 2c2 0 3.5-1.1 3.5-2.9z"/><path d="m364.9 170.5v2.1h-3.1v-18.7h3.1v7.4c1-1.4 2.4-2.5 4.5-2.5 3.2 0 6.3 2.5 6.3 7s-3.1 7-6.3 7c-2.1 0-3.5-1.1-4.5-2.3zm7.7-4.7c0-2.6-1.7-4.3-3.9-4.3s-3.9 1.7-3.9 4.4c0 2.6 1.8 4.3 3.9 4.3s3.9-1.7 3.9-4.4z"/><path d="m376.9 170.8 1.4-2.1c1.4 1.1 3 1.7 4.4 1.7s2.1-.5 2.1-1.5-1.3-1.4-2.8-1.8c-.1 0-.2-.1-.2-.1-2-.6-4.2-1.4-4.2-4s2.1-4.1 4.8-4.1c1.7 0 3.5.6 5 1.5l-1.2 2.2c-1.3-.8-2.6-1.3-3.8-1.3s-1.9.5-1.9 1.4 1.3 1.4 2.8 1.8c.1 0 .2.1.2.1 2 .6 4.2 1.5 4.2 4 0 2.9-2.2 4.2-5 4.2-1.9 0-4-.7-5.8-2z"/><path d="m505.6 163.6c0-5.1 4.1-9.2 9.3-9.2s9.2 4.2 9.2 9.2-4.1 9.2-9.3 9.2-9.2-4.1-9.2-9.2zm17.4-.1c0-4.5-3.5-8.2-8.2-8.2s-8.2 3.7-8.2 8.3c0 4.5 3.5 8.2 8.2 8.2s8.2-3.7 8.2-8.3zm-13.1 0c0-2.8 2.1-5.1 5.1-5.1 1.9 0 2.9.6 3.9 1.5l-1.4 1.7c-.8-.7-1.5-1.1-2.5-1.1-1.7 0-2.8 1.4-2.8 3.1s1.1 3 2.8 3c1.1 0 1.7-.5 2.5-1.1l1.4 1.4c-1.1 1.1-2.1 1.7-4 1.7-2.9 0-5-2.3-5-5.1z"/><path d="m525.4 154.7h3.4l4.2 13.2 4.4-13.3h2.6l4.4 13.3 4.2-13.2h3.3l-6.2 18h-2.7l-4.4-12.8-4.4 12.8h-2.7z"/><path d="m551.7 165.8c0-3.9 3.1-7 7.2-7 4.2 0 7.2 3.2 7.2 7s-3.1 7-7.3 7c-4.1 0-7.1-3.1-7.1-7zm11.2 0c0-2.3-1.7-4.3-4.2-4.3s-4.1 2-4.1 4.3 1.7 4.3 4.1 4.3c2.7.1 4.2-1.9 4.2-4.3z"/><path d="m568.3 159.1h3.1v3c.8-2 2.4-3.4 4.8-3.3v3.2h-.2c-2.7 0-4.6 1.7-4.6 5.4v5.1h-3.1z"/><path d="m577.9 153.9h3.1v11.1l5.6-6h3.8l-5.4 5.5 5.5 8h-3.5l-4.1-5.8-1.9 2v3.9h-3.1z"/><path d="m590.6 165.8c0-3.9 3.1-7 7.2-7 4.2 0 7.2 3.2 7.2 7s-3.1 7-7.3 7c-4.1 0-7.1-3.1-7.1-7zm11.2 0c0-2.3-1.7-4.3-4.2-4.3s-4.1 2-4.1 4.3 1.7 4.3 4.1 4.3c2.6.1 4.2-1.9 4.2-4.3z"/><path d="m607 167.6v-8.6h3.1v7.6c0 2.1 1.1 3.3 2.9 3.3s3-1.3 3-3.3v-7.6h3.1v13.4h-3.1v-2.1c-.8 1.3-2.1 2.3-4.2 2.3-3 .2-4.8-1.8-4.8-5z"/><path d="m622.7 168.8v-7.1h-1.7v-2.6h1.7v-3.7h3.1v3.7h3.6v2.6h-3.6v6.6c0 1.2.6 1.7 1.7 1.7.7 0 1.3-.2 1.9-.5v2.5c-.8.5-1.7.7-2.8.7-2.3 0-3.9-.9-3.9-3.9z"/><path d="m632 154.7h3.2v15h9.4v2.9h-12.6z"/><path d="m654.8 172.5v-1.7c-.9 1.1-2.3 2-4.4 2-2.6 0-4.8-1.4-4.8-4.2 0-3 2.3-4.4 5.4-4.4 1.7 0 2.6.2 3.7.5v-.2c0-1.9-1.2-2.9-3.3-2.9-1.5 0-2.6.3-3.9.8l-.8-2.5c1.5-.7 2.9-1.1 5.1-1.1 4 0 5.9 2.1 5.9 5.7v8zm.1-5.6c-.8-.3-1.9-.5-3.1-.5-2 0-3.1.8-3.1 2.1s1.1 2 2.6 2c2 0 3.5-1.1 3.5-2.9z"/><path d="m663.7 170.5v2.1h-3.1v-18.7h3.1v7.4c1-1.4 2.4-2.5 4.5-2.5 3.2 0 6.3 2.5 6.3 7s-3.1 7-6.3 7c-2.1 0-3.5-1.1-4.5-2.3zm7.8-4.7c0-2.6-1.7-4.3-3.9-4.3-2.1 0-3.9 1.7-3.9 4.4 0 2.6 1.8 4.3 3.9 4.3s3.9-1.7 3.9-4.4z"/><path d="m675.8 170.8 1.4-2.1c1.4 1.1 3 1.7 4.4 1.7s2.1-.5 2.1-1.5-1.3-1.4-2.8-1.8c-.1 0-.2-.1-.2-.1-2-.6-4.2-1.4-4.2-4s2.1-4.1 4.8-4.1c1.7 0 3.5.6 5 1.5l-1.2 2.2c-1.3-.8-2.6-1.3-3.8-1.3s-1.9.5-1.9 1.4 1.3 1.4 2.8 1.8c.1 0 .2.1.2.1 2 .6 4.2 1.5 4.2 4 0 2.9-2.2 4.2-5 4.2-2 0-4.1-.7-5.8-2z"/><path d="m61 298.6c0-5.1 4.1-9.2 9.3-9.2s9.2 4.2 9.2 9.2-4.1 9.2-9.3 9.2c-5.1 0-9.2-4.2-9.2-9.2zm17.4-.1c0-4.5-3.5-8.2-8.2-8.2s-8.2 3.7-8.2 8.3c0 4.5 3.5 8.2 8.2 8.2s8.2-3.7 8.2-8.3zm-13.1-.1c0-2.8 2.1-5.1 5.1-5.1 1.9 0 2.9.6 3.9 1.5l-1.4 1.7c-.8-.7-1.5-1.1-2.5-1.1-1.7 0-2.8 1.4-2.8 3.1s1.1 3 2.8 3c1.1 0 1.7-.5 2.5-1.1l1.4 1.4c-1.1 1.1-2.1 1.7-4 1.7-2.8.1-5-2.2-5-5.1z"/><path d="m80.9 289.7h3.4l4.2 13.2 4.4-13.3h2.6l4.4 13.3 4.2-13.2h3.3l-6.2 18h-2.7l-4.4-12.8-4.4 12.8h-2.7z"/><path d="m107.1 300.8c0-3.9 3.1-7 7.2-7s7.2 3.2 7.2 7-3.1 7-7.3 7c-4 0-7.1-3.1-7.1-7zm11.3 0c0-2.3-1.7-4.3-4.2-4.3s-4.1 2-4.1 4.3 1.7 4.3 4.1 4.3c2.6.1 4.2-1.9 4.2-4.3z"/><path d="m123.7 294h3.1v3c.8-2 2.4-3.4 4.8-3.3v3.2h-.2c-2.7 0-4.6 1.7-4.6 5.4v5.1h-3.1z"/><path d="m133.4 288.9h3.1v11.1l5.6-6h3.8l-5.4 5.5 5.5 8h-3.5l-4.1-5.8-1.9 1.9v3.9h-3.1z"/><path d="m146 300.8c0-3.9 3.1-7 7.2-7s7.2 3.2 7.2 7-3.1 7-7.3 7c-4.1 0-7.1-3.1-7.1-7zm11.2 0c0-2.3-1.7-4.3-4.2-4.3s-4.1 2-4.1 4.3 1.7 4.3 4.1 4.3c2.6.1 4.2-1.9 4.2-4.3z"/><path d="m162.4 302.6v-8.6h3.1v7.6c0 2.1 1.1 3.3 2.9 3.3s3-1.3 3-3.3v-7.6h3.1v13.4h-3.1v-2.1c-.8 1.3-2.1 2.3-4.2 2.3-3 .2-4.8-1.8-4.8-5z"/><path d="m178.1 303.8v-7.1h-1.7v-2.7h1.7v-3.7h3.1v3.7h3.6v2.6h-3.6v6.6c0 1.2.6 1.7 1.7 1.7.7 0 1.3-.2 1.9-.5v2.5c-.8.5-1.7.7-2.8.7-2.3.1-3.9-.9-3.9-3.8z"/><path d="m187.4 289.7h3.2v15h9.4v2.9h-12.5v-17.9z"/><path d="m210.2 307.5v-1.7c-.9 1.1-2.3 2-4.4 2-2.6 0-4.8-1.4-4.8-4.2 0-3 2.3-4.4 5.4-4.4 1.7 0 2.6.2 3.7.5v-.2c0-1.9-1.2-2.9-3.3-2.9-1.5 0-2.6.3-3.9.8l-.8-2.5c1.5-.7 2.9-1.1 5.1-1.1 4 0 5.9 2.1 5.9 5.7v8zm.1-5.6c-.8-.3-1.9-.5-3.1-.5-2 0-3.1.8-3.1 2.1s1.1 2 2.6 2c2 0 3.5-1.1 3.5-2.9z"/><path d="m219.2 305.5v2.1h-3.1v-18.7h3.1v7.4c1-1.4 2.4-2.5 4.5-2.5 3.2 0 6.3 2.5 6.3 7s-3.1 7-6.3 7c-2.2 0-3.6-1.1-4.5-2.3zm7.7-4.7c0-2.6-1.7-4.3-3.9-4.3s-3.9 1.7-3.9 4.4c0 2.6 1.8 4.3 3.9 4.3s3.9-1.7 3.9-4.4z"/><path d="m231.2 305.8 1.4-2.1c1.4 1.1 3 1.7 4.4 1.7s2.1-.5 2.1-1.5-1.3-1.4-2.8-1.8c-.1 0-.2-.1-.2-.1-2-.6-4.2-1.4-4.2-4s2.1-4.1 4.8-4.1c1.7 0 3.5.6 5 1.5l-1.2 2.2c-1.3-.8-2.6-1.3-3.8-1.3s-1.9.5-1.9 1.4 1.3 1.4 2.8 1.8c.1 0 .2.1.2.1 2 .6 4.2 1.5 4.2 4 0 2.9-2.2 4.2-5 4.2-2 0-4.1-.7-5.8-2z"/><path d="m360.6 298.6c0-5.1 4.1-9.2 9.3-9.2s9.2 4.2 9.2 9.2-4.1 9.2-9.3 9.2-9.2-4.2-9.2-9.2zm17.4-.1c0-4.5-3.5-8.2-8.2-8.2s-8.2 3.7-8.2 8.3c0 4.5 3.5 8.2 8.2 8.2s8.2-3.7 8.2-8.3zm-13.1-.1c0-2.8 2.1-5.1 5.1-5.1 1.9 0 2.9.6 3.9 1.5l-1.4 1.7c-.8-.7-1.5-1.1-2.5-1.1-1.7 0-2.8 1.4-2.8 3.1s1.1 3 2.8 3c1.1 0 1.7-.5 2.5-1.1l1.4 1.4c-1.1 1.1-2.1 1.7-4 1.7-2.8.1-5-2.2-5-5.1z"/><path d="m380.5 289.7h3.4l4.2 13.2 4.4-13.3h2.6l4.4 13.3 4.2-13.2h3.3l-6.2 18h-2.7l-4.4-12.8-4.4 12.8h-2.7z"/><path d="m406.7 300.8c0-3.9 3.1-7 7.2-7 4.2 0 7.2 3.2 7.2 7s-3.1 7-7.3 7c-4.1 0-7.1-3.1-7.1-7zm11.3 0c0-2.3-1.7-4.3-4.2-4.3s-4.1 2-4.1 4.3 1.7 4.3 4.1 4.3c2.7.1 4.2-1.9 4.2-4.3z"/><path d="m423.3 294h3.1v3c.8-2 2.4-3.4 4.8-3.3v3.2h-.2c-2.7 0-4.6 1.7-4.6 5.4v5.1h-3.1z"/><path d="m433 288.9h3.1v11.1l5.6-6h3.8l-5.4 5.5 5.5 8h-3.5l-4.1-5.8-1.9 2v3.9h-3.1z"/><path d="m445.6 300.8c0-3.9 3.1-7 7.2-7 4.2 0 7.2 3.2 7.2 7s-3.1 7-7.3 7c-4.1 0-7.1-3.1-7.1-7zm11.3 0c0-2.3-1.7-4.3-4.2-4.3s-4.1 2-4.1 4.3 1.7 4.3 4.1 4.3c2.6.1 4.2-1.9 4.2-4.3z"/><path d="m462.1 302.6v-8.6h3.1v7.6c0 2.1 1.1 3.3 2.9 3.3s3-1.3 3-3.3v-7.6h3.1v13.4h-3.1v-2.1c-.8 1.3-2.1 2.3-4.2 2.3-3.1.2-4.8-1.8-4.8-5z"/><path d="m477.8 303.8v-7.1h-1.8v-2.7h1.7v-3.7h3.1v3.7h3.6v2.6h-3.6v6.6c0 1.2.6 1.7 1.7 1.7.7 0 1.3-.2 1.9-.5v2.5c-.8.5-1.7.7-2.8.7-2.2.1-3.8-.9-3.8-3.8z"/><path d="m487.1 289.7h3.2v15h9.4v2.9h-12.5v-17.9z"/><path d="m509.9 307.5v-1.7c-.9 1.1-2.3 2-4.4 2-2.6 0-4.8-1.4-4.8-4.2 0-3 2.3-4.4 5.4-4.4 1.7 0 2.6.2 3.7.5v-.2c0-1.9-1.2-2.9-3.3-2.9-1.5 0-2.6.3-3.9.8l-.8-2.5c1.5-.7 2.9-1.1 5.1-1.1 4 0 5.9 2.1 5.9 5.7v8zm.1-5.6c-.8-.3-1.9-.5-3.1-.5-2 0-3.1.8-3.1 2.1s1.1 2 2.6 2c2 0 3.5-1.1 3.5-2.9z"/><path d="m518.8 305.5v2.1h-3.1v-18.7h3.1v7.4c1-1.4 2.4-2.5 4.5-2.5 3.2 0 6.3 2.5 6.3 7s-3.1 7-6.3 7c-2.2 0-3.5-1.1-4.5-2.3zm7.7-4.7c0-2.6-1.7-4.3-3.9-4.3s-3.9 1.7-3.9 4.4c0 2.6 1.8 4.3 3.9 4.3s3.9-1.7 3.9-4.4z"/><path d="m530.8 305.8 1.4-2.1c1.4 1.1 3 1.7 4.4 1.7s2.1-.5 2.1-1.5-1.3-1.4-2.8-1.8c-.1 0-.2-.1-.2-.1-2-.6-4.2-1.4-4.2-4s2.1-4.1 4.8-4.1c1.7 0 3.5.6 5 1.5l-1.2 2.2c-1.3-.8-2.6-1.3-3.8-1.3s-1.9.5-1.9 1.4 1.3 1.4 2.8 1.8c.1 0 .2.1.2.1 2 .6 4.2 1.5 4.2 4 0 2.9-2.2 4.2-5 4.2-1.9 0-4.1-.7-5.8-2z"/><path d="m659.5 298.6c0-5.1 4.1-9.2 9.3-9.2s9.2 4.2 9.2 9.2-4.1 9.2-9.3 9.2-9.2-4.2-9.2-9.2zm17.3-.1c0-4.5-3.5-8.2-8.2-8.2s-8.2 3.7-8.2 8.3c0 4.5 3.5 8.2 8.2 8.2 4.8 0 8.2-3.7 8.2-8.3zm-13-.1c0-2.8 2.1-5.1 5.1-5.1 1.9 0 2.9.6 3.9 1.5l-1.4 1.7c-.8-.7-1.5-1.1-2.5-1.1-1.7 0-2.8 1.4-2.8 3.1s1.1 3 2.8 3c1.1 0 1.7-.5 2.5-1.1l1.4 1.4c-1.1 1.1-2.1 1.7-4 1.7-2.9.1-5-2.2-5-5.1z"/><path d="m679.3 289.7h3.4l4.2 13.2 4.4-13.3h2.6l4.4 13.3 4.2-13.2h3.3l-6.2 18h-2.6l-4.4-12.8-4.4 12.8h-2.7z"/><path d="m705.5 300.8c0-3.9 3.1-7 7.2-7 4.2 0 7.2 3.2 7.2 7s-3.1 7-7.3 7c-4 0-7.1-3.1-7.1-7zm11.3 0c0-2.3-1.7-4.3-4.2-4.3s-4.1 2-4.1 4.3 1.7 4.3 4.1 4.3c2.7.1 4.2-1.9 4.2-4.3z"/><path d="m722.1 294h3.1v3c.8-2 2.4-3.4 4.8-3.3v3.2h-.2c-2.7 0-4.6 1.7-4.6 5.4v5.1h-3.1z"/><path d="m731.8 288.9h3.1v11.1l5.6-6h3.8l-5.4 5.5 5.5 8h-3.5l-4.1-5.8-1.9 2v3.9h-3.1z"/><path d="m744.4 300.8c0-3.9 3.1-7 7.2-7 4.2 0 7.2 3.2 7.2 7s-3.1 7-7.3 7c-4.1 0-7.1-3.1-7.1-7zm11.3 0c0-2.3-1.7-4.3-4.2-4.3s-4.1 2-4.1 4.3 1.7 4.3 4.1 4.3c2.6.1 4.2-1.9 4.2-4.3z"/><path d="m760.9 302.6v-8.6h3.1v7.6c0 2.1 1.1 3.3 2.9 3.3s3-1.3 3-3.3v-7.6h3.1v13.4h-3.1v-2.1c-.8 1.3-2.1 2.3-4.2 2.3-3.1.2-4.8-1.8-4.8-5z"/><path d="m776.6 303.8v-7.1h-1.7v-2.7h1.7v-3.7h3.1v3.7h3.6v2.6h-3.6v6.6c0 1.2.6 1.7 1.7 1.7.7 0 1.3-.2 1.9-.5v2.5c-.8.5-1.7.7-2.8.7-2.3.1-3.9-.9-3.9-3.8z"/><path d="m785.9 289.7h3.2v15h9.4v2.9h-12.5v-17.9z"/><path d="m808.7 307.5v-1.7c-.9 1.1-2.3 2-4.4 2-2.6 0-4.8-1.4-4.8-4.2 0-3 2.3-4.4 5.4-4.4 1.7 0 2.6.2 3.7.5v-.2c0-1.9-1.2-2.9-3.3-2.9-1.5 0-2.6.3-3.9.8l-.8-2.5c1.5-.7 2.9-1.1 5.1-1.1 4 0 5.9 2.1 5.9 5.7v8zm.1-5.6c-.8-.3-1.9-.5-3.1-.5-2 0-3.1.8-3.1 2.1s1.1 2 2.6 2c2 0 3.5-1.1 3.5-2.9z"/><path d="m817.6 305.5v2.1h-3.1v-18.7h3.1v7.4c1-1.4 2.4-2.5 4.5-2.5 3.2 0 6.3 2.5 6.3 7s-3.1 7-6.3 7c-2.1 0-3.5-1.1-4.5-2.3zm7.7-4.7c0-2.6-1.7-4.3-3.9-4.3-2.1 0-3.9 1.7-3.9 4.4 0 2.6 1.8 4.3 3.9 4.3 2.2 0 3.9-1.7 3.9-4.4z"/><path d="m829.6 305.8 1.4-2.1c1.4 1.1 3 1.7 4.4 1.7s2.1-.5 2.1-1.5-1.3-1.4-2.8-1.8c-.1 0-.2-.1-.2-.1-2-.6-4.2-1.4-4.2-4s2.1-4.1 4.8-4.1c1.7 0 3.5.6 5 1.5l-1.2 2.2c-1.3-.8-2.6-1.3-3.8-1.3s-1.9.5-1.9 1.4 1.3 1.4 2.8 1.8c.1 0 .2.1.2.1 2 .6 4.2 1.5 4.2 4 0 2.9-2.2 4.2-5 4.2-1.9 0-4-.7-5.8-2z"/><path d="m206.3 434.2c0-5.1 4.1-9.2 9.3-9.2s9.2 4.2 9.2 9.2-4.1 9.2-9.3 9.2-9.2-4.1-9.2-9.2zm17.4-.1c0-4.5-3.5-8.2-8.2-8.2s-8.2 3.7-8.2 8.3c0 4.5 3.5 8.2 8.2 8.2s8.2-3.7 8.2-8.3zm-13.1-.1c0-2.8 2.1-5.1 5.1-5.1 1.9 0 2.9.6 3.9 1.5l-1.4 1.7c-.8-.7-1.5-1.1-2.5-1.1-1.7 0-2.8 1.4-2.8 3.1s1.1 3 2.8 3c1.1 0 1.7-.5 2.5-1.1l1.4 1.4c-1.1 1.1-2.1 1.7-4 1.7-2.9.1-5-2.2-5-5.1z"/><path d="m226.1 425.3h3.4l4.2 13.2 4.4-13.3h2.6l4.4 13.3 4.2-13.2h3.3l-6.2 18h-2.7l-4.4-12.8-4.4 12.8h-2.7z"/><path d="m252.4 436.4c0-3.9 3.1-7 7.2-7 4.2 0 7.2 3.2 7.2 7s-3.1 7-7.3 7c-4.1 0-7.1-3.1-7.1-7zm11.2 0c0-2.3-1.7-4.3-4.2-4.3s-4.1 2-4.1 4.3 1.7 4.3 4.1 4.3c2.7.1 4.2-1.9 4.2-4.3z"/><path d="m269 429.7h3.1v3c.8-2 2.4-3.4 4.8-3.3v3.2h-.2c-2.7 0-4.6 1.7-4.6 5.4v5.1h-3.1z"/><path d="m278.6 424.5h3.1v11.1l5.6-6h3.8l-5.4 5.5 5.5 8h-3.5l-4.1-5.8-1.9 2v3.9h-3.1z"/><path d="m291.3 436.4c0-3.9 3.1-7 7.2-7 4.2 0 7.2 3.2 7.2 7s-3.1 7-7.3 7c-4.1 0-7.1-3.1-7.1-7zm11.2 0c0-2.3-1.7-4.3-4.2-4.3s-4.1 2-4.1 4.3 1.7 4.3 4.1 4.3c2.6.1 4.2-1.9 4.2-4.3z"/><path d="m307.7 438.2v-8.6h3.1v7.6c0 2.1 1.1 3.3 2.9 3.3s3-1.3 3-3.3v-7.6h3.1v13.4h-3.1v-2.1c-.8 1.3-2.1 2.3-4.2 2.3-3 .2-4.8-1.8-4.8-5z"/><path d="m323.4 439.4v-7.1h-1.7v-2.6h1.7v-3.7h3.1v3.7h3.6v2.6h-3.6v6.6c0 1.2.6 1.7 1.7 1.7.7 0 1.3-.2 1.9-.5v2.5c-.8.5-1.7.7-2.8.7-2.3 0-3.9-.9-3.9-3.9z"/><path d="m332.7 425.3h3.2v15h9.4v2.9h-12.5v-17.9z"/><path d="m355.5 443.1v-1.7c-.9 1.1-2.3 2-4.4 2-2.6 0-4.8-1.4-4.8-4.2 0-3 2.3-4.4 5.4-4.4 1.7 0 2.6.2 3.7.5v-.2c0-1.9-1.2-2.9-3.3-2.9-1.5 0-2.6.3-3.9.8l-.8-2.5c1.5-.7 2.9-1.1 5.1-1.1 4 0 5.9 2.1 5.9 5.7v8zm.1-5.6c-.8-.3-1.9-.5-3.1-.5-2 0-3.1.8-3.1 2.1s1.1 2 2.6 2c2 0 3.5-1.1 3.5-2.9z"/><path d="m364.4 441.1v2.1h-3.1v-18.7h3.1v7.4c1-1.4 2.4-2.5 4.5-2.5 3.2 0 6.3 2.5 6.3 7s-3.1 7-6.3 7c-2.1 0-3.5-1.1-4.5-2.3zm7.7-4.7c0-2.6-1.7-4.3-3.9-4.3-2.1 0-3.9 1.7-3.9 4.4 0 2.6 1.8 4.3 3.9 4.3 2.2 0 3.9-1.7 3.9-4.4z"/><path d="m376.5 441.4 1.4-2.1c1.4 1.1 3 1.7 4.4 1.7s2.1-.5 2.1-1.5-1.3-1.4-2.8-1.8c-.1 0-.2-.1-.2-.1-2-.6-4.2-1.4-4.2-4s2.1-4.1 4.8-4.1c1.7 0 3.5.6 5 1.5l-1.2 2.2c-1.3-.8-2.6-1.3-3.8-1.3s-1.9.5-1.9 1.4 1.3 1.4 2.8 1.8c.1 0 .2.1.2.1 2 .6 4.2 1.5 4.2 4 0 2.9-2.2 4.2-5 4.2-2 0-4.1-.7-5.8-2z"/><path d="m505.1 434.2c0-5.1 4.1-9.2 9.3-9.2s9.2 4.2 9.2 9.2-4.1 9.2-9.3 9.2-9.2-4.1-9.2-9.2zm17.4-.1c0-4.5-3.5-8.2-8.2-8.2s-8.2 3.7-8.2 8.3c0 4.5 3.5 8.2 8.2 8.2s8.2-3.7 8.2-8.3zm-13.1-.1c0-2.8 2.1-5.1 5.1-5.1 1.9 0 2.9.6 3.9 1.5l-1.4 1.7c-.8-.7-1.5-1.1-2.5-1.1-1.7 0-2.8 1.4-2.8 3.1s1.1 3 2.8 3c1.1 0 1.7-.5 2.5-1.1l1.4 1.4c-1.1 1.1-2.1 1.7-4 1.7-2.9.1-5-2.2-5-5.1z"/><path d="m525 425.3h3.4l4.2 13.2 4.4-13.3h2.6l4.4 13.3 4.2-13.2h3.3l-6.2 18h-2.7l-4.4-12.8-4.4 12.8h-2.7z"/><path d="m551.2 436.4c0-3.9 3.1-7 7.2-7 4.2 0 7.2 3.2 7.2 7s-3.1 7-7.3 7c-4.1 0-7.1-3.1-7.1-7zm11.2 0c0-2.3-1.7-4.3-4.2-4.3s-4.1 2-4.1 4.3 1.7 4.3 4.1 4.3c2.7.1 4.2-1.9 4.2-4.3z"/><path d="m567.8 429.7h3.1v3c.8-2 2.4-3.4 4.8-3.3v3.2h-.2c-2.7 0-4.6 1.7-4.6 5.4v5.1h-3.1z"/><path d="m577.5 424.5h3.1v11.1l5.6-6h3.8l-5.4 5.5 5.5 8h-3.5l-4.1-5.8-1.9 2v3.9h-3.1z"/><path d="m590.1 436.4c0-3.9 3.1-7 7.2-7 4.2 0 7.2 3.2 7.2 7s-3.1 7-7.3 7c-4.1 0-7.1-3.1-7.1-7zm11.2 0c0-2.3-1.7-4.3-4.2-4.3s-4.1 2-4.1 4.3 1.7 4.3 4.1 4.3c2.6.1 4.2-1.9 4.2-4.3z"/><path d="m606.5 438.2v-8.6h3.1v7.6c0 2.1 1.1 3.3 2.9 3.3s3-1.3 3-3.3v-7.6h3.1v13.4h-3.1v-2.1c-.8 1.3-2.1 2.3-4.2 2.3-3 .2-4.8-1.8-4.8-5z"/><path d="m622.2 439.4v-7.1h-1.7v-2.6h1.7v-3.7h3.1v3.7h3.6v2.6h-3.6v6.6c0 1.2.6 1.7 1.7 1.7.7 0 1.3-.2 1.9-.5v2.5c-.8.5-1.7.7-2.8.7-2.3 0-3.9-.9-3.9-3.9z"/><path d="m631.5 425.3h3.2v15h9.4v2.9h-12.5v-17.9z"/><path d="m654.3 443.1v-1.7c-.9 1.1-2.3 2-4.4 2-2.6 0-4.8-1.4-4.8-4.2 0-3 2.3-4.4 5.4-4.4 1.7 0 2.6.2 3.7.5v-.2c0-1.9-1.2-2.9-3.3-2.9-1.5 0-2.6.3-3.9.8l-.8-2.5c1.5-.7 2.9-1.1 5.1-1.1 4 0 5.9 2.1 5.9 5.7v8zm.1-5.6c-.8-.3-1.9-.5-3.1-.5-2 0-3.1.8-3.1 2.1s1.1 2 2.6 2c2 0 3.5-1.1 3.5-2.9z"/><path d="m663.3 441.1v2.1h-3.1v-18.7h3.1v7.4c1-1.4 2.4-2.5 4.5-2.5 3.2 0 6.3 2.5 6.3 7s-3.1 7-6.3 7c-2.2 0-3.6-1.1-4.5-2.3zm7.7-4.7c0-2.6-1.7-4.3-3.9-4.3s-3.9 1.7-3.9 4.4c0 2.6 1.8 4.3 3.9 4.3s3.9-1.7 3.9-4.4z"/><path d="m675.3 441.4 1.4-2.1c1.4 1.1 3 1.7 4.4 1.7s2.1-.5 2.1-1.5-1.3-1.4-2.8-1.8c-.1 0-.2-.1-.2-.1-2-.6-4.2-1.4-4.2-4s2.1-4.1 4.8-4.1c1.7 0 3.5.6 5 1.5l-1.2 2.2c-1.3-.8-2.6-1.3-3.8-1.3s-1.9.5-1.9 1.4 1.3 1.4 2.8 1.8c.1 0 .2.1.2.1 2 .6 4.2 1.5 4.2 4 0 2.9-2.2 4.2-5 4.2-2 0-4.1-.7-5.8-2z"/></g></svg><g>
	<path d="M760.5,270.1c0.5,1.5-0.8,2.5-1.2,3.9c3.2,3.9,6.7,7.2,11.1,9.5c2.1,1.1,4.2,2.1,6.2,3.2c7.3,3.8,14.3,2.8,21.3-0.8
		c1.1-0.6,1.9-1.4,2.5-2.4c1.7-3.2,4.2-5.6,7-7.8c3.1-2.5,5.5-5.5,6.7-9.4c0.9-2.9,2.6-5.6,3.8-8.4c3.4-7.5,4.3-15.3,2.1-23.3
		c-0.4-1.5-1-2.8-1.9-4c-2-2.8-3.7-5.7-5.3-8.7c-1.1-2.1-2.4-3.9-4.8-4.7c-1.5-0.5-2.4-2.1-3.4-3.3c-1.8-2-3.7-3.6-6.7-3.9
		c-2.3-0.2-4.7-1.1-5.8-3.6c-0.1-0.3-0.4-0.5-0.7-0.6c-5.4-3.4-10.8-6.7-17.6-6.3c-7.8,0.5-15.5,1.3-22.6,4.8c-1.6,0.8-3,2-5,1.8
		c-0.3-0.3,0.2-0.6,0.2-0.9c0.7-6.4,6-8.1,10.6-10.4c0.2-0.1,0.4-0.2,0.5-0.3s0.1-0.2,0.2-0.3c-3.7-0.8-2.8-2.7-17.4,8.2
		c1.1,1.5,3.5,1.3,4.8,3c-1.9,1.1-3.4,0.2-4.7-0.4c-3.9-1.9-8-3.6-11.6-5.9c-6.6-4.2-14.1-4.1-21.4-5.1c-0.4,1.3,1.3,2.1,0.1,3.2
		c-0.8,0.4-1.1-0.3-1.5-0.8c-5.5-6.4-11.9-11.2-20.4-13.1c-4.5-1-8.9-2.7-13.3-4.3c-4.6-1.7-9.6-2.7-14.5-3.5
		c-5.7-0.9-10.6-3.5-15.7-6c-3.1-1.6-6.1-3.6-9.4-4.7c-5.5-1.8-10.1-4.8-14.7-8c-2.5-1.8-4.8-4-6.3-6.9c-0.5-1-0.9-2-0.6-3.3
		c1-3.8,1.8-7.6,2.7-11.5c0.3-1.1,0.3-2.1-0.3-3.1c-1.6-2.9-3.8-5.4-4.9-8.6c-0.1-0.3-0.6-0.7-0.9-0.8c-3-1-6-1.9-9.3-1.7
		c-0.4,2.2,1.1,3.8,1,5.8c-1.5,0.9-2.2-0.5-3.3-1c1,0.5,1.8,1.9,3.2,0.9c1.6,0.3,3.2,0.6,5.6,1c0.2,0,0.1-1.8,1.4-1.4
		c0.8,1-0.6,1.7-0.5,2.6c1,1.3,3.5,0.8,3.7,3.4c-2.2-0.4-3.8-2-5.9-2c-2.1,0-4.7,0.5-6.3-0.5c-3.8-2.4-7.9-0.9-11.6-2.2
		c-1,1-1.9,1.9-2.4,3.4c2.2,0.5,4.3,1,6.5,1.1c1.1,0,1.9,0.3,1.4,1.7h0.1c-2.1,0-4.1-0.2-6.3-0.8s-4.3,0.4-5.4,3
		c1.8,1.5,4.4,1,6.7,2.5c-3.7,1.6-7.6-2.9-10.4,1.4c-0.1,0.9,0.6,1.9,0.1,2.9c1.9,1,3.7,2,6.1,3.3c-3.7,1.1-5.4-2.6-8.5-1.6
		c-0.9,0.7-1.1,2-1.6,3.3c2.2,2,4.4,4,6.6,6.1c-0.2,0.2-0.3,0.4-0.5,0.6c-2.7-0.7-3.8-3.5-6.3-5c-4.1,3.8-6.3,9.3-10,13.5
		c2.2-5.2,5.1-10.1,8.5-14.6c-3.7,1.2-12.5,15.6-12.2,20.4c1.7,1.1,3.2,0,4.7-0.7c4.4-2.4,8.2-5.6,12-8.9c1.4-1.2,2.7-2.4,4.1-3.6
		c3.3,1.4,3.4,5.3,5.9,7.3s5.8,1.9,8.4,3.6c-3.1,0.8-6-0.2-8.9-1.7c-2.1,1.8-4.2,3.6-6.3,5.3c-3,2.5-6.2,4.8-9.7,6.6
		c-1.9,0.9-3.7,0.9-5.4-0.1c-2.4-1.5-4.2-3.5-5.7-5.9c-0.9-1.5-0.8-3.2-0.1-4.9c2.2-5.6,5.7-10.4,9.2-15.2c0.7-0.9,1.4-1.9,2.3-2.9
		c-1-1.4-2.2-2.8-2.4-4.7c-0.2-2.2,1.5-2.8,3-3.9c-0.4-2-0.7-4.2,1.5-5.6c3-1.9,4.5,1.4,6.8,2.1c1.2-1.8,2.7-3.2,5.1-3.7
		c-2.1-0.6-3.1-2.2-3.8-4c-3.2-0.2-4.5,1.6-5,4.5c-1.5-3.4-0.6-4.5,4.2-6.2c1.2-1.9,1.2-5.3,4.6-5.2c2.4,0.1,5,0.2,6.8,2
		c-0.1,0.2-0.1,0.5-0.2,0.7c-1.4-0.3-2.8-0.6-4.2-0.9c-1.8-0.4-3.6-0.6-4.7,1.5c-1.1,2.1-0.5,3.8,1.4,5.6c0.6-2.3,2.5-2.9,4.1-3.6
		c0.6-1.1-1.1-1.3-0.6-2.5c1.4,1.3,3.2,0.6,4.7,1.3c0.1,0.1,0.1,0.2,0.1,0.2c0,0.1,0,0-0.2-0.1c0.2-0.7,0.4-1.4,0.5-2.1
		c0.3-3.1,0.3-3.1,3-5c1.1-0.3,1.4,0.8,2.2,1.1c0.2-0.1,0.5-0.2,0.8-0.4c3.2-2.6,6.6-5.1,10.4-6.8c1.4-0.6,2.5-0.6,3.9,0.2
		c3.4,1.8,5.5,4.6,7.2,7.8c-0.3,3.4-1.9,6.3-3.7,9.5c3.4,3.1,2.2,6.8,1,10.5c-0.9,2.7-0.7,5.7-2.3,8.3c1.2,2.2,2.4,4.2,4.3,5.8
		c6.8,5.7,14.5,9.3,23.1,11.4c10.8,2.6,21.7,5.1,32.2,9.1c1.4,0.5,2.6,1.4,3.6,2.5c1.9,2,4.1,3.1,6.8,3.9c5.5,1.5,11.2,2.8,15.7,6.7
		c0.8,0.7,1.8,0.3,2.7,0.6c2.9,1,6,1.6,8.7,3.2c1.6,1,3.6,1.4,5.2,0.7c5-2.4,10.4-3,15.8-3.3c5.8-0.4,11.9-1.7,17.4,0.8
		c4,1.8,8.1,2.4,12.2,3.2c1.4,0.3,2.7,0.4,4.3,0.1c0-1.5,0.3-3.1,0.9-4.8c-1.8-0.8-3.5-1.6-5.4-2.2c-6.7-2-8.5-8-4.1-13.5
		c0.1-0.2,0.2-0.4,0.3-0.7c-0.7-2.9-1.4-6,1.8-8.1c0.3-1.3-1.4-1.4-1.3-2.1c-0.1-2,1.4-3,1.6-4.5c-0.1-0.2-0.2-0.6-0.3-0.8
		c-2.4-3.1-2.4-4.9,0.5-7.4c3.3-2.8,5.8-6.2,8.6-9.3c-1.7-3-1.4-5.4,1-8.5c2.5-3.1,5.2-6.1,6.3-10.1c-3.1-2.1-6.3-4-9.1-6.9
		c0.4-1.1,1.1-2.3-0.3-3.3c2.4-1.5,1.1-4.2,2.7-6.3c0.3-0.3,1.2-0.7,2.2-0.9c1.7,0.5,2.8,2.2,4.5,2.9c0.6-1.2-1.2-1.8-0.6-3.2
		c1.3-0.6,3.4,0.2,4.2-1.8c2.3,1.1,1.8,3.4,2.6,5.2c1.2-0.8,1.5-2.4,2.7-2.8c4.3-0.2,8.1,0.9,11.8,2.7c0.5-1-0.9-1.9,0.5-3.1
		c1.1-0.7,1.9,0.6,2.9,1.3c0.9,0.7,1.7,1.6,2.7,2.2c2.5,1.6,5.1,2.4,8.1,2.4c1.9,0,3.9,0.8,5.6,2.1c0.8,0.7,1.7,1.2,2.8,1.3
		c1.1-0.4,0-1.7,1.1-2.2c0.6-0.2,1.2,0.2,1.4,0.8c0.7,2.4,2.7,3.3,4.7,4.3c4.4,2.1,5.1,2.9,7.6,7.3c0.9,0.6,1.7-0.8,2-0.7
		c2,1.1,1.4,2.4,1.6,3.4c0.7,0.7,1.2-0.4,1.8,0c1.1,0.7,0.5,2.4,2.1,3c1.1,0.4,1.4,1.7,1.8,2.7c-0.6,1.6-2.2,0.8-2.9,1.5
		c-0.5,1,0.1,1.5,0.6,2.1c0.8,0.9,1.4,2.2,1,3.2c-1.5,4.6-0.7,9.5-2.4,14c-0.9,2.6-1.5,5.3-3,7.7c-1.1,1.9-1.9,4-2.4,6.2
		c-0.8,3.2-2.1,6.2-3.9,9c-3.6,5.4-7.7,10.6-9.2,17c-2.6,1.2-3.5-1.2-5.6-2c-1.9,6.4-2,12.5,0.9,18.5c0.8,1.7,2.8,2.5,3.9,4.2
		c2,3.4,2.3,7.3,3.2,11c0.3,1.3,0.7,2.4,1.3,3.5c3,5,3.6,10.2,1.2,15.5c-0.5,1-0.7,2-0.6,3.1c0.5,7.5-2.2,14-5.9,20.2
		c-1,1.7-1.8,3.3-2.6,5.1c-2.2,5.2-6.3,8.8-10.7,12.1c-2,1.5-3.7,3.2-5,5.3c-6.3,9.5-14,17.7-22.5,25.1c-1.6,1.4-2.1,3.2-3.5,4.7
		c-6.9,6.8-15,12.2-22,18.9c-3.8,3.6-8,6.9-10.9,11.5c-3,4.7-8.7,6.6-11.9,10.9c-1.3-0.7-0.7-1.3-0.7-2.3c-0.5,1.6-1.7,2.2-2.4,3.1
		c-0.4,2.2-0.4,4.3,0.7,6.5c-3,4-5.3,8.6-9.5,11.6c-0.4,0.3-0.6,0.8-0.9,1.3c-1.8,3.6-4.8,5.2-8.7,5.5c-5.6,0.5-11.3,0.3-16.9-0.5
		c-3.4-0.5-6.8-0.1-10.2,0c-7.6,0.3-15.1-0.2-22.6-1.4c-3.1-0.5-6.1-1.5-9.3-1.6c-3.4-0.1-6.6-1-9.8-2.5c-4.2-1.9-8.8-3.1-13.4-4.2
		c-5.5-1.3-10.1-3.7-14.5-7.4c-9-7.5-18.5-14.4-28.6-20.3c-2-1.2-4-2.4-5.8-3.9c-3.2-2.7-3.5-5.6-0.8-8.8c3-3.5,6.3-6.7,9.9-9.5
		c1.6-1.3,3.1-2.6,4.9-4.1c-6.2-8.5-14.5-14.8-21.1-23c-1.6,1.7-2.1,3.4-2.6,5c-1.9,5.2-4.4,10.1-7.3,14.9c-1,1.6-2.1,2.9-3.5,4.1
		c-2.3,2.1-4.8,3.9-6.6,6.4c-0.4,0.6-1.1,1.1-1.7,1.4c-10.7,3.8-20.4,10.2-31.5,12.7c-9.3,2.1-17.6,6.1-26.2,9.8
		c-4,1.7-7.3,4.3-10.8,6.9c-0.6,3.8,0.3,7.5,0.8,11.3c0.1,0.8,0.7,1.3,1.2,1.8c1.5,1.7,2.4,3.5,2.4,5.8c0,1.3,0.5,2.2,1.1,3.3
		c1.2,2.3,2.3,4.6,1.4,7.6c-4.9,3-8.8,8.3-15.7,8.4c-4.2,0.1-8.4-0.2-12.3-1.6c-6.6-2.4-13.3-2.5-20.1-2.2
		c-4.9,0.2-9.7,0.9-14.6,0.4c-0.9,2.1-1.4,4.1-1.2,5.9c-3.7,3-7.6,2.2-11.5,2.1c-5.7-0.2-11.5,0.3-17.2-0.2c-1.5-0.1-3-0.1-4.3-1.4
		c1.4-13.4-1.5-27.1,1.1-39.6c4.7-7.6,9.4-14.2,12.6-21.6c-2.2-5.3-3.3-10.9-4.2-16.4c-2.2-12.6-6.1-24.8-9.3-37.1
		c-0.8-3.1-2.8-4.8-5.7-6c-8.8-3.6-18.1-3.9-27.4-4.5c-1.3-0.1-2.8,0.5-3.8-1.2c0.9-1.5,2.5-1.4,3.9-1.5c4.5-0.3,8.9,0.9,13.3,1.5
		c4.5,0.6,9,1.5,13.4,2.9c3.8,1.2,6.1,3.6,7.5,7.2c2.1,5.5,3.1,11.3,5,16.8c3.5,10.7,4.7,22,7.3,32.9c0.4,1.7,0.8,3.5,2,4.9
		c-1.8,6.6-5,12.3-9.5,17.2c-2.9,3.1-4,6.4-3.9,10.6c0.3,9.6,0.1,19.1,0.2,28.7c0,1.4-0.7,2.7-0.3,4.1c2.5,0.8,26.1,0.7,28.4-0.1
		c1.3-6.5-0.1-12.9-1-19.2c-1-6.7-1.3-13.5-0.8-20.3c1.5,3.5,1,7.3,1.6,10.9c0.7,3.9,0.9,7.8,1.6,11.7c0.6,3.8-0.2,7.6,0,11.9
		c2.2-2.9,2-5.7,1.5-8.6c-0.8-5.2-1.5-10.3-0.9-15.6c0.1-1,0.1-2.2,0.5-3.1c2.3-5.6,3.8-11.5,7.5-16.5c2.3-3.2,4.1-6.5,4.9-10.5
		c0.4-1.9,1.3-3.9,3.2-5.2c0.8,1.3-1,1.9-0.4,3.1c1.7-1.2,3.3-2.3,5.1-3.5c-2.8-4.3-4.4-9-5.6-13.9c-1.2,0.9-1.3,2.4-2.6,3.1
		c-0.2-1.6,1.1-2.7,1.1-4.3c-3.2,1.1-6.5,0-10.1,0.6c1.4,4.9,1.8,9.7,4.1,14.1c0.7,1.3,0.9,3.1-1.4,3.7l0,0
		c-3.7-10.6-6.4-21.4-6.9-32.6c-0.1-1.3-0.2-2.5-0.7-3.7c-3.8-10-5.9-20.3-8-30.8c-1.9-9.7-3.6-19.4-5.1-29.2
		c-0.5-3.1-1-6.3-0.9-9.5c0-0.8-0.4-1.7,0.4-2.3c0.5-0.2,0.8,0.1,0.8,0.4c1.1,9.8,4,19.4,4.8,29.3c1.2,14.6,5.4,28.4,10.2,42
		c1.1,3,0.4,6.1,1,9.1c0.5,2.6,0.7,5.3,1.5,7.9c3,0.5,5.7-1.3,8.7-0.7c2.6,0.6,4.3,1.6,5.1,4c1.3,3.7,2.9,7.3,4.9,10.9
		c2.6-4.4,6.9-5.4,11.1-6.4c1.4,0.4,1.8,1.4,2.6,2.1c9.3-6.9,18.3-14.1,26.7-21.9c2.8-2.6,6-4.8,9-7.1c4.3-3.4,8-7.2,11.5-11.4
		c5.3-6.3,11.1-12,17.4-17.3c4.8-4,10.1-7.8,13-13.9c1.1-2.3,3.6-3.6,5.7-5c2.2-1.5,4-3.3,5.3-5.8c2.4-4.6,5.8-9.2,10-11.8
		c4.2-2.5,9.3-5.1,14.8-3c3.1,1.2,6.3,2,9.5,2.5c1,0.1,2.2,0.1,2.5,1.5c-0.6,1.2-1.7,1.6-2.9,1.4c-3-0.5-5.7,0.2-8.4,1.3
		c-0.5,0.2-1,0.3-1.6,0.4c-1.3,0.3-2.7,0.4-3.3-1.1s0.4-2.4,1.6-3c-6.5,0.1-11.7,2.5-15,8.5c-1.2,2.2-3.4,3.8-4.6,6
		c0.9,4.2,0.8,4-3.4,5.5c-3.1,1-5.7,2.9-7.7,5.5c-2.3,2.8-4,6-6.3,8.8c-2,2.4-4,5-7.2,6.1c-0.6,0.2-1.1,0.6-1.5,1.1
		c-5,5.5-11.4,9.7-15.8,15.8c-4,5.4-9.4,9.2-14.4,13.5c-9.4,7.9-18.5,16-28.4,23.2c-1.1,0.8-2.1,1.8-3,2.9c-0.7,0.9-1.2,1.8-0.3,2.8
		c1.4,0.7,2.3-0.3,3.3-0.9c7.8-5.2,15.3-10.7,21.8-17.6c8.5-8.8,17.4-17.2,26.9-25c7.2-5.9,13.8-12.2,20.8-18.3
		c2-1.8,4.2-3.3,6.3-4.9c0.8-0.6,1.6-1,2.6-0.5c1.4,0.7,2.8,0.9,4.1,0.3c1.6,1.6,1.1,2.7-0.2,3.6c-1.1,0.8-2.4,1.6-3.7,1.8
		c-2.7,0.3-4.3,1.9-6,3.8c-3.6,4.1-8.3,7-12,11c-6,6.5-13.1,11.8-19.9,17.4c-7.1,5.9-12.3,13.6-19.3,19.4
		c-8.6,7.1-17.2,14.3-27.1,19.7c-3.1,1.7-3.2,3.9-0.5,6.3c0.4,0.4,0.8,0.7,1.2,1.1c4,3.7,7,3.5,10.5-0.9c0.7-0.8,1.2-1.8,2.1-2.4
		c1.2-0.8,2.6-1.3,3.8,0c1.2,1.2,0.8,2.5-0.2,3.7c-1.1,1.3-2.4,2.4-3.8,3.4c-1.1,0.8-2.2,1.7-2.3,3.4c1.8,1.9,3.9,1.6,5.3,0
		c5.5-6.3,13.3-8.7,20.6-11.7c8.2-3.4,16.4-7,25.2-8.8c3.8-0.8,7.8-0.1,10.7-2.1c-1.8,0.4-4,1.8-6.7,1.7c-0.6-2.3,1-2.9,2.3-3.4
		c2.2-1,4.6-1.6,6.9-2.4c7.3-2.6,13.9-6.5,20-11.2c5.4-4.2,9-9.9,10.7-16.6c0.3-1,0.5-2.1,0.8-3.1c0.9-3.9,3.3-5,6.8-3.1
		c1.9,1,3.6,2.3,5,3.9c4.4,4.9,10,8.6,14.2,13.8c0.4,0.5,0.9,1,1.9,0.5c-0.7-2.8-0.2-4.6,3.5-4.3c2,0.1,2.9-2,3.7-3.6
		c4.7-9.7,9.1-19.5,11.6-30c0.5-2.2,1.1-4.3,1.6-6.5c0.4-1.9-0.3-3.8-2.1-4.2c-3.1-0.6-5-3-7.6-4.4c-8.4-4.6-17.1-8.6-26.4-11.1
		c-4.5-1.2-8.9-0.4-13.3-0.2c-1.2,0.1-2.4,0.6-3,1.6c-1.4,2.5-3.7,3.7-6,5.1c-2.7,1.7-4.3,4.3-6.1,6.9c-1.9,2.7-3.8,3.1-6.3,1.5
		c-0.3-0.7-0.3-1.6,0.3-2.1c1.9-1.8,2.8-4.3,4.6-6.1c3.2-3.1,6.4-6.3,9.9-9.1c2.2-1.8,5-2.7,7.9-3c9.4-1.1,18.1,1.2,26.6,5
		c4.2,1.9,8.4,3.6,12.4,5.9c0.6,0.3,1.1,0.6,1.8,0.3c2.3-6,0.7-9.9-5-12.2c-4.9-2-10-3.8-14.8-5.9c-1.5-0.7-3.8-1.1-2.8-3.7
		c1.8-0.4,3.3,0.3,4.9,0.9c13,4.3,24.6,11.5,36.2,18.6c1.7,1,3.6,2,4.4,4c0.3,0.6,1,0.8,1.6,0.9c4.4,1,7.8,3.5,11,6.6
		c1,1,2.5,1.6,3.8,2.4c2.4,1.4,4.6,3,6.6,5c0.7,0.8,1.6,1.5,1.2,2.7l0.1-0.1c-2-1.4-3.9-2.9-6.2-4.5c0.7,3.4,2.1,6.3,2.1,9.5
		c-1.5-2.6-1.9-5.6-3-8.3c-0.4-1.1-0.6-2.5-1.8-2.9c-3.7-1.3-5.8-4.8-9.2-6.6c-7.9-4.3-14.8-10.5-23.1-14.2
		c-0.5-0.2-0.9-0.5-1.7-0.9c0.9,4.8,1.1,9.3,0.5,13.9c16.6,11,34.9,19.2,49.6,33c-0.4-2.2-1.4-4.3,0.8-6.4c0.9-0.5,2.4-0.8,2.9-2.7
		c1.3,2.8,1.2,2.9-2.3,4.4c-0.2,0.7,0.4,1.1,0.5,1.7c1.7,6.8,5.7,11.1,12.7,12.9c3,0.8,5.7,2.7,8.2,5c-0.9-2.6-1.5-5.2-3.8-7.1
		c-2.4-1.9-4.7-4-6.7-6.4c-0.6-0.8-1.7-1.4-1.1-2.7c0.5-0.3,0.9-0.2,1.1,0.2c1.5,2.9,3.9,5,6.6,6.8c2,1.4,3.4,3.1,4.4,5.3
		c4.5,9.4,7.2,19.3,10,29.2c0.1,0.5,0.1,1-0.2,1.6c-4.2-5.5-5.5-12.1-7.8-19.1c-0.5,5.2,0.4,9.7,0.5,14.2c0,0.9,0.7,1.5,1.3,2.1
		c2.8,2.9,3.5,6.7,3.6,10.5c0,0.1-0.3,0.3-0.6,0.5c-0.8-1.8-1.7-3.6-2.4-5.4c-0.6-1.7-1.2-3.3-2.6-4.6c-1.6-1.4-1.7-3.5-1.1-5.3
		c0.5-1.6,0.3-2.9-0.2-4.3c-1.1-3.2-1.2-6.5-1.6-9.7c-0.3-2.6-1.5-4.5-3.6-6.1c-2.8-2-5.8-3.6-8.8-5c-0.5,0.6,0,0.9,0.1,1.2l0.1-0.1
		c-2.5-0.2-4.8-1.7-5.8-3.3c-2.6-4.1-6.3-6.9-9.9-9.8c-6.7-5.3-13.6-10.2-20.9-14.6c-5.3-3.2-10.7-6.4-16.3-10
		c-0.3,5.6-1.3,10.6-2.6,15.6c-0.5,1.9-1.1,3.9-1.8,5.8c-1.6,4.4-12.2,24.9-14.2,27.6c-2.8,3.7-6,6.9-9.9,9.4c-4.4,2.9-7.7,7-11,11
		c-0.7,0.8-0.9,1.9-1,3.1c1.6,2,3.9,3.2,6.1,4.4c10.5,5.7,20.5,12.3,29.6,20c5.2,4.4,10.7,7.1,17.2,8.1c2.1,0.3,3.9,1.7,5.8,2.4
		c5.1,2,10.5,2.8,15.8,3.9c8,1.6,16.2,2.2,24.3,2.8c3.2,0.2,6.1-0.2,9.2-0.5c3.2-0.4,6.4-0.6,9.5,0.2c4,1,8,0.7,12.1,0.8
		c3.9,0.1,6.7-2.2,7.8-6.1c0.6-2.1,1.3-4,3.9-4c1.1,0.9-0.3,1.9,0.4,2.7c4.4-4.1,7.2-8.9,6.1-15.1c-0.8,0.3-2.2,1.3-2.3-1
		c-0.4,0.5-0.8,1-1.3,1.6c-0.9-2.2,0.2-4.8-2.5-5.9c-1.2,0.2-0.9,1.9-2.3,2.1c-0.7-1.4,0.4-2.6,0.4-3.9c-0.6-1.9-3-3.1-2.4-5.5
		c0.3-0.2,0.6-0.2,0.6-0.2c-0.1,0-0.3,0.1-0.6,0.3c-0.6,0.3-1.1,0.8-1.9,0c-0.5-2.1-0.2-4.5-1.1-6.9c-0.7-1.8-1.4-3.4-2.9-4.8
		c-2.9-2.6-3.1-3.9-1.3-7.5c0.5-1,1-2.1,1.4-3.2c0.8-2,0.5-3.8-1.3-5.1c-1.8-1.3-3.2-3.1-5.7-3.2c-1.1,0-1.6-0.9-2.2-1.7
		c-4.1-5.8-8.5-11.4-14.3-15.7c-1.5-1.1-2.7-2.7-3.8-4.3c-1.8-2.5-2.8-5.4-5.6-7.3c-2.5-1.7-1.5-4,0.3-6.1c-1.9-1.3-3.9-1.5-6-1.4
		c-1.3,2.1-3.2,3.5-5.3,5.6c-0.3-3.6,1.5-5.8,2.5-8.3c0.1-0.3,0.6-0.5,1-0.7c3.4-1.2,9.3,1.4,10.9,4.9c-1.2,0.8-2.8,1.4-2.9,3.3
		c0.4,1.3,1.5,2,2.2,3c2.2-0.4,3.8,0.3,5.3,1.9c3.1,3.1,5.8,6.5,8.5,9.9c4.5,5.7,9.6,10.8,15.5,15c1.3,0.9,2.6,1.8,3.7,3
		c1.6,1.8,2.3,4.1,1.2,6.2c-1.5,2.9-0.7,4.9,1.1,7.3c4.3,5.7,8.7,11.3,11.5,18c0.5,1.3,1.1,2.8,2.9,3.7c3.5-1.6,7.3-3.5,9.2-7
		c2.5-4.5,6.5-7.3,10-10.6c6.6-6.2,13.7-11.8,20.7-17.5c3.5-2.9,6.2-6.8,9.2-10.2c4.1-4.6,8.6-8.8,13-13.5
		c-11.9,0.3-21.5-4.8-30.2-11.8c-4,3.7-6.9,3.9-12.1,1.2c-0.7-1.7,0.6-2.5,1.7-3.3c1.1-0.7,2.7-0.8,3.3-2.5
		c-1.3-0.6-2.5,0.1-3.6,0.3c-1.4,0.2-2.7,0.5-4.1,0.3c-1.2-0.2-2.1-0.7-2.1-2c0-1.1,0.7-1.7,1.7-2c1.4-0.4,2.9-0.7,4.4-1
		c2.4-0.5,3.6-1.8,2.9-4.3c-0.4-1.6-0.5-3.2-0.7-4.7c-0.4-2.8-0.8-5.4-4.5-5.2c-1,0.1-1.8-0.8-1.9-1.8c-0.1-0.9,0.3-1.6,1-2.2
		c0.6-0.5,1.4-0.5,2.4-1.2c-1.9-0.3-3.5-0.8-5.1-0.8c-7.6,0.1-14.1-3-20.4-6.6c-2-1.1-4.1-2.2-6.2-3.3c-2.5-1.3-3.2-1-4.3,1.8
		c-0.2,0.5-0.4,1-0.5,1.5c-1.1,8.2-6.4,14.5-9.7,21.7c-0.8,1.8-2.2,3.1-3.9,5c1.4-1.3,2.1-2.4,3.2-3.1c1.9-1.3,2.9-2.9,3.2-5.2
		c0.3-2.1,1.4-4,2.8-5.6c0.7-0.8,1.6-1.1,2.6-0.6c0.9,0.4,1.1,1.2,1,2.1c-0.2,5.4-1.4,10.2-6.3,13.4c-1.1,0.7-2,1.6-2.7,2.7
		c-1.5,2.7-3.7,3.1-6.5,2.2c-3.2-1-4-0.5-5.7,2.7c0.3,1.5,1.8,2,2.7,3.1c0.6,0.8,1.2,1.5,0.5,2.4s-1.7,0.8-2.6,0.3
		c-0.7-0.4-1.5-0.9-2.2-1.4c-1.8-1.4-3.6-1.4-5.2,0.1c-1.4,1.4-3.1,1.7-5,1.7c0-2.9,2.3-4.1,4.2-5.5c7.8-5.7,14.4-12.4,19.1-21.1
		c3-5.5,6.2-10.7,7.2-17.1c0.3-1.9,1.5-3.7,2.3-5.7c-1-1.2-2.4-1.7-3.7-2.4c-4.8-2.6-9.6-5-14.1-8c-1.8-1.2-3.6-2.2-4.9-4.8
		c-0.3,2.3-1.5,1.9-2.6,1.7c-3.6-0.5-7.1-1.2-10.3-3.1c-1-0.6-2.2-0.8-3.3-1.2c-9.8-3.9-20.1-6.6-28.9-12.4
		c-10.6-7-20.8-14.7-29.5-24.1c-3.8-4.1-7.9-8-12-11.8c-2.4-2.2-3.8-5.4-6.9-6.5c-0.2-1.5,0.5-2.2,1.7-2.8c0.6,1-1.4,3.3,1.4,3.2
		c1.5-0.1,1.9,1,2.6,2c4.7,3.6,8.9,7.9,13.3,11.9c2.5,2.2,4.8,4.5,6.8,7.2c1.6,2.3,4,3.8,6.2,5.5c5.7,4.4,11.3,9,17.2,13.2
		c4.3,3.1,9.2,5.7,14.1,7.3c5.8,1.8,10.9,5.3,17,6.1c1.2,0.2,1.8,1.5,3.4,1.6c-1.6-2.2-4.2-3.5-4-7.3c1.6,2.7,3.5,4.3,5.6,5.7
		c1.9,1.3,3.7,2.1,6,2.5c5,0.7,10.3,0.5,15.1,3.4c-3.5,0.7-6.5-1.3-10.4-0.8c2.2,1.3,3.8,2.3,5.6,3.2c10.5,5.7,21,11.3,31.5,16.9
		c4.8,2.6,9.9,3.9,15.3,4.1c6.9,0.2,13.8,0.3,20.7,0.8c3.5,0.2,7,0.4,10.5,0.6c2.7,0.1,4.3,2.1,6.4,3.7c2.7-1.3,4.3,0.6,6.1,2.2
		c-5.4-0.1-10.3-3.2-15.8-3.3c0.1,4,0.8,7.4,3.8,10.1c0.9,0.8,1.3,2.4,0.3,4c-1.8-4-6.1-6.6-6-11.6c-4.7,1-9.3,2-14.1,3.1
		c-0.4,1.5-0.2,3,0.5,4.6c0.6,1.6,0.4,3.5,0.5,5.3c0.1,2.1,2.7,1.8,2.8,3.7C759,271.1,759.8,270.6,760.5,270.1L760.5,270.1z"/>
	<path d="M760.7,488.5c0.3-2.3-1.6-4-1.5-6.4c-4.1,4.3-8.1,8.7-11,13.8c-2.3,3.9-4.2,7.9-4.9,12.4c-0.5,3.1,0,6.2,0.3,9.2
		c0.2,2.1,1.8,2.6,3.6,2.9c6,0.9,11.9-0.1,17.8-0.2c9.2-0.2,17-4.2,25-8c2.8-1.3,5.5-2.8,8.3-4.1c3.9-1.9,8-3.4,12.7-4.1
		c-1-1.7-0.8-3.9-3.2-4.6c-0.5-0.1-0.6-0.6-0.7-1c-1.2-3.8-1.8-7.4-1.1-11.5c0.8-4.8,3.5-8.9,4.1-13.8c0.1-1.2-0.3-2.4,0-3.5
		c1.2-0.8,1.4,0.9,2.6,0.7c0.6-0.4,1.5-1,2.7-1.8c-1.1-0.7-2.7-0.7-2.9-2.4c1.2-1.7,1.3-4.1,2.4-6.1c1.9-0.7,4.4-0.6,5.3-3.1
		c-1.5-1.5-2.8-1-3.7,0.3c-2,2.7-4.9,4.6-6.3,7.8c-1.5-0.8-1.3-2.1-1.3-3.2s0-2.2,0.3-3.2c2.1-7.1,0.1-14.4,0.7-21.5
		c0.1-0.6,0-1.3-0.4-1.8c-0.8-1.1-2.3-0.6-3-1.6c-0.4-1.1,1.1-0.4,1.1-1.2c-0.8-0.9-2.3-1.2-2.1-3.1c1.2-0.9,2.5-1.9,3.9-3.1
		c1.1,0.4,2.1,2.1,3.6,0.8c0.3-0.7,0.3-1.8-0.6-1.8c-2.8,0.1-6-1.2-7.9,2.1c-2.1-1.1-0.5-1.8,0.1-2.7c-4.1-3.5-8.9-5.4-13.9-6.7
		c-2.8-0.8-4.3-2.9-6.4-4.7c-3,4.2-4.8,9.2-9.6,11.8c-0.2,0.9-0.5,1.8-0.7,2.8c2.2,3.2,6.1,5.6,5.6,10.2c-0.2,2.2-1.5,4.3-3.6,6.1
		c-0.3-2.2,1.6-3.3,1.1-5.3c-3,0.1-4.3-2.5-6.5-4.1c0.6-2.9,1.2-5.8,1.8-8.6c0.2-0.7,0.4-1.6,0.9-2c4.6-3.3,6.3-8.8,9.6-12.7
		c-0.6-4.2-3.6-6.9-5.1-10.6c0.8-1.2,1.7-2.5,1.6-4.1c2.6-0.3,3.9,1.8,6,2.6c-0.2-2.1-2.7-3.1-2.4-5.3c2.3-1.3,3.8-0.4,5.8,3.7
		c1.4-2.4,1.5-5.5,4.3-7.1c1.3,1.9,1.1,4.1,2.4,5.8c1,0.4,0.5-1.5,1.7-1c3.7,1.4,6.3,4.4,9.3,7.2c3.7-0.2,6.3,2.9,9.7,4.1
		c3.3,1.2,6.3,3.1,6,8c1.8-1.2,1.4-3,3.5-3c1.4,3.9,2.9,8.1,7.3,10.2c5.3-0.6,5.3-0.6,7.7,0.7c-0.6,2-2.7,1.8-4.1,2.7
		c-0.4,1,1.1,1.2,1,2.1c-1.5,2.2-0.9,4.3,0.1,6.5c-0.1,0.8-1,0.6-1,0.7c-1.4,3.5,0.5,6.9-1.3,10c-0.6,1-0.8,2.5-0.8,3.7
		c0,6.9-3.1,12-8.8,15.7c-1.3,0.8-2.2,2-2.2,3.3c0,1.9-1,3-2.3,3.9c-3.2,2.1-5.1,5-6.6,8.4c-0.8,1.8-1.5,3.6-3.6,4.1
		c-0.4,0.1-0.9,0.5-0.9,0.8c-0.5,3.1-2.5,5.8-1.1,9.2c1.6,3.8,4.1,7,5.9,10.6c3.3,6.5,8.4,11.4,13.9,15.9c3.3,2.7,5.9,5.8,6.9,10
		c0.5,1.8,1.4,3.3,2.2,4.9c4.7,9.4,2.6,17.7-3.6,25.5c-1.5,1.9-3.1,4-5.3,5c-4.2,1.9-6.2,5.6-8.4,9.2c-5,8.1-11.5,14.7-19,20.4
		c-2.4,1.8-4.6,3.7-6.4,6.1c-6.2,8-14.3,13.9-22.2,20.1c-7.9,6.3-16.7,11.4-24.7,17.5c-2.9,2.2-6.6,3.6-10,5.4
		c-4.2,2.2-8.1,4.9-12.7,6.2c-1.1,3.5,0.8,6.8-0.5,10.3c-2.4,0.1-1.7,2.7-3,4.4c-0.2,0.3-1-0.4-1.1-0.3c-1.3,2.2-3.9,3.2-5.2,5.3
		c-2.7,4.4-8.5,6.7-13.6,6.6c-7.9-0.2-15.6-2.3-23.7-1.4c-6.9,0.7-14-0.1-21-1.3c-3.2-0.6-6.3-1.6-9.6-1.6
		c-3.7-0.1-7.2-1.5-10.7-2.9c-5.2-2.1-10.7-3.4-16.2-4.8c-3.6-0.9-6.5-2.9-9.3-5.3c-9.1-7.6-18.6-14.5-28.7-20.7
		c-2.4-1.5-5-2.9-7.2-4.7c-3-2.5-3.3-5.6-0.7-8.6c3.4-4,7.2-7.5,11.3-10.8c1.1-0.9,2.4-1.7,3.4-3.3c-6.1-8.2-14.4-14.6-20.9-22.7
		c-1.3,1.3-1.6,2.6-2.1,3.7c-1.2,2.9-2.4,5.9-3.7,8.8c-2.6,5.5-5.8,10.7-10.8,14.4c-1.1,0.8-2,1.9-2.9,3c-0.8,1-1.7,1.8-3,2.3
		c-8,3-15.8,6.6-23.7,10.1c-3,1.3-6.2,2.5-9.4,2.9c-4.5,0.6-8.7,2.1-12.7,4c-7.5,3.6-15.5,6.1-22,12.1c-0.7,3.6,0.4,7.5,0.8,11.3
		c0.1,0.8,0.9,1.2,1.3,1.7c1,1.2,5,12.9,5,14.5c0,0.5-0.1,1.1-0.1,1.8c-5.1,3.3-9.1,8.5-16.1,8.6c-4.1,0-8.2-0.2-11.9-1.6
		c-6.8-2.5-13.8-2.6-20.8-2.2c-4.7,0.3-9.3,0.9-14,0.3c-1,2-1.3,4.1-1.3,5.9c-3.5,2.7-7.2,2.3-11,2.1c-5.8-0.3-11.7,0.3-17.6-0.2
		c-1.5-0.1-3-0.2-4.4-1.3c1.4-13.6-1.5-27.4,1.4-41.1c2.1-1.4,8.4-11.6,12.3-20.2c-2.2-5.1-3.2-10.5-4.2-15.9
		c-2.2-12.6-6.1-24.8-9.2-37.1c-0.8-3.3-2.9-5.2-6-6.4c-8.7-3.5-17.9-3.8-27.1-4.4c-2.1-0.1-2.1,0-3.8-1.1c0.8-1.7,2.4-1.5,3.8-1.6
		c4.4-0.3,8.7,0.9,13,1.4c4.7,0.6,9.4,1.5,14,3c3.5,1.2,5.8,3.4,7.1,6.8c2.2,5.6,3.2,11.5,5.1,17.1c3.5,10.7,4.7,22,7.3,32.9
		c0.4,1.7,0.6,3.6,2,4.8c-1.8,6.6-5,12.4-9.5,17.3c-2.8,3.1-4,6.4-3.9,10.6c0.3,9.6,0.1,19.1,0.2,28.7c0,1.4-0.6,2.7-0.3,4.1
		c2.4,0.8,26,0.7,28.4,0c1.3-6.5-0.1-12.8-1-19.2c-1-6.7-1.2-13.5-0.8-20.3c1.5,3.5,1,7.3,1.6,10.9c0.7,3.9,0.9,7.8,1.6,11.7
		c0.6,3.8-0.2,7.6,0,11.9c2.2-2.9,2-5.7,1.5-8.5c-0.8-5.2-1.5-10.3-0.9-15.6c0.1-1.1,0.1-2.2,0.5-3.1c2.3-5.6,3.8-11.5,7.5-16.5
		c2.3-3.2,4.1-6.5,4.9-10.5c0.4-1.9,1.3-3.9,3.2-5.2c0.8,1.3-1,1.9-0.4,3.1c1.7-1.2,3.3-2.3,5.1-3.5c-2.8-4.3-4.3-9-5.7-14.1
		c-0.9,1.3-1.6,2.3-2.5,3.6c-0.3-1.9,1.1-3,1-4.6c-3.2,1.1-6.5,0-10,0.6c1.4,4.9,1.8,9.7,4.1,14.1c0.7,1.3,0.9,3.1-1.4,3.7l0,0
		c-3.7-10.6-6.4-21.4-6.9-32.6c-0.1-1.3-0.2-2.5-0.7-3.7c-3.8-10-5.9-20.3-8-30.8c-1.9-9.7-3.6-19.4-5.1-29.2c-0.5-3.3-1-6.5-1-9.8
		c0-0.7-0.1-1.5,0.3-1.9c0.6-0.2,0.9,0.1,0.9,0.3c1.1,9.8,4,19.4,4.8,29.3c1.2,14.6,5.4,28.4,10.2,42c1.1,3,0.4,6.1,1,9.1
		c0.5,2.6,0.7,5.3,1.5,7.9c3,0.5,5.7-1.3,8.7-0.6c2.6,0.5,4.3,1.6,5.1,4c1.3,3.7,2.9,7.3,4.9,11c2.6-4.4,7-5.4,11.1-6.5
		c1.4,0.4,1.8,1.5,2.6,2.1c9.4-7,18.4-14.2,26.9-22.2c2.7-2.6,5.8-4.7,8.7-6.9c4.4-3.4,8.2-7.4,11.7-11.7c6.4-7.9,14.1-14.5,21.7-21
		c3.2-2.8,6.3-5.6,8.3-9.6c1.2-2.5,3.7-3.8,5.9-5.3s4-3.3,5.3-5.8c2.4-4.6,5.7-9.2,10-11.8c4.2-2.5,9.3-5.1,14.8-3
		c3.1,1.2,6.3,2,9.5,2.5c1,0.1,2.2,0.1,2.5,1.5c-0.6,1.2-1.7,1.6-2.9,1.4c-3-0.5-5.7,0.2-8.4,1.3c-0.5,0.2-1,0.3-1.6,0.4
		c-1.3,0.3-2.7,0.4-3.3-1.1s0.4-2.4,1.6-3c-8,0.7-11.3,2.3-15,8.4c-1.3,2.2-3.4,3.8-4.6,6c0.7,4.2,0.7,4-3.6,5.6
		c-3,1.1-5.6,3-7.6,5.6c-3.5,4.5-5.9,10.2-10.8,13.3c-4,2.6-7.1,6-10.6,9c-3.4,2.8-6.4,5.9-9.2,9.3c-7.1,8.7-16.5,15-24.9,22.3
		c-6,5.1-12.1,10.1-18.4,14.8c-1.6,1.2-3.9,2.4-3.1,5.2c1.5,0.9,2.4-0.1,3.3-0.7c7.7-5.2,15.1-10.5,21.6-17.3
		c8.6-9,17.7-17.5,27.3-25.4c7.1-5.8,13.7-12.1,20.5-18.1c2.4-2.1,5-3.9,7.4-5.7c1.9-0.1,3.3,1.5,5.1,0.7c0.6-0.2,1.3,0.2,1.5,0.9
		c0.3,0.9,0,1.7-0.8,2.2c-1.5,1-3.1,2-4.9,2.2c-1.7,0.2-3,1.1-4.1,2.3c-3.9,4.8-9.4,8-13.5,12.5c-8.2,9.1-19,15.4-27.3,24.4
		c-4.1,4.5-7.8,9.3-12.6,13.1c-8.4,6.5-16.4,13.5-25.9,18.6c-3.3,1.8-3.4,4-0.5,6.5c0.4,0.4,0.8,0.7,1.2,1.1
		c3.8,3.5,6.7,3.3,10.1-0.6c0.8-1,1.4-2.1,2.5-2.8c1.3-0.8,2.6-1.2,3.7,0.1c1,1.1,0.7,2.4-0.2,3.5c-1,1.2-2.2,2.3-3.5,3.3
		c-1.2,0.9-2.5,1.7-2.7,3.5c1.4,2,3.5,1.9,4.9,0.4c7.3-8,17.6-10.1,26.7-14.3c6.5-3,13.3-5.1,20.3-6.6c3.4-0.8,7.1-0.3,9.8-1.9
		c-1.7,0.4-3.8,1.7-6.5,1.7c-0.5-2.8,1.5-3.2,3.1-3.8c5-1.8,10.2-3.3,14.7-6.1c5.6-3.4,11.4-6.4,15.8-11.7c3.5-4.4,5.6-9.2,6.9-14.5
		c1.2-5.1,3.7-6.3,7.9-3.1c6.2,4.8,11.8,10.3,17.3,15.9c0.7,0.7,1.2,1.8,2.4,1.8c0.9-0.7,0.2-1.4,0.2-2.1c0-1.4,0.6-2.5,2-2.3
		c3,0.4,4.3-1.5,5.4-3.6c3.9-8.1,7.8-16.3,10.3-25.1c1-3.7,2.1-7.4,2.9-11.1c0.5-2.2,0-4.1-2.2-4.7c-2.4-0.7-4.2-2.4-6.2-3.5
		c-8.8-5-17.9-9.4-27.8-11.8c-4.5-1.1-8.9-0.5-13.3-0.1c-1.2,0.1-2.4,0.7-3,1.7c-1.2,2.4-3.4,3.4-5.5,4.7c-2.8,1.7-4.6,4.3-6.4,7
		c-1.8,2.8-3.7,3.1-6.4,1.7c-0.3-0.6-0.5-1.4,0-1.8c2.7-2.8,4.1-6.7,7.5-9c1.6-1.1,2.9-2.5,4.2-3.9c5.4-5.8,12.3-6.5,19.6-5.7
		c10.3,1.1,19.6,5.5,28.7,10.1c0.8,0.4,1.5,0.8,2.3,1.1c0.3,0.1,0.6,0.1,0.9,0c2.4-5.5,0.7-9.9-4.7-12.1c-5-2-10.2-3.8-15.1-6
		c-1.5-0.7-3.8-1.1-2.8-3.7c1.4-0.3,2.7,0.1,4,0.5c13.9,4.5,26.1,12.1,38.4,19.8c1.1,0.7,2.4,1.4,3,2.8c0.3,0.8,1,1,1.8,1.2
		c4.4,1,7.8,3.5,11,6.6c1,1,2.5,1.6,3.8,2.4c2.4,1.4,4.6,3,6.6,5c0.7,0.8,1.6,1.5,1.2,2.7l0.1-0.1c-2.2-1-3.6-3.2-6.1-4.3
		c0.6,3.2,2,6.1,2,9.3c-1.5-2.6-1.9-5.6-3-8.3c-0.4-1.1-0.6-2.4-1.8-2.9c-5.1-2.1-8-7.6-13.8-8.5c-0.3,0-0.6-0.3-0.8-0.5
		c-5.1-6.1-12.8-8.2-19.4-12.9c1,5,1,9.6,0.6,14.2c16.6,10.9,34.9,19.2,49.6,33c-0.4-2.2-1.4-4.3,0.8-6.4c0.8-0.4,2.4-0.7,2.8-2.7
		c1.3,2.8,1.2,2.9-2.4,4.5c1.3,3.1,2.7,6.1,4,9.2c0.7,1.5,1.8,2.3,3.5,2.8c5.1,1.7,10,3.9,14.5,8.1c-1.3-3.9-2.7-6.8-5.6-8.9
		c-2.1-1.5-3.8-3.4-5.4-5.4c-0.5-0.7-1.5-1.3-0.8-2.5c0.2,0,0.5-0.2,0.6-0.1c2.2,3.4,5.3,6.1,8.6,8.4c0.9,0.6,1.6,1.4,2.1,2.4
		c5.1,10,8.1,20.8,11,31.6c0.1,0.3,0,0.6-0.1,1.7c-4.3-6.1-5.7-12.8-7.9-19.8c-0.5,5.3,0.4,9.7,0.4,14.2c0,0.9,0.7,1.5,1.3,2.1
		c2.8,3,3.5,6.7,3.6,10.6c0,0.1-0.3,0.3-0.6,0.5c-0.8-1.8-1.7-3.6-2.4-5.4c-0.6-1.7-1.2-3.3-2.6-4.6c-1.6-1.4-1.7-3.5-1.1-5.4
		c0.5-1.6,0.3-2.9-0.2-4.3c-1.2-3.3-1.1-6.7-1.6-10.1c-0.3-2.3-1.3-4-3.1-5.4c-2.9-2.2-6-3.9-9.3-5.4c-0.4,0.6,0,0.8,0.1,1.2
		l0.1-0.1c-2.5-0.2-4.8-1.7-5.8-3.3c-2.6-4.1-6.3-6.9-9.9-9.8c-6.7-5.3-13.6-10.2-20.9-14.6c-5.3-3.2-10.7-6.4-16.3-10
		c-0.4,6.2-1.5,11.9-3.2,17.4c-0.4,1.3-0.8,2.6-1.3,3.9c-1.6,4.3-12.2,24.9-14.3,27.6c-2.8,3.7-6,6.9-9.9,9.4c-4.4,2.9-7.7,7-11,11
		c-0.7,0.8-0.9,1.9-1,3.1c1.6,2,3.9,3.2,6.1,4.4c10.5,5.7,20.5,12.3,29.6,20c5.2,4.4,10.7,7.1,17.2,8.1c2.2,0.3,3.9,1.7,5.8,2.4
		c5.1,2,10.5,2.8,15.8,3.9c8,1.6,16.2,2.2,24.3,2.8c3.2,0.2,6.1-0.2,9.2-0.6c3.2-0.4,6.4-0.6,9.5,0.2c4,1,8,0.7,12.1,0.8
		c3.9,0.1,6.6-2.2,7.8-6.1c0.8-2.7,1.3-3.2,3.8-4c0.6,0.3,0.7,0.7,0.5,1.3c-0.1,0.4-0.2,0.8-0.2,1c0.2,0.4,0.3,0.4,0.6,0.2
		c1.8-1.7,2.7-3.6,2.8-6.1c0.1-3,0.8-5.9,1.6-8.7c-1-1.2-1.7-0.2-2.2,0.4c-1.6-1.4-2.3-3.8-4.9-3.8c-0.2-1.3,0.1-2.8-1.7-3.6
		c-1.5,2.4-1.7,4.8-0.5,7.7c-3.8-2.4-3.7-5.2-0.1-9.4c-1.1-2.2-1.7-4.6-1.8-7.2c0-3.3-1.2-6.4-4-8.6c-2.1-1.7-2.9-3.9-1.7-6.6
		c0.5-1.2,0.3-2.5,0.6-3.7c2.1-1,2.5-3,0.7-4.5c-1.5-1.3-3.2-2.6-5-3.4c-2.2-1-3.8-2.6-5.2-4.5c-3.2-4.5-6.7-8.7-11.2-12.1
		c-3.3-2.5-5.5-5.8-7.4-9.5c-0.9-1.8-3.1-3-4.6-4.3c-0.6-2,0.4-3.4,1.6-4.9c-1.7-1.4-3.7-1.6-5.9-1.6c-1.4,1.9-3.2,3.5-5.5,5.6
		c0-3.7,1.6-6.2,2.9-8.6c0.1-0.2,0.3-0.2,0.5-0.3c3.4-1.5,10,1.6,11.3,5.3c-1.7,1.8-2,3.7-0.6,5.7c2-0.4,3.4,0.4,4.8,1.7
		c3.4,3.3,5.8,7.4,8.9,10.8c4.8,5.2,9.6,10.6,15.6,14.5c1.2,0.7,2.3,1.5,3.3,2.6c1.9,2.1,2.6,4.5,1.4,7c-1.2,2.4-0.7,4.2,0.8,6.1
		c2.1,2.7,4,5.5,6,8.2c2.7,3.7,4.6,7.9,6.7,11.9c1.7,3.1,2.8,3.4,5.8,1.6c6.6-3.9,12.7-8.5,19.4-12.3c12.7-7.1,24.1-16,35.2-25.2
		c3.7-3.1,6.7-7.1,9.9-10.9c-2,0-3.9,0.2-5.4,1.7c-0.6,0.5-1.5,0.9-2.1,0.5c-2.1-1.6-5-1.5-6.9-2.8c-2.9-2-5.8-4.5-7.2-8.1
		c-0.7-1.8-1.3-3.8-2.6-5.5c-2.7-0.1-5.3,1.5-8.1,0.6c-10.5-3.1-21.4-4.6-32.1-7c-1.7-0.4-3.2-1.1-4.6-2.1
		c-8.8-6.4-17.6-12.7-26.3-19.2c-0.8-0.6-1.5-1.5-3-1.3c-2,1.2-2.4,3.7-3.6,5.7c-0.6,1-1.1,2.1-1.5,3.2c-2.4,5.6-2.4,5.6,3.2,7.6
		c1.7,0.6,3.4,1.2,5,2c2.7,1.3,4.7,3.2,5,6.4c-0.1,0.3-0.3,0.6-0.5,0.8c-1.1,0.7-2,0.3-2.9-0.4c-3.4-3-7.3-5.2-11.3-5.9
		c3,2.1,7.8,2.3,10.6,5.7c-0.7,2.1-1.9,2.1-3.4,1.7c-3.4-1-6.5-2.5-9.7-4.1c-1.3-0.7-2.6-1.3-4.4-0.2c2,2.1,4.5,2.7,6.7,3.7
		c4.7,2,9.1,4.6,13.4,7.4c0.7,0.5,1.5,0.9,2,1.6c0.5,0.7,0.8,1.5,0.2,2.4c-0.5,0.8-1.4,0.9-2.3,0.6c-0.5-0.2-1-0.4-1.4-0.7
		c-5-3.1-10.3-5.5-15.6-7.8c-3.1-1.4-6.2-2.5-9.7-2.5c-1-2-0.6-3.9,0.8-5.6c3-3.6,5.6-7.4,8.2-11.3c3.2-4.9,5.3-10.4,8.7-15.2
		c-0.7-2.2-3.3-3.7-2.7-6.6c5.4,7.1,13.2,11.1,19.8,16.6c6.7,5.5,13.6,10.8,21.3,14.7c1-0.2,0.1-1.3,0.9-1.3c6,3,12.6,3.9,18.9,5.4
		c3.4,0.8,6.9,1.4,10.2,2.4c2.3,0.7,4.5,0.8,6.4-1.3c1.4-1.5,3.5-1.9,5.6-1.8c1.7,0.1,3.2,0.4,2.9,2.5c2.8,1.2,5.4,2.5,8.1,3.5
		c7.5,2.7,14.7,1.1,21.6-2.3c0.9-0.5,1.8-1.3,2.9-0.9c1,1.5,0.3,2.5-0.9,3.5c-3.5,3-7.6,4-12,4.4c-0.6,0.1-1.3-0.1-1.9,0
		c-1.8,0.2-3.6,0.6-3.5,2.8c0.1,2.1,2,1.7,3.5,1.8c3.8,0.4,6.8-0.7,9.3-3.6c1.9-2.3,4.2-4.2,6.3-6c0.4-1.3-0.3-2-0.8-2.8
		c-1.2-1-3.2-0.2-4.4-2c1.7-0.2,3.1-0.2,4.5,0.6c2.4,1.3,6.1,0.5,7-2.1c1.6-4.5,5.1-7.3,8.7-9.8c4-2.8,6.6-6.8,10.1-10.1
		c0.7-0.7,0.7-2,0.8-3c0.3-3.3,0-6.6-0.8-9.8c-0.7-3-1.4-6-1.9-9c-0.5-3.6-2.6-6.5-6.5-7.4c-2.9-0.7-5.8-1.3-8.6-2.2
		c2.3-1.5,4.7-0.1,7.2-0.1c-2.3-2.8-5.4-4.5-7.4-7.5c-0.8,1.1,0.8,2-0.2,3.1c-1.1-2-1.7-4.4-3.4-6.1c-6.9,0.3-13.4,2.1-19.1,6.2
		c-2.4,1.8-4.8,3.5-7.6,4.7c-1.8,0.8-2.4,2.5-2.9,4.3l0.1,0.3l-0.3,0.1c-1.6,1.8-1.8,4-2.3,6.3c3.5,0.6,6.6,3.3,9.7-0.1
		c1.1,0.7,0.1,1.2,0.2,1.9c1,1,2.8,0.7,4.2,2.5c-5-0.4-9.2-2.4-13.9-1.4c-4.4,0.9-8.9,1.9-13.6,1.6c2.9-2.8,6.7-3.4,10.5-4.2
		c0.3-2.3,0.9-4.5,1.8-6.6c1.3-3.3,2.9-6.3,6.6-7.7c3.1-1.2,5.3-3.9,8.3-5.3c5.3-2.6,10.7-4.6,16.7-4.8c-0.2-1.5-1.1-2.4-1.9-3.7
		c-3.6,0.1-6.9,1.7-10.1,3.1c-5.2,2.2-10,5.2-14.9,8c-7.3,4.1-15,6.6-23.3,6.8c-1.9,0-3.8,0.2-5.7,0.5c-5.1,0.7-9.9-0.9-14.6-2.6
		c-2.1-0.8-2.9-2.4-2.6-4.5c0.1-0.9,0.3-1.8,0.1-2.8c-1.5-6.2,0.1-11.8,3.4-17.1c3.6-5.7,7.8-10.9,12.6-15.6
		c0.6-0.6,1.6-0.9,0.5-2.1c-1.3,0.3-2.2,1.5-3.2,2.2c-9.6,7.1-18.7,14.8-27.1,23.2c-3.8,3.8-8.2,7.1-13.2,9.4
		c-1.4,0.6-2.8,1.6-4.5,0.8c-0.3-0.7,0.2-1,0.7-1.2c6-2.3,10.8-6.4,15.2-10.8c7.4-7.4,15.8-13.6,23.6-20.6c2-1.8,4.3-3.1,6.8-4.6
		c-2-1.2-3.9-0.9-5.7-1.2c-2.8-0.5-5.7-0.7-8.5-1c-1.6-0.2-3.2-0.4-4.4-1.6c-0.3-0.3-0.7-0.7-1-0.7c-5.1,0.1-9.8-2.6-14.9-2.6
		c-0.9,0-1.9,0.2-2.8-0.7c1-1.2,2.5-0.4,4.1-1.3c-3.7-0.9-6.6-2.7-10.1-1.3c-3.5,1.4-7.1,2.2-10.9,2.2c-1.2,0-2.3,0.4-3.5,1.3
		c2.8,6.1,4.2,12.6,4.4,19.3c2.7,0.9,1.3-1.9,2.8-2.4c0.3,3.4,3.4,5.1,4.5,8.1c0.7,1.7,1.3,3.4,1.1,5.2c-0.2,1.8-0.2,3.6,0,5.4
		s-0.3,3.7-1.3,5.1c-1.5,2.1-2.2,4.6-3.1,7.4c7.6,4,14.8,8.6,23.3,11.8c-1.9,1.4-2.9,0.5-3.9,0.1c-6.3-2.2-11.9-5.6-17.8-8.6
		c-1.8-1-2.6-3.1-2.6-5.1c0.1-1.9,0.6-3.8,1.6-5.5c1.4-2.3,2.7-4.5,1.7-7.5c-0.5-1.5,1.1-2.9,0.7-4.6c-0.8-3-2.3-5.4-4.2-7.8
		c-3.4,1.1-6.7,1.6-9.9,3.1c1.7,6.4,7.1,4.2,11,4.6c0.4,1.9-1.1,1.6-1.6,2.3c0.7,1,2.1-0.2,2.8,0.8c-0.1,0.2-0.1,0.5-0.2,0.5
		c-4.8,0.2-9.5,2-14.2-1.1c-3.3-2.2-7.4-2.6-11.2-3.4c-1.3-0.3-2.7,0.1-3.9,0.9c1.6,4.7,6.3,6,9.2,9.3c-2.8-0.3-4.9-2.1-6.8-3.9
		c-2-1.9-4-2.6-6.7-2.2c-1.8,2.1-0.9,4.1-0.1,6.4c4,1.4,6.7,5,10.6,6.8c0.9,0.4,1.2,1.2,1.2,2.1l0.1-0.1c-2.4-0.3-4.3-2-6-3.4
		c-2.5-2.1-5.5-3.4-7.7-5.9c-0.6-0.7-1.5-0.8-2.3-0.4c-1,0.5-1.9,1.3-1.8,2.5c0.3,2.7,0.3,5.5,2.9,7.4c2.7,1.9,4.7,4.5,7.6,6.3
		c0.9,0.6,2.3,1.7,1.3,3.4c-2.9-3.3-6.7-5.5-9.6-8.8c-2.3-2.7-2.5-2.5-3.4-5.7c-2.1,0.6-1.5,1.6-0.4,2.6c-0.4,1.1-1.2,1.5-2.1,1.3
		c-0.3,3.2,1.1,5.6,3.2,7.4c4,3.3,6.6,7.7,9.4,11.9c2.2,3.3,6.7,4.9,10.6,3.6c0.9-0.3,1.8-0.6,2.7-0.9c0.2,0,0.4,0.1,0.9,0.2
		c-1.7,2-3.8,2.9-6.2,3c-2.5,0.1-5-0.2-6.9-2c-1.7-1.7-3.1-3.8-4.8-5.9c-17.9,6.9-34,2.5-47.5-9.8c-14.2-12.8-15.7-29.4-10.6-47.1
		c-1.8-2.2-3.1-4.8-4.1-7.6c-1.4-4.2-0.2-8.2,3.2-9.7c0.4,0.6,0.1,1.2,0,1.9c-1.2,8.1,3.2,13.9,11.4,15.1c0.9,0.1,1.9-0.1,2.7,0.9
		c0.5,2.3-1,3.2-2.9,3.4c-2.6,0.3-3.7,1.8-4,4.2c-1.8,12.6-0.1,24.2,9.1,33.8c0.4,0.5,0.9,0.9,1.3,1.4c0.7,0.9,1.2,1.9,0.2,2.8
		c-0.8,0.8-1.8,0.6-2.6,0c-2.3-1.5-4.2-3.3-5.7-5.5c-7.4-10.5-9.2-22.1-7.2-32.7c-3.4,15.9,3.2,34.4,19.2,42.5
		c11.3,5.8,27,4.4,30.3,0.2c0.2-1.2-0.8-1.9-1.5-2.6c-2.1-2.1-3.3-4.7-3.7-7.6c-0.2-1.4-0.3-3,0.6-4c2.7-2.8,4.1-6.7,7.1-9.4
		c2.2-1.9,4.1-4.1,6.3-6.1c3.4-3,6.8-3.1,10.7-2.6c2.1,0.3,4.2,0.7,6.6,0.2c5.1-12.8,2.2-24.6-6.2-34.7
		c-10.3-12.3-24.2-14.3-34-12.1c9-2,22,0,32.9,10.7c1.6,1.5,2.7,3.3,3.9,5.1c0.8,1.2,1.2,2.6-0.6,3.5c-1.8,0-2.5-1.4-3.4-2.6
		c-9.2-11.4-21.5-13.7-35.1-11.4c-3.6,0.6-3.7,1.1-3.2,4.7c0.2,1.4,0.2,2.8,0,4.1c-0.2,1.6-0.9,2.9-2.8,2.9c-0.3,0-0.6-0.2-0.9-0.4
		c-0.3-5.3-2.7-9.9-4.8-14.6c-0.2-0.4-0.2-0.8-0.2-1.3c-0.1-1.6-0.2-3.4-2.3-3.7c-2-0.3-2.7,1.4-3.5,2.8c-0.4,0.8-0.7,1.8-1.7,2.1
		c-0.3,0.1-0.6,0-0.9,0c-1.7-1-3.6-2.7-5.5-0.9c-1.8,1.6-0.5,3.7,0.1,5.6c0.5,1.8,2.6,3.3,1.3,5.6c-0.2,0.2-0.4,0.4-0.7,0.6
		c-3,0.2-3.2-3-5.1-4.2c-2.8,0.7-0.5,4.7-3.4,5.3c-2.4-0.3-1-2.4-1.7-3.5c1-2.8,1.6-5.9,5.1-6.6c1.5-7.1,3-8,9.9-6.3
		c4.1-4.8,4.1-4.8,10.7-2.1c3.1-2.1,11.4-1.6,14.2,0.7c18.4,0.1,33,7.1,43.5,22.5c1.3-0.4,2.8-0.7,4.3-1.5c2.8-1.5,5.7-2.6,8.8-2.8
		c5.2-0.3,10.3,0.6,14.4,4.4c0.5,0.5,1,0.6,1.6,0.8c8.4,2.4,17.1,3.2,25.6,4.8c1.7,0.3,3.3,0.7,5,1.4c1.2-2.5,1.5-5.1,1.3-7.5
		c-0.3-5.1,1.6-9.5,3.5-14c0.9-2.1,1.4-4.2,1.5-6.5c0.3-5.1,3.7-8.3,7-11.8c0.7,1,0.2,1.4,0,1.9c-1.5,3.6-4.1,6.7-4.1,10.8
		c0,1.3-0.6,2.8-1.2,3.9c-4.2,7.2-4.2,15.5-5.8,23.4c-0.3,1.4-0.3,2.8,0.7,4.2c4,0.9,7.2,3.7,11.1,5.5c-2.3-0.2-4.1-2.2-6.9-1.5
		C762.6,484.9,762.7,487.5,760.7,488.5L760.7,488.5z"/>
	<path d="M418.6,219.2c-2.3,4.8-6.4,6.7-11.2,7.5c-7.9,1.3-15.9,1.2-23.9,0.9c-3.3-0.2-6.6,0.4-9.9,0.5c-5.8,0.2-11.7-0.3-17.4,1.5
		c-2,0.6-4.2,0.2-5.7-1.4c0.1-0.8,0.5-0.9,1-0.9c7.5-0.6,14.9-1.7,22.5-1.9c7.1-0.2,14.2,0.1,21.4-0.1c3.5-0.1,7-0.3,10.5-0.6
		c4.2-0.4,8.1-1.7,11.1-5C417.2,219.2,417.6,218.7,418.6,219.2z"/>
	<path d="M417.4,510.4c-1.7,3.8-4.8,5.8-8.6,6.9c-5.1,1.5-10.3,1.6-15.5,1.5c-9.8-0.2-19.5,0.5-29.3,0.4c-2.2,0-4.4,0.4-6.6,1
		c-2.8,0.7-5.6,1.3-8-0.9c0.1-0.9,0.6-0.9,1.1-1c12.4-1.5,24.9-2.3,37.4-2c4.9,0.1,9.8-0.1,14.7-0.4c5.1-0.4,9.9-1.5,13.5-5.5
		C416.3,510.2,416.6,510,417.4,510.4z"/>
	<path d="M419.5,218.8c0.4-4.7-0.2-9-0.8-13.3c-0.2-1.6-1-2.6-2.3-3.6c-4.5-3.5-9.9-4.6-15.3-4.7c-6.9-0.1-13.8-1.1-20.7-0.5
		c-4.1,0.3-8.3,0.2-12.3,1.7c-0.5,0.2-1.1,0.1-1.6,0.1c-5.7-0.1-11.2-2-17.3-0.9c1.3-2,1.3-2,9.8-2.5c6.7-0.4,7.1-0.3,8.5,1.4
		c7.5-1.2,15.1-1.8,22.8-1.3c6.4,0.5,12.8,1.2,19.3,1.9c3.5,0.4,6.4,2.2,9.3,4.1c0.6,0.4,1,0.9,1.1,1.5c1.2,4.5,1.7,9,1.2,13.6
		C421.1,217.2,420.8,218.1,419.5,218.8z"/>
	<path d="M730.7,531.3c15.3,0.1,30.2,1.8,43.4,10.3c-0.1,0.3-0.2,0.6-0.2,0.8c-4.5-1.7-9-3.7-13.6-5.2c-6.6-2.2-13.6-2.4-20.4-3.3
		C736.7,533.6,733.7,532.7,730.7,531.3z"/>
	<path d="M784.7,555.8c0.7,3.1-0.3,5.3-2.7,6.2c-4.7,1.8-9.1,0.1-12.6-4.8c-5.1,0.5-21.1-3.1-23.8-5.7c8.2,0.8,15.4,3.8,22.9,4.6
		c1.2-2.6,0.2-4.6-0.8-6.7c1.6,1.8,3.4,3.1,3.9,5.7c0.8,4.4,6.5,7,10.9,5C784.3,559.3,784.2,557.4,784.7,555.8z"/>
	<path d="M802.1,446.9c-2.8-4.4-7.4-4.7-11.8-5.6c3.2,2.2,6.5,4.1,8.5,7.7c-3.9-1-7.5-2.6-10.9-4.8c-0.4-0.9,0.6-1.8,0-2.6
		c-0.6-1.2-2.4-0.9-2.7-2.3c2.2-2.8,2.8-3,6.4-1.7c2.2,0.8,4.3,1.8,6.3,2.9C800.2,441.9,801.3,444.3,802.1,446.9z"/>
	<path d="M698.3,344.3c1.1,0.8,1.1,1.4,0.7,2.2c-0.9,1.9-2.1,3.6-4,4.3c-3.1,1.1-3.7,3.5-3.9,6.3c-0.1,2-0.2,3.9-0.3,6.4
		c-2.3-1.9-3.3-3.8-2.9-6.4c-4.4-1-7.2-3.8-9.6-7.1c-1.5-2.1-3.5-3.5-5.8-4.6c2.9-0.5,4.6,1,6.2,3c2.4,3.1,4.8,6.2,9.4,7.4
		c0.1-4.2,3-5.9,6.4-7.3C696.2,347.7,696.8,345.6,698.3,344.3z"/>
	<path d="M689.4,654.4c-2.2-1.6-2.9-3.7-2.9-6.2c-4.3-1-7.1-3.8-9.5-7.1c-1.5-2.1-3.5-3.4-5.7-4.6c2.9-0.4,4.6,1.1,6.2,3.1
		c2.4,3.1,4.8,6.2,9.4,7.4c0.1-4.1,2.8-5.9,6.1-7.1c2-0.8,2.7-2.9,4.1-4.2c1.1,0.5,1.1,1.2,0.7,2.2c-1,2-2.3,3.7-4.3,4.5
		c-2.4,1-3.2,2.7-3.5,5.2C689.8,649.6,690.1,652,689.4,654.4z"/>
	<path d="M703.9,640.5c0.9,3.3-5.6,23.3-8.2,26.3c-1.9-1.4-1-3.2-0.5-4.8c1.5-5,3.4-9.9,5.5-14.6C701.6,645.2,702.2,643,703.9,640.5
		z"/>
	<path d="M696.7,375.5c-1.4-0.9-1.1-2.2-0.8-3.4c2.1-7.5,5.1-14.7,8.4-21.7c0.1-0.2,0.5-0.3,0.7-0.5
		C706.1,352.6,699.4,373.1,696.7,375.5z"/>
	<path d="M668.8,596.4c5.9,3.2,10.2,8,11.1,14.6c0.7,4.8-0.3,9.8-1,14.6c-0.9-3.8-0.9-7.6-0.3-11.4c0.2-1.2,0-2-0.4-3
		c-2-4-4.4-7.7-7.7-10.8C669.2,599.3,668,598.2,668.8,596.4L668.8,596.4z"/>
	<path d="M669.9,305.2c5.9,3.2,10.2,8,11.1,14.6c0.7,4.8-0.3,9.7-1,14.6c-0.9-3.8-0.9-7.6-0.3-11.4c0.2-1.2,0-2-0.4-3
		c-2-4-4.5-7.7-7.7-10.8C670.3,308.1,669.1,307,669.9,305.2L669.9,305.2z"/>
	<path d="M701.6,347.2c1.3-0.9,2.6-1.7,3.8-2.6c-1.5-4.8-4.9-8-9.4-10.4c1.5-1.4,2.6-1,3.7-0.7c4.3,1.2,6.7,4.3,7.8,8.4
		c0.3,1,0.4,1.8,1.8,2.4c-3,0.8-5.1,2.3-7.4,3.3c-0.2,0-0.4,0.1-0.6,0.1C701.5,347.5,701.5,347.4,701.6,347.2z"/>
	<path d="M700.4,638.3c1.3-0.9,2.6-1.7,3.9-2.6c-1.5-4.8-4.9-8-9.4-10.4c1.5-1.4,2.6-1,3.7-0.7c4.3,1.2,6.7,4.3,7.8,8.4
		c0.3,1,0.4,1.8,1.8,2.4c-3,0.8-5.1,2.3-7.4,3.3c-0.2,0-0.4,0.1-0.6,0.1C700.3,638.7,700.4,638.5,700.4,638.3z"/>
	<path d="M785,487.1c-1.2,0.1-2.1-0.2-2.2-1.9c4.7-3.2,10.4-1.5,15.4-2.9c2.1-1.8,4.1-3.7,6.1-5.5c-0.6,2.3-2.4,4.3-3.3,6.8
		c-4.3,1.2-8.8,1.4-13.1,2.3C786.9,486.1,785.7,486.1,785,487.1L785,487.1z"/>
	<path d="M727.8,214.3c2.1,1.1,3.1,2.3,3.2,3.7c0.1,1.8,1.2,2.9,2.3,4c3.3,3,6.3,6.3,10.2,8.5c0.6,0.4,1.3,0.8,1.4,1.7
		c-1.3,1.6-2.7,0.5-3.9-0.1c-4-2-6.9-5.2-9-9.1C730.7,220.3,729.5,217.6,727.8,214.3z"/>
	<path d="M405,488.6c3.7-0.6,6.9,0.7,10.1,2.3c2.9,1.4,4.2,3.6,4.5,6.7c0.3,2.8,0.6,5.7,0.5,8.6c0,1.4-0.2,2.7-1.7,4.1
		c0.3-4.7-0.2-8.8-0.8-12.9c-0.3-2.1-1.3-3.4-3-4.5C411.7,490.7,408.4,489.7,405,488.6z"/>
	<path d="M655.9,631c1.2-2.1,0.5-4.8,2.2-6.7c-0.4,4.6-0.6,9.3-1.6,14c-7.8,2.6-12,9.8-18.3,14.9c0.6-3.7,8.3-10.5,17.4-16
		C655.7,635.1,656.5,633,655.9,631L655.9,631z"/>
	<path d="M657.1,339.8c1.3-2,0.4-4.8,2.5-7.3c-0.8,5.2-0.8,9.8-1.9,14.5c-7.8,2.6-11.9,9.7-18.3,14.9c0.6-3.7,8.3-10.5,17.5-16
		C656.9,343.9,657.6,341.9,657.1,339.8L657.1,339.8z"/>
	<path d="M630.4,327.9c1.8-0.9,2.1,0,2.6,0.7c0.8,1.4,1.4,2.9,1.7,4.4c1.5,5.9,2.9,11.7,4.3,17.6c0.2,1,0.3,2,0.5,3.4
		c-1.4-1.6-1.9-3.2-2.3-4.8c-1.2-5-2.4-10.1-3.7-15.1C633,331.9,632.7,329.6,630.4,327.9z"/>
	<path d="M638.5,644.7c-2.5-2.7-2.8-6.2-3.6-9.4c-0.8-3.1-1.3-6.2-2.2-9.3c-0.7-2.5-1-5.1-3.4-7c2.2-0.8,2.5,0.6,3,1.5
		c1.2,2.4,1.8,5,2.4,7.6C636,633.6,637.2,639.2,638.5,644.7z"/>
	<path d="M755.4,561.2c-6.4,3.6-18.9,1.3-24.8-4.5C739,559.4,746.6,563.9,755.4,561.2z"/>
	<path d="M777.8,469c-0.4,1.1-1.3,1.3-2.1,0.8c-4.1-2.5-8.1-5-12.1-7.5c-0.1-0.1-0.1-0.4-0.2-0.6c0.4-1.1,1.3-1.1,2-0.6
		c3.9,2.4,7.7,5.1,11.9,7.1C777.6,468.3,777.7,468.7,777.8,469z"/>
	<path d="M771,473.2c-3.8,0.1-6-2.3-8.5-4.4c1.7-2.6,3.6-1.6,5.5-1.1C770.6,468.4,771.3,470.2,771,473.2z"/>
	<path d="M621.1,328.9c1.2,10.9,2.3,21.9,3.5,32.8c-0.2,0-0.5,0-0.7,0.1C622.1,350.9,621.1,340,621.1,328.9z"/>
	<path d="M620,620.1c1.2,10.9,2.3,21.9,3.5,32.8c-0.2,0-0.4,0-0.7,0.1C620.9,642.1,620,631.2,620,620.1z"/>
	<path d="M726.5,481.6c3.7,1,7.3,0.8,11,1c2.4,0.1,4.9,0.8,6.4,3.4C741.5,486.4,727.4,482.9,726.5,481.6z"/>
	<path d="M794.1,209.5c-9.4-0.2-18.9-1.3-28.3,1c1.8-1.1,3.6-1.9,5.8-1.9c4.7,0,9.4-0.2,14.2-0.4
		C788.6,208.2,791.4,208.3,794.1,209.5z"/>
	<path d="M788.7,511.1c-7.4-1.3-15-1.4-22.2-3.5C774.1,507.8,781.6,508.3,788.7,511.1z"/>
	<path d="M367.9,210.6c7.3-2,20.7-2.9,24-1.6C383.8,208.6,376,210.8,367.9,210.6z"/>
	<path d="M802.8,241.9c1.6-2.6,4.1-4.4,6.1-6.3c0.5-2.7-0.7-5.2-0.3-8C813.1,232,810.6,238.2,802.8,241.9z"/>
	<path d="M628.3,585.3c0.5,7.7,1,15.5,1.5,23.2c-0.2,0-0.5,0-0.7,0c-1.4-7.7-1.4-15.5-1.4-23.2C627.8,585.3,628.1,585.3,628.3,585.3
		z"/>
	<path d="M705.1,197.8c-2.1,5-7.1,6.4-12.2,3.6C697.4,201.7,701.3,200.1,705.1,197.8z"/>
	<path d="M754,565.9c4,1.4,6.4,4.9,9.7,7.3c2.3-0.1,4.6,0.2,7.4,0.6c-2.9,1.6-7.4,1-9.7-1c-1.3-1.1-2.5-2.3-3.7-3.5
		C756.5,568.2,755.1,567.2,754,565.9z"/>
	<path d="M630.1,317.3c-1.2-7.6-1.5-15.3-1.3-23c0.2,0,0.4,0,0.6,0c0.5,7.7,1,15.3,1.5,23C630.6,317.2,630.4,317.2,630.1,317.3z"/>
	<path d="M711.7,372.4c-2.5-4.2-5.7-7.3-6.4-12.1C708.3,361.8,711.8,368.4,711.7,372.4z"/>
	<path d="M710.6,662.8c-2.6-3.4-5.7-6.5-5.9-11.2C707.5,654.9,710.1,658.2,710.6,662.8z"/>
	<path d="M663,186.1c5.4,3,11.7,4.4,16.6,8.4c-0.1,0.2-0.2,0.5-0.3,0.7c-5.6-2.8-11.2-5.6-16.8-8.4
		C662.6,186.6,662.8,186.4,663,186.1z"/>
	<path d="M653.4,568.9c-0.2-1.1-1.8-1.3-1.9-2.6l-0.1,0.1c1.9,0.3,3.5,1.5,5.2,2.2c1,0.4,1.9,1.2,2,2.3c0.1,2.2,0.7,4.3,1.3,6.9
		c-2.2-1-2.7-2.6-2.7-4.2C657.1,570.9,655.6,569.6,653.4,568.9L653.4,568.9z"/>
	<path d="M652.5,275.3c1.9,0.3,3.5,1.5,5.2,2.2c1,0.4,1.9,1.2,2,2.3c0.1,2.2,0.7,4.3,1.3,6.9c-2.2-1-2.7-2.6-2.7-4.2
		c0-2.7-1.5-4-3.8-4.8l0.1,0.1C654.3,276.6,652.7,276.4,652.5,275.3L652.5,275.3z"/>
	<path d="M768.5,453.6c1.7-1,4.4-0.2,5.9,1.7c0.8,1,1.5,2.1-0.1,3.1c-1.8,0.2-1.4-2.3-3-2.4C770,455.9,769,455.2,768.5,453.6z"/>
	<path d="M635.1,594.3c0.8,6.4,1.3,12.8-0.7,19.1C634.9,607,634.9,600.7,635.1,594.3z"/>
	<path d="M635.6,322.1c0.6-6.4,0.4-12.7,0.6-19.1C637.1,309.5,637.4,315.9,635.6,322.1z"/>
	<path d="M775.6,267.3c2.2,1.1,6.3,7,6.2,9.2C780.2,273.3,776.3,271.7,775.6,267.3z"/>
	<path d="M714.1,351.4c-1.2,2.8-2,5.5-0.7,8.5c-2.2-1.1-3-2.3-2.7-4.3C711.1,353.6,711.8,351.8,714.1,351.4z"/>
	<path d="M803,226.1c-4.4,0.3-8.8,2-13.3,0.2C794.1,226.5,798.5,224.9,803,226.1z"/>
	<path d="M786,527.3c0.1-0.1,0.1-0.2,0.2-0.4c1.2-0.8,1.6-2.9,3.9-1.9c-1.3,2.4-2.6,4.7-3.9,7C785.3,530.3,785.7,528.8,786,527.3z"
		/>
	<path d="M649.7,192.2c4.8,0.6,9.1,2.7,13.6,1.5C662,196.4,654.8,195.7,649.7,192.2z"/>
	<path d="M760.6,270.1c1.9-3.5,3.2-7.4,7.2-9.4C765.6,264,764.2,267.9,760.6,270.1L760.6,270.1z"/>
	<path d="M397.7,649.5c4.8-0.6,9.5-2,14.4-0.9C407.4,649.9,402.5,648.7,397.7,649.5z"/>
	<path d="M398.8,358.4c4.8-0.9,9.6-1.9,14.4-1.3c0,0.3,0,0.6,0.1,0.8c-2.4,0.1-4.9,0.2-7.3,0.2C403.5,358.2,401.1,357.9,398.8,358.4
		z"/>
	<path d="M750.2,213.3c3.9,2.5,7.5,5.4,11.5,7.7C758.9,221.3,754.3,218.2,750.2,213.3z"/>
	<path d="M668.1,313c-1.4,3.2-1.5,6.7-2.9,9.9c-0.7-3.8-0.1-7.2,2.6-10.2c0.2-0.1,0.3-0.1,0.5-0.2
		C668.2,312.7,668.1,312.9,668.1,313z"/>
	<path d="M666.9,604.2c-1.4,3.2-1.5,6.7-2.9,9.9c-0.8-3.8-0.1-7.3,2.5-10.2c0.2-0.1,0.3-0.1,0.5-0.2C667,603.9,667,604,666.9,604.2z
		"/>
	<path d="M600.1,167.8c-1.2-0.2-1.8-1.3-2.6-2c-0.1-0.3-0.1-0.6-0.3-1.3c3.2,2,6.7,2.7,9.9,4C604.6,169.2,602.4,168.4,600.1,167.8z"
		/>
	<path d="M626,295.2c0.3,6.4,0.8,12.1,0.2,17.8C625.6,307.3,625.8,301.6,626,295.2z"/>
	<path d="M412.6,201.2c-2.3,3.9-6,5.3-10.3,5.9C405.8,205.2,409.6,203.9,412.6,201.2z"/>
	<path d="M624.9,587.1c0.2,5.7,0.9,11.4,0.1,17.1C624.5,598.5,624.7,592.8,624.9,587.1z"/>
	<path d="M401.2,498c3.7-1.6,7.2-3.1,10.4-6.3C410.3,495.4,406.1,497.9,401.2,498z"/>
	<path d="M711.5,478.9c-0.1,1.7-1.5,2.4-2.4,3.5s-2,2.2-3.4,3.8C706.5,482.3,708.6,480.3,711.5,478.9z"/>
	<path d="M700.9,638.8c-2.2,1.6-4.4,3.2-4.3,6.4c0,1-0.6,2.3-2.4,2.2c2.1-3.1,1.6-7.8,6.3-9.1C700.6,638.5,700.7,638.7,700.9,638.8z
		"/>
	<path d="M702,347.6c-2.2,1.6-4.4,3.2-4.3,6.4c0,1.1-0.7,2.2-2.4,2.2c2.2-3.2,1.6-7.9,6.3-9.1C701.7,347.3,701.9,347.5,702,347.6z"
		/>
	<path d="M771,227c3-1.2,5.9-0.5,8.8-0.7c0,0.2,0,0.5,0,0.7C776.8,227,773.9,227,771,227z"/>
	<path d="M591.4,133.3c0.8,0.5,1.1,1.1,0.2,1.7c-1.5,1-2.9,2-3.4,4.6c-1.4-2.1-0.9-3.3,0.2-4.2C589.3,134.5,590.4,133.9,591.4,133.3
		L591.4,133.3z"/>
	<path d="M681.9,196.8c2.7,1.4,5.4,2.7,8.1,4.1c-0.1,0.2-0.2,0.4-0.3,0.7c-3.1-0.6-5.9-1.8-8.1-4.1
		C681.7,197.2,681.8,197,681.9,196.8z"/>
	<path d="M735.1,482.2c0.4-2.7,0.9-4.7,0.4-6.9C738.3,477.4,738.2,478.9,735.1,482.2z"/>
	<path d="M731.8,548.2c3.3,0.2,6.3,1.7,9.3,3C737.8,550.9,734.8,549.8,731.8,548.2z"/>
	<path d="M423.2,626.9c-2.3,1.2-4.8,0.7-7.2,1C418.3,626.5,420.7,626,423.2,626.9z"/>
	<path d="M686,533.1c-1.2,3.6-3.3,4.4-5.9,2.2C682.1,534.7,684.5,535,686,533.1z"/>
	<path d="M417.2,336.6c2.3-1,4.7-1.9,7.2-0.8C422.1,336.9,419.6,336.6,417.2,336.6z"/>
	<path d="M634.2,184.7c2.5,1.5,5.1,2.5,7.6,3.9C638.8,188.4,636,187.5,634.2,184.7z"/>
	<path d="M659.5,185.1c-2.5-0.5-5.2-0.3-8-2.4C654.9,182.6,657.2,183.8,659.5,185.1z"/>
	<path d="M665.5,200.9c2.5,1.1,4.4,2.9,5.2,5.7c-1.9-1.8-3.7-3.5-5.6-5.3c-0.1-0.2-0.1-0.4-0.2-0.5
		C665.2,200.8,665.4,200.8,665.5,200.9z"/>
	<path d="M582.3,146.5c-0.2-2.9,1.3-4.3,3.4-5.7c0.3,1.6-0.7,2.2-1.3,2.9C583.8,144.5,583.8,145.8,582.3,146.5z"/>
	<path d="M391.1,500.2c-1.8,0.3-3.2,0.1-4.9,0C388.4,499,388.6,499,391.1,500.2z"/>
	<path d="M679.2,189c1.8,1.5,2.7,3.5,2.7,6.3C680.2,193.1,680.1,190.9,679.2,189z"/>
	<path d="M753.4,502.3c3.1,0.3,3.4,0.6,3.9,3.5C755.7,504.5,754.7,503.2,753.4,502.3z"/>
	<path d="M688.7,530.3c1.4-1.5,3.4-2.2,5-3.5C692.9,529,691,529.8,688.7,530.3z"/>
	<path d="M600.5,347.4c-0.6-2-1.1-4-1.7-6C600.5,343,600.9,345.1,600.5,347.4z"/>
	<path d="M716,654.5c0.5,2.2,0.2,3.7-1,5.3C714.5,657.8,714.4,656.3,716,654.5z"/>
	<path d="M782.7,276.9c2.7,0.1,2.7,2.5,3.8,3.5C784.9,279.8,783.3,279.3,782.7,276.9z"/>
	<path d="M597.7,632.7c1.6,1.5,2,3.5,1.7,5.8C598.9,636.5,598.3,634.6,597.7,632.7z"/>
	<path d="M717,363.9c0.5,1.6,0.2,3-0.9,4.9C715.7,366.7,715.6,365.2,717,363.9z"/>
	<path d="M751.5,570.1c-1.6,1.7-3.1,1.5-5,1.3C748.1,570,749.4,569.6,751.5,570.1z"/>
	<path d="M810.2,523c2-1.5,3.6-1.7,5.7-0.9C814.1,523.4,812.4,522.8,810.2,523z"/>
	<path d="M752.2,512.6c0.7-1.7,2-2.8,3.7-3.5C755.3,511,753.7,511.7,752.2,512.6z"/>
	<path d="M647.9,328.1c0.3-1.9,0.7-3.9,1-6.2C649.5,324.3,648.8,326.2,647.9,328.1z"/>
	<path d="M833.4,535.3c0.2,2.3-1.3,3.8-3,5.8C831,538.4,832.5,537,833.4,535.3z"/>
	<path d="M756.9,508.6c0.8-2.4,2.4-2.4,4.6-2.4C760,507.5,758.8,508.2,756.9,508.6z"/>
	<path d="M791.3,260.6c-1.6-0.7-2.9-1-3.5-2.8C789.6,258,790.6,258.6,791.3,260.6z"/>
	<path d="M675.7,184.1c1.6,0.5,2.7,1.4,3.4,3.4C676.9,186.8,676.8,185,675.7,184.1z"/>
	<path d="M697.9,519.9c0.2,1.7-0.9,2.6-2.2,3.4C695.6,521.7,696.7,520.8,697.9,519.9z"/>
	<path d="M647,618.4c0.3-1.6,0.5-3.3,0.8-5.4C648.3,615.2,647.9,616.8,647,618.4z"/>
	<path d="M671.9,518c0.6-2.1,1.5-3,3.2-4C674.4,515.8,673.9,517,671.9,518z"/>
	<path d="M405.4,627.4c1.7-1.1,2.6-1.2,4-0.3C408.1,627.9,407.1,627.9,405.4,627.4z"/>
	<path d="M410.7,336c-1.5,0.8-2.5,0.6-3.8,0.5C408,335,409.1,335.1,410.7,336z"/>
	<path d="M648.8,180.4c-1.4-0.1-2.3-0.8-3.4-2C647.2,178.5,648.1,179.3,648.8,180.4z"/>
	<path d="M593.8,135.4c1.6,1,2.1,2.1,2.5,3.4C594.6,137.9,594.6,137.9,593.8,135.4z"/>
	<path d="M585.3,155.4c-1.8,0.5-1.8,0.5-3.5-0.3C583.3,154.7,583.3,154.7,585.3,155.4z"/>
	<path d="M694,535.6c0.6-1.8,1.4-2.5,2.6-2.9C696.4,533.9,695.7,534.7,694,535.6z"/>
	<path d="M432,619.5c-0.3,1.4-1,2.6-2.2,3.9C430,621.4,430.9,620.4,432,619.5z"/>
	<path d="M690.1,538.3c0.9-1.5,1.9-1.9,3.3-2.4C692.9,537.4,692.1,538.1,690.1,538.3z"/>
	<path d="M433.1,328.3c-0.3,1.4-1,2.6-2.2,3.9C431.1,330.2,432,329.2,433.1,328.3z"/>
	<path d="M349.8,198.9c-1.1,0.2-2.3,0.5-3.8-0.2C347.7,197.8,348.7,198.6,349.8,198.9z"/>
	<path d="M793,258.2c1.7-0.4,2.5-0.4,3.3,0.6C795.2,259.3,794.4,259,793,258.2z"/>
	<path d="M725,212.3c-1.8,0.3-2.4-0.4-3-1.4C723.4,210.4,724.1,211.1,725,212.3z"/>
	<path d="M748.9,517c-0.3,1.3-1,2.2-2.6,2.8C746.8,518.2,747.9,517.6,748.9,517z"/>
	<path d="M581.1,149c-0.1,1.3-0.7,2-1.8,2.5C579.1,150,579.6,149.3,581.1,149z"/>
	<path d="M785,487.2c0.4,0,0.8-0.2,1.3,0.3c-0.5,1.3-1.7,1.7-2.9,2.3C783.4,488.3,784.8,488.1,785,487.2L785,487.2z"/>
	<path d="M773.7,571.8c1.1-0.6,2.2-1.2,3.3-1.8C776.5,571.9,775.1,571.8,773.7,571.8z"/>
	<path d="M590.1,146.2c-0.8,0.5-1.7,0.9-2.5,0c0.2-0.9,0.9-0.7,1.5-0.7C589.5,145.5,590.2,145.3,590.1,146.2z"/>
	<path d="M641.4,176.7c-1.5-0.4-2.4-0.5-3.2-1.7C639.6,175.1,640.4,175.4,641.4,176.7z"/>
	<path d="M819.6,559.9c1.1,0.8,1.6,1.9,1.7,3.2c-0.9-0.9-1.6-1.8-1.9-3L819.6,559.9z"/>
	<path d="M561.3,163.3c0.7,1.7,1.7,2.7-0.3,3C560,165.3,560.8,164.7,561.3,163.3z"/>
	<path d="M653.3,568.9c0.1,1.4,0.2,2.7-0.3,4.1C652.9,571.6,652.1,570.2,653.3,568.9L653.3,568.9z"/>
	<path d="M748.7,567.1c-1.3,1-2.3,0.2-3.3,0.4C746.4,567,747.4,567,748.7,567.1z"/>
	<path d="M746,209.9c1.8,0.3,2.6,0.7,3.4,1.5C747.9,211.5,747.9,211.5,746,209.9z"/>
	<path d="M665.2,201.3c-0.9-0.4-2-0.7-3.1-1.8c1.7,0,2.6,0.7,3.4,1.4C665.4,201,665.3,201.2,665.2,201.3z"/>
	<path d="M602.3,621.3c0.3-1.3,1.1-2.1,2.1-2.7C604,619.8,603.4,620.8,602.3,621.3L602.3,621.3z"/>
	<path d="M654.4,277.7c0.1,1.4,0.2,2.7-0.3,4.1C654,280.4,653.3,279,654.4,277.7L654.4,277.7z"/>
	<path d="M760.7,488.4c0,1-0.5,1.6-1.6,2.3C759,489.1,759.5,488.5,760.7,488.4L760.7,488.4z"/>
	<path d="M603.4,330.2c0.3-1.3,1.1-2,2.1-2.7C605.1,328.6,604.6,329.6,603.4,330.2L603.4,330.2z"/>
	<path d="M596.6,150c-1.7-0.3-2.1-1-2.8-2C595.5,148,595.7,148.8,596.6,150z"/>
	<path d="M748.9,237.2c-1-0.5-1.7-1.2-1.8-2.4C748.6,235.3,748.6,235.3,748.9,237.2z"/>
	<path d="M600.9,623.2c0.1,1-0.7,1.6-1.2,2.4C599.8,624.6,600.1,623.8,600.9,623.2L600.9,623.2z"/>
	<path d="M602.1,332.1c0,1-0.6,1.7-1.6,2.8C600.9,333.5,601.2,332.6,602.1,332.1L602.1,332.1z"/>
	<path d="M628.4,288.6c0.7,1.2,0.4,1.9,0.5,3.1C628.3,290.5,628.6,289.7,628.4,288.6z"/>
	<path d="M701.3,512.9c0-1.5,0.5-2.2,1.4-3.3C703,511.1,702.7,511.9,701.3,512.9z"/>
	<path d="M690.2,509.7c1.2-0.8,1.8-0.6,2.4,0.2C691.8,510.3,691.2,510,690.2,509.7z"/>
	<path d="M670.6,522.5c0,1.2-0.6,1.2-1.6,1.4C669.2,522.7,669.6,522.4,670.6,522.5z"/>
	<path d="M679.3,509.7c-0.7-1.5,0.1-1.8,0.7-2.4C680.5,508.4,680.2,509,679.3,509.7z"/>
	<path d="M776,487.4c0.2-1.6,0.9-2.1,1.8-2.8C778,486.2,776.8,486.3,776,487.4z"/>
	<path d="M666.6,603.9c0.4-0.6,0.8-1.2,1.2-1.7c0.1,0.1,0.3,0.2,0.4,0.3c-0.4,0.6-0.9,1.2-1.3,1.8
		C666.8,604.1,666.7,604,666.6,603.9z"/>
	<path d="M607.4,152.8c-0.3-1.2,0.5-1.3,1.1-1.5C608.8,152.3,608.1,152.5,607.4,152.8z"/>
	<path d="M593.9,131.5c0.4-1.3,0.8-2,2.1-1.9C595.9,130.8,595.3,131.3,593.9,131.5z"/>
	<path d="M627.5,580.1c0.4,0.6,0.3,1.1,0.1,1.9C627.3,581.3,627.2,580.7,627.5,580.1z"/>
	<path d="M425.9,631.6c-0.1,0.8-0.2,1.6-1,2.2C425.1,632.9,425.1,632.1,425.9,631.6L425.9,631.6z"/>
	<path d="M426,631.7c-0.1-1.3,0.3-2.4,1.2-3.3l0,0C427.2,629.6,426.7,630.7,426,631.7L426,631.7z"/>
	<path d="M598.9,142.3c-1,0-1.9-0.1-2.2-1.4C597.9,140.8,598.3,141.7,598.9,142.3L598.9,142.3z"/>
	<path d="M618.6,591.9c0.1,1.1,0,1.8-0.7,2.1C617.5,593.2,617.9,592.6,618.6,591.9z"/>
	<path d="M598.8,142.4c1.2-0.4,1.9,0,2.4,1.3C600,143.8,599.5,142.9,598.8,142.4L598.8,142.4z"/>
	<path d="M727.7,213.8c-1.1-0.2-1.5-0.6-1.4-1.6C727.3,212.4,727.8,212.8,727.7,213.8z"/>
	<path d="M763.7,225.1c-1.3,0.1-1.8-0.4-2.2-1.4C762.6,223.3,763,224.2,763.7,225.1z"/>
	<path d="M715.2,208.1c1-0.8,1.4-0.3,1.9,0.3C716.2,209.3,715.7,208.7,715.2,208.1z"/>
	<path d="M714.9,547c-1-0.5-1.5-0.7-1.6-1.4C714.1,545.5,714.3,546.1,714.9,547z"/>
	<path d="M725.7,554.3c-0.8,0.2-1.2,0-1.7-0.3C724.7,553.1,725.1,553.6,725.7,554.3z"/>
	<path d="M819.4,560.1c-0.8-0.5-1.3-1.2-1.6-2.3c1.1,0.5,1.5,1.2,1.8,2.2L819.4,560.1z"/>
	<path d="M427.1,340.4c-0.1,0.8-0.2,1.6-1,2.2C426.2,341.7,426.3,340.9,427.1,340.4L427.1,340.4z"/>
	<path d="M667.7,312.7c0.3-0.6,0.7-1.3,2-2c-0.8,1.1-1.2,1.7-1.7,2.3C667.9,312.9,667.8,312.8,667.7,312.7z"/>
	<path d="M619,303.3c-0.1-1.3-0.1-1.9,0.7-2.3C620.1,301.7,619.6,302.3,619,303.3z"/>
	<path d="M670.6,510.3c0.4,1.1,0.2,1.6-0.7,1.8C669.2,511.2,669.6,510.7,670.6,510.3z"/>
	<path d="M427.1,340.5c-0.1-1.3,0.3-2.4,1.2-3.3l0,0C428.3,338.4,427.8,339.5,427.1,340.5L427.1,340.5z"/>
	<path d="M708.8,226.9c0.7-0.3,1.2-0.3,1.2,0.7C709.4,227.6,709,227.4,708.8,226.9z"/>
	<path d="M672.6,181.6c1-0.3,1.2,0.1,1.3,0.7C673.2,182.9,672.8,182.6,672.6,181.6z"/>
	<path d="M594.4,158.4c-1.1,0-1.5-0.4-1.8-1C593.5,157.3,593.5,157.3,594.4,158.4z"/>
	<path d="M589.8,156.4c0.8-0.4,1.2-0.2,1.6,0.2C590.9,157.6,590.4,157.2,589.8,156.4z"/>
	<path d="M685.3,517.8c0.9,0.2,1.5,0.6,0.7,1.7C685,519.1,685.1,518.5,685.3,517.8L685.3,517.8z"/>
	<path d="M602.1,332.1c0-0.9,0.4-1.6,1.3-1.9l-0.1-0.1C603.4,331.1,602.9,331.7,602.1,332.1L602.1,332.1z"/>
	<path d="M656,630.9c-0.4-0.2-1-0.1-1.3-1.1C655.2,630.3,655.6,630.6,656,630.9L656,630.9z"/>
	<path d="M657.1,339.7c-0.4-0.2-1-0.1-1.3-1.1C656.4,339.1,656.7,339.5,657.1,339.7L657.1,339.7z"/>
	<path d="M802.7,572c0.3,0.2,0.8,0.3,0.5,0.9C802.7,572.8,802.3,572.6,802.7,572z"/>
	<path d="M800.5,568.2c0.4,0.3,0.7,0.6,0.5,1.4c-0.3-0.5-0.6-0.8-0.8-1.1C800.3,568.4,800.4,568.3,800.5,568.2z"/>
	<path d="M800.2,568.5c-0.5-0.2-1.1-0.5-0.8-1.2c0.9-0.3,1,0.4,1.1,0.9C800.4,568.3,800.3,568.4,800.2,568.5z"/>
	<path d="M719.9,550.8c-1.3,0.2-1.6-0.1-1.7-0.8C719.1,549.5,719.3,550.2,719.9,550.8z"/>
	<path d="M684.7,537.5c0-0.9,0.3-1.1,1-1C685.8,537.1,685.4,537.3,684.7,537.5z"/>
	<path d="M673.2,210.4c0.1,0.1,0.3,0.3,0.3,0.4c0,0.4-0.2,0.5-0.5,0.4c-0.1-0.1-0.2-0.3-0.2-0.5C672.8,210.5,673,210.5,673.2,210.4z
		"/>
	<path d="M601,623.3c0-0.9,0.4-1.6,1.3-1.9l-0.1-0.1C602.2,622.2,601.8,622.9,601,623.3L601,623.3z"/>
	<path fill="#FFFFFF" d="M582.9,234.3c0.3,1.6,1.8,1.6,2.9,2.1c6.4,2.9,13.2,4.8,19.4,8.1c1.6,0.9,2.4,1.9,2.5,3.7
		c0.3,3.8,0.4,7.6,0.1,11.9c-5.2-3.2-10.3-5.4-15.3-8c-6.6-3.3-13.6-5-20.8-5.8c-6.4-0.7-12.7,0.4-17.2,6.1
		c-0.6,0.8-1.5,1.5-2.3,2.1c-2.3,1.9-4.7,3.6-5.9,6.5c-0.7,1.6-2.2,2.6-3.7,3.9c2.1,0.5,4.1-0.3,5.1-2.6c1.8-4.1,5.2-6.3,8.8-8.4
		c0.8-0.5,1.2-1,1.6-1.8c1.4-2.7,3.9-3.5,6.8-3.7c13.7-1,25.5,4.6,37.1,10.7c1.3,0.7,2.6,1.4,3.9,2.1c1.1,0.5,2.2,1,1.9,2.6
		c3.2-0.8,4.8,1.8,7.3,3c-3.2,16.6-8.6,32.2-17.5,46.4c-1.9-0.3-2.8-1.6-4.5-1.5c0.5,1.5,2,1.8,3.1,2.9c-1.2,1.4-2.3,2.8-3.7,4.3
		c-2.8-3.1-5.3-6.3-8.3-9c-2.1-1.9-4.3-3.8-6.5-5.6c-0.7-0.6-1.3-1.1-1.7-1.9c-1.5-3.2-4.2-4.9-7.5-5.8c-1.6,0.9-2.2,2.2-2.5,3.9
		c-1.9,9.9-7.2,17.3-15.7,22.9c-7.3,4.8-14.9,8.5-23.2,11.1c-0.9,0.3-2.1,0.4-2.8,1.7c3.7-0.5,7-2.2,10.4-2.9
		c-2.5,1.8-5.4,2.7-8.4,3.4c-5,1.2-9.8,3.6-15.1,3.9c-0.5,0-1,0.3-1.5,0.6c-5.7,2.7-11.5,5-17.4,7.2c-4.3,1.6-8.3,3.9-12.4,5.8
		c-1.5,0.7-2.5,2-3.5,3.2c-3.3,3.9-7.3,4.1-11.2,0.6c2-4.5,7.8-5.6,9.7-10.7c-2.1-0.1-3.4,0.9-3.9,2.1c-0.9,2.2-2.7,3-4.6,4
		c-1.3,0.7-2.5,1.7-3.9,2.7c-3.9-2.8-6.9-6.6-9.4-10.8c0.2-1.9,1.6-2.4,2.9-3.1c11.2-6.2,21.4-13.9,30.7-22.7
		c5.3-4.9,9.8-10.6,15.2-15.5c0.8-0.7,1.5-1.6,2.4-2.2c8.5-5.9,15.4-13.7,23.3-20.3c4.2-3.5,7.9-7.5,11.7-11.2
		c2.8,0.1,4.6-0.5,7-2.5c-0.8-0.5-1.4,0.1-2.1,0.1c-0.6,0.1-1.2,0.3-1.8,0.5c-0.9-0.6,0.9-1.3-0.3-2c-2.7,2.1-5.6,4-8.1,6.4
		c-3.1,2.9-6.3,5.7-9.6,8.5c-12.4,10.7-25,21.2-36.3,33c-8.4,8.7-18,15.4-27.8,22.3c-0.7-1-1.4-1.8-2-2.6c-0.5-0.7-0.7-1.5-1.2-2.5
		c2.7-2.4,5.2-5.1,8.1-7.1c9.9-6.9,18.5-15.3,28-22.7c5.5-4.3,10.2-9.3,14.7-14.6c4.9-5.8,11.4-9.9,16-15.7c0.9,0.1,0.5,1.1,1.2,0.9
		c4.8-3.8,7.3-9.4,11.1-14c2.6-3.2,5.6-5.9,10-6.6c0.4-0.1,0.8-0.2,1.2-0.4c0.3-0.1,0.5-0.3,0.9-0.5c-0.8-0.9-1.9,0-2.7-0.7
		c1.3-2.9,3.2-5.5,5.5-7.7c1.1-1.1,1.7-2.4,2.5-3.6c4.1-6.1,12.6-8.5,19.2-5.3c-1.8,1.1-4.1,0.9-5.9,2.7c2.3,0.5,4.2-0.1,5.6-1
		c2.3-1.6,4.6-0.9,7-0.7C580.6,234.3,581.8,234.7,582.9,234.3L582.9,234.3z"/>
	<path fill="#FFFFFF" d="M678,287.5c1.9-0.7,3.2-2.1,4.5-3.4c0.8-0.8,2-1.2,3-1.8c2.7,1,4.6,3.1,7.1,4.3c-1.1-2-2.9-3.4-4.6-4.7
		c2.4-4.3,3.1-6.6,11.2-4c1.6-3.9,5.2-6.1,8.5-8.4c0.7-3.7,1.4-7.1,2.2-11c-2.8,2.2-4,4.8-3.9,7.8c0,1.7-0.5,2.5-1.8,3.3
		c-2.8,1.6-4.8,3.8-5.9,7c-1.3-0.4-2.4-0.8-3.9-1.3c9.1-10.8,15-22.9,17.9-36.5c7.1,2.8,12.7,7.2,19.4,9.9c6.8,2.7,14,2.3,21,3.1
		c-0.3,1.4-0.3,1.4-7.1,4.6c1.8,2.6,4.9-1.3,6.6,1.8c0.6,4.4,0.9,9.2,2.4,13.9c-3.2,2.5-7.2,2.5-10.7,3.8c4.1,1.1,7.8,0,11.4-2.9
		c1.4,2.5-0.1,4.6-0.9,6.3c-0.9,2.1-4.2,1-5.7,3.3c1.9,0.3,3.6,0.4,5.3-0.1c1.1,0.1,0.8,1.6,2.1,1.7c1.9-1.5,1.1-4.2,2.5-6.4
		c4.7,5.9,10.8,9.3,17.5,12c3.8,1.5,7.8,2.1,11.8,2.6c1.2,0.2,1.6-0.8,2.5-1c1.3-0.4,2.6-0.8,4.3-1.4c-2,3.9-4.7,6.5-7.4,9.1
		c-5.8,5.8-11.5,11.7-16.7,18.1c-1.9,2.3-4.4,4-6.8,5.8c-7.3,5.4-13.6,11.9-20.6,17.7c-1.9,1.6-3.6,3.4-4.3,5.8
		c-0.3,1.1-1.3,1.7-2.1,2.3c-3.2,2.4-6.8,4.4-10,8c-4-11.7-11.6-20.7-18-30c0.2-0.7,0.2-0.9,0.3-1.1c3.4-3.9,3.1-6.1-1.1-9.1
		c-7.3-5.1-13.4-11.4-18.8-18.4c-2.4-3.1-5.3-5.9-7.8-8.8C680.4,288.3,679.1,288,678,287.5L678,287.5z"/>
	<path fill="#FFFFFF" d="M779.8,120c2.1,0.6,3.5,2.3,5.5,3c-0.4,1.4-1.4,0-2,1c1.5,2.7,4,3.6,7.2,3.7c0.4,5.7,4.7,9.4,6.8,14.3
		c1.5,3.6,3.3,7.2,3.8,11.1c0.4,3.7,0,7.1-4.3,8.6c1.4,1.9,3-0.4,4.2,0.7c0.9,0.8-0.7,1.8,0.3,2.6c0.2,0.1,0.5,0.2,0.7-0.1
		c1.1-1,2.5-1.7,3.3-3c2.1-3.7,5.6-4.3,10-4.1c-2.8,1.3-5.1,2.4-7.7,3.7c1.3,0.8,3.1,1.2,2.4,2.9c-0.6,1.4-1.7,1.5-3.1,1.2
		c-0.8-0.2-1.6,0.3-2.1,1.2c0.4,2.8,0.9,3.1,5,3.6c0.5-2.8,2.8-5.1,1.8-8.1c0.8-1.2,1.9-1.6,3-1.9c0.5,0.9,0.3,1.9,0.3,3
		c-1.9,1.4-3.2,3.3-3.8,6.5c2.1-1.4,2.6-3.5,4.4-4.3c2.7,2.3-1.3,2.7-1.4,4.5c2.1,0,3.6-1,5-2.7c-2.3-2.8-1.4-6.5-2.3-9.7
		c0.5-0.4,1.1-0.3,1.3,0.3c0.7,2.3,1.4,4.7,1.9,7.1c0.4,2.2-0.3,4.4-2.3,5.2c-3.6,1.5-6.9,3.8-10.7,4.6c-0.8,0.2-1.7,0.2-2.1,0.2
		c-1.5-0.2-1.5-1.6-2.3-2c-0.5,0.1-0.8,0.3-0.9,0.8c-0.3,1.2-0.2,2.4,1.1,3c1.8,0.8,3.6,0.5,5.3,0.1c0.9-0.2,1.7-0.8,3-0.6
		c-0.2,2,0.3,3.8,1.5,5.6c1.4,2,1.1,4.8,0.3,7.4c-1.4,4.5-2.1,9.1-1.7,14c3.2,2.6,1.5,7.7,5.2,10.5c-7.8-4.2-14.8-9.6-23.1-11.9
		c-1.1-0.8,0.5-1.8-0.6-2.5c-1.2-0.3-1.2,1.4-2.2,1.3c-5-0.5-9.3-3.3-14.5-3.8c0.6-1.6,2.5-2,2.7-4.2c-2.1,1.2-3.3,2.6-4.3,4.3
		c-2.4,0.4-4.8,0.4-7.6,0.3c1.1-2.6-0.3-5,0.6-7.4c0.8-2.1,1.8-3.5,4.3-3.3c0.9,0.1,1.9,0.1,3.1-1.1c-2.5-0.2-4.5-0.5-6.6,0.5
		c-3-2.2-6.9-2.2-9.8-4.5c-2.5-2-3.2-4.1-1.4-6.8c1.4-2.1,2.5-4.1,1.5-6.8c-0.6-1.5,0.2-2.7,2-3.1c1.4,0.3,1.5,2.8,3.5,2.6
		c0.5-1.8,0.5-1.8-1.7-3.4c-1.2-0.9-2.5-1.7-2.9-3.6c0.5-1,1.1-2.1,1.9-3.6c1.3,1.4,2.7,2,4.3,1c1.1-0.7,1.2-1.6,0.9-2.7
		c-1.1-0.9-1.5,0.7-2.6,0.4c-0.9-0.3-1.9-0.9-3-1.2c-2.4-0.7-2.7-1.9-1.1-4c1.9-2.4,4.2-4.5,6.5-6.5c2.4-2.2,4.4-4.3,2.6-8
		c-0.8-1.6,0.4-3.2,1.6-4.6c1.3-1.5,2.7-3,3.6-4.9c0.9-1.8,2.6-3.2,2.6-5.3C777.8,120.4,779.2,121.6,779.8,120L779.8,120z"/>
	<path fill="#FFFFFF" d="M425.7,391.8c-1.1-6.7-2.6-13.3-3.1-20.1c-0.1-0.9,0-1.8,0.7-2.7c1.4-1.8,1.8-4.1,2.7-6.1
		c1.4-0.9,2.9-0.8,4.2-0.5c3.3-2.1-1.3-5.5,1.7-7.9c0.6,1.9,0.3,4,2.1,5c0.6,0.4,1.2,0.4,1.9-0.3c0.4-2.1-1-4.1-0.7-6.6
		c2.5-2.1,5.3-4.4,8.4-7.1c-0.5,2.3-0.9,4.1-1.4,5.8c-0.8,2.8,0.2,5.1,2.2,6.8c2.9,2.4,6,4.6,9.6,6.2c3.3,1.4,6.2,3.6,9.8,4.6
		c4.2,1.2,9.1-1.3,10.6-5.4c0.5-1.4,1.2-2.8,3.4-2.1c0,1.8,0.3,3.8-0.1,5.6c-0.5,2.4,0.3,4.1,1.8,5.8c1.4,1.5,2.3,3.3,2.2,5.5
		c-0.1,2.3,1.6,3.9,2.3,5.9c0.9,2.5,0.8,3.5-1.6,4.6c-3.8,1.9-7.7,3.6-11.5,5.4c-1,0.5-2,0.5-3.1,0.4c-4.1-0.6-8.2-1-12-2.9
		c-2.7-1.4-5.8-1-8.8-1.2c-5.5-0.5-11,0-16.6,0.6C428.9,391,427.8,392.5,425.7,391.8z"/>
	<path fill="#FFFFFF" d="M445.2,348.9c2.4-0.7,4.2-2.2,6.1-3.6c5.6,8.1,10.7,16.7,22.2,17.2c-3.4,2.5-6.6,5.6-11.3,3.2
		c-1.5-0.8-3.2-1.3-4.7-2c-2.7-1.4-5.3-3-8.2-4.1C444,357.4,443.2,355.2,445.2,348.9z"/>
	<path fill="#FFFFFF" d="M579,156.3c2,2.1,2.3,4.9,4.3,6.9c-4.8,4.4-9.6,8.7-15.4,11.6c-1.9,0.9-3.4,0.7-4.9-0.7
		c-1.2-1.2-2.5-2.3-3.6-3.9C567.1,167.3,572.8,161.6,579,156.3z"/>
	<path fill="#FFFFFF" d="M749.8,193c-5,1.5-8.3,5.1-12.1,8.1c-6-2.8-11.4-6.9-18.4-8.4C732.4,189,744.5,189,749.8,193z"/>
	<path fill="#FFFFFF" d="M793.8,204.1c5.4,2.3,10.8,4.4,15.3,8.2c2.5,2,5.3,3.5,7.9,5.3c1.8,1.2,2.9,2.5,3.2,4.4
		c0.4,3.3,1.7,6.3,2.6,9.5c0.4,1.3,0.7,2.7,0.3,4.1c-0.9-0.6-1.2-1.5-1.5-2.4c-2.5-7.7-6.9-14.2-12.9-19.4
		c-3.2-2.7-6.5-5.8-11.1-6.2C795.5,207.3,795,205.3,793.8,204.1z"/>
	<path fill="#FFFFFF" d="M613.3,127.5c-2.4-2-1.8-5.5-4.4-7.1c1-2.4,2.2-4.6,2.6-7.2C617.6,118.5,618,119.8,613.3,127.5z"/>
	<path fill="#FFFFFF" d="M448.1,341.1c2.3,0.2,2.1-1.8,2.4-3.1c0.4-2,0.6-4,1.5-5.8c0.5-1,0.9-2.1,2.4-3c0.1,1.8-0.1,3.4,0.5,5
		c0.6,1.5,1.8,2.6,2.8,3.9c-1.6,1.7-3.5,3.1-5.6,3.5c-2.4,0.4-2.9,3-5.2,3.5C446.8,343.6,448.3,342.5,448.1,341.1L448.1,341.1z"/>
	<path fill="#FFFFFF" d="M645.1,168c10.2,2,19.8,4.5,29.2,9.2c-2.2,0.4-3.5-0.8-5-1.1c-6.2-1.6-12.3-3.3-18.5-4.9
		C648.8,170.6,647,169.7,645.1,168z"/>
	<path fill="#FFFFFF" d="M448.2,341c-2.6,0.2-4.6,1.6-6.8,3.3c0-1.5,0-2.6,0-3.7c3.1-2,4.6-5.2,5.7-8.6c0.6-1.6,2.1-2.2,4.1-3.3
		C448.7,332.8,447,336.6,448.2,341L448.2,341z"/>
	<path fill="#FFFFFF" d="M609.8,112.1c0.4,3.4-1,5.6-2.3,7.9c-1.8-0.4-3.6-0.7-5.7-1.1c1.9-2.3,4.3-3.5,6.5-4.9
		c-4.1-0.3-6.3,3.8-10.1,4.3C601.6,115.6,604.7,112.4,609.8,112.1z"/>
	<path fill="#FFFFFF" d="M765.5,194.3c-0.3,1.1-0.6,2-0.9,3.1c-4.8,2-10.3,2-14.9,4.6C754,197.7,758.9,194.6,765.5,194.3z"/>
	<path fill="#FFFFFF" d="M433.3,347c5.9,0.6,3.2-3.7,3.8-6.3c1,1.6,0.4,4,3.3,4.3c-3.6,3.2-7.1,5.9-10.7,9.6
		C430.6,351.5,432.2,349.5,433.3,347z"/>
	<path fill="#FFFFFF" d="M573,132.8c1.1,1,2.2,2,3.5,3.1c-0.9,1.4-2.4,2.6-1.6,4.9c-1.8-0.5-2.6-1.7-3.8-2.3
		C570.5,136.1,570.4,134,573,132.8z"/>
	<path fill="#FFFFFF" d="M573.7,142.4c-1.1,1.1-2.4,2-2.6,3.6c-2.6-0.6-3.5-2.2-3.2-4.5c0.6-1.1,1.7-1.3,2.5-2
		C571.7,140.1,572.7,141.2,573.7,142.4z"/>
	<path fill="#FFFFFF" d="M599.5,126.3c-0.1,0.4-0.1,0.8-0.2,1.3c-2.5,0.2-4.4-1.8-6.9-1.9c1.3-1,2.5-2.1,4-3.3
		C597.3,124,598.1,125.5,599.5,126.3L599.5,126.3z"/>
	<path fill="#FFFFFF" d="M779.8,119.9c-5.1-1.4-10.5-6.8-10.7-11.1c1.7,3.8,4.4,6.1,7.6,8.1C777.9,117.6,778.7,118.9,779.8,119.9
		L779.8,119.9z"/>
	<path fill="#FFFFFF" d="M714,346.8c-0.4-2,0.8-3.1,2.2-4.3c1.2,1.7-1,2.7-0.8,3.6c0.5,2,1.9,1.2,2.8,1.7c-0.2,0.7-0.5,1.4-0.8,2.2
		C715.9,349.1,715.5,347.3,714,346.8L714,346.8z"/>
	<path fill="#FFFFFF" d="M824.9,128c0.5,1.4,0.6,2.2,0.5,3.4c-1.1-0.6-2.3,0-3.7-0.3C822.5,129.4,824.1,129.4,824.9,128z"/>
	<path fill="#FFFFFF" d="M760.3,251.8c-1.7,1-3.5,1.2-5.5,0.5C756.6,251.6,758.5,251.7,760.3,251.8z"/>
	<path fill="#FFFFFF" d="M707.7,329.1c1.4,1.4,2.2,2.9,3,4.7C708.1,332.4,707.8,332,707.7,329.1z"/>
	<path fill="#FFFFFF" d="M785.6,119.5c2,0,2.9,0.4,5.3,2.4C788.6,121.7,788.4,121.7,785.6,119.5z"/>
	<path fill="#FFFFFF" d="M798.4,137.3c-1-1.5-1.9-3-2.9-4.5C797.2,133.7,798.8,134.8,798.4,137.3z"/>
	<path fill="#FFFFFF" d="M816.5,131.4c-1.3-0.3-1.7-1-2-1.7c0.2-0.8,1.1-0.9,1.6-1.8C816.8,129.2,817.5,130.1,816.5,131.4z"/>
	<path fill="#FFFFFF" d="M596.2,120.3c-0.7,1.8-2.2,2.6-3.9,3.1C593.3,122.1,594.4,120.8,596.2,120.3z"/>
	<path fill="#FFFFFF" d="M806.3,125c-1.3,0.5-2.5,2-4.7,0.6C803.5,125.1,804.8,124.4,806.3,125z"/>
	<path fill="#FFFFFF" d="M785.4,109c-0.3,1-1,1.8-1.7,2.6c-1.4-0.6-1.9-1.5-1.1-3C783.6,109,784.5,109.6,785.4,109L785.4,109z"/>
	<path fill="#FFFFFF" d="M793.5,125.5c1.3,0.9,1.8,2.3,2.4,3.7C794.4,128.5,793.9,127,793.5,125.5z"/>
	<path fill="#FFFFFF" d="M591.9,121.8c0.2-1.9,0.7-2.7,2.3-3C594.1,120.4,593,120.8,591.9,121.8z"/>
	<path fill="#FFFFFF" d="M831.1,149.8c1.3,1,1.4,1.9,0.9,3C830.7,151.8,830.7,151.8,831.1,149.8z"/>
	<path fill="#FFFFFF" d="M785.5,109.1c0-0.7,0.3-1.2,0.9-1.6c0.8,0,1.5,0.4,2.4,1.3C787.5,108.9,786.5,109,785.5,109.1L785.5,109.1z
		"/>
	<path fill="#FFFFFF" d="M814.1,175.2c0.5-2,1.7-2.1,2.7-2.4C816.5,173.8,815.8,174.5,814.1,175.2z"/>
	<path fill="#FFFFFF" d="M589.9,124.4c0.3,0.1,0.5,0.2,0.9,0.3c-0.4,1.5-1.3,1.8-2.6,1.1C588.5,124.8,590.3,125.9,589.9,124.4
		L589.9,124.4z"/>
	<path fill="#FFFFFF" d="M707.1,191c-1.8,1.6-2.3,0.2-3.2-0.2C705.1,189.8,705.6,191.2,707.1,191z"/>
	<path fill="#FFFFFF" d="M798.2,109.3c0.7-0.3,1.2,0,1.5,0.6c-0.2,0.4-0.4,0.7-0.9,0.8C798.1,110.5,798.1,110,798.2,109.3z"/>
	<path fill="#FFFFFF" d="M831.9,156.4c1.1,0.8,0.8,1.5,0.1,2.3C831.4,157.9,831.4,157.3,831.9,156.4z"/>
	<path fill="#FFFFFF" d="M826.6,165.6c0.5,0.9,0.3,1.5-0.6,2C825.8,166.8,825.5,166,826.6,165.6z"/>
	<path fill="#FFFFFF" d="M820.4,169.5c0.3-0.8,0.3-1.5,1.1-1.7C822.2,169.1,821.4,169.2,820.4,169.5z"/>
	<path fill="#FFFFFF" d="M778.8,105.5c-1.2,0-1.1-0.7-1.6-1.4C778.7,103.9,778.7,104.7,778.8,105.5z"/>
	<path fill="#FFFFFF" d="M827.7,118.9c0.7,0.2,1.4,0.4,1,1.4c-0.8,0.2-1-0.4-1.3-0.9C827.5,119.2,827.6,119,827.7,118.9z"/>
	<path fill="#FFFFFF" d="M831.1,126.4c0.5,0.6,0.9,1.1,0.1,1.7C830.2,127.8,830.2,127.3,831.1,126.4z"/>
	<path fill="#FFFFFF" d="M801,143.6c-0.9-0.4-1.1-0.9-0.7-1.6C801,142.3,801.4,142.6,801,143.6z"/>
	<path fill="#FFFFFF" d="M824.3,146.6c-0.5,1.2-1.3,1.4-2.5,1C822.4,146.1,823.6,147.1,824.3,146.6L824.3,146.6z"/>
	<path fill="#FFFFFF" d="M818.2,155c-0.8,0.8-1.4,0.9-2,0.1C816.7,154.2,817.2,154.2,818.2,155z"/>
	<path fill="#FFFFFF" d="M808.1,149.4c-0.6-0.2-0.8-0.6-0.3-1.1C808.5,148.5,808.4,148.9,808.1,149.4z"/>
	<path fill="#FFFFFF" d="M831.8,132.9c0.4,1.1,0.7,1.6,0.1,2.3C831.1,134.5,831.4,133.9,831.8,132.9z"/>
	<path fill="#FFFFFF" d="M824.4,146.7c0.6-0.3,0.8-1,1.6-1C826,147.2,825,146.5,824.4,146.7L824.4,146.7z"/>
	<path fill="#FFFFFF" d="M810.2,144.9c-0.5-0.3-0.7-0.8-0.1-1.2c0.1-0.1,0.7,0.1,0.7,0.3C811,144.5,810.7,144.8,810.2,144.9z"/>
	<path fill="#FFFFFF" d="M806.2,139.8c1.1,0.2,1.1,0.8,0.8,1.4C806.2,141.2,806,140.7,806.2,139.8z"/>
	<path fill="#FFFFFF" d="M824.1,152.3c0.5,0.7,0,1.1-0.5,1.5C823.4,152.9,823.4,152.9,824.1,152.3z"/>
	<path fill="#FFFFFF" d="M790.4,110c0.8-0.1,1,0.2,1.1,0.7C790.8,111.2,790.6,110.8,790.4,110z"/>
	<path fill="#FFFFFF" d="M835.1,136.3c0.9,0.8,0.7,1.2,0.6,1.7C835,137.7,835,137.3,835.1,136.3z"/>
	<path fill="#FFFFFF" d="M797,123.8c0-0.7,0.4-1.1,1.3-1.2C798.3,123.6,797.7,123.7,797,123.8L797,123.8z"/>
	<path fill="#FFFFFF" d="M789.5,123.7c-1.2,0.6-1.3,0.2-1.6-0.1C788.6,123,788.5,123.9,789.5,123.7z"/>
	<path fill="#FFFFFF" d="M797,123.7c-0.2,0.7-0.3,1.4-1.4,1.1C795.6,123.7,796.3,123.8,797,123.7L797,123.7z"/>
	<path fill="#FFFFFF" d="M810.4,156.6c-0.2,0.4-0.6,0.5-1,0.3C809.6,156.3,809.9,156.3,810.4,156.6z"/>
	<path fill="#FFFFFF" d="M581.8,525.4c0.3,1.6,1.8,1.6,2.9,2.1c6.4,2.9,13.2,4.8,19.4,8.1c1.6,0.9,2.4,1.9,2.5,3.7
		c0.3,3.8,0.4,7.6,0.1,11.9c-5.2-3.2-10.3-5.4-15.3-8c-6.6-3.3-13.6-5-20.8-5.8c-6.4-0.7-12.7,0.4-17.1,6.1
		c-0.6,0.8-1.5,1.5-2.4,2.1c-2.3,1.9-4.7,3.6-5.9,6.5c-0.7,1.6-2.2,2.6-3.7,3.9c2.1,0.5,4.1-0.3,5.1-2.6c1.8-4.1,5.2-6.3,8.8-8.4
		c0.8-0.5,1.2-1,1.6-1.8c1.4-2.7,3.9-3.5,6.8-3.8c13.7-1,25.5,4.6,37.1,10.7c1.3,0.7,2.6,1.4,3.9,2.1c1.1,0.5,2,1.2,2,2.5
		c3.1-0.7,4.7,1.8,6.9,2.8c-0.6,11.9-11.2,39.5-17.8,46.4c-1.3-0.2-2.2-1.5-3.9-1.4c0.5,1.5,2.1,1.8,3.1,2.9
		c-1.2,1.4-2.3,2.8-3.7,4.3c-3.3-3.8-6.5-7.5-10.2-10.8c-2.7-2.5-5.8-4.5-7.8-7.9c-1.3-2.2-3.7-3.1-6.1-3.7
		c-1.6,0.9-2.2,2.2-2.5,3.9c-1.9,9.9-7.2,17.3-15.7,22.9c-7.3,4.8-14.9,8.5-23.2,11.1c-0.9,0.3-2.1,0.4-2.8,1.7
		c3.7-0.5,7-2.2,10.4-2.9c-2.5,1.8-5.4,2.7-8.4,3.4c-5,1.2-9.8,3.6-15.1,3.9c-0.5,0-1,0.3-1.5,0.6c-5.7,2.7-11.5,5-17.4,7.2
		c-4.3,1.6-8.3,3.9-12.4,5.8c-1.5,0.7-2.5,2-3.5,3.2c-3.3,3.9-7.4,4.1-11.2,0.6c2-4.5,7.8-5.6,9.7-10.7c-2.1-0.1-3.4,0.9-3.9,2.1
		c-0.9,2.2-2.7,3-4.6,4c-1.3,0.7-2.5,1.7-3.9,2.7c-3.9-2.8-6.9-6.6-9.4-10.8c0.2-1.5,1.2-2.2,2.4-2.8c10.7-5.5,19.8-13.3,29.1-20.7
		c3-2.4,5.3-5.5,7.9-8.3c6.4-6.9,13.1-13.4,20.9-18.7c2.1-1.5,4-3.2,5.6-5.2c1-1.3,2.3-2.5,3.6-3.6c5.7-5.1,11.8-9.8,16.7-15.7
		c2.9,0.4,5.1-0.7,7.5-2.4c-1.8-0.5-3,0.4-4.4,0.6c-0.8-0.6,0.9-1.2-0.3-1.9c-2.7,2.1-5.6,4-8.1,6.4c-3.1,2.9-6.3,5.7-9.6,8.5
		c-12.4,10.7-25,21.2-36.3,33c-8.4,8.7-18,15.4-27.8,22.4c-0.7-1-1.4-1.8-2-2.6c-0.5-0.7-0.7-1.5-1.2-2.5c3-2.7,5.8-5.7,9.1-7.9
		c3.9-2.6,7.5-5.6,11-8.7c5.9-5.1,11.8-10.1,17.9-14.9c3.8-3,7.3-6.2,10.2-10.1c5.4-7.1,13.1-11.8,18.5-18.6c1,0,0.5,1.1,1.3,0.9
		c4.7-3.8,7.2-9.3,11-13.9c2.6-3.2,5.6-5.9,10-6.6c0.7-0.1,1.5-0.3,2-0.9c-0.7-0.9-1.9,0-2.7-0.7c1.3-2.9,3.2-5.5,5.5-7.7
		c1.6-1.6,2.4-3.7,3.9-5.4c3.9-4.6,12-6.3,17.8-3.6c-1.8,1.1-4.1,1-6,2.7c2.4,0.5,4.3-0.1,5.7-1c2.3-1.6,4.6-0.9,7-0.7
		C579.5,525.5,580.7,525.9,581.8,525.4L581.8,525.4z"/>
	<path fill="#FFFFFF" d="M704.7,576.4c-2.6-1.9-3.7-5.3-7.3-6.1c-3.3-0.8-6.4-2-10-3.2c2.6-6.7,5.4-13.1,9.1-19.2
		c3.7,2.8,7.2,5.5,10.7,8.2c5.1,3.9,10.5,7.3,15.4,11.3c4,3.2,8.1,5.6,13.4,6.1c4.6,0.4,9,2.6,13.7,2.7c3.8,0.1,7.2,1.5,10.7,2.6
		c3.7,1.2,7.3,1.1,10.8-0.9c0.4-0.3,1-0.4,1.5-0.6c0.1,0,0.2,0,0.6,0.1c0.1,4,1.6,7.6,3.9,10.9c2.4,3.5,5.5,5.5,9.6,4.9
		c1.3,0.6,0.6,2,1.4,2.7c1.6-0.1,0.9-2,2.2-2.7c2.8,0,5.8,0,8.9,0c-3.5,2.3-5.6,5.9-8.4,8.9c-3,3.3-6.2,6.4-9.8,9.1
		c-8.7,6.5-17,13.6-26.5,18.9c-7.6,4.3-14.7,9.3-22.2,13.8c-2,1.2-4,2.5-6.9,2.9c-3.8-10.9-11.3-19.8-17.7-29c0.2-0.6,0.2-0.9,0.3-1
		c3.4-3.9,3.2-6.1-1-9.1c-7.3-5.1-13.4-11.4-18.8-18.4c-2.4-3.1-5.3-5.9-7.8-8.8c-0.9-1-2.1-1.3-3.2-1.9v0.1
		c1.2-0.4,2.2-1.3,3.1-2.2c8.7,3.4,17.2,7,25.1,11.8c-7.4-6.2-16.1-9.8-25-13.4c0.4-3.1,3-3.4,5.5-4.2c4.3,3.1,9.4,4.8,14.5,6.4
		c-4.7-3-10.4-4.1-14.7-7.9c-0.2-0.1,0-0.6,0-1.2c5.6,1.2,11.1,1.9,15.3,6.2c1,1.1,2.2,2,3.6,2.6c0.9,0.1,1.5,0.8,2.3,1.2
		c5.4,3.4,11,6.8,16.2,10.6c0.7,0.5,1.4,1,1.9,1.5c-0.1,0,0,0-0.1,0c-0.6-0.6-1.2-1-1.8-1.4c-5.2-3.8-10.7-7.2-16.2-10.6
		C706,577.5,705,577.3,704.7,576.4z"/>
	<path fill="#FFFFFF" d="M629,451.2c1.3-2.2,2-4.6,3.7-6.8c2.3,0,4.3,1.2,6.6,2.1c-1.1,3.1-0.5,6.1,1.2,8.5c2.4,3.5,3.3,7,2.1,11
		l-0.2,0.1l0.2-0.2c2.1-1.6,2.8-4.5,1.6-7c-0.5-1.1-1.4-2.2-1.7-3.7c8.1-3.4,16.4-3.8,24.8-1.8c8.6,2.1,15.4,7,20.3,14.9
		c-0.2-2.7-2.8-7.1-5.4-9.2c-8.8-6.9-18.7-9.8-29.9-8.4c-3.2,0.4-6.3,1.1-9.3,2.2c-1.1,0.4-2.1,0.8-2.3-1.2c5.3-2.9,11-4.1,17-4
		c24.6,0.4,39.8,20.6,37.7,42.8c-0.3,2.9-2.3,5.8-0.8,9.6c-6.2-2.8-11.7-3.6-17.1-2.4c-1.1,1-0.6,2.2-1.3,2.9
		c-4.6,0.7-5.5,1.7-5.2,5.4c-3.5,0.1-4.4,1-5.1,5.4c-5.1,2.3-5.5,8.6-0.7,13c1.5,1.4,2.9,2.8,4.1,4.5c-10.2,6.8-28.2,6-39.9-2.8
		c-15.1-11.4-19.1-32.4-12.4-48.3c2.4,0.3,1.9,1.8,1.5,3.5c-2.7,9.8-2,19.4,1.7,28.8c2.3,5.9,5.3,9.6,10.8,13.2
		c-12.2-12.6-14.5-27.3-10.2-43.4c1.6-0.6,2.7,0.4,3.8,0.2c1.1-0.1,2.4-0.1,3.1-1.6c-1.7-0.5-3.2,0.2-4.9-0.1
		c-2.8-0.7-5.1-1.9-6.9-4.2c-0.5-0.7-1.1-1.3-1.6-2c-3.7-4.4-3.9-6.4-0.7-11.1c0.2-0.2,0.2-0.6,0.2-0.9l-0.1,0.1
		c0.5,0.9,1,1.7,1.8,3.2c0.4-3.5-0.8-7.5,4.1-8.2c1.5,2.4,1.9,5.3,4.4,6.9c3.1,4.5,7.6,7.6,11.8,11.1c0,2.6-2.3,4.6-4.8,4.1
		c-3.3-0.6-6-2.1-8-4.8c-1.1-1.5-2.5-2.8-4.1-4c1.5,1.2,2.9,2.5,4.1,4c1.5,1.8,3.2,3.3,5.5,4.2c3.9,1.5,6.4,0.5,8-3.6
		c0.9-0.5,1.9,0.2,2.7-0.4c-1.9,0.5-4,0.3-5.5-1.1c-3.3-3.1-7.3-5.5-9.8-9.4c-0.2-2.2-1.7-3.9-2.5-5.8c-0.4-1-0.7-1.9-0.8-3
		c-0.1-2-0.2-4,2-4.9c2.1-0.9,3.9,0.3,5.7,1.2C628.8,449.7,628.8,450.7,629,451.2c-0.6,1.7,0.8,2.6,1.5,3.7c1.3,2.1,3,3.8,4.1,5.2
		C633,457.5,629.3,455.4,629,451.2z"/>
	<path fill="#FFFFFF" d="M424.6,683c-1.1-6.7-2.7-13.4-3.2-20.3c-0.1-1,0.2-1.8,0.8-2.6c1.4-1.8,1.7-4.1,2.6-6.1
		c1.4-0.5,2.8-0.8,4.2-0.3c2.6-2.2,0.1-4.4,0.4-6.7c0.2-0.4,0.7-0.8,1.4-0.9c0.8,4.3,1,4.6,3.8,4.6c0.6-2.3-1-4.5-0.6-6.9
		c2.7-2.2,5.4-4.5,8.5-7.1c-0.6,2.2-0.9,3.8-1.4,5.4c-1.1,3.5,0.5,6.1,3.1,8c2.9,2.1,5.8,4.1,9.2,5.6c3.2,1.4,6.1,3.5,9.5,4.4
		c3.9,1.1,9-1.6,10.4-5.4c0.5-1.4,1.2-2.8,3.4-2.2c0.4,1.9,0.3,4-0.1,5.9c-0.4,2.2,0.2,3.7,1.6,5.2c1.6,1.7,2.6,3.6,2.4,6
		c-0.1,2.1,1.5,3.5,2.2,5.2c1.2,3,1,3.8-1.9,5.3c-3.5,1.7-7.1,3.4-10.7,5c-1.1,0.5-2.2,0.7-3.4,0.6c-4.1-0.6-8.2-0.9-12-2.9
		c-2.3-1.2-5-0.9-7.5-1.1c-6.1-0.7-12.1-0.1-18.2,0.5C427.7,682.3,426.7,683.6,424.6,683z"/>
	<path fill="#FFFFFF" d="M444.1,640.1c2.2-0.6,4.1-2.1,6-3.5c1.1,0.7,1.4,1.8,1.9,2.7c2.8,5.2,7.3,8.8,11.8,12.3
		c2.4,1.9,5.5,1.1,8.2,1.9c-1.8,3-6.4,4.8-9.6,3.8c-2-0.6-4-1.3-5.9-2.3c-2.8-1.5-5.5-3.1-8.5-4.3
		C442.7,648.5,442,646.4,444.1,640.1z"/>
	<path fill="#FFFFFF" d="M810.5,577.3c1.6-0.4,2.9,1.1,4.7,1.2c-4.2,4-8.4,8-12.7,12c-0.5,0.4-1.1,0.7-1.7,0.7
		c-3.7-0.2-7.4,0.5-11.4-0.1c0.6-2.5,1.1-4.8,1.8-7.3c2-0.2,4.1-0.4,6.2-0.4C802.6,583.2,807.5,582.1,810.5,577.3L810.5,577.3z"/>
	<path fill="#FFFFFF" d="M700.4,490.7c-0.8,0.5-1.5,0.9-2.8,0.7c0.2-10.2-1.8-19.9-8-28.8C695.8,466.4,700.9,480.1,700.4,490.7z"/>
	<path fill="#FFFFFF" d="M447,632.3c2.3,0.2,2.1-1.8,2.4-3.1c0.4-2,0.6-4,1.5-5.8c0.5-1,0.9-2.1,2.4-3c-0.3,3.6,0.5,6.6,3.3,8.8
		c-2.9,3.6-8.2,3.3-10.6,7.4C445.7,634.8,447.2,633.7,447,632.3L447,632.3z"/>
	<path fill="#FFFFFF" d="M783.3,589.6c-2.2-0.7-3.4-2.6-4.7-4.4c0.6-1.7,2.8-1.8,2.9-3.8c2.7,1,5.2,1.8,8,2.3c-1,2.5-0.1,5.5-2.7,7
		c-0.4-1.5,1.6-1.7,1.3-3.4C785.8,586.7,785.1,589.3,783.3,589.6z"/>
	<path fill="#FFFFFF" d="M447,632.2c-2.6,0.2-4.6,1.6-6.8,3.3c0-1.5,0-2.6,0-3.7c3.1-2,4.6-5.2,5.7-8.6c0.6-1.6,2.1-2.2,4.1-3.3
		C447.6,624,445.9,627.8,447,632.2L447,632.2z"/>
	<path fill="#FFFFFF" d="M428.5,645c1.2-2.2,2.3-4.4,3.6-6.7c5.3,0.4,4.2-3.1,3.5-6.5c1.4,1.7,0.8,4.1,3.6,4.5
		C435.6,639.4,432.1,642.2,428.5,645z"/>
	<path fill="#FFFFFF" d="M671.6,532.2c-4.7,2.9-11.5,4-18.9,3.3c3.8-0.4,6.9-1,10.1-1.5C665.8,533.4,668.4,530.8,671.6,532.2z"/>
	<path fill="#FFFFFF" d="M833.3,430.6c0.5,0.6,1.1,1.2,1.6,1.7c-0.3,0.7-1.1,0.2-1.3,1c0.3,1.1,0.6,2.3,0.9,3.5
		c-0.2,0.2-0.3,0.4-0.5,0.5c-1.4-2.8-2.9-5.5-6.4-4.5c-0.7-0.9-0.9-1.8-0.2-2.8c1.4-0.1,1.6,1.6,3,1.9
		C831.3,432,832.1,430.8,833.3,430.6z"/>
	<path fill="#FFFFFF" d="M717.2,637.1c-2,1.3-1.4,3.5-1.4,5.6c-3.8-4-3.9-5.7-0.3-7.9C716.3,635.2,716.7,636.1,717.2,637.1z"/>
	<path fill="#FFFFFF" d="M821.3,461.7c1.6,2.7,1.2,3.3-4.1,5.3c2-1.5,1.7-2.9,1.1-4.2C819.3,462.1,820.2,461.6,821.3,461.7z"/>
	<path fill="#FFFFFF" d="M719.5,649c-1-0.8-1.5-1.5-1.4-2.6c0.9-0.8,1.9-1.7,3-2.7C723.1,646.4,720.1,647.1,719.5,649z"/>
	<path fill="#FFFFFF" d="M645.8,447.6c-1.5,0.9-2.8,1.3-4.3,1.6c-0.8-1-0.4-2-0.1-3C643.3,445,644.6,445.7,645.8,447.6z"/>
	<path fill="#FFFFFF" d="M777.6,583.3c-1.1-1.4-1.5-2.7-1.7-4.7c1.6,0.7,3,1.4,4.5,2C779.7,581.9,778.7,582.6,777.6,583.3z"/>
	<path fill="#FFFFFF" d="M818.9,425c0.9,2,2.7,3.8,2,6.9C819.3,429.4,818.6,427.4,818.9,425z"/>
	<path fill="#FFFFFF" d="M784.8,401.7c-0.9,1-1.1,2.1-2.2,2.3c-1.1-1-0.4-2.3-0.8-3.6C783.1,400.2,783.6,401.3,784.8,401.7z"/>
	<path fill="#FFFFFF" d="M677.7,572.8c-0.8,1.9-0.5,3.9-0.8,5.9v-0.1c-0.5-0.5-1-1-1.6-1.7c0.1-1,1.7-2.1,0.1-3
		C676.1,572.8,676.9,572.9,677.7,572.8L677.7,572.8z"/>
	<path fill="#FFFFFF" d="M806.4,408.6c1.7,0.1,2.1,1,2.7,1.5c0.1,1.1-0.2,1.9-0.9,3C807.6,411.5,807.1,410.2,806.4,408.6z"/>
	<path fill="#FFFFFF" d="M646.3,445.6c2,0.3,3.6-1.1,5.4,1C649.8,446.7,648.3,447.8,646.3,445.6z"/>
	<path fill="#FFFFFF" d="M823.1,451.2c0.6-1.6,1-3.2,1.1-5.3C825.8,447.8,825.7,448.1,823.1,451.2z"/>
	<path fill="#FFFFFF" d="M799.9,416.9c-1.6,0.7-3.1,0.5-5.3-0.3C796.9,416.2,798.4,416.3,799.9,416.9z"/>
	<path fill="#FFFFFF" d="M698.5,502.5c-0.9-0.7-2.5-0.6-2.8-2.4C697.3,500.4,698.5,500.7,698.5,502.5z"/>
	<path fill="#FFFFFF" d="M820.4,448.4c-0.9-1.4-1.4-2.2-1.9-3C820.4,445.7,820.4,445.7,820.4,448.4z"/>
	<path fill="#FFFFFF" d="M812.7,437.8c-0.3-1.1-1.9-2.5,0.6-3.2C814.1,436,812.8,436.9,812.7,437.8z"/>
	<path fill="#FFFFFF" d="M776,434.7c-1.3-0.4-3.2,0-3.3-2.6C774.1,433.2,775.1,433.9,776,434.7z"/>
	<path fill="#FFFFFF" d="M793.1,400.6c-1.2-1.2-2-2.3,0-3.4C793.1,398.5,793.1,399.5,793.1,400.6z"/>
	<path fill="#FFFFFF" d="M816.1,447.4c-0.5-1.2-1.7-2-0.2-3.4C816.8,445,817.5,445.9,816.1,447.4z"/>
	<path fill="#FFFFFF" d="M825.1,421.2c-1,0-1.3-0.4-1.4-1c-0.2-0.6-0.4-1.2,0-1.8C824.7,419.1,825.1,419.9,825.1,421.2z"/>
	<path fill="#FFFFFF" d="M811.5,454.9c1,1,0.7,1.7,0.8,2.4c-0.8,0.1-1-0.3-1-0.8C811.3,456.1,811.4,455.7,811.5,454.9z"/>
	<path fill="#FFFFFF" d="M713.1,634.6c-0.6-1.2-0.5-2,0.4-2.8C715.1,632.9,714.5,633.7,713.1,634.6z"/>
	<path fill="#FFFFFF" d="M804.8,417.6c-0.7,0.9-1.3,0.6-2.4,0.4C803.2,417.3,803.7,416.7,804.8,417.6z"/>
	<path fill="#FFFFFF" d="M802.6,416.1c-0.9-0.6-0.9-1-0.2-1.5C803,414.9,802.9,415.3,802.6,416.1z"/>
	<path fill="#FFFFFF" d="M800.6,411.7c-1.1-0.3-0.9-1-1.2-1.7C800.5,410.3,800.9,410.7,800.6,411.7z"/>
	<path fill="#FFFFFF" d="M790,413.7c-1.1,0.7-1.5,0.7-1.9,0.2C788.4,412.8,788.9,413.4,790,413.7z"/>
	<path fill="#FFFFFF" d="M709.3,625.6c-0.6-0.5-1.2-0.8-0.6-1.5C709.5,624.2,709.7,624.7,709.3,625.6z"/>
	<path fill="#FFFFFF" d="M811.3,459.7c0.6,0.4,0.5,0.8,0,1.2C810.3,460.5,810.6,460.1,811.3,459.7z"/>
	<path fill="#FFFFFF" d="M817.2,442.2c-0.7-0.8-0.5-1.2,0-1.6C817.7,441.1,817.5,441.5,817.2,442.2z"/>
	<path fill="#FFFFFF" d="M823.4,427.5c-0.4-0.4-0.4-0.7,0-1.1C824.1,426.8,824,427.1,823.4,427.5z"/>
	<path fill="#FFFFFF" d="M822.5,446.1c0,0.4,0,0.8-0.1,1.1h-0.1c0-0.4,0-0.8,0-1.1C822.3,446.1,822.4,446.1,822.5,446.1z"/>
	<path fill="#FFFFFF" d="M719.1,642.1c-0.5-0.6,0.1-0.8,0.3-1.2c0.7,0.1,0.6,0.5,0.5,0.8C719.7,642,719.4,642.2,719.1,642.1z"/>
	<path fill="#FFFFFF" d="M831.9,424.3c0.2-0.7,0.8-0.7,1.2-0.8c0.5,0.7,0.1,0.9-0.3,1C832.5,424.5,832.2,424.4,831.9,424.3z"/>
	<path fill="#FFFFFF" d="M815.6,411.4c0.6-0.8,0.9-0.5,1.3-0.1C816.6,411.9,816.2,411.8,815.6,411.4z"/>
	<path fill="#FFFFFF" d="M615.4,475.6c-0.4,0-0.7-0.1-0.7-0.6C615.1,475,615.4,475.2,615.4,475.6z"/>
	<path fill="#FFFFFF" d="M801.1,406.3c0.6,0.3,0.9,0.4,0.8,1C801.2,407.6,801,407.2,801.1,406.3z"/>
	<path fill="#FFFFFF" d="M710.5,626.7c0.3,0.3,0.9,0.6,0.6,1.2C710.3,627.8,710.1,627.4,710.5,626.7z"/>
	<path fill="#FFFFFF" d="M826.1,460.7c-0.2,0.1-0.4,0.1-0.6,0.2c-0.1-0.2-0.2-0.4-0.1-0.5c0.1-0.1,0.3-0.1,0.5-0.2
		C826,460.3,826.1,460.5,826.1,460.7z"/>
	<path d="M566.5,238.4c-1.7,3.1-4.5,4.4-7.1,5.8c-0.9,0.5-1.6,0-2-0.9C559,239,563.1,236.6,566.5,238.4z"/>
	<path d="M568.6,294.1c1.3-1.4,2.3-2.1,3.5-1.5c3.7,1.8,6.8,4.3,9.3,8.5C576.3,299.6,573.3,295.7,568.6,294.1z"/>
	<path d="M534.9,302c4.4-5.6,9.7-10.2,16.1-14.2c-0.4,0.9-0.2,0.3,0,0.7c0,0.1,0.1,0.3,0,0.3C545.5,293,539.9,297.1,534.9,302z"/>
	<path d="M531.1,307.1c-3.5,4.1-8.1,7.1-11.7,11.8C520.2,314.9,524.7,310.4,531.1,307.1z"/>
	<path d="M577,251.1c-2.2,2-5,1.6-7.6,2.1C571.6,251.3,574.1,250.7,577,251.1z"/>
	<path d="M556.5,264.9c-2.6,0.9-5.4,1.1-8.2,3.1C549.3,265.5,549.3,265.5,556.5,264.9z"/>
	<path d="M566.7,255.4c-0.1,1.6-1.3,2.2-1.8,3.2C564.5,256.5,564.5,256.5,566.7,255.4z"/>
	<path d="M519.5,320.7c-0.3,1.7-1.1,2.9-3,4.2C517.2,322.8,517.8,321.3,519.5,320.7z"/>
	<path d="M479,343.9c-0.7,1.3-1.6,2-3,2.4C476.9,344.6,476.9,344.6,479,343.9z"/>
	<path d="M552.7,287.3c0.6-1.5,1.5-1.6,2.8-1.7C554.8,286.6,554.2,287.3,552.7,287.3z"/>
	<path d="M486.3,340.6c0.6-1.7,1.4-2.3,3-2.8C488.6,339.2,487.6,339.7,486.3,340.6z"/>
	<path d="M584,304c-0.8-0.4-1.7-0.5-1.6-1.7C583.6,302.3,584.2,302.7,584,304z"/>
	<path d="M458.9,345.7c-0.4,0.6-0.6,1.2-1.5,1.1C457.5,346,457.9,345.5,458.9,345.7z"/>
	<path d="M588.7,307.6c-1.1,0-1.2-0.7-1.7-1.7C588.3,306.3,588.7,306.7,588.7,307.6z"/>
	<path d="M510.5,330.2c-0.3,1-0.6,1.5-1.4,1.5C508.9,330.8,509.5,330.5,510.5,330.2z"/>
	<path d="M513.4,328.2c0.4-0.9,0.6-1.5,1.4-1.3C515,327.8,514.4,328,513.4,328.2z"/>
	<path d="M548.4,274.2c-0.4,0.4-0.8,0.3-1.2,0.1C547.6,273.7,548,274,548.4,274.2z"/>
	<path d="M755.1,289.6c0.4-1.3-0.2-3,1.5-4.6c1,2.8,1,5.2,0.7,7.7c-0.8,0.3-0.9-0.5-1.8-0.6c-1.4,1.3-3.3,2.5-5.8,3
		C751,292.6,753.5,291.5,755.1,289.6z"/>
	<path d="M723.1,323.1c-1.5,0.7-3.1,1.3-4.5,2s-2.7,1.7-4.2,1.9c-1.1-0.6-1.1-1.3-0.5-2.2C715.2,323,719.1,322.1,723.1,323.1z"/>
	<path d="M757.9,294.8c0.2,2.9,2,5.4,1.9,8.6C757.7,301.8,756.6,297,757.9,294.8z"/>
	<path d="M698,288.4c-2.5-2.4-5-4.7-7.5-7.1c0.1-0.2,0.3-0.3,0.4-0.5c3.1,1.7,5,4.6,7.5,7C698.4,288,698.2,288.2,698,288.4z"/>
	<path d="M724.3,322.9c1.5-2.3,2.5-2.5,5.5-0.6C727.9,322.6,726.2,323.6,724.3,322.9z"/>
	<path d="M718.4,313.8c-1.7-1.4-2.8-3.2-4-5c0.2-0.2,0.4-0.3,0.6-0.5c1.3,1.7,2.6,3.4,3.9,5.1C718.8,313.5,718.6,313.6,718.4,313.8z
		"/>
	<path d="M699.1,283.7c-2.2-1.1-4.4-2.3-6.3-3.9l0.2-0.2c2.4,0.8,4.5,2.2,6.4,3.8C699.2,283.5,699.1,283.6,699.1,283.7z"/>
	<path d="M713.7,270.5c-1.7,0.2-3.1-0.4-4.8-2C711.3,268.5,712.5,269.6,713.7,270.5z"/>
	<path d="M744.5,284.9c1.5-1,2.5-1.2,3.7-0.5C747.3,285.7,746.2,285.5,744.5,284.9z"/>
	<path d="M734.1,321.8c-1.1,0.9-1.8,0.9-2.8,0C732.2,320.8,733,320.9,734.1,321.8z"/>
	<path d="M749.1,295.7c-0.4,1.6-1.2,2.1-2.5,2.2C746.8,296.6,747.8,296.3,749.1,295.7z"/>
	<path d="M743.1,285.1c-1.1,1-1.9,1-2.7,0C741.5,284.3,742.2,284.5,743.1,285.1z"/>
	<path d="M743.8,257c-1.1,0.6-2,0.5-2.8-0.7C742.2,255.7,743.1,255.9,743.8,257z"/>
	<path d="M737.2,322.2c1.3-1,1.3-1,2.9-0.9C739.4,322.5,738.5,322.7,737.2,322.2z"/>
	<path d="M726.1,274.9c-1.1,0.3-1.8-0.2-2.5-0.7C724.4,274,725.3,273.8,726.1,274.9z"/>
	<path d="M699.3,283.4c1,0.2,1.7,0.8,2.5,2c-1.5-0.2-2.1-1-2.8-1.7C699.1,283.6,699.2,283.5,699.3,283.4z"/>
	<path d="M739.2,256.2c-1.1,0.6-1.7,0.6-2-0.3C737.9,255,738.3,255.6,739.2,256.2z"/>
	<path d="M711.5,255.9c0.1-1.1,0.3-1.6,1.1-2.1C712.8,254.8,712.7,255.4,711.5,255.9z"/>
	<path d="M743.3,321.5c0.3-1.4,0.9-1.5,1.7-1.5C745,321.1,744.3,321.3,743.3,321.5z"/>
	<path d="M742.5,300c0.2-0.7,0.7-0.6,1.2-0.8C743.8,300.3,743.4,300.5,742.5,300z"/>
	<path d="M692.7,279.8c-0.5-0.1-1.2,0-1.2-0.9c0.7-0.2,1.1,0.1,1.4,0.7L692.7,279.8z"/>
	<path d="M788.9,142.9c-1.8-0.3-3.1-0.5-4-1.7c-1.3-1.9-3.2-2.6-5.4-2.8c-1.6-0.1-3.1-0.5-4.7-0.8c-1.5-0.3-2.2-1.2-1.6-2.8
		C777.7,132.8,786,136.8,788.9,142.9z"/>
	<path d="M773.4,142.5c0.3-1.1,1.4-1.8,0.4-3.3c3.8,1,6,3.2,7.8,5.8C779.9,146.1,775.8,144.9,773.4,142.5z"/>
	<path d="M799.9,172.9c1.5,5.1-3.8,9.8-9.1,8.6C795,180.2,797.4,176.9,799.9,172.9z"/>
	<path d="M806.2,188.6c-0.9,3.5-2.4,6.4-6.2,7.6C802.2,193.8,803.6,190.8,806.2,188.6z"/>
	<path d="M788.6,184c-1.8,2.7-3.9,5-6.7,6.7C783.2,187.6,785.5,185.4,788.6,184z"/>
	<path d="M797.9,196.5c-0.8,2.2-1.6,3.6-4.3,2.9C794.6,197.7,795.8,196.9,797.9,196.5z"/>
	<path d="M794.6,163.9c-1,1.4-1.9,1.5-3.1,1.1C792.1,163.6,793,163.4,794.6,163.9z"/>
	<path d="M786.8,166.1c1.1-1,1.8-1.5,3-1C789.3,166.4,788.4,166.6,786.8,166.1z"/>
	<path d="M807.3,198.4c0.7,1.3,0.7,2.3,0.4,3.9C807,200.9,806.2,200,807.3,198.4z"/>
	<path d="M780.5,192.5c0.1,1.7-0.3,2.3-1.5,2.9C778.7,194.1,779.5,193.6,780.5,192.5z"/>
	<path d="M449.2,377.6c-5.1,0.4-5.1,0.4-7.5-2.3c-2.9,2.4-5.2,2.6-6.9,0.5c-1.3-1.6-1.1-3.8,0.5-5.1c2.1-1.7,4.5-0.9,6.6,2.1
		c1.4-2,3.3-3.1,5.7-1.9C450.6,372.5,449.3,375.1,449.2,377.6z"/>
	<path d="M427.9,369.6c1.5-0.5,2.7-0.2,3.8,0c1.8,0.3,2.5,1.7,1.7,3s-0.9,2.5-0.4,3.8c-2,0.3-1.8-1.9-2.9-2
		c-1.5-0.1-0.7,1.9-2.3,1.7C427.1,374,427.6,371.8,427.9,369.6z"/>
	<path d="M556.1,534.5c2.3-4.7,6.2-6.8,9.2-4.8c-1.4,3-4.3,4.2-6.9,5.7C557.4,535.9,556.7,535.5,556.1,534.5z"/>
	<path d="M567.5,585.2c1.3-1.5,2.4-2.1,3.9-1.3c3.4,1.9,6.5,4.2,8.7,8.1c-2.8-0.3-4.5-1.9-6.3-3.1
		C571.9,587.5,570,586.3,567.5,585.2z"/>
	<path d="M518.3,609.4c2.4-5.3,6.8-8.5,11.7-11.2C526.5,602.4,522,605.5,518.3,609.4z"/>
	<path d="M549.8,579.6c-5.4,4.4-10.9,8.8-16,13.5C538.2,587.5,543.5,582.9,549.8,579.6z"/>
	<path d="M568.3,544.3c2.2-1.8,4.7-2.6,7.6-2.1C573.7,544.2,570.8,543.8,568.3,544.3z"/>
	<path d="M547.1,558.5c2-3.9,5.8-1.4,8.2-2.9C554.7,556.4,549.8,558,547.1,558.5z"/>
	<path d="M565.5,546.1c0,2.2-1.2,2.8-2.1,4C563.1,548.3,563.6,547.2,565.5,546.1z"/>
	<path d="M518.3,611.8c0,1.8-1.2,2.8-2.5,3.7C516,613.9,516.8,612.6,518.3,611.8z"/>
	<path d="M475,637.3c0.2-1.6,1.3-2,2.9-2.4C477.3,636.5,476.2,636.9,475,637.3z"/>
	<path d="M551.7,578.5c0.4-1.6,1.6-1.4,2.4-1.6C553.6,577.8,553,578.5,551.7,578.5z"/>
	<path d="M485.2,631.8c0.6-1.7,1.4-2.3,3-2.8C487.4,630.4,486.5,630.9,485.2,631.8z"/>
	<path d="M582.8,595.2c-0.8-0.4-1.7-0.5-1.6-1.7C582.5,593.5,583.1,593.9,582.8,595.2z"/>
	<path d="M513.8,618.2c-0.1,0.7-0.5,1.1-1.5,1C512.8,618.6,512.8,617.9,513.8,618.2z"/>
	<path d="M509.5,621.3c-0.3,1-0.7,1.4-1.4,1.6C507.6,621.9,508.4,621.7,509.5,621.3z"/>
	<path d="M587.6,598.8c-1.1,0-1.2-0.7-1.7-1.7C587.1,597.4,587.6,597.9,587.6,598.8z"/>
	<path d="M456.1,638.2c0.3-1,0.7-1.3,1.5-1.5C457.4,637.7,456.9,637.9,456.1,638.2z"/>
	<path d="M546,565.4c0.3-0.4,0.7-0.3,1.1,0C546.8,565.9,546.4,565.9,546,565.4z"/>
	<path d="M713.1,567.8c6.5,3.5,13.5,5.8,19.8,9.7C726,575,719.1,572.4,713.1,567.8z"/>
	<path d="M706.6,577.7c5.7,3.4,11.5,6.6,16.6,10.9c-0.1,0.1-0.2,0.2-0.3,0.3c-5.5-3.6-11.1-7.2-16.6-10.8c-0.1-0.2-0.1-0.4-0.2-0.5
		C706.2,577.6,706.4,577.7,706.6,577.7z"/>
	<path d="M689.8,589.8c4.4,0,8.3,1.4,11.5,4.3C697.4,592.9,693.7,591,689.8,589.8z"/>
	<path d="M753.8,604.7c-2.5,1.4-5.2,2.2-7.7,4.2C746.6,605.5,748.7,604.4,753.8,604.7z"/>
	<path d="M762.9,602.5c-2,1.9-4.5,2.5-7.2,2.1C757.6,602.2,760.3,602.5,762.9,602.5z"/>
	<path d="M770.9,595.2c-1.6-0.6-2.3,1-3.5,1.4C767.9,593.9,768.6,593.6,770.9,595.2z"/>
	<path d="M695.8,560.4c1.6-0.5,3.1-0.3,5.1,0.6C698.7,561.4,697.2,561.1,695.8,560.4z"/>
	<path d="M766.1,588.1c-1.1,0.5-2.2,1-3.2,1.5C763.3,587.8,764.3,587,766.1,588.1z"/>
	<path d="M769.3,587.9c0.8-1.2,2-1.2,3.6-2.1C771.4,588,771.4,588,769.3,587.9z"/>
	<path d="M732.2,596.7c-0.8-0.8-1.6-1.5-2.5-2.3C731,594.6,731.9,595.4,732.2,596.7z"/>
	<path d="M776.6,595.3c0.4-1.3,0.9-2.1,2-2C778.4,594.6,778.4,594.6,776.6,595.3z"/>
	<path d="M725.7,590.6c1.2,0.4,2,1.3,2.7,2.3c-1.3-0.3-2.2-1.1-3-2.1C725.5,590.7,725.6,590.6,725.7,590.6z"/>
	<path d="M735.6,606.1c0.8,0.5,1.3,0.7,1.4,1.3C736.3,607.5,736,607.1,735.6,606.1z"/>
	<path d="M725.4,590.8c-1.1-0.4-1.9-1.1-2.6-1.9c0.1-0.1,0.2-0.2,0.3-0.3c1.1,0.4,1.9,1,2.5,1.9
		C725.6,590.6,725.5,590.7,725.4,590.8z"/>
	<path d="M704.7,576.4c0.8,0.2,1.4,0.7,1.9,1.3c-0.1,0.1-0.2,0.3-0.4,0.4c-0.8-0.2-1.4-0.7-1.9-1.3
		C704.4,576.7,704.5,576.5,704.7,576.4z"/>
	<path d="M707.9,568.4c0-0.4,0.3-0.7,0.7-0.9C709,568.2,708.8,568.6,707.9,568.4z"/>
	<path d="M724.3,598.3c-0.6,0-1-0.3-1.3-0.8C723.8,597.2,724.1,597.6,724.3,598.3L724.3,598.3z"/>
	<path d="M724.2,598.4c1-0.1,1.7,0.3,1.9,1.3v-0.1C725.4,599.5,724.7,599,724.2,598.4L724.2,598.4z"/>
	<path d="M726.2,599.7c1-0.1,1.6,0.3,1.9,1.3v-0.1C727.3,600.8,726.6,600.4,726.2,599.7L726.2,599.7z"/>
	<path d="M730,602.1c-0.9-0.1-1.5-0.5-1.9-1.3c0,0,0,0.1-0.1,0.1C729,600.9,729.7,601.3,730,602.1L730,602.1z"/>
	<path d="M730,602.2c0.7,0,1.2,0.1,1.4,0.9C730.6,603.2,730.3,602.7,730,602.2L730,602.2z"/>
	<path d="M733.3,604.3c0.5,0,0.7,0.4,0.9,0.7C733.5,605.2,733.1,605,733.3,604.3z"/>
	<path d="M644.1,491.5c-0.1-6.7,5.2-12.6,11.4-12.7c5.6-0.1,10.2,4.7,10.3,10.8c0.1,6.7-5.2,12.6-11.4,12.6
		C648.7,502.2,644.2,497.6,644.1,491.5z"/>
	<path d="M624,462.2c2.7,3,6.3,5.1,8.8,8.2c0.2,0.3,0.7,0.5,1.1,0.7c4,2.2,5.9,1.5,7.1-2.7c1.7,3.1,0.5,4.7-4,5.2
		c-2.5,6.3-6.9,5-11.3,2.1c-3.8-2.5-6.7-6.4-10-9.7c0.2-0.2,0.4-0.5,0.6-0.7c2.1,1.9,4.9,3.4,6.3,5.8c2.3,3.8,5.8,5,9.7,5.8
		c1.4-0.7,2.6-1.5,3.5-3c-3.1-2.6-6.1-5.1-9.1-7.6C625.4,465.1,623.9,464.1,624,462.2L624,462.2z"/>
	<path d="M629,451.2c1.2,2.8,3.1,5.1,5.1,7.3c1.4,1.6,2.5,3.3,3.1,5.4c-2.7-3.5-6-6.3-8.1-10.2C628.5,452.9,628.6,452.1,629,451.2
		L629,451.2z"/>
	<path d="M642.5,466.1c-0.1,0.5-0.2,1.2-0.8,1c-1.3-0.4-2.4-1-2.9-2.7C640.4,464.6,641.4,465.7,642.5,466.1L642.5,466.1z"/>
	<path d="M688.7,470.1c1.3,1,1.5,2.5,1.8,4C689.4,472.9,689,471.5,688.7,470.1z"/>
	<path d="M646.9,529.9c-1.4,0.3-2.6-0.1-4.1-1C644.6,528.5,645.7,529.3,646.9,529.9z"/>
	<path d="M637.8,526.9c1.2-0.2,1.7,0.2,2,0.7c-0.2,0.6-0.6,0.4-0.9,0.2C638.6,527.7,638.4,527.4,637.8,526.9z"/>
	<path d="M633.1,524.5c0.9-0.4,1.3,0.2,1.9,0.7C634.1,525.6,633.6,525.3,633.1,524.5z"/>
	<path d="M651.3,530.1c0.3-0.8,0.7-0.6,1-0.4C652.1,530.3,651.8,530.1,651.3,530.1z"/>
	<path d="M691.4,477.6c-0.1-0.4-0.3-0.8-0.2-0.9c0.4-0.6,0.4,0.1,0.4,0.2C691.6,477,691.5,477.2,691.4,477.6z"/>
	<path d="M618.5,463.3c0,0.7-0.3,0.9-0.7,1C617.5,463.6,617.8,463.5,618.5,463.3z"/>
	<path d="M442.5,665.7c-3,2.6-5.4,2.7-7,0.6c-1.3-1.6-1-3.8,0.6-5.1c2.1-1.6,4.5-0.9,6.6,2.1c2.2-2.3,3.8-2.8,5.7-1.8
		c1.8,0.9,2.1,2.1,1.4,6.5C444.9,668.7,444.9,668.7,442.5,665.7z"/>
	<path d="M430.6,664.9c-1.1,0.2-0.4,1.7-2,1.9c-0.7-2.3-0.3-4.5,0.2-6.7c1.3-0.6,2.5-0.3,3.6,0c2,0.4,2.9,2,1.6,3.4
		c-1.2,1.3-0.1,2.3-0.2,3.4C431.9,667.4,432,665.2,430.6,664.9z"/>
	<path fill="#FFFFFF" d="M439.9,373.5c-0.1,1.4-0.8,2.3-2.1,2.3s-2.1-0.9-2.1-2.3c0-1.2,0.8-2,2-2
		C439,371.4,439.8,372.1,439.9,373.5z"/>
	<path fill="#FFFFFF" d="M445.6,376.3c-1.8-0.4-2-1.5-1.8-2.7c0.2-1,0.9-1.5,1.8-1.5c1.4-0.1,2.1,0.7,2.4,2
		C447.3,374.4,445.8,375.7,445.6,376.3z"/>
	<path fill="#FFFFFF" d="M432.5,371.6c-1.5,1.5-2.3,1.4-3.3,0.2C430.1,370.2,431,371.1,432.5,371.6z"/>
	<path fill="#FFFFFF" d="M662.5,484.4c2.4,4,2.2,8.6-0.7,12.2c-2.8,3.5-6.5,4.6-10.8,3.2c-2.2-3.7-2.5-7.6,0.1-11.3
		C654,484.6,657.8,483.1,662.5,484.4z"/>
	<path fill="#FFFFFF" d="M648.3,497.8c-3.5-4.6-3.2-10.1,0.4-14c3.3-3.6,7.6-4.3,11.8-1.5c-4.1-0.1-7.6,0.9-10.3,4.2
		C647.4,489.7,647.3,493.4,648.3,497.8z"/>
	<path fill="#FFFFFF" d="M438.7,661.9c1.3,0.3,2.1,1,2,2.4c-0.1,1.2-0.8,2-2,2c-1.4,0-2.2-0.8-2.2-2.2S437.4,662.1,438.7,661.9z"/>
	<path fill="#FFFFFF" d="M448.8,665.1c-1.1,0.4-3.1-0.7-2.1,1.8c-1.8-0.3-2.3-1.2-2.1-2.6c0.1-1.2,0.9-1.7,2-1.7
		C447.8,662.6,448.7,663.4,448.8,665.1z"/>
	<path fill="#FFFFFF" d="M433.1,662.2c-1.4,1.5-2.3,1.4-3.1-0.2C431,661,431.8,661.4,433.1,662.2z"/>
</g>
</svg>
