<?xml version="1.0" encoding="utf-8"?>
<!-- Generator: Adobe Illustrator 21.0.0, SVG Export Plug-In . SVG Version: 6.00 Build 0)  -->
<svg version="1.2" baseProfile="tiny" id="Layer_2" xmlns="http://www.w3.org/2000/svg" xmlns:xlink="http://www.w3.org/1999/xlink"
	 x="0px" y="0px" viewBox="0 0 900 600" xml:space="preserve">
<svg style="overflow: visible;" viewBox="00 900 600" xmlns="http://www.w3.org/2000/svg"><g fill="#e6e6e6"><path d="m206.8 163.6c0-5.1 4.1-9.2 9.3-9.2s9.2 4.2 9.2 9.2-4.1 9.2-9.3 9.2-9.2-4.1-9.2-9.2zm17.3-.1c0-4.5-3.5-8.2-8.2-8.2s-8.2 3.7-8.2 8.3c0 4.5 3.5 8.2 8.2 8.2s8.2-3.7 8.2-8.3zm-13 0c0-2.8 2.1-5.1 5.1-5.1 1.9 0 2.9.6 3.9 1.5l-1.4 1.7c-.8-.7-1.5-1.1-2.5-1.1-1.7 0-2.8 1.4-2.8 3.1s1.1 3 2.8 3c1.1 0 1.7-.5 2.5-1.1l1.4 1.4c-1.1 1.1-2.1 1.7-4 1.7-2.9 0-5-2.3-5-5.1z"/><path d="m226.6 154.7h3.4l4.2 13.2 4.4-13.3h2.6l4.4 13.3 4.2-13.2h3.3l-6.2 18h-2.7l-4.4-12.8-4.4 12.8h-2.7z"/><path d="m252.8 165.8c0-3.9 3.1-7 7.2-7 4.2 0 7.2 3.2 7.2 7s-3.1 7-7.3 7c-4 0-7.1-3.1-7.1-7zm11.3 0c0-2.3-1.7-4.3-4.2-4.3s-4.1 2-4.1 4.3 1.7 4.3 4.1 4.3c2.7.1 4.2-1.9 4.2-4.3z"/><path d="m269.5 159.1h3.1v3c.8-2 2.4-3.4 4.8-3.3v3.2h-.2c-2.7 0-4.6 1.7-4.6 5.4v5.1h-3.1z"/><path d="m279.1 153.9h3.1v11.1l5.6-6h3.8l-5.4 5.5 5.5 8h-3.5l-4.1-5.8-1.9 2v3.9h-3.1z"/><path d="m291.7 165.8c0-3.9 3.1-7 7.2-7 4.2 0 7.2 3.2 7.2 7s-3.1 7-7.3 7c-4 0-7.1-3.1-7.1-7zm11.3 0c0-2.3-1.7-4.3-4.2-4.3s-4.1 2-4.1 4.3 1.7 4.3 4.1 4.3c2.6.1 4.2-1.9 4.2-4.3z"/><path d="m308.2 167.6v-8.6h3.1v7.6c0 2.1 1.1 3.3 2.9 3.3s3-1.3 3-3.3v-7.6h3.1v13.4h-3.1v-2.1c-.8 1.3-2.1 2.3-4.2 2.3-3.1.2-4.8-1.8-4.8-5z"/><path d="m323.9 168.8v-7.1h-1.7v-2.6h1.7v-3.7h3.1v3.7h3.6v2.6h-3.6v6.6c0 1.2.6 1.7 1.7 1.7.7 0 1.3-.2 1.9-.5v2.5c-.8.5-1.7.7-2.8.7-2.3 0-3.9-.9-3.9-3.9z"/><path d="m333.2 154.7h3.2v15h9.4v2.9h-12.5v-17.9z"/><path d="m356 172.5v-1.7c-.9 1.1-2.3 2-4.4 2-2.6 0-4.8-1.4-4.8-4.2 0-3 2.3-4.4 5.4-4.4 1.7 0 2.6.2 3.7.5v-.2c0-1.9-1.2-2.9-3.3-2.9-1.5 0-2.6.3-3.9.8l-.8-2.5c1.5-.7 2.9-1.1 5.1-1.1 4 0 5.9 2.1 5.9 5.7v8zm.1-5.6c-.8-.3-1.9-.5-3.1-.5-2 0-3.1.8-3.1 2.1s1.1 2 2.6 2c2 0 3.5-1.1 3.5-2.9z"/><path d="m364.9 170.5v2.1h-3.1v-18.7h3.1v7.4c1-1.4 2.4-2.5 4.5-2.5 3.2 0 6.3 2.5 6.3 7s-3.1 7-6.3 7c-2.1 0-3.5-1.1-4.5-2.3zm7.7-4.7c0-2.6-1.7-4.3-3.9-4.3s-3.9 1.7-3.9 4.4c0 2.6 1.8 4.3 3.9 4.3s3.9-1.7 3.9-4.4z"/><path d="m376.9 170.8 1.4-2.1c1.4 1.1 3 1.7 4.4 1.7s2.1-.5 2.1-1.5-1.3-1.4-2.8-1.8c-.1 0-.2-.1-.2-.1-2-.6-4.2-1.4-4.2-4s2.1-4.1 4.8-4.1c1.7 0 3.5.6 5 1.5l-1.2 2.2c-1.3-.8-2.6-1.3-3.8-1.3s-1.9.5-1.9 1.4 1.3 1.4 2.8 1.8c.1 0 .2.1.2.1 2 .6 4.2 1.5 4.2 4 0 2.9-2.2 4.2-5 4.2-1.9 0-4-.7-5.8-2z"/><path d="m505.6 163.6c0-5.1 4.1-9.2 9.3-9.2s9.2 4.2 9.2 9.2-4.1 9.2-9.3 9.2-9.2-4.1-9.2-9.2zm17.4-.1c0-4.5-3.5-8.2-8.2-8.2s-8.2 3.7-8.2 8.3c0 4.5 3.5 8.2 8.2 8.2s8.2-3.7 8.2-8.3zm-13.1 0c0-2.8 2.1-5.1 5.1-5.1 1.9 0 2.9.6 3.9 1.5l-1.4 1.7c-.8-.7-1.5-1.1-2.5-1.1-1.7 0-2.8 1.4-2.8 3.1s1.1 3 2.8 3c1.1 0 1.7-.5 2.5-1.1l1.4 1.4c-1.1 1.1-2.1 1.7-4 1.7-2.9 0-5-2.3-5-5.1z"/><path d="m525.4 154.7h3.4l4.2 13.2 4.4-13.3h2.6l4.4 13.3 4.2-13.2h3.3l-6.2 18h-2.7l-4.4-12.8-4.4 12.8h-2.7z"/><path d="m551.7 165.8c0-3.9 3.1-7 7.2-7 4.2 0 7.2 3.2 7.2 7s-3.1 7-7.3 7c-4.1 0-7.1-3.1-7.1-7zm11.2 0c0-2.3-1.7-4.3-4.2-4.3s-4.1 2-4.1 4.3 1.7 4.3 4.1 4.3c2.7.1 4.2-1.9 4.2-4.3z"/><path d="m568.3 159.1h3.1v3c.8-2 2.4-3.4 4.8-3.3v3.2h-.2c-2.7 0-4.6 1.7-4.6 5.4v5.1h-3.1z"/><path d="m577.9 153.9h3.1v11.1l5.6-6h3.8l-5.4 5.5 5.5 8h-3.5l-4.1-5.8-1.9 2v3.9h-3.1z"/><path d="m590.6 165.8c0-3.9 3.1-7 7.2-7 4.2 0 7.2 3.2 7.2 7s-3.1 7-7.3 7c-4.1 0-7.1-3.1-7.1-7zm11.2 0c0-2.3-1.7-4.3-4.2-4.3s-4.1 2-4.1 4.3 1.7 4.3 4.1 4.3c2.6.1 4.2-1.9 4.2-4.3z"/><path d="m607 167.6v-8.6h3.1v7.6c0 2.1 1.1 3.3 2.9 3.3s3-1.3 3-3.3v-7.6h3.1v13.4h-3.1v-2.1c-.8 1.3-2.1 2.3-4.2 2.3-3 .2-4.8-1.8-4.8-5z"/><path d="m622.7 168.8v-7.1h-1.7v-2.6h1.7v-3.7h3.1v3.7h3.6v2.6h-3.6v6.6c0 1.2.6 1.7 1.7 1.7.7 0 1.3-.2 1.9-.5v2.5c-.8.5-1.7.7-2.8.7-2.3 0-3.9-.9-3.9-3.9z"/><path d="m632 154.7h3.2v15h9.4v2.9h-12.6z"/><path d="m654.8 172.5v-1.7c-.9 1.1-2.3 2-4.4 2-2.6 0-4.8-1.4-4.8-4.2 0-3 2.3-4.4 5.4-4.4 1.7 0 2.6.2 3.7.5v-.2c0-1.9-1.2-2.9-3.3-2.9-1.5 0-2.6.3-3.9.8l-.8-2.5c1.5-.7 2.9-1.1 5.1-1.1 4 0 5.9 2.1 5.9 5.7v8zm.1-5.6c-.8-.3-1.9-.5-3.1-.5-2 0-3.1.8-3.1 2.1s1.1 2 2.6 2c2 0 3.5-1.1 3.5-2.9z"/><path d="m663.7 170.5v2.1h-3.1v-18.7h3.1v7.4c1-1.4 2.4-2.5 4.5-2.5 3.2 0 6.3 2.5 6.3 7s-3.1 7-6.3 7c-2.1 0-3.5-1.1-4.5-2.3zm7.8-4.7c0-2.6-1.7-4.3-3.9-4.3-2.1 0-3.9 1.7-3.9 4.4 0 2.6 1.8 4.3 3.9 4.3s3.9-1.7 3.9-4.4z"/><path d="m675.8 170.8 1.4-2.1c1.4 1.1 3 1.7 4.4 1.7s2.1-.5 2.1-1.5-1.3-1.4-2.8-1.8c-.1 0-.2-.1-.2-.1-2-.6-4.2-1.4-4.2-4s2.1-4.1 4.8-4.1c1.7 0 3.5.6 5 1.5l-1.2 2.2c-1.3-.8-2.6-1.3-3.8-1.3s-1.9.5-1.9 1.4 1.3 1.4 2.8 1.8c.1 0 .2.1.2.1 2 .6 4.2 1.5 4.2 4 0 2.9-2.2 4.2-5 4.2-2 0-4.1-.7-5.8-2z"/><path d="m61 298.6c0-5.1 4.1-9.2 9.3-9.2s9.2 4.2 9.2 9.2-4.1 9.2-9.3 9.2c-5.1 0-9.2-4.2-9.2-9.2zm17.4-.1c0-4.5-3.5-8.2-8.2-8.2s-8.2 3.7-8.2 8.3c0 4.5 3.5 8.2 8.2 8.2s8.2-3.7 8.2-8.3zm-13.1-.1c0-2.8 2.1-5.1 5.1-5.1 1.9 0 2.9.6 3.9 1.5l-1.4 1.7c-.8-.7-1.5-1.1-2.5-1.1-1.7 0-2.8 1.4-2.8 3.1s1.1 3 2.8 3c1.1 0 1.7-.5 2.5-1.1l1.4 1.4c-1.1 1.1-2.1 1.7-4 1.7-2.8.1-5-2.2-5-5.1z"/><path d="m80.9 289.7h3.4l4.2 13.2 4.4-13.3h2.6l4.4 13.3 4.2-13.2h3.3l-6.2 18h-2.7l-4.4-12.8-4.4 12.8h-2.7z"/><path d="m107.1 300.8c0-3.9 3.1-7 7.2-7s7.2 3.2 7.2 7-3.1 7-7.3 7c-4 0-7.1-3.1-7.1-7zm11.3 0c0-2.3-1.7-4.3-4.2-4.3s-4.1 2-4.1 4.3 1.7 4.3 4.1 4.3c2.6.1 4.2-1.9 4.2-4.3z"/><path d="m123.7 294h3.1v3c.8-2 2.4-3.4 4.8-3.3v3.2h-.2c-2.7 0-4.6 1.7-4.6 5.4v5.1h-3.1z"/><path d="m133.4 288.9h3.1v11.1l5.6-6h3.8l-5.4 5.5 5.5 8h-3.5l-4.1-5.8-1.9 1.9v3.9h-3.1z"/><path d="m146 300.8c0-3.9 3.1-7 7.2-7s7.2 3.2 7.2 7-3.1 7-7.3 7c-4.1 0-7.1-3.1-7.1-7zm11.2 0c0-2.3-1.7-4.3-4.2-4.3s-4.1 2-4.1 4.3 1.7 4.3 4.1 4.3c2.6.1 4.2-1.9 4.2-4.3z"/><path d="m162.4 302.6v-8.6h3.1v7.6c0 2.1 1.1 3.3 2.9 3.3s3-1.3 3-3.3v-7.6h3.1v13.4h-3.1v-2.1c-.8 1.3-2.1 2.3-4.2 2.3-3 .2-4.8-1.8-4.8-5z"/><path d="m178.1 303.8v-7.1h-1.7v-2.7h1.7v-3.7h3.1v3.7h3.6v2.6h-3.6v6.6c0 1.2.6 1.7 1.7 1.7.7 0 1.3-.2 1.9-.5v2.5c-.8.5-1.7.7-2.8.7-2.3.1-3.9-.9-3.9-3.8z"/><path d="m187.4 289.7h3.2v15h9.4v2.9h-12.5v-17.9z"/><path d="m210.2 307.5v-1.7c-.9 1.1-2.3 2-4.4 2-2.6 0-4.8-1.4-4.8-4.2 0-3 2.3-4.4 5.4-4.4 1.7 0 2.6.2 3.7.5v-.2c0-1.9-1.2-2.9-3.3-2.9-1.5 0-2.6.3-3.9.8l-.8-2.5c1.5-.7 2.9-1.1 5.1-1.1 4 0 5.9 2.1 5.9 5.7v8zm.1-5.6c-.8-.3-1.9-.5-3.1-.5-2 0-3.1.8-3.1 2.1s1.1 2 2.6 2c2 0 3.5-1.1 3.5-2.9z"/><path d="m219.2 305.5v2.1h-3.1v-18.7h3.1v7.4c1-1.4 2.4-2.5 4.5-2.5 3.2 0 6.3 2.5 6.3 7s-3.1 7-6.3 7c-2.2 0-3.6-1.1-4.5-2.3zm7.7-4.7c0-2.6-1.7-4.3-3.9-4.3s-3.9 1.7-3.9 4.4c0 2.6 1.8 4.3 3.9 4.3s3.9-1.7 3.9-4.4z"/><path d="m231.2 305.8 1.4-2.1c1.4 1.1 3 1.7 4.4 1.7s2.1-.5 2.1-1.5-1.3-1.4-2.8-1.8c-.1 0-.2-.1-.2-.1-2-.6-4.2-1.4-4.2-4s2.1-4.1 4.8-4.1c1.7 0 3.5.6 5 1.5l-1.2 2.2c-1.3-.8-2.6-1.3-3.8-1.3s-1.9.5-1.9 1.4 1.3 1.4 2.8 1.8c.1 0 .2.1.2.1 2 .6 4.2 1.5 4.2 4 0 2.9-2.2 4.2-5 4.2-2 0-4.1-.7-5.8-2z"/><path d="m360.6 298.6c0-5.1 4.1-9.2 9.3-9.2s9.2 4.2 9.2 9.2-4.1 9.2-9.3 9.2-9.2-4.2-9.2-9.2zm17.4-.1c0-4.5-3.5-8.2-8.2-8.2s-8.2 3.7-8.2 8.3c0 4.5 3.5 8.2 8.2 8.2s8.2-3.7 8.2-8.3zm-13.1-.1c0-2.8 2.1-5.1 5.1-5.1 1.9 0 2.9.6 3.9 1.5l-1.4 1.7c-.8-.7-1.5-1.1-2.5-1.1-1.7 0-2.8 1.4-2.8 3.1s1.1 3 2.8 3c1.1 0 1.7-.5 2.5-1.1l1.4 1.4c-1.1 1.1-2.1 1.7-4 1.7-2.8.1-5-2.2-5-5.1z"/><path d="m380.5 289.7h3.4l4.2 13.2 4.4-13.3h2.6l4.4 13.3 4.2-13.2h3.3l-6.2 18h-2.7l-4.4-12.8-4.4 12.8h-2.7z"/><path d="m406.7 300.8c0-3.9 3.1-7 7.2-7 4.2 0 7.2 3.2 7.2 7s-3.1 7-7.3 7c-4.1 0-7.1-3.1-7.1-7zm11.3 0c0-2.3-1.7-4.3-4.2-4.3s-4.1 2-4.1 4.3 1.7 4.3 4.1 4.3c2.7.1 4.2-1.9 4.2-4.3z"/><path d="m423.3 294h3.1v3c.8-2 2.4-3.4 4.8-3.3v3.2h-.2c-2.7 0-4.6 1.7-4.6 5.4v5.1h-3.1z"/><path d="m433 288.9h3.1v11.1l5.6-6h3.8l-5.4 5.5 5.5 8h-3.5l-4.1-5.8-1.9 2v3.9h-3.1z"/><path d="m445.6 300.8c0-3.9 3.1-7 7.2-7 4.2 0 7.2 3.2 7.2 7s-3.1 7-7.3 7c-4.1 0-7.1-3.1-7.1-7zm11.3 0c0-2.3-1.7-4.3-4.2-4.3s-4.1 2-4.1 4.3 1.7 4.3 4.1 4.3c2.6.1 4.2-1.9 4.2-4.3z"/><path d="m462.1 302.6v-8.6h3.1v7.6c0 2.1 1.1 3.3 2.9 3.3s3-1.3 3-3.3v-7.6h3.1v13.4h-3.1v-2.1c-.8 1.3-2.1 2.3-4.2 2.3-3.1.2-4.8-1.8-4.8-5z"/><path d="m477.8 303.8v-7.1h-1.8v-2.7h1.7v-3.7h3.1v3.7h3.6v2.6h-3.6v6.6c0 1.2.6 1.7 1.7 1.7.7 0 1.3-.2 1.9-.5v2.5c-.8.5-1.7.7-2.8.7-2.2.1-3.8-.9-3.8-3.8z"/><path d="m487.1 289.7h3.2v15h9.4v2.9h-12.5v-17.9z"/><path d="m509.9 307.5v-1.7c-.9 1.1-2.3 2-4.4 2-2.6 0-4.8-1.4-4.8-4.2 0-3 2.3-4.4 5.4-4.4 1.7 0 2.6.2 3.7.5v-.2c0-1.9-1.2-2.9-3.3-2.9-1.5 0-2.6.3-3.9.8l-.8-2.5c1.5-.7 2.9-1.1 5.1-1.1 4 0 5.9 2.1 5.9 5.7v8zm.1-5.6c-.8-.3-1.9-.5-3.1-.5-2 0-3.1.8-3.1 2.1s1.1 2 2.6 2c2 0 3.5-1.1 3.5-2.9z"/><path d="m518.8 305.5v2.1h-3.1v-18.7h3.1v7.4c1-1.4 2.4-2.5 4.5-2.5 3.2 0 6.3 2.5 6.3 7s-3.1 7-6.3 7c-2.2 0-3.5-1.1-4.5-2.3zm7.7-4.7c0-2.6-1.7-4.3-3.9-4.3s-3.9 1.7-3.9 4.4c0 2.6 1.8 4.3 3.9 4.3s3.9-1.7 3.9-4.4z"/><path d="m530.8 305.8 1.4-2.1c1.4 1.1 3 1.7 4.4 1.7s2.1-.5 2.1-1.5-1.3-1.4-2.8-1.8c-.1 0-.2-.1-.2-.1-2-.6-4.2-1.4-4.2-4s2.1-4.1 4.8-4.1c1.7 0 3.5.6 5 1.5l-1.2 2.2c-1.3-.8-2.6-1.3-3.8-1.3s-1.9.5-1.9 1.4 1.3 1.4 2.8 1.8c.1 0 .2.1.2.1 2 .6 4.2 1.5 4.2 4 0 2.9-2.2 4.2-5 4.2-1.9 0-4.1-.7-5.8-2z"/><path d="m659.5 298.6c0-5.1 4.1-9.2 9.3-9.2s9.2 4.2 9.2 9.2-4.1 9.2-9.3 9.2-9.2-4.2-9.2-9.2zm17.3-.1c0-4.5-3.5-8.2-8.2-8.2s-8.2 3.7-8.2 8.3c0 4.5 3.5 8.2 8.2 8.2 4.8 0 8.2-3.7 8.2-8.3zm-13-.1c0-2.8 2.1-5.1 5.1-5.1 1.9 0 2.9.6 3.9 1.5l-1.4 1.7c-.8-.7-1.5-1.1-2.5-1.1-1.7 0-2.8 1.4-2.8 3.1s1.1 3 2.8 3c1.1 0 1.7-.5 2.5-1.1l1.4 1.4c-1.1 1.1-2.1 1.7-4 1.7-2.9.1-5-2.2-5-5.1z"/><path d="m679.3 289.7h3.4l4.2 13.2 4.4-13.3h2.6l4.4 13.3 4.2-13.2h3.3l-6.2 18h-2.6l-4.4-12.8-4.4 12.8h-2.7z"/><path d="m705.5 300.8c0-3.9 3.1-7 7.2-7 4.2 0 7.2 3.2 7.2 7s-3.1 7-7.3 7c-4 0-7.1-3.1-7.1-7zm11.3 0c0-2.3-1.7-4.3-4.2-4.3s-4.1 2-4.1 4.3 1.7 4.3 4.1 4.3c2.7.1 4.2-1.9 4.2-4.3z"/><path d="m722.1 294h3.1v3c.8-2 2.4-3.4 4.8-3.3v3.2h-.2c-2.7 0-4.6 1.7-4.6 5.4v5.1h-3.1z"/><path d="m731.8 288.9h3.1v11.1l5.6-6h3.8l-5.4 5.5 5.5 8h-3.5l-4.1-5.8-1.9 2v3.9h-3.1z"/><path d="m744.4 300.8c0-3.9 3.1-7 7.2-7 4.2 0 7.2 3.2 7.2 7s-3.1 7-7.3 7c-4.1 0-7.1-3.1-7.1-7zm11.3 0c0-2.3-1.7-4.3-4.2-4.3s-4.1 2-4.1 4.3 1.7 4.3 4.1 4.3c2.6.1 4.2-1.9 4.2-4.3z"/><path d="m760.9 302.6v-8.6h3.1v7.6c0 2.1 1.1 3.3 2.9 3.3s3-1.3 3-3.3v-7.6h3.1v13.4h-3.1v-2.1c-.8 1.3-2.1 2.3-4.2 2.3-3.1.2-4.8-1.8-4.8-5z"/><path d="m776.6 303.8v-7.1h-1.7v-2.7h1.7v-3.7h3.1v3.7h3.6v2.6h-3.6v6.6c0 1.2.6 1.7 1.7 1.7.7 0 1.3-.2 1.9-.5v2.5c-.8.5-1.7.7-2.8.7-2.3.1-3.9-.9-3.9-3.8z"/><path d="m785.9 289.7h3.2v15h9.4v2.9h-12.5v-17.9z"/><path d="m808.7 307.5v-1.7c-.9 1.1-2.3 2-4.4 2-2.6 0-4.8-1.4-4.8-4.2 0-3 2.3-4.4 5.4-4.4 1.7 0 2.6.2 3.7.5v-.2c0-1.9-1.2-2.9-3.3-2.9-1.5 0-2.6.3-3.9.8l-.8-2.5c1.5-.7 2.9-1.1 5.1-1.1 4 0 5.9 2.1 5.9 5.7v8zm.1-5.6c-.8-.3-1.9-.5-3.1-.5-2 0-3.1.8-3.1 2.1s1.1 2 2.6 2c2 0 3.5-1.1 3.5-2.9z"/><path d="m817.6 305.5v2.1h-3.1v-18.7h3.1v7.4c1-1.4 2.4-2.5 4.5-2.5 3.2 0 6.3 2.5 6.3 7s-3.1 7-6.3 7c-2.1 0-3.5-1.1-4.5-2.3zm7.7-4.7c0-2.6-1.7-4.3-3.9-4.3-2.1 0-3.9 1.7-3.9 4.4 0 2.6 1.8 4.3 3.9 4.3 2.2 0 3.9-1.7 3.9-4.4z"/><path d="m829.6 305.8 1.4-2.1c1.4 1.1 3 1.7 4.4 1.7s2.1-.5 2.1-1.5-1.3-1.4-2.8-1.8c-.1 0-.2-.1-.2-.1-2-.6-4.2-1.4-4.2-4s2.1-4.1 4.8-4.1c1.7 0 3.5.6 5 1.5l-1.2 2.2c-1.3-.8-2.6-1.3-3.8-1.3s-1.9.5-1.9 1.4 1.3 1.4 2.8 1.8c.1 0 .2.1.2.1 2 .6 4.2 1.5 4.2 4 0 2.9-2.2 4.2-5 4.2-1.9 0-4-.7-5.8-2z"/><path d="m206.3 434.2c0-5.1 4.1-9.2 9.3-9.2s9.2 4.2 9.2 9.2-4.1 9.2-9.3 9.2-9.2-4.1-9.2-9.2zm17.4-.1c0-4.5-3.5-8.2-8.2-8.2s-8.2 3.7-8.2 8.3c0 4.5 3.5 8.2 8.2 8.2s8.2-3.7 8.2-8.3zm-13.1-.1c0-2.8 2.1-5.1 5.1-5.1 1.9 0 2.9.6 3.9 1.5l-1.4 1.7c-.8-.7-1.5-1.1-2.5-1.1-1.7 0-2.8 1.4-2.8 3.1s1.1 3 2.8 3c1.1 0 1.7-.5 2.5-1.1l1.4 1.4c-1.1 1.1-2.1 1.7-4 1.7-2.9.1-5-2.2-5-5.1z"/><path d="m226.1 425.3h3.4l4.2 13.2 4.4-13.3h2.6l4.4 13.3 4.2-13.2h3.3l-6.2 18h-2.7l-4.4-12.8-4.4 12.8h-2.7z"/><path d="m252.4 436.4c0-3.9 3.1-7 7.2-7 4.2 0 7.2 3.2 7.2 7s-3.1 7-7.3 7c-4.1 0-7.1-3.1-7.1-7zm11.2 0c0-2.3-1.7-4.3-4.2-4.3s-4.1 2-4.1 4.3 1.7 4.3 4.1 4.3c2.7.1 4.2-1.9 4.2-4.3z"/><path d="m269 429.7h3.1v3c.8-2 2.4-3.4 4.8-3.3v3.2h-.2c-2.7 0-4.6 1.7-4.6 5.4v5.1h-3.1z"/><path d="m278.6 424.5h3.1v11.1l5.6-6h3.8l-5.4 5.5 5.5 8h-3.5l-4.1-5.8-1.9 2v3.9h-3.1z"/><path d="m291.3 436.4c0-3.9 3.1-7 7.2-7 4.2 0 7.2 3.2 7.2 7s-3.1 7-7.3 7c-4.1 0-7.1-3.1-7.1-7zm11.2 0c0-2.3-1.7-4.3-4.2-4.3s-4.1 2-4.1 4.3 1.7 4.3 4.1 4.3c2.6.1 4.2-1.9 4.2-4.3z"/><path d="m307.7 438.2v-8.6h3.1v7.6c0 2.1 1.1 3.3 2.9 3.3s3-1.3 3-3.3v-7.6h3.1v13.4h-3.1v-2.1c-.8 1.3-2.1 2.3-4.2 2.3-3 .2-4.8-1.8-4.8-5z"/><path d="m323.4 439.4v-7.1h-1.7v-2.6h1.7v-3.7h3.1v3.7h3.6v2.6h-3.6v6.6c0 1.2.6 1.7 1.7 1.7.7 0 1.3-.2 1.9-.5v2.5c-.8.5-1.7.7-2.8.7-2.3 0-3.9-.9-3.9-3.9z"/><path d="m332.7 425.3h3.2v15h9.4v2.9h-12.5v-17.9z"/><path d="m355.5 443.1v-1.7c-.9 1.1-2.3 2-4.4 2-2.6 0-4.8-1.4-4.8-4.2 0-3 2.3-4.4 5.4-4.4 1.7 0 2.6.2 3.7.5v-.2c0-1.9-1.2-2.9-3.3-2.9-1.5 0-2.6.3-3.9.8l-.8-2.5c1.5-.7 2.9-1.1 5.1-1.1 4 0 5.9 2.1 5.9 5.7v8zm.1-5.6c-.8-.3-1.9-.5-3.1-.5-2 0-3.1.8-3.1 2.1s1.1 2 2.6 2c2 0 3.5-1.1 3.5-2.9z"/><path d="m364.4 441.1v2.1h-3.1v-18.7h3.1v7.4c1-1.4 2.4-2.5 4.5-2.5 3.2 0 6.3 2.5 6.3 7s-3.1 7-6.3 7c-2.1 0-3.5-1.1-4.5-2.3zm7.7-4.7c0-2.6-1.7-4.3-3.9-4.3-2.1 0-3.9 1.7-3.9 4.4 0 2.6 1.8 4.3 3.9 4.3 2.2 0 3.9-1.7 3.9-4.4z"/><path d="m376.5 441.4 1.4-2.1c1.4 1.1 3 1.7 4.4 1.7s2.1-.5 2.1-1.5-1.3-1.4-2.8-1.8c-.1 0-.2-.1-.2-.1-2-.6-4.2-1.4-4.2-4s2.1-4.1 4.8-4.1c1.7 0 3.5.6 5 1.5l-1.2 2.2c-1.3-.8-2.6-1.3-3.8-1.3s-1.9.5-1.9 1.4 1.3 1.4 2.8 1.8c.1 0 .2.1.2.1 2 .6 4.2 1.5 4.2 4 0 2.9-2.2 4.2-5 4.2-2 0-4.1-.7-5.8-2z"/><path d="m505.1 434.2c0-5.1 4.1-9.2 9.3-9.2s9.2 4.2 9.2 9.2-4.1 9.2-9.3 9.2-9.2-4.1-9.2-9.2zm17.4-.1c0-4.5-3.5-8.2-8.2-8.2s-8.2 3.7-8.2 8.3c0 4.5 3.5 8.2 8.2 8.2s8.2-3.7 8.2-8.3zm-13.1-.1c0-2.8 2.1-5.1 5.1-5.1 1.9 0 2.9.6 3.9 1.5l-1.4 1.7c-.8-.7-1.5-1.1-2.5-1.1-1.7 0-2.8 1.4-2.8 3.1s1.1 3 2.8 3c1.1 0 1.7-.5 2.5-1.1l1.4 1.4c-1.1 1.1-2.1 1.7-4 1.7-2.9.1-5-2.2-5-5.1z"/><path d="m525 425.3h3.4l4.2 13.2 4.4-13.3h2.6l4.4 13.3 4.2-13.2h3.3l-6.2 18h-2.7l-4.4-12.8-4.4 12.8h-2.7z"/><path d="m551.2 436.4c0-3.9 3.1-7 7.2-7 4.2 0 7.2 3.2 7.2 7s-3.1 7-7.3 7c-4.1 0-7.1-3.1-7.1-7zm11.2 0c0-2.3-1.7-4.3-4.2-4.3s-4.1 2-4.1 4.3 1.7 4.3 4.1 4.3c2.7.1 4.2-1.9 4.2-4.3z"/><path d="m567.8 429.7h3.1v3c.8-2 2.4-3.4 4.8-3.3v3.2h-.2c-2.7 0-4.6 1.7-4.6 5.4v5.1h-3.1z"/><path d="m577.5 424.5h3.1v11.1l5.6-6h3.8l-5.4 5.5 5.5 8h-3.5l-4.1-5.8-1.9 2v3.9h-3.1z"/><path d="m590.1 436.4c0-3.9 3.1-7 7.2-7 4.2 0 7.2 3.2 7.2 7s-3.1 7-7.3 7c-4.1 0-7.1-3.1-7.1-7zm11.2 0c0-2.3-1.7-4.3-4.2-4.3s-4.1 2-4.1 4.3 1.7 4.3 4.1 4.3c2.6.1 4.2-1.9 4.2-4.3z"/><path d="m606.5 438.2v-8.6h3.1v7.6c0 2.1 1.1 3.3 2.9 3.3s3-1.3 3-3.3v-7.6h3.1v13.4h-3.1v-2.1c-.8 1.3-2.1 2.3-4.2 2.3-3 .2-4.8-1.8-4.8-5z"/><path d="m622.2 439.4v-7.1h-1.7v-2.6h1.7v-3.7h3.1v3.7h3.6v2.6h-3.6v6.6c0 1.2.6 1.7 1.7 1.7.7 0 1.3-.2 1.9-.5v2.5c-.8.5-1.7.7-2.8.7-2.3 0-3.9-.9-3.9-3.9z"/><path d="m631.5 425.3h3.2v15h9.4v2.9h-12.5v-17.9z"/><path d="m654.3 443.1v-1.7c-.9 1.1-2.3 2-4.4 2-2.6 0-4.8-1.4-4.8-4.2 0-3 2.3-4.4 5.4-4.4 1.7 0 2.6.2 3.7.5v-.2c0-1.9-1.2-2.9-3.3-2.9-1.5 0-2.6.3-3.9.8l-.8-2.5c1.5-.7 2.9-1.1 5.1-1.1 4 0 5.9 2.1 5.9 5.7v8zm.1-5.6c-.8-.3-1.9-.5-3.1-.5-2 0-3.1.8-3.1 2.1s1.1 2 2.6 2c2 0 3.5-1.1 3.5-2.9z"/><path d="m663.3 441.1v2.1h-3.1v-18.7h3.1v7.4c1-1.4 2.4-2.5 4.5-2.5 3.2 0 6.3 2.5 6.3 7s-3.1 7-6.3 7c-2.2 0-3.6-1.1-4.5-2.3zm7.7-4.7c0-2.6-1.7-4.3-3.9-4.3s-3.9 1.7-3.9 4.4c0 2.6 1.8 4.3 3.9 4.3s3.9-1.7 3.9-4.4z"/><path d="m675.3 441.4 1.4-2.1c1.4 1.1 3 1.7 4.4 1.7s2.1-.5 2.1-1.5-1.3-1.4-2.8-1.8c-.1 0-.2-.1-.2-.1-2-.6-4.2-1.4-4.2-4s2.1-4.1 4.8-4.1c1.7 0 3.5.6 5 1.5l-1.2 2.2c-1.3-.8-2.6-1.3-3.8-1.3s-1.9.5-1.9 1.4 1.3 1.4 2.8 1.8c.1 0 .2.1.2.1 2 .6 4.2 1.5 4.2 4 0 2.9-2.2 4.2-5 4.2-2 0-4.1-.7-5.8-2z"/></g></svg><g>
	<path d="M214.1,260.4c-1.1,0.4-0.9,1.8-1.6,2.5c-0.4,0.3-0.7,0.7-1.1,1.1c-0.9-1.8,0.5-3.2,0.2-5c-0.3-0.2-0.7-0.6-1.1-0.6
		c-0.4,0-1,0.4-1.2,0.8c-0.4,0.5-0.6,1.1-0.7,1.8c-0.2,1-0.2,2-0.3,3c-0.8,0.5-1.4,0.8-2.3,0.1c0.3-0.3,0.7-0.7,1-1
		c0.1-1.8,0.2-3.6,0.3-5.7c-1.3,1.3-2.4,2.4-3.6,3.5c-1.3-1.5,0.5-2.3,0.6-3.4c-1.7-1.3-3.4-0.7-5.1-0.2c-1.9-1.1-1.9-1.1-5.8-1.2
		c1,4.9,1,4.9,3,6.2c-1.8,1.5,0,2.7,0.2,4.2c1.4-0.4,1.2-2.8,3-2.1c0.8,1,0.3,2-0.2,2.9c-1.1,2.3-0.8,4.5-0.2,6.8
		c0.7,2.6,1.1,5.3,1.7,8c0.2,1.2,0.8,2,1.8,2.9c2.8,2.3,4.5,5.4,5.9,8.6c0.8,1.8,1.5,3.6,2.2,5.4c0.3,0.8,0.6,1.7,1.7,2.4
		c0.1-0.8,0.3-1.5,0.3-2.2c-0.1-5.3,0.2-10.7,1.1-15.9c0.3-1.5,0.1-3.1-0.1-4.7c-0.4-3.3-0.4-6.7-0.6-10.1c0.5,0.1,0.8,0.1,0.9,0.2
		c0.3,3.2,0.6,6.4,0.9,9.9c1-0.7,1.8-1.3,2.6-1.8c0.8-0.4,1.6-0.7,2.5-1c-0.4-1.6-0.7-3.1-1-4.4c0.3-0.3,0.5-0.7,0.6-0.6
		c0.4,0.1,1.1,0.3,1.2,0.6c0.6,1.4,1.1,2.9,1.6,4.5c2,0.4,4.2,0.2,5.7,1.9c2.9-1.4,5.7-0.8,8.6-0.8c1.3,0,2.3,0.7,2.9,1.8
		c0.7,1.4,1.5,2.8,1.9,4.3c0.9,3.7,1.8,7.3,2.2,11.1c1.3,11,1.4,22.1,0,33.1c-0.4,3.1-1.2,6.1-1.8,9.3c-0.5,0.4-1,0.8-1.4,1.3
		c-1.3,1.7-2.9,2.4-5,2.6c-0.9,0.1-2,0.3-2.5,0.9c-1.7,2.3-4.2,2.4-6.6,2.8c-0.7,0.1-1.5,0.2-2.1,0.2c-0.2,0.4-0.4,0.7-0.4,0.9
		c-0.7,8.7-1.3,17.4-2,26.1c-0.2,2.9-0.6,5.7-0.5,8.6c0.1,3.6,0.5,7.3,0.8,10.9c0.1,0.9,0.3,1.8,0.1,2.7c-0.5,3.5,0.1,7,1,10.2
		c-0.8,3.2-2.9,5-5.6,6.3c-1.1,0.5-2.1,0.9-3.2,0.2c0-0.9,0.7-1.1,1.3-1.4c1.2-0.8,2.4-1.5,3.6-2.4c1.6-1.2,2.3-2.8,1.7-4.8
		c-0.7-2.3-0.7-4.6-0.8-6.9c0-3.4-0.6-6.7-0.9-10.1c-0.2-2.5-0.4-5-0.2-7.4c0.7-8.9,1.7-17.9,2.5-26.8c0-0.5,0.1-1,0.1-1.8
		c-1.5,1.1-1.9,2.5-2.2,3.8c-0.8,3.1-1.8,6.3-2.2,9.5c-0.6,4.4-0.8,8.8-1,13.2c-0.1,2.7-0.1,5.5,0,8.2c0.3,6.1-0.8,11.9-2.7,17.6
		c-0.8,2.4-1.2,4.8-0.6,7.3c0.2,1,0,2,0,3.1c0,1.4-0.1,2.8-0.1,4.5c-1.1,1-2.7,1.2-4.4,0.9c-1.7-0.3-3.3-0.7-5-1
		c-0.7-0.1-1.5-0.2-2.1-0.2c-0.3,0.4-0.6,0.5-0.6,0.7c-0.5,5-2.4,9.5-4.3,14.1c-0.4,1.1-0.8,2.2-0.9,3.4c-0.7,9.1-2.7,18-4.8,26.8
		c-1,4.3-2.3,8.5-3.5,12.8c-1,3.7-1.4,7.4-1.4,11.2c0,4.5-0.5,9.1-0.9,13.6c-0.4,4.8-0.8,9.6-1.2,14.4c-0.2,2.2-0.6,4.3-1,6.7
		c0.3,1.3,0.7,2.9,1.1,4.6c2.5,0,4.1,1.7,5.4,3.6c0.7,1,1.2,2,1.6,3.1c1.3,3.1,3.6,5.4,5.7,7.8c0.7,0.9,1.9,1.4,2.9,2
		c2,1.2,4.1,2.3,6.1,3.4c2.1,1.1,4.1,2.2,5.7,4c1.5,1.7,3.6,2.4,5.9,2.7c4,0.6,8,0.5,12.1,0.6c4,0.1,6.6,2.9,6.5,7
		c0,0.8,0.2,1.5,0.3,2.3c0.1,0.6,0.3,1.3,0.3,1.9c0.3,3-0.5,4.3-3.4,5.3c-3.4,1.1-6.9,2.2-10.6,3.3c0.4,0.8,0.9,1.6,1.3,2.5
		c1.8,3.9,1.3,7.3-1.8,10.3c-2.7,2.6-5.7,4.9-9.6,5.6c-1,0.2-1.9,0.7-2.9,1c-1.7,0.6-3.4,1.3-5.2,1.6c-3.5,0.6-6.9,1.1-10.4,1.3
		c-4.9,0.2-9.9,0.1-14.8,0.1c-2.1,0-4.1-0.6-6.1-1.2c-2.9-0.9-5.8-1.6-8.6-2.4c-1.3-0.4-2.5-0.3-3.8,0c-4.8,1.3-9.7,1.6-14.7,0.6
		c-2.8-0.5-5.6-1.1-8.4-1.6c-1.4-0.3-2.8-0.7-4-2c0-1-0.1-2.1,0-3.3c0.8-7.2,1.7-14.4,1.5-21.7c0-1,0.1-2.2,0.6-3
		c1.1-1.8,1.7-3.8,2.4-5.8c0.5-1.5,1.1-2.9,2.3-4c1.5,0.2,2.9,0.4,3.6-1.1c-0.1-3.5-0.4-6.9-0.3-10.2c0.3-5.3,0.5-10.7,1.6-15.9
		c0.8-3.6,0.8-7.2,0.4-10.9c-0.4-4.5-1.1-9.1-1.2-13.6c-0.1-4.9-1.3-9.5-2.1-14.3c-0.7-4.1-1.4-8.2-1.9-12.3c-0.2-1.9,0-3.9,0.1-5.8
		c0.3-2.7,0.8-5.4,1-8.1c0.3-3.8,1.1-7.5,2.2-11.1c0.6-2.2,1.5-4.4,2.6-6.5c1-2.1,1.9-4.3,2.3-6.6c0.6-3.5,1.5-6.8,3-10
		c0.7-1.5,0.9-3.2,1.2-4.9c0.3-2.2,0.5-4.4,1.7-6.4c-0.9-0.6-1.8-1.4-1.7-2.7c0.1-1.9,0.1-3.9,0.5-5.8c1.6-8.3,1.7-8.3-0.4-16.5
		c-1.1-4.3-1.9-8.6-1.8-13.1c0.1-2.7,0.1-5.5-0.5-8.2c-0.7-3-1.3-6.1-1.8-9.1c-1.1-5.9-1.9-11.8-2.1-17.8c-0.1-2.3-0.6-4.7-0.6-7
		c0-3.5,0.1-7,0.5-10.5c0.6-5,0.3-9.9-1-14.7c-1.6-5.9-2.3-12-2.5-18.1c-0.1-2.5,0.2-4.9,0.6-7.4c0.3-1.6,0.9-3.3,1.8-4.7
		c1-1.4,1.6-2.9,2.2-4.5c1-2.7,2-5.4,3-8c0.3-0.8,0.7-1.7,1.2-2.5c0.5-0.8,1.1-1.4,1.6-2.2c-0.4-2.5-1.1-5.1,0.2-7.6
		c0.5-0.2,1-0.4,1.4-0.6c0.1-0.2,0.3-0.5,0.2-0.7c-0.1-3.1-0.1-6.2-0.4-9.3c-0.1-1.4-0.7-2.7-1.2-4.1c-0.9-2.3-2.2-4.5-2.7-6.9
		c-1.3-6.1-3.4-12-4-18.2c-0.3-3.2-1-6.5-0.7-9.7c0.3-3.2-0.2-6.2-0.6-9.3c-0.3-2.6-0.6-5.2-1-8.1c-2.1-2-3.3-4.9-4.4-7.8
		c-1.5-4.2-2.9-8.3-3.3-12.8c-0.3-2.7-1.1-5.3-1.7-8c-1.8-9.4-1.1-18.6,1.4-27.8c0.1-0.4,0.2-0.8,0.4-1.1c2-3,2.5-6.5,3.9-9.7
		c1.5-3.5,3.2-6.8,5.4-9.9c1.8-2.6,3.9-4.9,6.6-6.6c1.5-0.9,2.6-2.1,3.6-3.5c3-4,6.7-7.3,10.2-10.7c0.2-0.2,0.4-0.4,0.7-0.4
		c0.4,0,0.8,0,1.1,0.3c0.2,0.2,0.4,0.8,0.3,1c-0.4,0.7-0.8,1.3-1.3,1.9c-0.8,0.9-1.7,1.8-2.8,3c3.5-0.3,6.5-0.3,9.6,0.3
		c3.1,0.6,6.1,1.3,9.9,2.1c0.9-0.2,2.4-1.1,4.4-0.4c-0.4,0.6-0.8,1.2-1.2,1.8c1.2,1,2.3,2.1,3.5,3.1c1.3,1.2,3.1,2.1,2.9,4.3
		c1.2,1.6,2.4,3.1,4.4,3.6c1.1,0.3,2.3,0.6,2.8,2c-0.5,0.4-0.9,0.7-1.4,1.1c2.8,4.8,5.7,9.5,10.8,12.3c0.5-1.1-0.3-1.6-0.6-2.3
		c-1.8-4.3-3.7-8.6-5.6-12.9c-0.6-1.5-1.1-3,0-4.4c0.9-4.8,2-9.7,2.7-14.5c0.3-2.4,0.6-4.6,2.4-6.4c0.6-0.6,0.9-1.5,1.4-2.2
		c-0.2-0.5-0.3-1-0.5-1.4l-0.1,0.1c1.1,0.4,2.1,1,3.2,1.1c1.1,0.2,2.4-0.3,3.5-0.1c2,0.4,3.9,0,5.8-0.4c2.6-0.6,3.2-1.7,3.3-4.1
		c0.1-1.5-0.6-3.1-0.4-4.6c0.2-1.3,1.1-2.6,1.8-3.9c-0.4-0.6-0.8-1.1-1.2-1.6c-0.5,0.1-0.9,0.1-1.2,0.2c-1.5,0.7-1.5,0.7-2.8,0.4
		c-0.1-0.8,0.4-1.2,1-1.4c1-0.3,2-0.5,3-0.8c1.6-0.6,1.9-1.2,1.8-3c0-0.5-0.1-1-0.2-1.7c-1-0.1-2-0.1-2.9-0.4
		c-0.5-0.2-1.1-0.8-1.3-1.3c-0.2-0.4,0.1-0.9,0.3-1.7c0.9,0.5,1.4,1,2.1,1.1c1.1,0.2,2.3,0.1,3.5,0.1c1.1,0,2-1.1,1.7-2.1
		c-0.3-1.1-0.6-2.3-1.1-3.3c-0.9-1.9-1.8-3.7-2.8-5.6c-1.1-2.1-1.5-4.1,0.4-6.1c1.2-1.3,1-2.8,0.5-4.4c-0.8-2.6-1.5-5.2-2.1-7.9
		c-0.1-0.6,0-1.3,0-2c-0.6-0.6-1.3-1.4-1.9-2.1c4,0.5,7.2-1.4,10.4-3.3c0.3-0.2,0.4-0.9,0.6-1.3c0.2-0.1,0.5-0.2,0.6-0.3
		c0.1-0.1-0.1-0.4-0.2-0.6c-0.1,0.1-0.2,0.2-0.2,0.3c0,0.2-0.1,0.5-0.1,0.7c-2.8,1.2-5.4,2.7-8.5,3.2c-0.9,0.1-1.7,0.9-2.6,1.5
		c-1.9,0.2-3.8,0.5-6.1,0.7c0.5,0.6,0.8,1,1.1,1.3c-2.1,1.5-2.1,1.5-6.7,1.2c-1.2,2.6-3.6,4-5.8,5.9c-2.6,2.3-5.2,4.7-7.6,7.2
		c-1.7,1.8-3.1,3.8-3.7,6.3c-0.5,1.7-0.6,3.3,0.6,4.8c0.3,0.3,0.5,0.7,0.8,1.2c-1.4,0.6-1.9-1-3.2-0.7c-0.3,0.5-0.7,1.1-1.1,1.8
		c-1.4-1.2-1.9-2.8-2.5-4.4c-0.5-1.6-1.1-3.1-2.6-4.2c0.2-0.1,0.4-0.2,0.6-0.3c-0.2-0.1-0.4-0.2-0.6-0.3c0,0,0.1-0.1,0.1-0.1
		c0,0.3,0,0.5,0,0.8c-1.6-0.6-3.2-1.1-4.9-1.7l0.1,0.1c-0.4-0.3-0.8-0.6-1.3-1c-1.6,1.7-3,3.4-4,5.3c-1.3,2.2-1,4.2,0.9,6
		c1.7,1.6,3.5,3,4.9,4.9c0.4,0.5,1,0.8,1.6,1.1c1.7,1,1.8,1,4.5,0.2c0.1,0.5,0.3,0.9,0.4,1.4l0.1-0.1c-1.2,1.4-2.6,1.7-4.2,0.8
		c-1-0.5-2-1.2-2.9-1.9c-1.4-1-3-1.6-5.1-1c-1.1,2.5-2.2,5.2-3.4,8c1.1,1.9,0.9,3.9,0,5.9c-0.9,2.1-1.2,4.2-1.5,6.4
		c-0.3,2.5-0.7,5.2-2.1,7.7c-1-0.6-1.4-1.5-1.3-2.5c0.1-0.9,0.2-1.8,0.6-2.7c0.9-2.5,0.9-5.1,0.9-7.7c0-1.3-0.2-2.7-0.8-3.8
		c-0.6-1.2-0.7-2.4-0.7-3.7c0-3-0.6-5.9-1.5-8.8c-1.3-4.2-2-8.6-1.6-13c0.2-2.6-0.1-5.2-0.3-7.8c-0.4-4.6,0.2-9.1,1.7-13.4
		c0.3-0.7,0.7-1.5,0.6-2.2c-0.3-2.1,0.7-3.5,2.3-4.5c0.3-0.2,0.5-0.6,0.8-1.1c-0.6-0.6-1.3-1.2-1.8-1.7c-0.2-0.9,0.5-1.2,1-1.6
		c1-0.7,2.4-0.9,3.3-2c0.2-0.2,0.9,0.1,1.6,0.2c0.5-0.6,1-1.3,1.7-2.1c0.7,0.3,1.4,0.7,2.1,1c0.2-0.1,0.5-0.1,0.6-0.3
		c1.9-2,4.3-2.9,6.9-3.2c0.8-0.1,1.6-0.3,2.3-0.3c1.6,0.1,2.7-0.6,3.8-1.7c0.2-0.3,0.7-0.3,1.2-0.6c0.2,0.7,0.3,1.3,0.5,2
		c0.7,0,1.4,0.2,2.2,0.1c2.5-0.4,4.9-0.4,7.3,0.4c2.7,0.9,5.4,0.3,8-0.6c1.1-0.4,2.1-1,3.5-0.2c-0.2,0.6-0.3,1.4-0.5,2.1
		c0.2,0.1,0.4,0.3,0.6,0.3c1.8,0,3.6-0.1,5.4,0c0.5,0,1,0.2,1.5,0.4c0.9,0.4,1.8,0.8,3.1,1.3c0.3,0.6,0.7,1.6,1.2,2.6
		c1-1.1,2-2.1,2.9-3.2c1.3,1,2.4,1.9,3.6,2.9c-0.4,0.6-0.7,1.1-1.3,2c1.6-0.3,3-0.5,4.3-0.7c1.4,0.6,2.1,1.5,1.9,3.1
		c-0.2,1.2-0.9,2.5-0.2,3.7c-0.5,0.9-0.9,1.8-1.6,3c-2.4,1.5-5.8,1.6-8.8,2.7c-0.4,3.1,0.8,5.9,1.6,8.8c0.4,1.2,0.7,2.5,0.9,3.8
		c0.1,0.9-0.1,1.8-0.4,2.7c-0.3,0.7-0.9,1.2-1.6,1.9c0.7,3.1,2.1,6,3.3,9c0.2,0.5,0.6,0.9,0.8,1.4c1.2,2.7,0.8,4.4-1.5,5.6
		c-0.3,0.2-0.6,0.5-1,0.8c0,0.6,0.1,1.2,0.1,1.9c0,0.5,0.1,1,0.2,1.6c-0.6,0.5-1.1,1.1-1.8,1.7c1.3,2.7,0.8,5.2-1.4,7.2
		c0.2,0.8,0.3,1.5,0.5,2.1c1,3.3-0.3,6-3.4,7.2c-0.5,0.2-1,0.4-1.5,0.4c-2.8,0.1-5.7,0.2-8.9,0.3c-0.4,0.5-1,1.3-1.5,2.2
		c-1.7,3.2-2.1,6.6-2.5,10.1c-0.3,2.4-0.9,4.6-1.9,6.7c-0.2,0.5-0.5,0.9-0.6,1.4c-0.6,1.9-0.6,3.6,0.4,5.6c2.8,5.6,5.3,11.3,8,16.9
		c1.3,2.7,2.4,5.5,4.8,7.5c0.2,0.2,0.4,0.4,0.5,0.6c1.2,3,2.6,6,3.4,9.1c0.8,2.9,0.9,5.9,1.3,8.9c0.3,2.1,0.4,4.1,0,6.2
		c-0.2,1-0.4,2.1-0.3,3.1c0.1,4.2-1.5,7.9-3.6,11.4c-0.1,0.2-0.2,0.5-0.3,0.8c0.2,0.7,0.6,1.4,0.7,2.1c0.6,8.2,1.6,16.3,0.8,24.5
		c-0.4,3.5-0.7,7-1.1,10.5c-0.4,3.6-0.7,7.2,0.2,10.8c0.8,3.4,0.4,7,0,10.5c-0.1,1.4-0.3,2.9-0.6,4.2c-1.2,4.8-0.9,9.5-0.4,14.3
		c0.3,2.6,0.7,5.1-0.1,7.7c-0.5,1.4-0.4,3.1,1,4.3c0.8,0.6,0.7,1.6,0.6,2.6c-0.3,2.5-1.2,4.8-2.4,6.9c0,0.1-0.2,0-0.5,0.1
		c-0.8-2.9,0.2-6-0.8-9.1c-0.5,0.4-1,0.6-1,0.9c-0.1,1.9,0,3.8,0,6c-2.6,0.3-5-0.5-7.3-1.7c1.4-0.1,2.8-0.2,4.3-0.3
		c0.9-1.4,0.1-3,0.5-4.5c0-0.1,0.1-0.2,0.1-0.3C214.1,260.2,214.1,260.3,214.1,260.4z M178.1,29.7c0.3,0.3,0.5,0.6,0.8,0.9
		c0.1,0.3,0.2,0.7,0.4,0.9c0.2,0.2,0.6,0,0.9,0.1c-0.1-0.3-0.1-0.7-0.3-0.8c-0.3-0.1-0.7,0-1-0.1C178.5,30.4,178.3,30.1,178.1,29.7
		c-0.3,0-0.1-0.8-0.6-0.2C177.7,29.6,177.9,29.7,178.1,29.7z M207.8,24.4c0.5-0.1,0.8-0.3,0.7-0.8c0.6,0,0.9-0.2,0.7-0.8
		c0.4,0.1,0.7,0.2,0.5-0.4c-0.1,0.2-0.3,0.3-0.4,0.5c-0.3,0.3-0.5,0.5-0.8,0.8c-0.6,0-0.9,0.2-0.7,0.9c-0.1,0.1-0.3,0.1-0.4,0.2
		C207.6,24.6,207.7,24.5,207.8,24.4z M174.9,42.5l-0.2,0.1L174.9,42.5l0.1-0.2L174.9,42.5z M228.8,338.4c-0.1-0.1-0.1-0.2-0.2-0.2
		c0,0-0.1,0-0.2,0c0.2,0,0.3,0.1,0.5,0.1c0,0.7-0.1,1.3,0.7,1.7c0.1,0.8,0.6,1,1.5,1c1.4-1.7,2-3.7,2.4-5.9
		c0.7-4.1,0.9-8.2,0.9-12.4c0-7.8-0.3-15.5-1.9-23.2c-0.6-2.9-1.2-5.8-1.6-8.7c-0.5-3.6-1.7-7-3.4-10.3c-0.6-1.1-1.2-2.3-2.6-2.9
		c-0.3,0.6-0.5,1-0.7,1.4c-0.5,0.2-0.8,0.5-0.2,1.4c0-0.7,0.1-1.1,0.1-1.5c0.5,0.2,1,0.5,1.7,0.8c-2,2.5-2.6,5.2-2.6,8.2
		c0,5-0.5,10.1-0.1,15.1c0.5,6.2,1.1,12.4,2,18.6c0.3,1.9,0.4,3.9,0.6,5.8c-0.5,0.4-0.7,0.9-0.2,1.8c0-0.8,0.1-1.3,0.1-1.9
		c1.1,1.1,0.7,2.7,0.9,4c-0.2,0.2-0.3,0.4-0.2,0.3c0,0.2,0-0.1,0.1-0.3c1.7,2.1,2.3,4.7,3.3,7.2
		C229.4,338.4,229.1,338.4,228.8,338.4z M235,281.2c0.8-0.2,0.8-0.9,0.8-1.5c0.5,0.1,1,0.3,1.7,0.5c-2.7,3-3.2,6.6-3.4,10.2
		c0,0.4,0,0.8-0.1,1.2c-0.7,3.7,0.2,7.2,0.8,10.8c0.1,0.3,0.4,0.7,0.5,1c0.1-0.2,0.2-0.3,0.3-0.4c0.3-1,0.6-2.2,2-2
		c1,0.1,1.3,1.1,1.5,2.1c1,4.2,1,8.5,0.2,12.8c-0.1,0.6-0.5,1.2-0.8,1.8c-0.9,0.1-1.6,0.1-2.4,0.2c-0.1,4.3-0.2,8.6-0.2,12.9
		c0,1.3,0.6,2.5,1,3.7c0.1,0.4,0.8,0.5,1.2,0.8l-0.1-0.1c0,1.4,0,1.4-1.6,1.9c0-0.2,0.1-0.5,0.1-0.7c0-0.1-0.2-0.2-0.3-0.4
		c0,0.1,0,0.2,0,0.3c0.1,0.2,0.2,0.4,0.3,0.7c0.4,0.4,0.9,0.8,1.3,1.2c1.3-0.7,1.8-1.8,2.2-2.9c0.5-1.6,1-3.2,1.3-4.9
		c2.3-12.8,2.1-25.6,0.3-38.4c-0.4-3.1-1.2-6.1-2-9.1c-0.4-1.6-1-3.2-2.5-4.3c-0.7,0.1-1.2,0.5-1.2,1.3
		C235.6,280.3,235.3,280.8,235,281.2c-0.1,0.4-0.2,0.6-0.1,0.4C234.8,281.8,234.9,281.5,235,281.2z M207.7,19.7
		c-0.1-0.2-0.3-0.4-0.4-0.6c-0.1,0.1-0.1,0.2-0.2,0.3c0.2,0.1,0.4,0.1,0.6,0.2c0,0.4-0.1,0.8,0,1.1c0,0.1,0.3,0.2,0.5,0.4
		c0.1-0.2,0.2-0.5,0.2-0.6C208.3,20.2,208,20,207.7,19.7z M176.6,53.2l-0.1-0.1L176.6,53.2c0.3,1.8,0.3,1.8,1.8,2
		C177.6,54.4,177.1,53.8,176.6,53.2z M221.7,11.9c-0.4-2.4-0.5-2.5-2.7-1.3c1,0.5,1.9,0.9,2.8,1.2c0,0.7,0.1,1.5,0.1,2.2
		c2.2-0.3,2.2-0.4,1.7-2c-0.1,0-0.2-0.1-0.4-0.1C222.8,12,222.3,12,221.7,11.9z M142.9,172.8c0.1,0.3,0.3,0.5,0.4,0.8
		c0-0.1,0.1-0.3,0.1-0.3c-0.2-0.1-0.4-0.2-0.6-0.3c0-1.2,0.3-2.4,0-3.5c-0.9-2.9-2.2-5.8-3.3-8.7c-0.4,0.8-0.5,1.6-0.3,2.3
		c0.8,2.5,1.6,4.9,2.5,7.4C142,171.2,142.5,172,142.9,172.8z M185.9,154.9c-0.3,0.6-0.7,1.1-0.8,1.7c-0.7,3.8-0.4,7.7,0.3,11.8
		c0.5-0.6,0.9-0.9,1.1-1.3c0.9-1.8,1.8-3.7,2.8-5.6c-1.2-1.3-2.2-2.4-3.3-3.5c-0.1-1.1-0.2-2.1-0.2-3.2c0.7-0.7,0.9-1.6,0.7-2.5
		c0.4-0.2,0.8-0.4,1.2-0.7c0.9-0.8,1.6-2,2.9-2.2l-0.1-0.1c-0.5,1.2-1,2.4-1.4,3.4c0.7,1.4,1.2,2.7,1.9,4.1c0.3-0.3,0.7-0.5,0.8-0.8
		c2.3-5.8,4.9-11.5,4.2-18c-0.1-0.8-0.1-1.6,0-2.3c0.6-5.3-1.6-10-3.5-14.6c-1.8-4.2-4.2-8-6.4-12.1c-1.6-3.1-3.9-5.5-7.2-6.8
		c-1.8-0.7-3.6-1.4-5.4-2.2c-1.7-0.7-3.5-0.8-5.4-0.8c-3.8,0.2-7.4,1.3-11,2.4c-3.7,1.1-6.5,3.2-8.4,6.6c-0.4,0.7-0.8,1.3-1.2,2
		c-2.4,4.3-4.8,8.7-7.3,12.9c-1.1,1.9-1.6,3.8-1.3,6l0.1-0.1c-0.2,0.6-0.5,1.2-0.6,1.8c-0.1,0.8,0.1,1.6-0.1,2.3
		c-1.4,5.1-1.1,10.3-1.5,15.5c-0.2,3,0.3,6,1.5,8.8c0.1,0.3,0.4,0.5,0.9,1.1c0.2-1.1,0.4-1.8,0.3-2.3c-0.8-5.3-0.1-10.7-0.4-16
		c0-1,0-2.1,1.1-3c0.4,0.5,1,0.9,1.2,1.4c0.3,1.1,0.5,2.3,0.5,3.4c0.1,2.6-0.1,5.2,0,7.8c0,2.3-0.8,4.7,0.6,6.9c0.1,0.2,0,0.5,0,0.7
		c-0.5,4.5,0.5,8.7,1.8,13c1,3.1,1.8,6.2,2.4,9.4c0.9,5.3,1.5,10.6,2.2,15.8c0.2,1.3,0.5,2.7,0.1,3.9c-0.9,3-0.4,5.9-0.3,8.9
		c0,0.7,0.3,1.5,0.5,2.1c2.9,0,3.5,0.5,4.3,3.3c-1.5-0.2-2.6-1.5-4.2-1.6c0,0.7-0.1,1.2,0,1.7c1,6.2,2.3,12.3,5,18
		c1.1,2.2,2.2,4.4,3.4,6.6c1.2,2.4,2.5,4.9,3.6,7.4c1.1,2.5,2.4,4.9,3.1,7.6c0.4,1.5,0.8,3,1.6,4.3c3.3,5.9,6.7,11.7,10.1,17.6
		c0.1,0.1,0.4,0.1,0.6,0.2c0.1-0.6,0.2-1.3,0.6-2.9c1.2,4.1,3.4,6.2,6,8c0.3,0.2,0.6,0.6,0.7,0.9c0.7,1.7,1.3,3.3,1.9,4.9
		c-1.4,1-2.2,1-2.7,0c-0.6-1.4-1-2.9-1.6-4.7c-0.3-0.2-0.7-0.7-1.3-1c-0.6-0.4-0.9-1.2-1.9-1c1.2,2.2,2.4,4.4,3.5,6.6
		c0.4,0.8,0.7,1.7,0.8,2.6c0.2,3.1,1,6.2,0.5,9.3c-0.1,0.8,0,1.6,0.1,2.3c0.3,2.8,0.6,5.6,1.6,8.4c0.9,2.4,1.1,5.1,2.1,6.9
		c1.8,1.5,3.3,2.8,4.8,4.1c0.1,0.1,0,0.4,0,0.7c-1.3,0.1-2.2-0.6-3.1-1.3c-0.6-0.5-1.2-1.1-1.9-1.3c-1.9-0.4-2.5-1.7-3-3.2
		c-0.4-1.4-0.6-2.8-1-4.2c-0.3-0.8-0.8-1.6-1.1-2.2c-1.9-0.1-3.4-0.3-5-0.4c-2.6-0.2-3.8,0.9-3.9,3.6c-0.1,1.4,0,2.9,0.1,4.3
		c0.2,1.8,0.5,3.6,1.8,4.9c2.2-0.2,4.2-0.4,6.3-0.4c2.1,0,4-1.4,6.1-0.7c0.6,1.1,1.2,2.3,1.8,3.5c1.3,0.1,2.4,1.2,3.8,0.5
		c0.1-0.8,0.3-1.6,0.4-2.5c0.3,0.1,0.5,0.1,0.6,0.2c0.5,0.9,1,1.8,1.5,2.7c0.3,0.5,0.8,1.2,1.3,1.4c1.7,0.5,3.3,0.5,4.4-1
		c-0.1-1.9-1.7-3.2-1.4-5.1c1.1-0.2,2.1-0.4,3-0.7c0.9-0.3,1.8-0.7,2.8-1c-0.1,1.2-0.8,1.5-1.5,1.8c-0.8,0.4-1.6,0.7-2.5,1.1
		c0.7,1.9,1,3.7,2.9,4.4c0.3-0.1,0.4-0.1,0.5-0.2c5.1-3,4.2-1.9,3.4-7.3c0.8-0.3,1.6-0.7,2.4-1.1c0.8-0.4,1.5-0.8,2.4-1.3
		c-0.2,1.9-2.1,2-2.9,3.4c0.4,1.6,0.8,3.5,1.2,5.3c1.4,0.4,2.5,0.4,3.4-0.5c0.6-1.4-0.5-2.6-0.5-3.8c0.2-3.4-0.7-6.7-0.9-10
		c0-0.8-0.2-1.6-0.4-2.3c-1.6-6.6-5.7-11.9-9.3-17.5c-0.1-0.2-0.4-0.4-0.6-0.5c-3.5-2.5-5-6.2-5.5-10.4c-0.2-1.3-0.4-2.6-0.6-3.9
		c-0.2-0.9-0.3-1.8-0.7-2.6c-1.4-3.1-2.7-6.2-4.3-9.2c-0.7-1.4-1.3-2.8-1.7-4.3c-0.8-3.3-2.2-6.4-2.3-9.8c0-1.1-0.5-2.3-1-3.4
		c-1.9-3.9-2.1-8-1.5-12.2c0.5-3.4,0.2-6.7-1-10c-2.2-6.4-4.4-12.8-6.5-19.2c-0.4-1.3-0.7-2.8-0.8-4.2c-0.1-0.6,0.1-1.4,0.5-1.8
		c1.1-1,1.2-2.3,1.3-3.5c0.5-3.3,0.9-6.7,1.6-10c1.4-6.8,1.7-13.7,1.9-20.6c0.1-3.5,0.2-7,0.6-10.5c0.2-1.4,0.7-2.9,1.6-3.9
		c2-2.1,4.1-4.3,6.9-5.5c0.3,0.8-0.4,1.2-0.8,1.6c-0.8,0.9-1.7,1.6-2.5,2.4c-1.1,1-1.9,2.2-1.8,3.7
		C186.4,153.3,186.1,154.1,185.9,154.9z M168.7,282.2c0.6-0.2,1.2-0.4,1.7-0.6c2.2,0.9,3.6,2.2,4.3,4.3c0.6,1.8,1.4,3.6,3.1,4.3
		c0.3,1.8,0.6,3.3,0.9,4.8c0.3,1.4,0.6,2.8,0.9,4.2c0.3,1.4,0.2,2.9,1.3,4.2c1.5-5.9-0.5-11.2-1.7-16.7c-0.1-0.4-0.3-0.7-0.5-1
		c-2.7-3.5-4.4-7.6-6.3-11.6c-1.3-2.8-2.7-5.6-4.2-8.3c-1.6-2.8-3.3-5.6-4.9-8.4c-0.2-0.3-0.5-0.6-0.6-0.9c-1-0.2-2-0.3-3.1-0.5
		c-0.2-1.3-0.4-2.5-0.6-4c-1.6,2.7-2,5.9-5,6.9c-1.1,5.7-3,10.8-6.8,14.7c-1.5,5.6-1.3,10.9-1,16.2c0.2,3.8,0.5,7.5,1,11.3
		c0.5,3.6-0.3,7.3,1.3,10.7c0,0.1,0,0.3,0,0.4c-0.1,1.7,0,3.4-0.3,5c-1.2,5.4-0.8,10.9-0.5,16.3c0.3,5.7,1,11.4,1.5,17.1
		c0.2,2.7,0.3,5.4,0.4,8.2c0,0.9,0.1,1.8,1,2.4c0.9,0.6,0.9,1.5,1,2.4c0.2,3.4,0.3,6.7,0.6,10.1c0.2,2.5,0.5,4.9,1,7.3
		c0.7,3.4,1.7,6.7,2.6,10.4c1-1.2,1-2.3,1.1-3.2c0.5-4.7,1.3-9.3,3-13.7c1.3-3.4,2.1-6.9,1.9-10.6c0-1-0.2-2.1,0.6-3
		c0,2,0,3.9-0.1,5.9c-0.2,2.1-0.2,4.2-0.8,6.2c-2,7.1-2.6,14.3-2.9,21.6c-0.2,5-1,9.8-2.3,14.6c-0.2,0.6,0,1.2,0,1.9
		c1.6,0.8,3.2,0.6,4.7,0.3c4.7-0.9,9.5-1.8,14.2-2.7c0.3-0.1,0.6-0.4,1-0.6c0.5-1.5,0.4-3.1,0.3-4.6c-0.6-8.5,0.9-16.9,1.1-25.3
		c0.1-2.8,0.5-5.7,0.8-8.6c0.1,0.4,0.3,0.6,0.3,0.8c-0.1,4.2-0.3,8.3-0.4,12.5c-0.1,3.5-0.1,7-0.9,10.5c-0.2,0.9-0.1,1.8,0,2.7
		c0.1,1.8,0.3,3.6,0.4,5.5c0.2,2.3,0.4,4.6,0.6,6.8c2.6,1.3,5.1,2.1,7.7,2.4c3,0.3,5.9,0.8,8.9,1.3c1.7,0.3,3.2,0.7,5,0.2
		c1.1-0.3,2.3,0.1,3.5,0.2c2,0.3,4.1,0.6,6.2,0.9c0.6-1.8,0.7-3.5,0.6-5.2c-0.3-2.7-0.3-5.4,0.6-8.1c0.3-0.9,0.1-2,0.2-3.1l-0.1,0.1
		c1-0.5,1.1-1.4,1.3-2.3c0.6-2.9,1.1-5.8,1.1-8.9c-0.1-5.8,0-11.7,0.7-17.5c0.8-6.1,2-12,4.1-17.8c0.2-0.5,0.5-1,0.5-1.4
		c0.2-3,0.5-6,0.6-8.9c0-0.9-0.4-1.8-0.6-2.6c-0.8-2.9-1.6-5.7-2.5-8.6c-0.3-1-0.6-1.9-0.9-3c-1.2,0.1-2.3,0.2-3.3,0.1
		c-1.1-0.1-2.1-0.5-3.2-0.8c-1.5,1.6-3.2,2.7-5.5,1.7c-1-0.4-1.7,0.1-2.6,0.4c-2.1,0.8-4.3,0.7-6-0.5c-2-1.4-4-1.2-6.3-1.3
		c-0.8-1.3-1.6-2.6-2.5-4.2c-1.5,0.4-3,0.6-4.4,1.6c0.2,1.5,0.4,2.9,0.5,4.3c0.1,1.2,0.2,2.3,0.1,3.5c-0.3,3-0.6,6-1.2,8.9
		c-0.5,2.6-0.3,5.5-2.5,7.6c-0.4,0.4-0.4,1.2-0.4,1.8c0,1.3,0.2,2.6,0.3,3.9c0.1,1.4,0.2,2.8,0.4,4.2c-0.1,0-0.3,0-0.4,0
		c-0.4-3-0.8-6.1-1.2-9.3c-1.6,0.3-3.1,0.6-4.7,0.8c-2.8,0.3-5.2-0.3-6.6-3c-0.2-0.3-0.5-0.5-0.7-0.7c-0.5,0.2-0.8,0.4-1.1,0.6
		c0.1-2.1,0-4.1-0.6-6.1c-3.1-10.1-4.1-20.5-4.8-31c-0.1-2.2-0.6-4.4-0.5-6.6c0.2-4.4,0.6-8.8,1.2-13.2c0.3-1.9,1.1-3.7,2-5.4
		c0.6-1.1,1.9-1.7,2.8-2.6c1-0.9,0.4-2.6,2-3.7c-0.3,1.4-0.4,2.3-0.6,3.3c1.2,0.7,2.3,1.4,3.4,2.1c-5.7,0.3-7,1.4-7.9,7
		c-0.5,2.8-0.7,5.7-0.8,8.5c-0.4,10.6,0.5,21,2.4,31.4c0.9,5,2.1,9.9,4.3,14.5c1.6,3.3,2.9,3.9,7,3c-0.7-1.5-1.6-3-2.1-4.5
		c-0.9-2.8-1.7-5.7-2.4-8.6c-3.3-14.8-4.5-29.8-2.9-44.9C166.7,286.3,167.3,284.1,168.7,282.2z M182.8,198.8l-0.1-0.1
		c-0.3,0.7-0.1,1.2,0.3,1.8c0.4,0.5,1.3,0.8,1.1,1.7c-2.1,0.3-3.4-1.4-5.1-1.7c-0.5,1.8-0.5,1.8,0.1,2.5c0.5,0.7,1.3,1.3,1.6,2.1
		c1.1,2.3,2.3,4.7,3.2,7.1c1,2.7,2,5.4,2.6,8.2c0.7,3.5,1.9,6.7,3.5,9.8c-0.3,0.6-0.9,1.1-1,1.7c-0.5,3.9-1.2,7.8-0.1,11.8
		c0.9,3.2,3,5.7,3.8,9c2.3,0.2,4.5,0.5,6.7,0.5c4.8,0,9.6,0.7,14.2,2.2c0.9,0.3,2,0.3,3,0.4c0.2-0.6,0.4-1,0.4-1.3
		c-0.1-2.9-0.1-5.7-0.2-8.6c0-0.6,0.1-1.3-0.2-1.9c-0.9-2.7-0.5-5.4-0.2-8.1c0.2-1.8,0.7-3.6,0.9-5.4c0.5-4.3,1.2-8.5,0.4-12.8
		c-1-5.3-1.1-10.6-0.1-15.9c0.5-2.8,1-5.6,1.6-8.4c0.5-2.2,0.6-4.3,0.4-6.6c-0.4-4.1-0.6-8.3-0.7-12.5c0-1.4-0.4-2.5-1.4-3.6
		c0.8-1.6,1.5-3.3,2.3-4.9c0.9-1.8,1.4-3.5,1-5.6c-0.4-1.9-0.3-3.9-0.3-5.8c0.1-4.4-0.4-8.8-1.2-13.2c-0.3-1.8-0.6-3.6-1.3-5.3
		c-1.3-3.1-3-6-4.4-8.9c-1.1-0.2-2.2,0-2.8-0.5c-2.5-1.9-4.9-3.9-7.1-6.1c-2.3-2.4-4.4-5.1-6.4-7.8c-3.4-4.7-7.2-8.9-11.7-12.5
		c-1.9-1.5-3.9-2.6-6.1-3.3c-3.1-1-6.2-2-9.1-3.5c-3.2-1.6-6.1-0.5-9,0.3c-1.1,0.3-3.5,3-4.9,5.1c0.9-0.3,1.4-0.5,2-0.7
		c2.1-0.5,4.3-1.1,6.5-1.4c1.9-0.3,3.9-0.4,5.8,0.2c4.7,1.6,9.3,3.4,13.3,6.4c1.7,1.3,3.1,2.7,4.1,4.6c1.1,2.1,2.2,4.1,3.4,6.1
		c2.1,3.6,4.1,7.2,5.6,11.1c1.6,4.2,2.1,8.3,1.3,12.6c-0.2,1-0.5,2.1-0.4,3.1c0.4,5.6-1.4,10.8-3.2,15.9c-0.7,2.1-1.3,4.2-2.4,6.2
		c-2.1,3.8-4.5,7.5-7,11.6c0,1.8,0.1,3.9,0,5.9c-0.2,3.1-0.8,6.1-2.2,9c-1.6,3.1-2.9,6.3-3.8,9.8c0.6,0.5,1.1,0.8,1.8,1.3
		C182,199.8,182.4,199.3,182.8,198.8z M158.6,550.4c2.1-3.1,3.8-6,5.9-8.6c1.9-2.2,2.1-4.7,2.1-7.3c0-3.1-0.5-6.2-0.7-9.3
		c-0.3-4.6,0.1-9.1,2.1-13.3c0.9-1.9,1.3-3.9,1.6-6c0.7-7.4,1.9-14.7,3.3-22c0.9-4.6,1.9-9.1,2.3-13.8c0.5-5.8,1.2-11.6,1.4-17.5
		c0.1-3.7,0.5-7.5,0.8-11.2c1.1-0.1,1.4,1.7,2.6,1c1.2-4,1.9-5.3,3.9-6.9c0.1,0.4,0.4,0.8,0.3,1.1c-1,3.1-2.5,5.9-4.2,8.2
		c0.1,2.3,0.4,4.2,0.2,6.1c-0.3,3.9-0.7,7.8-1.1,11.6c-0.3,3.6-0.6,7.3-0.9,10.9c-0.2,2.5-0.5,4.9-0.9,7.3
		c-0.7,3.8-1.6,7.6-2.5,11.4c-1.6,6.6-2.7,13.2-3.7,19.9c-0.3,2.2-0.7,4.4-1.5,6.4c-0.4,1.1-0.9,2.1-0.9,3.3c-0.1,2.9-0.1,5.7,0,8.6
		c0,0.7,0.3,1.5,0.5,2.2c2.7,0.3,5.2,1.3,8,0.9c0.9-1.7,1.7-3.5,2.6-5.2c0.8-1.4,1-2.7,0.3-4.1c-0.8-1.6-0.7-3.3-0.4-5
		c0.2-1.3,0.6-2.5,0.9-3.8c0.2-0.9,0.4-1.8,0.5-2.7c0.3-4.8,0.5-9.6,0.7-14.4c0.3-4.8,0.6-9.6,0.8-14.4c0.3-7.7,1.9-15.2,4.5-22.5
		c0.7-2.1,1.5-4.2,1.9-6.3c1.1-6,2.1-12,3.1-18.1c0.5-2.5,0.7-5.2,2.2-7.4c0.2-0.3,0.3-0.7,0.4-1.1c0.4-2.7,1.4-5.3,2.4-7.8
		c0.6-1.7,1.1-3.4,0.8-5.4c-1.5-0.3-2.8-0.5-4.1-0.1c-0.5,2.2-0.9,4.2-1.5,6.2c-0.4,1.4-0.7,2.7-0.8,4.2c-0.2,3.5-2.7,7-6.3,9.2
		c0.1-0.5,0.1-0.8,0.2-1.1c1-2,2-3.9,2.9-5.9c0.3-0.7,0.8-1.5,0.7-2.2c-0.1-2,0.7-3.8,1.3-5.6c0.5-1.6,1.2-3.1,1-5
		c-4.7-1.2-9.4-2.3-14.2-3.4c-5.5,1-11.2,2.1-16.9,3.1c-0.5,1.4-0.8,2.7-1.3,3.9c-0.1,0.3-0.7,0.5-1.4,1c-0.1-2-0.2-3.5-0.3-5.2
		c-0.8-0.4-1.6-0.7-2.4-1.1c-0.2,0.6-0.3,0.9-0.4,1.3c-0.2,3.7-1.1,7.2-2.3,10.6c-0.7,2-1.2,4-1.4,6.1c-0.1,2-0.7,3.8-1.3,5.7
		c-1.1,3.3-2.5,6.6-3.2,10c-1.3,6.2-2.4,12.5-3.4,18.8c-0.2,1.5-0.1,3.1,0.1,4.7c0.3,2.2,0.8,4.3,1.2,6.5c0.9,4.7,1.9,9.4,2.8,14.1
		c0.5,2.4,0.7,4.9,0,7.3c-0.1,0.5-0.2,1-0.1,1.5c0.2,2.7,0.3,5.5,0.7,8.2c0.8,5.2,0.3,10.4-0.6,15.5c-1.3,7.8-1.5,15.8-1.2,23.8
		C149.8,549.9,154.3,549.6,158.6,550.4z M143,550.6c-2,2.2-3.4,4.8-3.9,7.8c-0.5,2.6-1,5.1-1.5,7.7c-0.3,1.7-0.7,3.3-0.7,5
		c-0.1,4.4-0.6,8.7-1.3,13.1c5.8,2.3,11.7,3,17.7,2.7c1.6-0.1,3.2-0.1,4.6-0.6c2.8-1,5.6-0.8,8.4,0c0.9,0.2,1.8,0.2,2.7,0.5
		c2,0.6,4,1.2,5.8,2.1c1.2,0.6,2.4,0.9,3.7,0.9c7.7,0.4,15.3-0.2,22.9-1.3c0.8-0.1,1.5-0.2,2.3-0.4c2.4-0.4,4.8-0.9,7.3-1.4
		c1.1-0.2,2.4-0.3,3.4-0.9c2.2-1.4,4.2-3,6.3-4.6c1-0.8,1.3-1.9,1.2-3.1c-0.1-0.8-0.2-1.5-0.4-2.3c-0.6-2.4-2-3.7-4.6-4
		c-5.1-0.7-10.2-1.8-15.2-3.2c-0.5-0.1-1-0.6-1.4-0.5c-1.7,0.5-2.9-0.5-4.2-1.3c1-1.3,0.1-1.5-0.9-1.7c-0.6,0.5-1.1,0.9-1.6,1.3
		c-2.1-1-0.6-2.7-1.1-4c-0.7-0.5-1.4-1-2.2-1.6c-1.9,1.5-3.7,3-6.2,3.1c-0.3-3.1,2.3-4.5,3.6-6.7c-0.6-1.3-0.8-2.8-2.6-2.9
		c-2.5,2.2-3.9,5.8-8,5.6c-0.1-0.5-0.3-0.9-0.3-1.2c0-0.5,0.1-1.1,0.4-1.5c1.5-2.1,3.1-4.1,4.8-6.2c-0.5-0.3-1.1-0.7-1.7-1.1
		c-3,2.6-4.5,6.3-7.9,8.1c-1.2-2.6-0.1-4.7,5.3-10c-1.3-1.2-2.8-2.4-4-3.7c-1.3-1.4-2.3-3.1-3.6-4.9c-1.6,2.3-3.2,4.6-4.6,6.9
		c-1.2,2-2.6,3.9-3.4,6.1c-1.2,3.5-3.8,5.3-7,6.1c-3.2,0.8-6.4-0.2-7.9-3.3c-0.3-0.7-0.5-1.5-0.8-2.2
		C145.4,551.9,144.6,550.9,143,550.6z M209.7,551.3c-1.6-0.1-1.9,1.7-3.4,0.8c0.2-1.2,0.4-2.5,0.6-3.8c-0.8-0.5-1.6-0.9-2.3-1.3
		c-1,1.8-2,3.2-3.7,4.2c-0.5-2.2-0.1-4,1-5.5c-0.8-1-1.7-1.3-2.6-1.6c-2.3,4.1-3,4.7-5.9,5.5c-0.1-1.6,0.1-3.1,0.7-4.6
		c0.4-1,0.8-1.9,1.2-2.9c0.3-0.7,0-1.2-0.8-1.3c-1.2,1-2.3,2.1-3.5,3c-1.9,1.4-2.9,1.7-4.7,1.7c1.6-3.2,3.2-6.3,4.7-9.3
		c-1.3-2.6-2.5-5-3.7-7.5c-0.5-0.9-0.9-1.9-2.2-2c-0.3,0.2-0.8,0.3-1,0.6c-1.5,2.1-3.1,4.1-3.8,6.7c-0.8,3.3-2.4,5.9-5.5,7.7
		c0.8,0.8,1.4,1.5,2.1,2c1.9,1.4,3.9,2.7,5.7,4.1c3,2.3,6,4.5,7.8,8c0.8,1.6,2.2,2.9,3.6,4c1.8,1.5,3.8,2.8,5.6,4.2
		c1.3,1,2.6,1.6,4.2,1.9c5.3,1.1,10.7,2.2,15.3,3.1c2.2-0.9,3.7-1.6,5.3-2.1c3-0.9,5.9-1.8,8.7-3.8c-0.6-3.2-0.8-6.4-2.6-9.3
		c-2.5-0.4-5-0.1-7.5-0.2C218.4,553.7,213.7,553.4,209.7,551.3z M170.4,283.2c-1.2,0.5-1.4,1.6-1.7,2.5c-1,3.3-1.4,6.6-1.4,10
		c-0.2,13.1,1,26,3.7,38.8c0.7,3.4,1.8,6.8,3.7,9.8c0.5,0.8,0.9,1.6,2.2,1.4c1.3-1.1,1.7-2.8,2-4.5c1-4.9,1.3-9.8,1.2-14.8
		c0-1.3-0.1-2.6-0.9-3.7c-0.5,0-0.9,0-1.2,0.1c-3.4,0.6-4.5,0.1-5.6-3c-0.2-0.6-0.5-1.2-0.5-1.9c-0.1-2.7-0.1-5.5-0.1-8.2
		c0.1-1.5,1.2-2.5,2.8-2.8c0.9-0.2,1.8-0.1,2.7-0.2c0.6-0.1,1.1-0.4,1.7-0.6c-0.3-1.9-0.7-3.5-0.9-5.2c-0.5-6.4-2.9-12.1-6.7-17.2
		C171.1,283.6,170.7,283.4,170.4,283.2z M228.3,342c-0.3-0.6-0.7-1.1-0.9-1.7c-1-2.5-2.3-5-2.9-7.6c-1.1-4.7-1.9-9.4-2.7-14.2
		c-1.6-9.9-1.8-19.9-1.6-30c0.1-3.1,0.6-6.2,1.5-9.2c0.2-0.6,0.7-1.1,0.3-1.8c-3.7-0.2-4.9,0.5-5.9,3.6c-0.2,0.6-0.4,1.2-0.5,1.9
		c-1,3.9-1.2,8-1.3,12c0,3.9,0.3,7.8,0.4,11.7c0.2,5.1,0.5,10.1,2,15c0.2,0.6,0.2,1.3,0.3,1.9c0.4,5.2,1.8,10.2,4,15
		C222.6,342.1,223.9,342.7,228.3,342z M231.6,286c0.6-1.9,0.9-3.2,1.3-4.4c0.4-1.2,0.9-2.4,1.3-3.7c-2.2-0.6-3.7,0.2-5.1,1.4
		C229.9,281.4,230.6,283.3,231.6,286z M149.2,552.9c0.9,3.3,1.2,3.5,6.1,3.3c0.6-0.7,1.3-1.6,2.2-2.7
		C154.6,553.3,152.1,553.1,149.2,552.9z M173.3,540c2.4-2.2,2.4-2.2,2.8-3.7c-0.8,0.2-1.5,0.3-2.2,0.5c-0.8,0.1-1.5,0.2-2.3,0.3
		c-0.2,0-0.3,0.3-0.6,0.7C171.7,538.4,172.4,539.1,173.3,540z M157,244.7c0.1,1.7,0.1,2.7,0.3,3.6c0.1,0.7,1,0.9,2.1,0.4
		C159.1,247.4,158.8,246.1,157,244.7z M237.9,304.1c-1.5,0.8-0.8,1.5-0.7,2.2c0.1,0.6,0.2,1.2,0.3,1.9c0.1,0.7,0.1,1.5,0.2,2.2
		C238.3,308.4,238.1,306.4,237.9,304.1z M206.8,27.3c-3.7,1-3.8,1-4.5,3.4C203.8,29.5,205.1,28.5,206.8,27.3z M183.4,15
		c-0.5,0.9-0.8,1.5-1.2,2.1c1.2,0.4,2,1.6,3.4,0.6C184.9,16.8,184.2,16,183.4,15z M189,19.5c1.5,1.4,2.1,0.6,2.8-0.3
		c-0.3-0.5-0.6-1-1.1-1.7C190,18.3,189.6,18.8,189,19.5z M203.3,20c-2.9-2.1-2.9-2.1-4-1.4C200.6,19,201.2,20.7,203.3,20z
		 M213.6,20.8c1.5-0.2,3-0.3,5-0.5C216.4,19.5,216.4,19.5,213.6,20.8z M220.5,341.9c-0.5,1.3-0.5,2.2,0,3.2
		C221.6,343.4,221.6,343.4,220.5,341.9z M170.8,33c0.4-0.4,0.9-0.7,1.2-1.2c0.1-0.2-0.1-0.6-0.2-1c-0.3,0.1-0.8,0.1-1,0.3
		C170.3,31.6,170,32.2,170.8,33z M184.5,6.8c-0.1-0.1-0.2-0.2-0.3-0.2c-0.5-0.1-1,0.1-1.1,0.6c0,0.1,0.1,0.3,0.1,0.3
		c0.4-0.1,0.8-0.3,1.2-0.4C184.4,7.1,184.5,6.9,184.5,6.8z M223,314.3c0,0-0.1,0-0.1,0c0,0.7,0,1.5,0,2.2c0,0,0.1,0,0.1,0
		C223,315.8,223,315.1,223,314.3z M238,313.1c-1.2,0.9-1.2,0.9,0,2C238,314.4,238,313.8,238,313.1z M169.5,36.5
		c-0.3-0.4-0.4-0.5-0.5-0.7c-0.2,0.4-0.5,0.8-0.7,1.2c0,0,0.2,0.3,0.2,0.2C168.9,37,169.2,36.8,169.5,36.5z M181,38.8
		c0.2,0.7,0.5,1.2,1.3,0.9c0.1-0.1,0.3-0.5,0.2-0.7C182.1,38.3,181.6,38.2,181,38.8z M224.7,324.3c-0.1,0-0.2,0-0.3,0
		c0,0.6,0,1.1,0,1.7c0.1,0,0.2,0,0.3,0C224.7,325.4,224.7,324.9,224.7,324.3z M223.8,320.5c0,0-0.1,0-0.1,0c0,0.5,0,1,0,1.5
		c0,0,0.1,0,0.1,0C223.8,321.5,223.8,321,223.8,320.5z M176.4,17c-0.7,0.3-0.9,0.8-0.5,1.5C176.6,18.1,176.8,17.7,176.4,17z
		 M210.9,8.1c-0.3-0.2-0.5-0.4-0.8-0.5c-0.1,0-0.4,0.4-0.4,0.4c0.2,0.2,0.5,0.4,0.7,0.6C210.6,8.6,210.7,8.4,210.9,8.1z M178.6,13.1
		c0.2-0.1,0.5-0.2,0.6-0.4c0.1-0.1-0.1-0.4-0.2-0.6c-0.3,0.1-0.5,0.3-0.8,0.4C178.4,12.7,178.5,12.9,178.6,13.1z M199.4,34.1
		c-0.2-0.1-0.5-0.2-0.6-0.2c-0.1,0.1-0.2,0.4-0.3,0.6c0.2,0.1,0.4,0.2,0.5,0.2C199.2,34.5,199.3,34.2,199.4,34.1z M195.2,30.4
		c-0.2-0.2-0.2-0.3-0.3-0.4c-0.2,0.3-0.5,0.5-0.7,0.8c0,0,0.2,0.2,0.2,0.2C194.7,30.9,195,30.7,195.2,30.4z M190.5,32.9
		c0.2-0.1,0.5-0.1,0.6-0.3c0.1-0.2-0.1-0.4-0.2-0.6c-0.3,0.1-0.5,0.3-0.8,0.4C190.3,32.6,190.4,32.7,190.5,32.9z M228.8,10.9
		c0.2-0.3,0.4-0.5,0.6-0.8c-0.2-0.1-0.4-0.4-0.5-0.3c-0.3,0.2-0.5,0.5-0.7,0.7C228.4,10.6,228.6,10.7,228.8,10.9z M170.6,46.9
		c0.2-0.8,0.4-1.1,0.4-1.4c0-0.1-0.1-0.3-0.2-0.3c-0.2,0.1-0.5,0.2-0.5,0.2C170.4,45.8,170.5,46.1,170.6,46.9z M174.4,50.1
		c0.2-0.8,0.3-1.1,0.3-1.4c0-0.1-0.3-0.2-0.4-0.3c0,0-0.2,0.2-0.2,0.2C174.2,49,174.2,49.3,174.4,50.1z M233.2,289.9
		c0-0.2,0-0.4,0-0.7c-0.1,0-0.2,0-0.2,0c0,0.2,0,0.4,0,0.7C233.1,289.9,233.2,289.9,233.2,289.9z M215,22.5
		c-0.1-0.1-0.1-0.2-0.2-0.2c-0.1,0-0.2,0-0.3,0c0.1,0.1,0.1,0.2,0.2,0.3C214.8,22.6,214.9,22.5,215,22.5z M216.6,10.7
		c0,0.1,0,0.2,0.1,0.3c0.1,0,0.2,0,0.3,0c0-0.1-0.1-0.3-0.1-0.4C216.8,10.6,216.7,10.7,216.6,10.7z M155,402.2l-0.1,0.3l0.1,0
		L155,402.2z M191.1,36.9c0-0.1-0.1-0.2-0.1-0.3c-0.1,0.1-0.2,0.1-0.2,0.2c0.1,0.1,0.1,0.3,0.2,0.4C191.1,37.1,191.1,37,191.1,36.9z
		 M176.9,34.9c-0.1,0.2-0.2,0.5-0.2,0.7c0,0.1,0.2,0.2,0.3,0.3c0.1-0.2,0.3-0.3,0.3-0.5C177.2,35.3,177,35.1,176.9,34.9z
		 M223.1,282.2c0-0.1-0.1-0.2-0.1-0.3c-0.1,0.1-0.1,0.2-0.2,0.3c0,0.1,0,0.2,0.1,0.3C223,282.4,223,282.3,223.1,282.2z M221.6,294.7
		l-0.1-0.3l-0.1,0.3L221.6,294.7z M226.8,334.5l0.2,0l-0.1-0.3L226.8,334.5z M172.4,19.3c-0.1-0.1-0.1-0.2-0.2-0.3
		c-0.1,0.1-0.2,0.1-0.2,0.2c0,0.1,0.1,0.2,0.2,0.2C172.2,19.5,172.3,19.4,172.4,19.3z"/>
	<path d="M623.2,480.5c-0.2,0.6-0.4,1.2-0.7,1.7c-1,1.4-1.4,3-1.6,4.7c-0.4,3.1-0.9,6.1-1.4,9.1c-0.1,0.5,0,1,0.1,1.5
		c1.4-0.1,2.2-1,2.9-1.9c1.1-1.3,2.1-2.6,3.2-3.8c0.4-0.5,1-0.8,1.4-1.2l-0.1-0.1c-0.2,0.6-0.3,1.3-0.6,1.7
		c-1.7,2.3-3.5,4.5-5.2,6.7c-1.5,2-3.4,3.1-5.9,3.2l0.1,0.1c0.4-0.6,0.7-1.3,1.2-2.1c-1.2,0.2-2.1,0.4-3.1,0.7
		c-3.5,0.8-6.7,0.7-8.7-3.1c-1.9,1-3.6,1.8-5.4,2.7c-1.2,0.5-2.3,1.2-3.7,0.9l0,0.1c2.6-1.7,5.2-3.4,7.9-5.1
		c-0.2-0.9-0.3-1.6-0.5-2.3c-2.6-8.1-4-16.4-4.8-24.8c-0.3-3.4-0.5-6.7-0.7-10.1c-0.1-1.7-0.4-3.3-0.5-4.7c-2.7-2.8-5.1-5.3-7.5-7.8
		c0.7-0.7,1.1-0.3,1.4,0.1c1.6,1.7,3.6,2.9,5.5,4c1.1-0.2,1-1,1-1.6c0.2-2.1,0.6-4.1,0.5-6.2c-0.1-2.3,0.8-4.3,1.7-6.3
		c1.4-2.9,3.5-3.7,6.7-2.8c0.4,0.1,0.8,0.2,1.1,0.3c1.8-0.2,3-2,5.2-1.7c-0.2,0.5-0.3,0.9-0.5,1.2c-0.2,0.3-0.5,0.6-0.9,1.1
		c2.4,1.8,2.4,5,4.4,7.1c1.8-0.2,1.8-0.2,3.1-1.8c-0.2-0.4-0.3-1-0.6-1.3c-2.4-2.6-3.9-5.8-5.3-9c-1.8-3.9-3.4-7.9-5.1-11.8
		c-0.4-0.8-0.7-1.7-1.2-2.5c-1.3-2.2-3.1-4-3.8-6.6c-0.7-2.5-2-4.8-3-7.2c-0.8-1.8-0.7-1.8-2.5-3.2c0.6-2.3,0.6-2.3,0-4
		c-0.6-1.6-0.6-1.6-2.3-2.9c-0.4,0.4-0.9,0.9-1.4,1.3c-0.8-0.2-1.7-0.5-2.5-0.7l0.1,0.1c-0.2-1.5-0.4-3.1-0.5-4.6
		c0-1.4,0.3-2.8,1.5-3.8c-0.6-1.4-1.1-2.8-1.7-4.1c-1.5-3.6-2.6-7.4-3.1-11.3c-0.2-1.5-0.5-3.1-1-4.6c-1.4-4.5-1.9-9.2-2-13.9
		c-0.1-1.5-0.3-3.1-0.4-4.6c-0.1-0.9-0.3-1.9-0.1-2.7c0.6-2.5,0.1-4.9-0.2-7.3c-0.7-5.4-1.4-10.8-1.3-16.3c0-1.7-0.5-3-1.4-4.3
		c-3.2-4.6-5-9.7-6-15.1c-0.7-4.2-1.7-8.4-2.3-12.7c-1.3-8.8-0.5-17.4,2-25.9c0-0.1,0-0.3,0.1-0.4c2.2-3.3,2.6-7.3,4.4-10.8
		c1.5-3,3.1-6,4.9-8.9c1.7-2.7,3.9-4.9,6.5-6.6c1.5-0.9,2.6-2.1,3.6-3.5c3.2-4.3,7.1-7.9,11-11.4c1.2,0.1,1.5,0.8,1.2,1.7
		c-0.2,0.6-0.7,1.1-1.2,1.5c-1,1-2,2-3.4,3.4c7.1-1.4,13.3,0.5,19.6,2.2c1.4-0.3,2.8-1.3,4.4-0.5c0.4,0.9-0.7,1-0.7,1.9
		c0-0.1,0,0.2,0.1,0.4c1.7,1.5,3.4,2.9,5,4.3c0.4,0.3,0.9,0.8,0.9,1.2c0.2,3.2,2.5,4.2,4.9,5.2c0.8,0.3,1.6,0.8,2.2,1.2
		c0.4,1.1-0.4,1.3-0.9,1.8c2.5,5.1,5.8,9.4,11,12.6c-0.1-1.6-1-2.5-1.5-3.7c-0.5-1.2-1.1-2.4-1.6-3.5c-0.5-1.2-1-2.4-1.6-3.6
		c-0.5-1.2-1-2.4-1.5-3.6c-0.5-1.2-0.9-2.4-1.2-3.2c0.5-2.1,0.9-3.7,1.3-5.3c0.7-3.2,1.3-6.4,1.9-9.5c0.4-1.9,0.3-3.9,0.9-5.7
		c0.6-1.8,1.9-3.3,3-5c-0.6-0.6-1.2-1.1-1.7-1.6l-0.1,0c0.4,0,0.8,0,1.2,0.1c1.2,0.4,2.4,1.4,3.6,1.3c3.1-0.2,6.2,0.5,9.3-0.6
		c2-0.7,3.2-2.2,3-4.3c0-0.4-0.2-0.8-0.3-1.1c-0.5-1.8-0.6-3.6,0.7-5.1c0.2-0.3,0.4-0.7,0.5-1c0.3-1,0-1.8-1.1-2.4
		c-0.8,0.2-1.8,0.6-2.7,0.8c-0.2,0-0.6-0.4-0.7-0.6c-0.1-0.1,0.1-0.6,0.3-0.6c1-0.4,1.9-0.7,2.9-1c1-0.3,2-0.7,2.6-1.9
		c-0.1-0.8-0.3-1.8-0.4-2.9c-0.4-0.1-0.7-0.2-1-0.1c-1,0.2-1.8,0-2.5-0.7c-0.6-0.6-0.8-1.3,0-2.2c1.7,1,3.6,0.7,5.5,0.7
		c1.1,0,1.9-1.1,1.6-2.2c-0.5-1.5-1.1-2.9-1.7-4.3c-0.9-1.9-1.8-3.7-2.7-5.6c-0.7-1.5-0.7-3.1,0.5-4.3c1.6-1.7,1.4-3.4,0.7-5.4
		c-1.2-3.2-1.9-6.4-2-9.8c-0.5-0.3-0.9-0.5-1.4-0.8c0.1-0.2,0.3-0.4,0.4-0.4c3.1-0.4,5.9-1.8,8.7-3.1c1-0.4,1.7-1.2,1.9-2.3
		c0.1-0.1,0.2-0.1,0.2-0.2c0,0,0-0.1,0-0.2c0,0.2-0.1,0.3-0.1,0.5c-0.6,0.2-1.1,0.5-1.7,0.7c-1.2,0.6-2.3,1.4-3.5,1.7
		c-3.7,1-7.2,2.8-11.2,3.1c-0.4,0-0.7,0.3-1.2,0.5c0.3,0.5,0.5,0.9,0.7,1.3c-1.9,1.6-4,1.1-6.3,0.4c-1.1,3.1-3.7,4.3-5.8,6.2
		c-2.6,2.3-5.2,4.7-7.6,7.2c-1.6,1.7-2.9,3.6-3.6,5.9c-0.6,1.9-0.7,3.5,0.5,5.2c0.2,0.3,0.3,0.6,0.5,1.2c-1.1-0.3-1.9-0.6-2.7-0.8
		c-0.5,0.7-0.9,1.3-1.5,2.2c-0.8-1.6-1.4-2.8-2-4.1c-0.8-1.7-1.6-3.5-2.4-5.2l0.1,0.1c-0.3-0.8-0.6-0.4-0.9,0l0.1-0.1
		c-0.8,0-1.6,0-2.4,0l0.1,0.1c-0.3-0.8-1.1-0.8-1.7-0.9l0.1,0.1c-0.6-0.5-1.1-1-1.8-1.6c-1.3,1.7-2.6,3.2-3.6,4.8
		c-1.6,2.4-1.2,5.1,0.9,7c1.4,1.3,2.9,2.5,4.2,4.1c1,1.3,2.7,2,4.2,2.6c0.8-0.3,1.5-0.6,2.4-0.9c0,0.7,0.1,1.3-0.1,1.7
		c-0.2,0.4-0.7,0.8-1.2,0.9c-1,0.3-2.1,0-3-0.6c-1-0.6-1.9-1.3-2.9-2c-1.3-0.9-2.8-1.4-4.6-0.7c-1,2.4-2.1,5-3.3,7.9
		c1,2,0.8,4.3-0.3,6.5c-0.8,1.7-0.9,3.5-1.2,5.3c-0.3,2.4-1.1,4.8-1.7,7.2c-0.1,0.3-0.5,0.6-0.8,1c-0.8-0.8-1.3-1.6-1.1-2.7
		c0.1-0.8,0.3-1.5,0.6-2.3c1.2-3,0.8-6.2,0.7-9.3c0-0.6-0.1-1.4-0.4-1.9c-1.1-1.5-1-3.1-1-4.8c0-2.7-0.1-5.4-1.4-8
		c-0.4-0.9-0.5-2-0.7-3c-0.1-0.8-0.2-1.6-0.4-2.3c-0.8-3.2-0.8-6.4-0.4-9.7c0.1-1,0-2.1-0.1-3.1c-0.8-5.6-0.3-11.2,1.5-16.5
		c0.2-0.6,0.6-1.3,0.5-1.9c-0.3-2.3,0.8-3.7,2.6-4.8c0.2-0.1,0.3-0.4,0.5-0.9c-0.6-0.6-1.3-1.3-2.1-2.2c0.8-0.6,1.5-1.1,2.3-1.6
		c0.6-0.4,1.4-0.7,1.9-1.3c0.7-0.9,1.5,0.1,2.1-0.1c0.5-0.7,1.1-1.4,1.7-2.1c0.8,0.4,1.5,0.8,2.3,1.2c2.5-2.9,5.8-3.7,9.4-3.8
		c1.5,0,2.8-0.5,3.8-1.6c0.3-0.3,0.9-0.5,1.2-0.6c1.1,0.5,0.2,1.3,0.5,1.8c0.2,0.1,0.4,0.3,0.6,0.4c0.1,0.1,0.3,0.1,0.4,0.1
		c3.5-1,6.9-0.7,10.3,0.5c2.1,0.7,4-0.4,6-0.8c0.9-0.2,1.7-0.6,2.6-0.8c0.4-0.1,0.9,0.2,1.5,0.4c-0.1,0.5-0.2,0.9-0.3,1.2
		c-0.1,0.3-0.3,0.7-0.5,1.2c1.7,0,3.3,0,4.8,0c1.3,0,2.6-0.3,3.5,1.1c0.1,0.1,0.5,0.1,0.7,0c1.4-0.2,1.9,0.6,2.1,1.7
		c0.1,0.5,0.3,0.9,0.6,1.6c1.1-1.3,2-2.3,3-3.5c1.2,0.9,2.2,1.8,3.5,2.8c-0.4,0.6-0.8,1.3-1.4,2.3c1.2-0.3,2.2-0.4,3.1-0.7
		c1.5-0.4,2.5,0.2,3.2,1.5c0.4,1.7-1.1,3.2-0.2,4.9c-1,1.2-0.8,3.2-2.7,3.8c-2.5,0.7-5,1.4-7.4,2.1c-0.6,1.5-0.4,2.9,0,4.3
		c0.4,1.5,0.8,3,1.3,4.5c0.2,0.7,0.6,1.5,0.7,2.2c0.3,2.4,0.5,4.7-2.2,6.2c1.4,3.4,2.8,6.6,4.2,9.8c0.1,0.2,0.3,0.5,0.4,0.7
		c1.1,2.6,0.8,3.5-1.5,5.3c-0.3,0.2-0.6,0.5-1,0.8c0.1,1.1,0.1,2.3,0.2,3.6c-0.5,0.5-1.2,1.1-1.8,1.7c1.1,3.2,1,3.6-1.3,7.7
		c0.1,0.5,0.3,1.1,0.4,1.7c0.9,3.5-0.5,6.3-4,7.2c-3.2,0.8-6.4,0.7-9.8,0.5c-0.4,0.5-1,1.1-1.3,1.8c-1.1,2.9-2.5,5.6-2.6,8.9
		c0,3.1-0.9,6.2-2.3,9c-1.1,2.2-1.1,4.4,0.1,6.7c2.8,5.6,5.2,11.3,7.9,17c1.2,2.5,2.4,5.2,4.6,7.2c0.3,0.3,0.6,0.6,0.7,0.9
		c1.1,3.3,3.1,6.3,3.4,9.9c0.1,1.8,0.7,3.6,1,5.4c0.6,3.6,0.6,7.3,0,10.9c-0.1,0.5-0.3,1-0.3,1.5c0.3,4.3-1.7,7.8-3.6,11
		c0.3,1.8,0.6,3.3,0.7,4.8c0.4,6,1.5,11.9,1,17.9c-0.5,6.2-1.1,12.4-1.8,18.6c-0.2,1.4-0.3,2.8,0.1,4.2c1.4,5.4,0.9,10.9,0.1,16.3
		c-0.2,1.5-0.5,3.1-0.8,4.6c-0.6,2.3-0.4,4.6-0.2,7c0.2,2.7,0.5,5.4,0.7,8.2c0.1,0.9,0,1.9-0.2,2.7c-0.6,1.6-0.3,3,0.3,4.6
		c0.3,0.2,0.6,0.5,1,0.6c2.9,0.4,5.4,1.8,7.8,3.4c1.1,0.7,2.1,1,3.3,0.8c1.5-0.2,3.1-0.5,4.6-0.7c2.2-0.3,4.4-0.4,6.4,0.8
		c1.1,0.6,2.2,0.7,3.4,0.5c1.7-0.2,3.3,0.1,5,0.7c1.4,0.6,3,0.9,4.6,0.9c1.4,0,2.8,0.3,4.3,0.4c0.9,0.1,1.9,0.4,2.7,0.2
		c1.8-0.4,3.1,0.1,4.1,1.5c6.8-0.6,13.4-0.2,19.8,1.8c4.6,1.4,9.2,2.6,13.9,3.8c2.8,0.7,5.5,1.7,7.7,3.6c0.6,0.5,1.3,0.8,2,1.1
		c1.5,0.7,3.1,1.4,4.6,2.2c0.8,0.4,1.7,0.9,2.1,1.6c1.6,2.4,4,4,6.2,5.9c0.8,0.7,1.6,1.4,2.4,2c1.4,1.1,1.9,2.4,1.6,4.1
		c-0.2,1.8-0.4,3.6-0.6,5.4c-0.1,0.8-0.3,1.6,0,2.3c1.4,3.6,0,6.9-0.8,10.3c-0.4,1.6-1.2,3.2-1.8,4.7c-0.8,1.9-1.3,3.9-1.5,6
		c-0.4,3.5-0.9,7-1.8,10.3c-1.3,4.8-2.9,9.4-4.6,14.1c-1,2.7-2.3,5.2-3.6,7.8c-1.3,2.5-2.8,5-4.3,7.5c-1,1.7-1.8,3.3-2.2,5.3
		c-0.6,2.6-1.9,5.1-3.2,7.5c-3.4,6.1-7,12.2-10.4,18.3c-1.9,3.4-3.8,6.8-5.7,10.2c-0.6,1.1-1.1,2.3-1.5,3.2
		c2.4,6.1,7.1,9.9,11.5,13.8c1.6,1.4,3.1,2.7,4.7,4.1c1.1,0.9,2.1,2,3.3,2.7c2.8,1.6,5.6,3.3,8.5,4.6c3.8,1.7,8,2.2,12.1,2.6
		c1.4,0.1,2.8,0.2,4.2,0.5c3.5,0.7,5.6,2.5,5.5,6c0,2.1,0.6,3.8,1.3,5.6c0.4,1,0.6,2,0.9,3.1c-0.6,0.8-1.2,1.6-1.9,2.5
		c0.8,0.2,1.5,0.3,2.3,0.5c-0.1,0.1-0.1,0.3-0.2,0.4c-5.4,3.2-10.9,5.9-17.3,6.4c-3.8,0.3-7.5,0.8-11.2,1.2c-1,0.1-2.1,0.2-3.1,0.1
		c-5.4-0.7-10.8-1.4-16.2-2.1c-0.3,0-0.5,0-0.8-0.1c-2.3-0.4-4.6-1.3-6.9-1.2c-2.3,0-4.5,1.1-6.8,1.5c-3.1,0.5-6.2,1.1-9.3,1.3
		c-2.4,0.1-4.9-0.1-7.4-0.4c-4.5-0.5-9-1.1-13.5-1.8c-1.7-0.3-3.3-0.8-4.9-1.4c-1.2-0.4-1.6-1.2-1.2-2.5c1.6-6,3-12.1,5.8-17.8
		c0.9-1.9,1.3-4.2,1.6-6.4c0.5-3.7,1.7-7.1,3.7-10.1c0.7-1,1.3-2,2.7-2.4c0.7,0.5,1.5,1.1,2.3,1.8c0.2-0.1,0.5-0.2,0.6-0.4
		c1.8-5.2,3.5-10.3,5.3-15.5c0.7-2.1,1.4-4.2,2.4-6.2c1.4-2.8,2.1-5.8,2.7-8.9c1.1-5.3,2.3-10.7,3.6-16c1.1-4.5,1.5-9,1.6-13.5
		c0.2-6.4,1.3-12.7,2.5-18.9c0.2-1,0.5-2,1-3c2.5-5.4,4.4-11.1,7.6-16.3c0.3-0.4,0.4-0.9,0.6-1.6c-1.1,0-2-0.1-2.9,0
		c-3.5,0.6-6.9,1.3-10.4,1.9c-4.9,0.9-9.7,1.7-14.6,2.4c-2.2,0.3-4.4,0.2-6.7,0.2c-0.9,1.7-1.9,3.2-2.6,4.9
		c-0.4,1.2-0.5,2.5-0.5,3.8c0,4.3,0,8.6-0.6,12.9c-0.3,1.9-0.6,3.8-0.9,5.8c-1.9,2.8-4.3,4.9-7.9,4.9c-0.9,0.9-1.9,1.7-2.5,2.6
		c-0.9,1.5-2.3,2.1-3.8,2.4c-2,0.5-4.2,0.7-6.2,0c-0.9-0.4-1.7-1.2-2.3-2c-0.7-1-1.3-2.3-1.8-3.5c-0.6-1.3-1-2.7-1.6-4.1
		c-1,0.5-1.1,1.4-1.2,2.2c-1.1,5-2.1,9.9-3.2,14.9c-0.3,1.5-0.7,3-1.1,4.7c-0.9,0.2-1.7,0.3-2.6,0.4c-0.9,0.1-1.8,0.3-2.7,0.3
		c-0.9,0.1-1.8,0-2.7,0c-2.2,0.1-4.5,0.1-6.6,0.5c-1.7,0.3-3.4,1.3-5.1,1.9c-0.3,1-0.5,1.9-0.7,2.8c-1.1,5.2-2.9,10.2-5.4,15
		c-1.3,2.5-2.6,5.1-4,7.6c-2.5,4.6-5.6,8.8-9,12.7c-0.1,0.1-0.2,0.2-0.3,0.3c-1.3,1.6-2.4,3.5-3.9,4.8c-1.4,1.3-3.5,1.5-5,2.8
		c-0.6,0.6-1.6,1-2.4,1.1c-7.3,1.3-14.7,1.5-22.1,0.4c-4.6-0.7-9.2-1.9-13.7-2.9c-1.3-0.3-2.6-0.6-3.4-1.7c0-0.4,0-0.8,0-1.2
		l-0.1,0.1c2.4,0.4,4.9,0.7,7.3,1.3c4.8,1.1,9.6,2.2,14.6,2.7c4.9,0.4,9.8,0.7,14.7,0c0.7-0.1,1.5-0.3,2.2-0.7
		c1.9-1,3.8-2.2,5.8-3.3c1.5-0.8,2.7-1.9,3.6-3.5c2.4-4.3,5-8.5,7.3-12.9c1.5-2.7,2.7-5.6,4-8.4c2.1-4.6,4.2-9.2,6.3-13.8
		c0.2-0.5,0.3-1,0.5-1.7c-2.2-0.3-4.2,0.2-6.1,0.7c-2.4,0.7-4.7,1.5-7.1,2.2c-1.5,0.5-2.9,1-4.2,2c-2.4,1.8-5.3,2-8.1,2.4
		c-6.7,0.9-13.4,1.5-20.2,1c-0.2,0-0.5,0.1-0.8,0.2c-1.1,2.3-2.2,4.6-3.3,7c0.7,3.3,1.5,6.7,2.2,10.1c-2.5-3.3-2.8-7.4-4.3-11.5
		c-0.6-0.3-1.5-1-2.6-1.5c-4.5-2.1-8.9-4.4-13.4-6.2c-3.6-1.5-7.3-2.7-11.2-3c-3.6-0.3-7.2-0.9-10.8-1.2c-1.6-0.2-3,0.2-4.6,0.7
		c-6.8,1.9-13.6,3.5-20.6,4.1c-0.6,0.1-1.3,0.3-1.9,0.3c-2.3,0.1-4.7,0.4-7,0.2c-4.9-0.6-9.8-0.7-14.8-0.1
		c-3.6,0.4-7.2,0.4-10.7-0.7c-0.4-1.2,0.1-1.6,1-1.8c0.6-0.1,1.3-0.1,1.9,0c2.2,0.5,4.4,0.3,6.5-0.3c3.5-1,7-0.7,10.5-0.4
		c1.3,0.1,2.6,0.2,3.9,0.4c6.9,1.1,13.7-0.1,20.5-1.2c1.2-0.2,2.4-0.4,3.6-1.2c1.1-0.7,2.7-0.6,4.1-1.1c4.7-1.6,9.4-1.7,14.2-0.7
		c0.9,0.2,1.8,0.3,2.7,0.3c4.9,0.3,9.4,1.9,13.8,3.9c3.2,1.5,6.3,3,9.5,4.6c2.2,1.1,4.3,2.2,6.5,3.4c1.1-1.3,1-2.9,1.7-4.4
		c-0.5-0.6-1-1.2-1.4-1.8c-0.2-0.9,0.7-0.9,1.1-1.5c0.2-1.5,0.3-3,0.5-5c1.3,2,0.9,3.9,1.6,5.8c0.7,0.2,1.5,0.4,2.4,0.5
		c1.4,0.1,2.9,0.1,4.3,0c5.6-0.1,11.2-0.7,16.7-1.6c2.2-0.3,4.3-0.9,6.1-2.3c0.7-0.5,1.6-0.8,2.5-1.1c2.7-1,5.4-2,8.1-2.8
		c1.9-0.6,3.9-0.6,5.7-1.2c1.7-0.6,3.2-1.8,4.9-2.3c2.1-0.6,4.3-0.9,6.5-1.2c3-0.4,5.9-0.6,9-0.8c1.8-2.4,3.3-5.1,3.8-8
		c1-5.9,2.4-11.7,3.8-17.5c0.1-0.5,0.1-1,0.2-1.7c-1.3,0-2.4,0.1-3.5,0c-1-0.1-1.9-0.5-2.8-0.8c-1.2,0.6-2.3,1.6-3.7,1.9
		c-1.2,0.3-2.5-0.3-3.8-0.2c-1.1,0.1-2.2,0.8-3.4,0.8c-1.2,0-2.7-0.3-3.7-1c-1.9-1.2-3.8-1.4-6.1-1.1c-0.6-0.6-1.3-1.4-2-2.2
		l0.1,0.1c0.1-0.9-0.2-1.6-1.2-1.6c-1.3,0.1-2.5,0.5-3.6,1.4c0.3,1.7,0.6,3.3,0.8,5C622.3,480.7,622.8,480.6,623.2,480.5
		L623.2,480.5z M610.7,154c0.1,0,0.3,0,0.3-0.1c0.1,0,0-0.2,0.1-0.3C611,153.8,610.9,153.9,610.7,154c0,0.2,0,0.3-0.1,0.4
		C610.6,154.2,610.7,154.1,610.7,154z M616.2,164.3c-0.1-0.2,0.1-0.8-0.5-0.3c0.2,0.1,0.4,0.2,0.6,0.2c0.3,0.3,0.6,0.5,0.8,0.8
		c0.2,0.4,0.3,0.9,0.6,1.3c0.2,0.2,0.6,0.1,1,0.1c-0.1-0.3-0.1-0.8-0.2-0.9c-0.4-0.2-1-0.3-1.4-0.4
		C616.7,164.8,616.5,164.5,616.2,164.3z M647.4,157.9c0.3-0.1,0.6-0.1,0.9-0.2c-0.1-0.1-0.2-0.3-0.3-0.4
		C647.9,157.5,647.7,157.7,647.4,157.9c-0.4,0.1-0.8,0.3-0.7,0.9c-0.2,0-0.5,0-0.7,0c-0.1,0-0.2,0.1-0.3,0.2
		c0.2,0.1,0.4,0.3,0.6,0.2c0.2-0.1,0.2-0.4,0.3-0.6C647.2,158.7,647.5,158.5,647.4,157.9z M667.8,490.7l-0.1-0.2L667.8,490.7
		c0.3,0.4,0.6,0.9,0.8,1.4c0.3,0.3,0.5,0.5,0.8,0.8c0.1,0.7,0.7,0.9,1.1,0.6c0.5-0.4,1-0.9,1.1-1.5c0.6-2,1.3-4,1.5-6
		c0.4-4.5,0.8-9.1,0.7-13.6c-0.2-9.4-1.2-18.7-3.2-27.9c-0.8-3.6-1.7-7.1-3.3-10.4c-0.6-1.2-1.3-2.2-2.1-3.3
		c-0.4-0.5-1.3-0.4-1.7,0.2c-0.3,0.5-0.3,1.2-0.4,1.8c-0.6,0.1-0.8,0.4-0.4,1c0.1-0.4,0.2-0.8,0.2-1.1c0.6-0.1,1.1-1.4,2-0.1
		c-2.1,2.3-2.5,5.2-2.7,8.2c-0.4,8.8-0.1,17.7,1,26.5c0.5,3.6,1.5,7.1,1.2,10.8c-0.8,0.6-0.7,1.4-0.1,2.8c0-1.3,0-2.1,0-2.9
		c1.1,1.1,0.7,2.6,0.9,4c-0.1,0.2-0.2,0.5-0.2,0.3c0,0.2,0-0.1,0.1-0.4c0.8,2,1.7,3.9,2.4,5.9c0.4,0.9,0.6,1.9,0.9,2.9
		C668.3,490.7,668.1,490.7,667.8,490.7z M677.2,486.7c0.3,0.3,0.5,0.5,0.8,0.8c0.3,0.9,1,0.9,1.4,0.3c0.7-1.1,1.3-2.3,1.6-3.5
		c1.2-4.7,1.4-9.5,1.4-14.3c0-0.4,0.4-1.1-0.7-1.2c-1,1.6-2,3.3-2.9,5c-1,1.8-1.5,3.9-3.3,5.1c-0.1,1.8-0.3,3.5-0.4,5.1
		c0.5,0.4,0.9,0.8,1.3,1.1C676.7,485.7,676.9,486.2,677.2,486.7z M667,145.4c0.2,0,0.5,0.1,0.7,0c0.2-0.1,0.4-0.4,0.4-0.5
		c0-0.2-0.3-0.4-0.5-0.4c-0.2,0-0.4,0.2-0.5,0.4C667,145,667,145.3,667,145.4l-0.2,0.2L667,145.4z M645.9,154.1c0-0.1,0-0.3-0.1-0.4
		c0-0.1-0.2,0-0.3-0.1c0.1,0.1,0.3,0.2,0.4,0.3c0.3,1.5,0.3,1.5,1.2,1.7C647.2,154.8,646.4,154.5,645.9,154.1z M659.9,146.3
		c0.3-0.8,0.3-1.5-0.8-1.6c-0.5,0-0.9,0.1-2.1,0.3C658.3,145.6,659.1,145.9,659.9,146.3c0.4,0.8,0.1,2,1.1,2.7
		c1.3-0.7,1.3-0.7,1.7-2.1C661.7,146.7,660.8,146.5,659.9,146.3z M690.5,450.9c1.7-1.8,2.8-4,3.8-6.3c3.8-8.9,6.3-18.1,7.7-27.7
		c0.5-3.6,1-7.2,1.5-10.8c0.1-0.7-0.2-1.5-0.2-2.1c-2.9-0.4-5.6-0.8-8.3-1c-2.1-0.2-4.1-0.4-6.1-1.1c-1.1-0.4-2.3-0.6-3.4-0.4
		c-1.9,0.3-3.6-0.1-5.2-1.1c-1-0.6-2.1-1-3.3-0.8c-4.1,0.6-8.1,1.3-12.3,0.5c-0.6,1.4-1.1,2.6-1.6,3.7c-2.1,5-4.6,9.9-7.7,14.4
		c-0.4,0.6-0.7,1.4-1.6,1.5l0.1,0.1c-0.2-1.3,0.7-2.2,1.2-3.2c2.4-5,4.9-10,7.4-15c0.4-0.8,0.6-1.7,0.8-2.4
		c-0.9-1.2-1.9-1.7-2.7-1.2c-1.7,2.5-3,4.8-4.6,6.7c-2.4,2.7-4.9,5.3-7.6,7.8c-2.3,2.1-4.8,4-7.8,5l0.1,0.1c0.7-2.1,2.6-3.2,4-4.6
		c3.8-3.7,7.6-7.5,11.4-11.2c0.4-0.4,0.6-1,1-1.9c-1,0-1.6-0.1-2.2,0c-3.7,0.7-7.5,0.9-11.3,0.7c-0.9-0.1-1.8-0.1-2.7-0.4
		c-0.8-0.2-1.4-0.7-0.9-1.7c1.6-1,3.6,0.2,5.2-1c0.2-1.5,0.5-3,0.8-5c-1,0.9-1.6,1.4-2.2,1.9c-0.6,0.6-1.3,1.1-1.9,1.8
		c-0.9-1.8,1-2.6,1.1-3.9c-2-0.6-3.8-0.4-5.5,0.1c-0.6-0.4-1.1-1.1-1.6-1.1c-1.9,0.1-3.6-0.7-5.4-0.8c-0.7-0.1-1.5,0-2.5,0
		c0.1,1,0.2,1.8,0.3,2.5c0.7,2.6,1.4,5.3,2,7.9c0.4,1.8,0.7,3.6,1.3,5.3c1.7,4.9,3.4,9.8,5.1,14.7c0.3,0.7,0.4,1.5,0.6,2.3
		c0.8,4.3,1.7,8.7,2.4,12.7c0.9,0.7,1.6,1.1,2.1,1.7c2.3,2.8,4.4,5.8,5.8,9.2c0.9,2.3,1.9,4.6,2.9,6.8c0.3,0.6,0.8,1.1,1.5,2.2
		c0-1.9,0-3.2,0-4.5c0-4.8-0.1-9.6,1-14.4c0.4-1.6,0.8-3.3,1.5-4.8c0.7-1.7,2.1-2.6,4-2.7c1.3-0.1,2.6,0,3.9-0.3
		c2.2-0.4,3.9,0.3,5,2.1c1.1,1.8,2,3.7,2.7,5.6c1,3.1,1.7,6.3,2.5,9.4c0.2,0.6,0.2,1.3,1.3,1.6c2.9-1.9,5.8-4,8.9-5.9
		c3.5-2.3,6.2-5.1,7.8-9c0-0.1,0.3-0.2,0.6-0.3c-0.6,3.4-1.9,6.1-4.4,8.2c-2,1.7-4.1,3.2-6.2,4.8c-2.3,1.7-4.7,3.3-7,4.9
		c0.1,1.8,0.1,3.4,1.1,5c5.3-1.5,10.2-3.9,15.5-5.3c0.2,0.6,0.4,0.9,0.5,1.3c-0.5,0.1-1.1,0-1.5,0.2c-4.3,1.8-8.6,3.6-12.9,5.4
		c-0.6,0.2-1.1,0.7-1.5,1c-0.1,4.7,0.7,14.1,1.4,16.4c2.2-3.5,4.3-6.9,6-10.6c0.4-0.8,0.7-1.7,1.2-2.4
		C685.4,457.4,687.7,453.9,690.5,450.9z M617.1,341.4c-0.2,2-0.3,3.9,1.6,5.3c0.5,0.3,0.6,1.1,0.9,1.7c0.7,1.7,1.5,3.3,2.1,5
		c1.2,3.7,2.6,7.4,3.5,11.2c0.9,3.9,1.9,7.7,3.7,11.3c-2.1,3.4-1.1,7.1-1.4,10.6c0.9,0.4,0.9,0.4,2,0.3c0.2-1,0.3-2,0.6-3.4
		c0.7,1.6,1.2,2.8,1.8,3.9c0.5,0.1,0.9,0.2,1.2,0.2c7.3,0.3,14.6,0.6,21.6,3c0.4,0.1,0.9-0.2,1.4-0.3c0-0.8,0-1.5,0-2.1
		c-0.1-1.7-0.3-3.4-0.4-5c0-2.2,0.1-4.4-0.5-6.6c-0.2-0.8-0.2-1.8-0.1-2.7c0.2-2.1,0.5-4.1,0.9-6.2c1.3-6.7,1.5-13.4,0.3-20.2
		c-0.3-1.5-0.2-3.1-0.1-4.6c0.3-5.2,1.1-10.3,2.4-15.4c0.4-1.5,0.4-3.1,0.3-4.6c-0.2-4.2-0.5-8.3-0.8-12.5c-0.1-1.5,0.4-3.1-0.8-4.5
		c-0.3-0.3-0.1-1.3,0.1-1.9c0.5-1.3,1.2-2.6,1.9-3.9c0.9-1.7,1.2-3.4,0.9-5.3c-0.3-2-0.3-4.1-0.4-6.2c-0.1-2.2-0.1-4.4-0.2-6.6
		c-0.4-7.4-2.8-14.2-7-20.4c-0.6,0-1.2,0.1-2,0.1c-0.8-0.7-1.6-1.6-2.5-2.2c-4.7-3.3-8.3-7.5-11.5-12.1c-2.1-3.1-4.6-6-7.3-8.7
		c-3.7-3.6-7.6-6.6-12.7-8c-2.5-0.7-4.9-1.7-7.3-2.8c-1.1-0.5-2.2-0.7-3.4-0.7c-3.3,0.1-6.1,1-8.3,3.7c-0.3,0.4-0.8,0.7-1.1,1.1
		c-0.3,0.3-1,0.6-0.3,1.2c1.6-0.5,3.2-1,4.8-1.4c3.1-0.7,6.3-1.1,9.3-0.2c4.5,1.4,8.8,3.2,12.7,6c2.1,1.5,3.6,3.3,4.8,5.5
		c1.8,3.3,3.8,6.5,5.6,9.8c2.1,3.8,3.6,7.8,4.5,12c0.4,1.6,0.2,3.4,0.1,5c-0.1,2.1-0.7,4.1-0.6,6.2c0.1,2.5-0.2,5-0.8,7.3
		c-1.3,4.6-2.9,9.1-4.5,13.7c-0.4,1.1-1.3,1.9-1.9,2.9c-0.4,0.7-0.7,1.4-1.1,2.1c-1.4,2.3-2.9,4.6-4.3,6.9c0,4.1,0,8.2,0,12.4
		c0.6,0.7,1.3,1.3,1.9,2c0.6,0.7,1.5,1.3,1.6,2.8c-1.4-0.3-2.5-0.6-3.7-0.9c-0.9,3.1-1.9,6.2-2.8,9.2c0.5,0.7,0.9,1.4,1.4,2.2
		c-1,0.1-1.8,0.2-2.9,0.3c-0.4,1.2-0.9,2.4-1.4,3.6c-0.3,0.7-0.8,1-1.5,1c0.3-1.9,0.5-3.8,0.8-5.8c0.4-2.8,0.6-5.7,1.2-8.5
		c1.5-7.6,2-15.2,2.1-22.9c0.1-3.8,0.1-7.5,0.5-11.3c0.4-3.5,1.6-6.2,4.1-8.4c1.6-1.4,3.1-2.9,5.7-4.2c-1.5,2.8-2.6,4.9-3.7,7
		c0.7,1.6,1.4,2.9,2.2,4.6c2.9-6.6,5.4-12.8,4.7-19.8c-0.1-0.8-0.1-1.6,0-2.3c0.5-5.2-1.7-9.7-3.6-14.2c-1.7-3.9-4-7.6-6-11.4
		c-1.7-3.3-4.1-6-7.7-7.4c-2.3-0.9-4.6-1.9-6.9-2.5c-1.3-0.4-2.8-0.4-4.2-0.3c-4.4,0.4-8.7,1.7-12.8,3.4c-1.8,0.7-3.2,1.7-4.3,3.3
		c-0.7,0.9-1.4,1.9-2,2.9c-2.9,5.1-5.8,10.2-8.6,15.3c-1.3,2.4-1.3,2.8-0.8,5.9c0.4-1.1,0.9-2.3,1.4-3.5c-0.4,2.4,0.2,5-0.7,7.5
		c-0.6-0.2-1-0.4-1.6-0.5c-1,5.9-1.2,11.9-1.1,17.8c0.1,2.9,0.8,5.6,2.3,9.1c0.1-1.6,0.2-2.2,0.2-2.8c-0.1-6-0.1-12-0.2-18
		c0-0.4,0.3-0.8,0.5-1.2c1.2,0.1,1.6,0.8,1.8,1.5c0.2,1,0.3,2.1,0.3,3.1c0,3.6-0.1,7.3,0,10.9c0,1.9-0.4,3.9,0.6,5.7
		c0.2,0.4,0.1,1,0,1.5c-0.3,4.7,0.4,9.3,1.8,13.8c0.9,2.9,1.7,5.7,2.2,8.7c0.9,5.9,1.6,11.9,2.2,17.8c0.3,2.6,0.8,5.2-0.2,7.7
		c-0.1,0.3,0,0.8,0,1.1c0.1,2.2,0.2,4.4,0.3,6.6c0.3,6.7,1.5,13.2,3.2,19.6c1.2,4.6,3.2,8.8,5.2,13c1.3,2.7,2.6,5.4,3.7,8.2
		c1.3,3,2.7,6,3.4,9.1c0.5,2.2,1.2,4.2,2.3,6.1c1.4,2.7,2.8,5.3,4.2,7.9c1.9,3.6,3.7,7.2,5.5,10.8c0.1,0.1,0.4,0.1,0.6,0.2
		c0.1-0.8,0.1-1.6,0.2-2.3l-0.1,0.1c0.9,0,1.1,0.7,1.2,1.2c0.6,2.1,1.8,3.8,3.5,5c2.6,1.8,2.9,4.7,3.9,7.3c0.1,0.3-0.3,1.1-0.6,1.2
		c-0.4,0.2-1.1,0-1.4-0.3c-0.5-0.6-0.9-1.3-1.1-2c-0.3-1.1-0.4-2.3-0.6-3.3c-1.2-1-2.2-2-3.3-2.9l-0.2-0.1l0.3,0
		c-0.3,1.4,0.6,2.5,1.2,3.6c1.8,3.5,3.3,7,3.5,11c0.1,1.3,0.1,2.6,0.1,3.9c0,1.4,0,2.9,0,4.3c0.3,5.4,2.2,10.4,3.6,15.3
		c2,1.2,3.5,2.8,5.5,4.6c-0.9,0-1.3,0.1-1.6,0c-0.9-0.5-1.7-1.2-2.6-1.7c-1-0.6-2.1-1-3-1.6c-0.5-0.3-0.9-1-1.1-1.6
		c-0.3-0.7-0.3-1.5-0.6-2.2c-1.8-4.2-2.1-4.8-6.8-5c-0.1,0-0.3,0-0.4,0c-1.7,0.1-2.8,0.9-2.9,2.6c-0.1,2.5,0,4.9,0.3,7.4
		c0.1,1.1,0.5,2.3,1.9,3.1c1.6-0.8,3.5-0.7,5.5-0.7c0.9,0,1.8-0.3,2.7-0.5c1.1-0.2,2.2-0.5,3.3-0.8c0.7,1.2,1.3,2.4,1.8,3.4
		c1.4,0.5,2.5,1.2,3.9,0.8c0.2-0.9,0.3-1.8,0.5-2.6c0.3,0.1,0.5,0.1,0.6,0.2c0.5,0.9,1,1.8,1.5,2.7c0.3,0.5,0.8,1.2,1.3,1.4
		c1.7,0.5,3.3,0.5,4.5-1.2c-0.3-0.8-0.7-1.5-0.9-2.3c-0.3-0.8-0.5-1.7-0.8-2.6c1.2-0.3,2.2-0.4,3.2-0.7c0.9-0.3,1.8-0.7,3.1-1.1
		c-0.8,2.3-3.1,1.9-4.2,3.2c0.6,1.7,1,3.5,2.9,4.3c1-0.5,1.9-1,2.8-1.5c1.7-1,1.9-1.5,1.5-3.5c-0.1-0.8-0.9-1.7-0.2-2.7
		c0.6-0.2,1.3-0.5,2-0.8c0.8-0.4,1.5-0.8,2.4-1.2c-0.2,1.9-2.1,2-2.9,3.5c0.4,1.7,0.8,3.5,1.3,5.3c1.5,0.3,2.8,0.3,3.8-0.9
		c0.1-1.6-1.3-3.1-0.4-4.8c0.2-0.3-0.1-0.8-0.1-1.1c-0.2-1.5-0.4-3.1-0.7-4.6c-0.3-1.7-0.5-3.3-0.9-5c-1.6-6.6-5.5-12-9.2-17.5
		c-0.3-0.5-0.9-0.9-1.4-1.3c-2.4-2-3.9-4.5-4.5-7.5c-0.2-1.1-0.6-2.3-0.6-3.4c-0.2-4.5-1.8-8.6-3.5-12.7c-1.6-3.9-2.6-8.2-3.8-12.3
		c-1.3-4.8-2.3-9.6-4-14.3c-0.6-1.8-0.9-3.8-0.9-5.7c-0.1-2.7,0.1-5.5,0.3-8.2c0.1-2.6-0.1-5.2-0.9-7.7c-2.3-7.3-4.5-14.6-6.7-22
		c-0.4-1.5-0.7-3-0.9-4.6C615.5,342.1,616.1,341.5,617.1,341.4z M720.7,546.5c0.1-2.4,0.5-5,1.7-7.4c1.1-2.2,2.2-4.4,3.4-6.6
		c1.9-3.6,3.9-7.1,5.7-10.7c2.2-4.5,4.3-9.2,6.4-13.8c0.6-1.2,1.1-2.3,1.8-3.5c5.4-9.2,10.1-18.8,14.2-28.6c1.3-3.2,2.8-6.5,3.4-9.9
		c0.5-2.8,1.1-5.6,1.5-8.4c0.2-1.2,0.6-2.2,1-3.3c1.1-3.5,2.1-7,2.4-10.6c0.4-4.3,0.9-8.5,1.4-12.8c0.1-1,0.2-2,0.3-3.2
		c-1.2-0.9-2.3-1.8-3.4-2.7c-2.1-1.5-4.1-3.1-5.6-5.3c-0.6-0.9-1.5-1.9-2.5-2.4c-5.1-2.5-10.2-5.2-15.9-6.4
		c-2.9-0.6-5.8-1.5-8.5-2.7c-2.2-0.9-4.3-1.7-6.7-2.1c-3.3-0.5-6.7-1.1-10-1.4c-1.7-0.2-3.6-0.6-5.2,0.3c-0.3,3.7-0.5,7.2-0.9,10.6
		c-0.4,3.4-0.9,6.7-1.6,10c-0.8,3.4-1.9,6.8-2.8,10.1c-0.9,3.3-3,6.2-3.8,9.8c5,0.6,9.7,0.2,14.5,0.1c-5.1,1.7-10.4,1.6-15.7,1.5
		c-1,1.5-1.7,2.8-2.6,4.1c-1,1.3-2,2.6-3.2,3.9c2,0.6,3.8,0.2,5.6,0c9.7-1.1,19.3-3,28.9-4.7c3.5-0.6,7-0.7,10.5-0.7
		c0.6,0,1.1,0.2,2.1,0.4c-1.9,1.6-3.8,2-5.8,2c-2.1,0-4.2,0-6,0.9c-0.7,1.4-1.2,2.8-1.9,4c-1.9,3.4-3.9,6.7-5.9,10.1
		c-0.3,0.6-0.8,1.1-1,1.7c-0.6,2.2-1.3,4.5-1.7,6.7c-0.7,4-1.4,7.9-1.9,11.9c-0.4,4-1.4,7.9-0.5,11.9c0.1,0.5,0,1-0.1,1.5
		c-0.3,1.5-0.5,3.1-0.9,4.6c-1.2,5.7-2.5,11.4-3.7,17.1c-0.7,3-1.2,6.1-3.1,8.8c-0.4,0.6-0.6,1.4-0.8,2.2c-1.7,4.9-3.4,9.8-5.1,14.7
		c-0.2,0.6-0.2,1.2-0.3,2c2.5,0.4,4.9,0.5,7.1,1.3c3.6,1.3,7.1,0.8,10.5,0.5C717.6,550.3,719.1,548.5,720.7,546.5z M769.9,573.7
		c-1.3-0.9-2.8-1-4.4-1.1c-6.3-0.2-12.3-1.9-18-4.5c-0.7-0.3-1.3-1-2.3-0.5c-0.5,0.7-1.1,1.5-1.7,2.3c-0.3,0.3-0.7,0.5-1.2,0.8
		c-0.7-1.9-0.2-3.3,0.4-4.8c0.1-0.2-0.1-0.5-0.2-1c-0.6-0.3-1.4-0.7-1.9-0.9c-1.6,1-2.9,1.8-4.2,2.6c-0.5,0.3-1,0.4-1.4-0.3
		c-0.2-2.2,1.9-3.8,2-6c-1.1-1.2-2.2-2.3-3.7-2.7c-3.8,4.7-4.2,5-7.2,5.2c-0.6-0.8-0.1-1.5,0.3-2.1c1.3-1.8,2.6-3.5,3.9-5.3
		c0.1-0.2,0.1-0.5,0.1-0.9c-0.3-0.2-0.7-0.5-1.1-0.7c-2.4,3-4.5,4.6-8.1,6.3c1.9-3.4,3.9-6.6,4.7-10.8c-0.6-0.6-1.3-1.3-2.1-2.1
		c-1.6,1.4-2.7,2.6-3.7,4c-1.7,2.5-3.5,4.9-5,7.4c-1.4,2.3-3.4,3.2-5.8,3.2c-2.5,0-4.9-0.1-7.4,0c-1.9,0-3.6-0.3-4.9-1.9
		c-0.7-0.9-1.8-1.4-2.6-2.3c-0.9-0.9-1.6-2-2.3-3c-0.3,0.1-0.5,0.2-0.7,0.4c-2.1,2.5-3.1,5.3-3.3,8.6c-0.2,3.1-0.5,6.2-1.8,9.1
		c-1.5,3.4-2.9,6.9-4.1,10.5c-0.7,1.9-1.2,3.9-1.2,6c1.6,0.9,3.3,1,5,1.2c2.7,0.3,5.5,0.4,8.1,0.9c7.7,1.5,15.2,0.6,22.7-1.3
		c1-0.3,2-0.5,3-0.4c2.7,0.2,5.4,0.6,8.1,0.9c5.3,0.5,10.6,1.1,15.9,1.5c1.7,0.1,3.4,0,5-0.1c2.6-0.2,5.2-0.6,7.8-0.7
		c4.5-0.1,8.7-1.2,12.7-3.3c0.9-0.5,1.6-1.2,2.3-2c0.6-0.7,1-1.5,1.5-2.2C771.9,580.5,770.9,577.2,769.9,573.7z M619,475.6
		c-1.4,0.1-2.3,0.2-3.2,0.3c-1.5,0.2-2.5-0.4-3.3-1.6c-0.3-0.5-0.6-1.1-0.9-1.7c-1.1-3.3-0.9-6.7-0.6-10c0.1-1.6,1.5-2.7,3.1-3
		c0.6-0.1,1.3-0.1,1.9-0.1c1-0.1,1.7-0.5,2-1.2c-0.3-1.9-0.7-3.7-0.9-5.5c-0.6-5.8-2.7-11-6.3-15.7c-0.3-0.4-0.7-0.7-1.2-1.2
		c-0.6,0.8-1.2,1.3-1.4,2c-0.6,2.5-1.4,5.1-1.5,7.6c-0.3,7-0.4,14,0.4,21c0.7,6.6,1.8,13.1,2.8,19.6c0.6,3.7,1.8,7.3,3.6,10.6
		c0.5,0.9,0.9,1.9,2.2,1.9c1.6-1.8,1.7-1.8,2.2-4C619.5,488.4,619.8,482.3,619,475.6z M606.8,436c-1.2-1.1-2.3-0.8-3.5-0.4
		c-0.9,0.3-1.5,1-1.9,1.9c-0.4,1.1-0.7,2.2-1,3.3c-1.4,5.6-1.3,11.3-1.2,17c0.1,8.8,1.1,17.6,2.9,26.3c0.9,4.2,1.9,8.4,3.8,12.2
		c1.7,3.3,2.9,3.9,7,3.2c-0.2-0.5-0.3-1-0.5-1.4c-1-1.6-1.5-3.3-2-5c-3.6-11.9-5.1-24.1-5.4-36.5C605,449.8,605.3,442.9,606.8,436z
		 M667.5,494.7c-0.2-0.5-0.3-0.9-0.5-1.2c-1.9-3-3-6.3-3.7-9.8c-1.9-9.2-3.4-18.4-3.7-27.8c-0.4-8.7-0.6-17.3,1.6-25.9
		c-1.7-0.7-2.9,0.3-4.1,0.9c-1,0.5-1.4,1.5-1.7,2.5c-0.4,1.5-0.8,3-1.1,4.6c-1,5.9-0.9,11.9-0.6,17.9c0.1,2.2,0.4,4.3,0.7,6.5
		c0.6,4.4,1.4,8.7,1.9,13.1c0.5,4.5,1.2,9,2.9,13.3c0.5,1.3,1.2,2.6,1.8,3.9c0.6,1.1,1.5,1.8,2.7,2.2
		C665,495.3,666.2,495.4,667.5,494.7z M713.8,555c-5.7,0.4-10.9,0.2-15.8-1.6c-0.2-0.1-0.5,0.2-0.9,0.3c-0.2,0.8-0.5,1.8-0.6,2.4
		c2.2,3.5,5.3,4,8.7,3.6c1.5-0.2,3.1-0.3,4.6-0.4c1.2-0.1,2.2-0.7,2.8-1.8C712.8,556.8,713.2,556.1,713.8,555z M624.1,293.2
		c-1.3,3.3-0.9,6.8-0.7,10.6c2.4-2.3,2.9-5.1,4.4-7.5C626.8,294.9,625.9,293.8,624.1,293.2z M616.9,443.4c0.5,2.1,1.1,3.9,1.5,5.8
		c0.4,1.9,0.8,3.8,1.3,6.5c0.9-4.9,0.7-8.8-1-12.8C618.1,443.1,617.5,443.3,616.9,443.4z M650.2,393.8c-1.5-0.6-2.1-0.5-2.7,0.4
		c-0.8,1.3-0.9,2.5,0,3.2c0.6-0.2,1.3-0.4,2.1-0.6C649.8,395.7,650,394.7,650.2,393.8z M660.9,454.5c0.3-3.9,0.8-8,0-12
		c0,1,0,2.1,0,3.1C660.9,448.5,660.9,451.5,660.9,454.5z M620.6,152.1c1.3,0.4,2.1,0.6,3,0.8c0.1,0,0.2-0.1,0.5-0.4
		c-0.6-0.9-1.3-1.7-2-2.8C621.5,150.5,621.2,151.1,620.6,152.1z M656.8,154.5c-2.4-0.3-3.1-0.1-4.9,1
		C653.7,155.5,655.2,155.7,656.8,154.5z M641.2,165c0.7-0.5,1.4-1,2.1-1.5c0.5-0.4,0.9-0.7,1.6-1.3
		C642.3,162.7,642.3,162.7,641.2,165z M641.8,154.6c-2.6-1.8-2.6-1.8-3.8-1.4c1,0.8,1.9,1.4,3,2.3
		C641.3,155.1,641.5,154.9,641.8,154.6z M630.2,154.2c0-0.8-0.2-1.6-1.2-1.4c-0.7,0.1-1.2,1.2-0.9,1.9
		C628.2,155.2,628.9,155.1,630.2,154.2z M610.8,166.4c-0.2-0.4-0.2-0.6-0.4-0.8c-0.2-0.1-0.5-0.1-0.6,0c-0.3,0.3-0.7,0.7-0.9,1.1
		c-0.1,0.1,0,0.6,0.1,0.6c0.3,0.1,0.7,0.2,0.9,0.1C610.3,167.1,610.5,166.7,610.8,166.4z M615.2,188c-0.6,1.1,0.3,1.5,0.6,2.2
		c0.1,0.1,0.5,0.2,0.6,0.1c0.2-0.1,0.4-0.5,0.3-0.6C616.2,189.1,615.7,188.6,615.2,188z M674.3,488.8c0.5,0.3,0.9,0.5,1.3,0.7
		c0.1,0,0.5-0.4,0.4-0.5c-0.2-0.4-0.5-0.7-0.8-1.1C675,488.2,674.8,488.4,674.3,488.8z M620.3,174.5c0.4-0.3,0.8-0.3,0.9-0.5
		c0.2-0.3-0.4-1-0.9-0.9c-0.2,0-0.6,0.3-0.6,0.4C619.8,173.9,620,174.2,620.3,174.5z M662.6,472c0.1,0,0.1,0,0.2,0
		c0-0.6,0-1.2,0-1.8c-0.1,0-0.1,0-0.2,0C662.6,470.8,662.6,471.4,662.6,472z M663.3,476.6c0.1,0,0.2,0,0.3,0c0-0.5-0.1-1-0.1-1.5
		c-0.1,0-0.2,0-0.3,0C663.3,475.6,663.3,476.1,663.3,476.6z M609.8,179.6c-0.2,0-0.3-0.1-0.5-0.1c-0.2,0.4-0.3,0.8-0.5,1.3
		c0.2,0.1,0.4,0.1,0.6,0.2C609.6,180.5,609.7,180.1,609.8,179.6z M656.5,395c-0.2-0.1-0.5-0.3-0.7-0.2c-0.3,0.1-0.6,0.3-0.9,0.4
		c0.2,0.3,0.4,0.7,0.7,0.7c0.3,0,0.6-0.4,0.8-0.6C656.5,395.2,656.5,395.1,656.5,395z M614,152.8c1.2,0,1.2,0,0.9-1.3
		C614.6,152,614.3,152.4,614,152.8z M594.8,389.9c-0.2-1.3-0.2-1.3-1.4-2C594,388.7,594.3,389.2,594.8,389.9z M607.1,172.2
		c0.3-0.3,0.5-0.4,0.6-0.6c0.1-0.2,0.3-0.5,0.2-0.7c0-0.1-0.4-0.3-0.6-0.2c-0.2,0-0.4,0.3-0.5,0.5
		C606.9,171.5,607.1,171.8,607.1,172.2z M637.3,169.5c0.2-0.3,0.4-0.5,0.6-0.8c0,0-0.1-0.2-0.2-0.3c-0.3,0.3-0.5,0.5-0.8,0.8
		C637,169.3,637.1,169.3,637.3,169.5z M629.1,166.6c-0.1,0.3-0.2,0.6-0.3,0.8c0,0.1,0.1,0.2,0.2,0.3c0.3-0.2,0.5-0.4,0.8-0.7
		C629.6,166.9,629.4,166.8,629.1,166.6z M662.1,436.4c-0.1-0.1-0.2-0.2-0.3-0.3c0,0.1-0.1,0.2-0.1,0.3c0,0.1,0.2,0.2,0.2,0.3
		C662.1,436.6,662.1,436.5,662.1,436.4z M616.8,147.2c0.1,0.2,0.2,0.5,0.3,0.5c0.2,0,0.4-0.1,0.6-0.2c-0.1-0.2-0.3-0.5-0.4-0.7
		C617.2,146.9,617,147,616.8,147.2z M648.8,143.7c0.3-0.3,0.5-0.5,0.7-0.8c0,0-0.4-0.4-0.4-0.4c-0.3,0.1-0.5,0.3-0.7,0.6
		C648.3,143.1,648.6,143.4,648.8,143.7z M665.8,486.2c0-0.2,0.1-0.3,0.1-0.5c-0.1,0-0.2,0-0.2,0.1
		C665.7,485.9,665.8,486,665.8,486.2z M622.1,142.3c0.2-0.1,0.4-0.2,0.7-0.3c-0.1-0.1-0.2-0.3-0.2-0.3c-0.2,0-0.4,0-0.7,0.1
		C622,141.9,622,142.1,622.1,142.3z M655.5,145.7c-0.1,0-0.2-0.1-0.3-0.1c-0.4,0.1-0.4,0.2,0,0.4c0.1,0,0.2,0,0.4-0.1
		C655.5,145.9,655.5,145.8,655.5,145.7z M630,171.4c0-0.1-0.1-0.2-0.1-0.3c-0.1,0.1-0.2,0.1-0.2,0.1c0.1,0.1,0.1,0.3,0.2,0.4
		C629.9,171.5,630,171.4,630,171.4z M633.7,165.3c-0.2-0.1-0.4-0.2-0.6-0.2c-0.1,0-0.2,0.2-0.2,0.2c0.1,0.1,0.3,0.4,0.4,0.3
		C633.4,165.6,633.5,165.4,633.7,165.3z M616,170.3c-0.1-0.2-0.3-0.3-0.4-0.5c-0.1,0.1-0.3,0.2-0.3,0.2c0,0.2,0.1,0.4,0.2,0.6
		C615.8,170.6,615.9,170.5,616,170.3z M653.1,157.6l0-0.2l-0.3,0.1L653.1,157.6z M613,183.7c-0.1-0.2-0.2-0.4-0.2-0.6
		c-0.1,0-0.2,0.1-0.2,0.1c0,0.2,0,0.4,0,0.6C612.8,183.8,612.9,183.8,613,183.7z M652.5,394.8l-0.1,0.2l0.2,0L652.5,394.8z
		 M613.5,177.3l0.1-0.2l-0.2,0L613.5,177.3z"/>
	<path d="M427.2,528.9c-0.1-0.9,0.3-1.6,1-1.9c0.9-0.5,1.9-0.8,2.9-1.1c0.6-0.2,1.4-0.1,1.9-0.4c2.1-1.6,4.7-2.2,6.9-3.6
		c3.7-2.2,3.7-2.2,7.8-2.4c2.3-2.1,5.1-3.5,8.3-3.7c3.3-0.2,6.7-1.6,10.1,0.7c0.1,0.7,0.3,1.6,0.4,2.5c0.3,0.1,0.7,0.4,1,0.4
		c0.6,0,1.3,0.1,1.9-0.1c2.3-0.8,4.6-0.3,6.9-0.4c0.2,0,0.4,0.3,0.6,0.5c0.1,0.8-0.4,1.2-1.1,1.4c-0.9,0.3-1.9,0.6-3.1,0.9
		c0.4,1.1,0.7,2.1,1,3c2.2,0.4,4.2,0.8,6.3,1.1c-1.2,2-3.2,1-4.7,1.8c0.1,1.4,0.9,2.4,1.6,3.4c0.9,1.3,1.9,2.5,2.8,3.8
		c0.8,1.2,1.7,2.4,0.5,4c2.1,0.8,3.9,0.7,5.6,0.3c4.2-1,8.4-1.5,12.7-1.2c2.8,0.2,5.7-0.1,8.5,0.5c6.2,1.4,12.5,2.4,18.6,4.4
		c4.7,1.6,9.4,3.1,14.1,4.6c5.6,1.8,11.5,2.3,17.2,3.5c1.1,0.2,2.3,0.5,3.4,0.7c1,0.2,1,1.1,1.2,1.8l0.1-0.1
		c-3.1-0.3-6.2-0.5-9.3-0.9c-7.8-1-15.2-3.1-22.6-5.6c-4.8-1.6-9.6-3.3-14.6-3.9c-0.5-0.1-1-0.2-1.5-0.4c-5.2-2.1-10.7-2-16.1-2
		c-3.3,0-6.6,1.1-10,1.3c-0.9,0.1-1.4,1-1.6,2c-0.3,2.2-1.3,4.2-2.4,6.1c-0.8,1.5-1.6,3-3,4c-1.1,0.8-1.3,1.9-1,3.1
		c0.6,2.5,1.1,5.1,2,7.5c0.4,1,1.4,1.8,2.2,2.8c1.8,0.1,3.7,0.2,5.5,0.3c1,0.1,2.1,0.2,3.1,0.3c1.4,0.2,2.4,0.8,3,2.2
		c1,2.1,2.1,4.2,2.6,6.5c-0.9,1.7-1.8,3.4-2.7,5c0.9,1.8,0.8,2.4-0.5,2.9c-0.5,0.2-1,0.3-1.5,0.4c-5.3,0.5-10.4,2-15.8,2.1
		c-2.7,0.1-5.2-0.1-7.6-1.2c-4.1-1.8-8.2-3.9-12.3-5.9c-1.3-0.6-2.4-1.6-3.6-2.3c-1.7-1.1-2.9-2.6-3.9-4.3c-0.9-1.7-1.7-3.5-2.3-5.4
		c-0.6-1.7-1-3.5-2.4-4.8c-0.9-3.1-3.2-5.2-5.3-7.5c-2-2.2-3.8-4.6-5.7-6.8c-1.9-2.3-3.4-4.9-4.8-7.5c-1.3-2.5-2.3-5.2-3.4-7.9
		c-0.3-0.7-0.4-1.5-0.5-2.3c-0.2-1.3,0.5-1.9,1.7-2.1c0.3,1,0.5,2,0.9,2.9c1.3,2.6,2.5,5.1,4,7.6c1.5,2.4,2.9,5.1,5,6.9
		c2.2,2,2.9,4.9,5,6.8c0.7,0.6,1.3,1.3,2,1.8c1.4,0.9,2.3,2.1,2.9,3.6c0.7,1.5,1.3,3.1,2,4.7c1,2.4,2,4.8,2.9,7.2
		c0.9,2.1,2.3,3.8,4.2,5c0.9,0.6,1.7,1.3,2.6,1.7c4.3,2.1,8.6,4.3,13,6.1c2,0.8,4.3,1.1,6.5,0.9c4.6-0.3,9.2-1.3,13.7-2.4
		c3.1-3.8,2.3-7.6,0.4-11.5c-1-0.1-2-0.3-3.1-0.4c-1.4-0.2-2.8-0.3-4.3-0.4c-1.6-0.1-2.9-0.8-4.1-2.1c-0.9-1-1.7-2.3-3.2-2.7
		l0.1,0.1c0.3-1.2-0.1-2.3-1.1-3.4c-1.1,0-2.5,0.9-4-0.3c1.2-0.9,2.1-1.7,3.2-2.5c-0.2-0.7-0.4-1.4-0.5-2c-1.2-0.6-2.9-0.4-3.5-1.9
		c1.6-1.1,1.6-1.1,4.3-1.5c0.5-0.1,0.9-0.7,1.6-1.2c-3-0.7-6.2,0.3-7.9-3.1c3.7-1.2,7.3-0.7,10.8-1.1c2-2.5,2-2.5,2.3-5.2
		c-0.4-0.1-0.8-0.3-1.1-0.2c-6.7,0.5-12.8-1.8-18.9-3.9c-3.3-1.2-4.6-3-4.6-6.4c0-3.8,0.4-7.5,2.5-10.8c0.3-0.4,0.5-0.9,0.8-1.4
		c0.3-0.5,0.8-1,0.1-1.9c-1,0.1-2.2,0.1-3.3,0.2c-3.3,0.3-6.4,1.1-8.8,3.6c-0.8,0.9-2,1.3-3.2,1.1c-1.7-0.2-3,0.5-4.3,1.4
		c-1.2,0.8-2.5,1.3-3.8,2c-0.7,0.4-1.5,0.6-2.1,1C433.6,529.2,430.4,529.4,427.2,528.9z M476.8,538.8c-1.6-3.3-3-5.8-4.1-8.4
		c-1.1-2.7-2-5.5-3.1-8.4c-1.8,0-3.6,0-5.4,0c-1.9,2.4-2.1,5.6-3.4,8.2c-0.2,0.3-0.1,0.8,0,1.2c0.2,2.3,1.2,4,3.6,4.5
		C468.2,536.8,472.1,537.7,476.8,538.8z"/>
	<path d="M591.3,392.3c-0.2,0.6-0.5,1.2-0.5,1.8c0.1,3.5-1,6.7-2.2,9.8c-2.5,6.7-4.3,13.6-6.3,20.5c-0.3,1-0.6,2.1-0.5,3.1
		c0.4,3.8-0.1,7.8,1,11.6c1.2,3.9,2.4,7.7,4.5,11.2c0.3,0.4,0.5,0.9,0.8,1.6c-0.3,0.5-0.7,1-1.1,1.6c0.2,3.6-0.1,7.2-1.5,10.7
		c-0.5,1.1-1.2,2.5,0.4,3.5c0.1,0.1,0,0.4,0,0.6c-0.2,0.7-0.6,1.4-0.6,2.2c-0.1,3.2,0,6.4,0,9.6c0,1.8,0,3.6-0.8,5.4
		c-1,2.3-1.2,4.8-0.6,7.3c0.4,1.6,0.1,3.1-0.4,4.6c-1,2.6-1.6,5.1-1.2,8c0.3,2.3-1,4.5-2.3,6.3c-1-0.1-1.2-0.7-1.1-1.4
		c0.1-0.8,0.5-1.5,0.7-2.2c0.2-1,0.5-2.1,0.3-3c-0.4-2.5,0.1-4.9,1-7.3c0.6-1.7,0.9-3.4,0.6-5.3c-0.4-2.3-0.2-4.7,0.7-6.9
		c1.1-2.6,1.3-5.3,0.7-8c-0.1-0.4,0-0.8,0-1.4c0.4-0.3,0.9-0.6,1.3-0.9c0-0.5,0.1-0.8,0.1-1c-0.3-1.3-0.6-2.5-0.9-3.8
		c-0.7-2.6-0.5-5,0.5-7.6c0.8-2.1,1-4.5,1.4-6.8c0.2-1,0.3-2,0.4-2.9c-1.2-2.6-2.4-5-3.5-7.5c-2.2-5.2-2.9-10.8-3.1-16.4
		c-0.1-1.4-0.1-2.9,0.8-4.1c0.2-0.3,0.3-0.7,0.4-1.1c1.8-8.5,4.7-16.7,7.2-25.1c0.4-1.5,0.7-3,1-4.5c0.2-1,0.2-2.1,1.4-2.9
		c0.6,0.3,1.2,0.7,1.8,1.1L591.3,392.3z"/>
	<path d="M181.8,41.5c1.7,1.7,3.5,3.4,5.2,5.2c-0.4,0.3-0.6,0.5-0.8,0.5c-1,0-1.4,0.7-1.5,1.5c-0.2,0.9,0.4,1.5,1.1,1.9
		c0.6,0.3,1.3,0.4,1.7,0.8c0.3,0.3,0.6,0.9,0.5,1.3c-0.1,0.4-0.5,1-0.9,1.1c-1.2,0.5-2.5,0.5-3.8-0.3c0-0.7,0-1.4,0-2.2
		c-0.6,0.1-1.1,0.1-1.5,0.2c-0.5-1.1-1.1-2.2-1.6-3.3c-1.2,0-1.6,0.6-1.4,1.5c0.1,0.6,0.4,1.1,0.9,2.2c-1.7-0.8-2.4-1.8-3.1-3.2
		c1.7-1.6,3.1-3.5,3.9-5.9c0.1-0.5,0.9-0.8,1.4-1.2L181.8,41.5z M182.5,43.9c-1.8,2.6-1.7,2.8,0.6,5.8c0.4-1.2,0.8-2.4,1.4-4
		C183.8,45.1,183.2,44.5,182.5,43.9z"/>
	<path d="M622.4,177.4c0.3,1.8,2.2,2.5,3,4c0,1-1,0.4-1.4,0.8c-0.9,0.8-1,2,0,2.7c0.6,0.4,1.4,0.6,2.1,1c0.4,0.3,0.8,1,0.7,1.3
		c-0.2,0.5-0.7,1.1-1.2,1.3c-1.1,0.4-2.3,0.3-3.4-0.3c-0.4-2.4-0.7-4.8,0.8-6.9c-0.4-1.2-0.9-2-2.3-2.3c-0.3,0.7-0.7,1.3-1,2
		c0.7,1.8,2,3.4,1,5.6c-0.6-1.3-1.1-2.4-1.7-3.5c-1.6,0.2-1.9,0.4-1.5,1.4c0.2,0.6,0.6,1.1,1.1,2.1c-2-0.8-2.7-1.9-3.3-3.2
		c1.7-1.8,3.1-3.6,3.8-5.9c0.2-0.9,1.1-1,1.9-0.7l-0.1-0.1c0.6,0.3,1.1,0.6,1.7,0.9L622.4,177.4z"/>
	<path d="M542.8,543.8c0.9,0.1,1.8,0.1,2.6,0.4c5.8,2,11.8,2.8,17.9,3.4c1.5,0.1,3.1,0.2,4.6,1.3c-0.5,0.3-0.9,0.8-1.2,0.8
		c-5.9-0.4-11.9-0.5-17.6-2.4C546.7,546.6,544.3,545.9,542.8,543.8L542.8,543.8z"/>
	<path d="M662.2,170.7c-0.2,1.4-0.9,2-2.1,1.8c-1.2-0.2-2.3-0.3-3.4-0.6c-2.1-0.7-4-0.7-6,0.5c-0.7,0.4-1.7,0.3-2.7,0.5
		c0.9-2,1.4-2.7,2.7-3c3.5-0.8,6.9-0.7,10.4,0C661.4,170,661.8,170.4,662.2,170.7z"/>
	<path d="M208.9,37.9c1.5-2.2,3.1-3,5-3.1c2.4-0.1,4.9,0,7.4,0c0.4,0,0.7,0.2,1.1,0.3c0.7,0.2,1.1,0.7,1.1,1.4
		c0,0.7-0.8,1.3-1.7,1.2c-1.2-0.1-2.3-0.3-3.4-0.5c-2.2-0.5-4.3-0.7-6.4,0.5C211.2,38,210.2,37.8,208.9,37.9z"/>
	<path d="M188.9,59.6c0.4,0,0.8,0,1.2,0c0.3,0.7,0.9,1.4,0.9,2.1c0,2.5,1.5,4.1,3.1,5.6c0.2,0.2,0.3,0.4,0.4,0.6
		c0.1,0.1,0,0.2,0,0.5c-0.5,0.1-0.9,0.1-1.7,0.2c1,2.2,1.9,4.2,2.9,6.6c-2.3-1.8-3.3-4-3.9-8.3c-2.2-1.8-3.3-4.3-2.9-7.4L188.9,59.6
		z"/>
	<path d="M628.7,194.3c0.3,0.7,0.8,1.3,0.9,2c0.1,2.4,1.4,4.1,3,5.6c0.3,0.2,0.4,0.6,0.6,0.9c-0.5,0.3-0.9,0.6-1.4,0.9
		c0.8,1.9,1.6,3.7,2.7,6.2c-2.3-2.5-3.4-4.4-3.7-7c-0.1-1.1-0.5-2-1.3-2.7C627.5,198.6,627.5,196.6,628.7,194.3z"/>
	<path d="M213.6,42.3c2.3-2.2,4.5-2.8,7.2-2.9c0,0.9,0,1.6,0,2.6c-0.5,0.8-1.4,1.1-2.5,1C216.9,42.8,215.5,42.6,213.6,42.3z"/>
	<path d="M652.6,177c1.8-2.2,4-3,6.8-2.7c0,0.8,0.1,1.5,0.1,2.4C657.4,178.8,654.9,176.8,652.6,177z"/>
	<path d="M606,549.2c-0.9,2-2.4,3-4.6,3.4c-1.9,0.3-3.8,0.5-6.1-0.5c2.6-0.8,4.4-2.1,6.9-1.7C603.4,550.6,604.8,549.7,606,549.2
		L606,549.2z"/>
	<path d="M588.7,443.6c-2.5-1.9-2.6-4.2-3-7.2c1.8,1.8,2.5,3.6,3.1,5.5C589,442.3,588.8,442.8,588.7,443.6z"/>
	<path d="M202.7,275.7c-0.6-1.5-0.1-2.8,0-4c0.1-1.1,0.1-2.2,0.2-3.3c1.1-0.2,1.2,0.6,1.3,1.1C204.3,271.6,204.2,273.7,202.7,275.7z
		"/>
	<path d="M589.5,478.6c2.2-0.3,4.3-0.7,6.6-1C593.1,479.9,590.6,480.3,589.5,478.6z"/>
	<path d="M529.4,537.9c1.9-0.1,3.6,0.4,5.4,1.7C532.4,540.2,530.9,539,529.4,537.9z"/>
	<path d="M536.7,518.9c0.3-0.2,0.6-0.5,0.9-0.6c1.8-0.3,3.6-0.5,5.3-0.6c0.6,0,1.1,0.3,2.6,0.6c-3.6,1-6.3,0.6-8.9,0.5L536.7,518.9z
		"/>
	<path d="M490.1,526.3c1.3-1.2,2.4-1.4,3.9-0.9C492.9,526.8,491.8,526.7,490.1,526.3z"/>
	<path d="M638.4,222.3c1.6,1.1,0.9,2.5,0.9,3.8C639.1,224.9,637.8,223.9,638.4,222.3z"/>
	<path d="M618.9,198.9c-0.4-1.5-0.3-2.6,0.7-3.5c0.7,0,0.9,0.5,0.7,1C620,197.2,619.5,197.9,618.9,198.9z"/>
	<path d="M625.5,475.7c0.1,2-0.7,3.6-2.3,4.8l0.1,0.1c0.2-1.8,1.5-3.2,2.4-4.7L625.5,475.7z"/>
	<path d="M487.5,526.4c-0.4,0.2-0.9,0.5-1.3,0.6c-0.4,0.1-0.9-0.1-1.4-0.3c-0.1,0-0.1-0.3-0.1-0.3c0.4-0.2,0.8-0.6,1.2-0.6
		c0.5-0.1,1,0,1.5,0.1C487.4,526,487.4,526.2,487.5,526.4z"/>
	<path d="M180.7,63.2c-0.4-1.6-0.4-1.6,0.9-2.6C182.1,61.7,181.6,62.5,180.7,63.2z"/>
	<path d="M496.2,526c0.5-0.2,1-0.5,1.6-0.7c0.1,0,0.6,0.3,0.6,0.3c-0.1,0.3-0.2,0.7-0.4,0.8c-0.5,0.1-1.1,0-1.6,0
		C496.3,526.3,496.2,526.1,496.2,526z"/>
	<path d="M585.5,431.8c0.2,0.6,0.4,1.1,0.6,1.7c0,0.2-0.1,0.5-0.3,0.6c-0.1,0.1-0.6-0.1-0.6-0.2c-0.1-0.7-0.1-1.3-0.2-2
		C585.2,431.9,585.4,431.8,585.5,431.8z"/>
	<path d="M581.7,545.9c-0.8-0.1-0.8-0.8-1-1.4C581.7,544.4,581.7,544.4,581.7,545.9z"/>
	<path d="M200.2,87.9c0.9,0.8,0.5,1.8,0.3,2.7C199.9,89.2,199.9,89.2,200.2,87.9z"/>
	<path d="M197.6,53.8c0.6-0.6,1-0.5,1.4,0c0.1,0.1,0.1,0.4,0.1,0.6c-0.2,0-0.5,0.1-0.6,0C198.2,54.3,197.9,54,197.6,53.8z"/>
	<path d="M628.7,488.3c0.3-0.6,0.6-1.3,1.2-2.5C629.9,487.4,629.8,488.2,628.7,488.3L628.7,488.3z"/>
	<path d="M197,80.4c-0.2-0.5-0.4-0.9-0.6-1.3c0.2,0,0.5-0.2,0.7-0.1C197.5,79.3,197.6,79.7,197,80.4z"/>
	<path d="M201.1,55.8c0.4,0,0.8,0,1.1,0.1c0.2,0.1,0.2,0.4,0.3,0.6c-0.3,0-0.6,0.1-0.9,0C201.4,56.5,201.3,56.2,201.1,55.8z"/>
	<path d="M634.9,214.1c0.3-0.3,0.5-0.4,0.6-0.5c0.2,0.4,0.4,0.8,0.6,1.2c0,0-0.2,0.2-0.2,0.2C635.5,214.8,635.2,214.5,634.9,214.1z"
		/>
	<path d="M628.6,488.2c0.2,1.2-0.4,2-1.5,2.4l0.1,0.1C627.2,489.6,627.8,488.8,628.6,488.2L628.6,488.2z"/>
	<path d="M542.8,543.8c-0.5-0.1-1-0.2-1.4-0.4c-0.3-0.1-0.5-0.5-0.8-0.7C541.8,542.7,541.8,542.7,542.8,543.8L542.8,543.8z"/>
	<path d="M520.3,530.7c0.3-0.2,0.4-0.3,0.6-0.4c0.2,0.3,0.4,0.5,0.6,0.8c0,0-0.2,0.2-0.3,0.2C520.9,531.1,520.6,530.9,520.3,530.7z"
		/>
	<path d="M637.8,188.6c-0.2,0.2-0.4,0.4-0.5,0.4c-0.2,0-0.5-0.1-0.6-0.3c-0.1-0.2,0.1-0.4,0.2-0.7
		C637.1,188.3,637.4,188.4,637.8,188.6z"/>
	<path d="M641,191c-0.2,0.2-0.4,0.4-0.5,0.4c-0.2,0-0.5-0.2-0.6-0.3c-0.1-0.2,0.1-0.4,0.2-0.6C640.4,190.6,640.7,190.8,641,191z"/>
	<path d="M536.6,518.8c-0.4,0.2-0.9,0.4-1.6,0.8c0.5-1,1.2-0.6,1.7-0.7L536.6,518.8z"/>
	<path d="M528.4,520.8c-0.2,0.1-0.4,0.2-0.6,0.2c-0.1,0-0.2-0.1-0.2-0.2c0.2-0.1,0.4-0.2,0.6-0.2
		C528.2,520.6,528.3,520.8,528.4,520.8z"/>
	<path d="M209.4,77.4c-0.2,0-0.5,0-0.7,0c-0.1,0-0.2,0-0.3-0.1c0.1-0.1,0.3-0.3,0.4-0.2C209,77.2,209.2,77.3,209.4,77.4L209.4,77.4z
		"/>
	<path d="M198.8,83.4c0,0.1,0.1,0.2,0.1,0.3c0,0.1-0.1,0.2-0.2,0.2C198.7,83.7,198.7,83.5,198.8,83.4z"/>
	<path d="M191.2,92.7c0.1,0,0.2-0.1,0.3-0.1c0,0.1,0.1,0.3,0.1,0.4c-0.1,0-0.3,0-0.4-0.1C191.2,92.9,191.2,92.8,191.2,92.7z"/>
	<polygon points="637.3,218.6 637.3,218.4 637.6,218.5 	"/>
	<path d="M630.2,227.4c-0.1,0.2-0.2,0.4-0.4,0.5c0,0-0.2-0.1-0.3-0.1C629.8,227.8,630,227.7,630.2,227.4L630.2,227.4z"/>
	<path d="M609.9,506.3C609.9,506.3,609.9,506.4,609.9,506.3L609.9,506.3z"/>
	<polygon points="610,506.4 610.1,506.2 609.9,506.3 	"/>
	<polygon points="612.2,504.8 612.1,505 612.3,504.8 	"/>
	<polygon points="612.3,504.8 612.4,504.6 612.2,504.8 	"/>
	<path d="M614.6,503.2c-0.1,0.1-0.2,0.2-0.3,0.3c0-0.1,0.1-0.1,0.1-0.1c0.1,0,0.2,0,0.3,0L614.6,503.2z"/>
	<path d="M614.7,503.3c-0.1-0.5,0.2-0.8,0.7-0.9l-0.1-0.1c-0.3,0.3-0.5,0.6-0.8,0.9L614.7,503.3z"/>
	<polygon points="595.8,501.4 595.8,501.7 595.9,501.5 	"/>
	<path d="M606.1,549.3c0.1-0.1,0.2-0.2,0.2-0.3c0,0.1,0,0.2,0,0.2C606.2,549.2,606.1,549.2,606.1,549.3L606.1,549.3z"/>
	<path d="M630.3,227.5c0-0.1,0.1-0.2,0.1-0.3C630.3,227.3,630.3,227.4,630.3,227.5L630.3,227.5z"/>
	<path d="M524.9,533.6C524.9,533.6,525,533.6,524.9,533.6L524.9,533.6z"/>
	<path d="M525,533.5c-0.1,0-0.2,0-0.3,0C524.7,533.5,524.8,533.6,525,533.5L525,533.5z"/>
	<polygon points="646.8,211.8 646.6,211.7 646.7,211.9 	"/>
	<path d="M625.5,177.4c-0.2,0.2-0.3,0.4-0.5,0.5c-0.1-0.2-0.1-0.4-0.2-0.5l-0.1,0.1c0.3,0,0.6,0,0.9,0L625.5,177.4z"/>
	<path d="M165.9,213.6c1.3,0.8,2.7,1,3,2.5c0.4,1.7,0.2,3.2-0.9,4.9c-1.2-1.1-1.5-2.4-1.6-3.6c-0.1-1.8-0.9-3.2-2.2-4.3
		c-0.5-0.4-0.9-0.9-1.2-1.5c-1-1.5-1.8-3.1-1.3-5.1c0.2-0.6,0-1.2,0-2.1c0.6,0,1.2-0.2,1.5,0c0.5,0.3,1.1,0.8,1.3,1.4
		c0.5,1.6,0.8,3.3,1.1,4.9C165.8,211.5,165.8,212.5,165.9,213.6z"/>
	<path d="M164,113.4c0.1-1.8,1.2-3.1,2.1-4.5c1.3-2.1,3-2.7,5.3-2c1.1,0.3,2.2,0.6,3.3,1c0.4,0.1,0.6,0.7,0.9,1.2
		c-2.4,0.8-4.3-1-6.4-0.5c-1.3,0.2-2.1,1.3-3,2.3C165.5,111.8,165.2,113,164,113.4L164,113.4z"/>
	<path d="M147.3,141.5c-2.4-1.5-3.6-3.9-4.5-6.5c-0.4-1.1-1-2.1-0.4-3.5c1.7,1.4,1.7,3.5,2.5,5.2
		C145.8,138.3,146.6,139.9,147.3,141.5z"/>
	<path d="M191.3,310.4c0.4,0.2,0.9,0.3,1,0.6c0.5,1.2,0.8,2.4,1.2,3.6c0.1,0.2-0.3,0.6-0.5,0.9c-0.1,0.1-0.5,0-0.7-0.1
		c-1.4-1-1.9-2.4-1.6-4C190.7,311,191,310.7,191.3,310.4z"/>
	<path d="M197.5,314.9c-0.3-0.8-0.7-1.6-0.9-2.5c-0.1-0.5,0.2-1.1,0.3-1.9c1.7,0.7,2.2,2,2.7,3.2c-0.4,1.4-1.3,1.1-2.2,1.1
		L197.5,314.9z"/>
	<path d="M138.9,129.2c0.4-0.7,0.8-1.5,1.5-2.6c0.1,2.6,0.4,4.9-1.1,7.3c-0.8-1.8-0.2-3.3-0.2-4.8L138.9,129.2z"/>
	<path d="M162.4,240.6c-1.9-2.6-1.9-2.6-1.6-4.3c0.2,0.1,0.5,0.2,0.6,0.4C161.7,237.8,162,238.9,162.4,240.6z"/>
	<path d="M170,235.8c-0.7-1.7-1.7-2.9-1-4.7C169.9,232.5,170.1,233.9,170,235.8z"/>
	<path d="M152.7,144.8c1.3,0.3,1.7,1,1.6,2.2c-1,0.1-1.6-0.5-1.9-1.3C152.3,145.5,152.6,145.1,152.7,144.8z"/>
	<path d="M204.2,304.1c1.3,0.9,1.3,2,1,3.6C204.2,306.5,203.5,305.6,204.2,304.1z"/>
	<path d="M206.5,309.2c0.9,1,1,2,0.8,3.3C205.9,311.3,205.9,311.3,206.5,309.2z"/>
	<path d="M189.7,303.2c-0.3-0.5-0.6-0.8-0.6-1c0-0.3,0.4-0.5,0.6-0.8c0.2,0.3,0.6,0.5,0.6,0.8C190.3,302.4,190,302.7,189.7,303.2z"
		/>
	<path d="M195.5,320.2c-0.1,0.1-0.2,0.2-0.3,0.2c-0.7,0.3-1.3,0.1-1.5-0.5c0-0.1,0-0.2,0.1-0.3c0.3-0.4,1.1-0.3,1.6,0.2
		C195.5,320,195.5,320.1,195.5,320.2z"/>
	<path d="M159.5,150.7c-0.2-0.1-0.5-0.1-0.7-0.2c-0.2-0.2-0.3-0.6-0.5-0.9c0.2-0.1,0.6-0.3,0.6-0.3c0.3,0.3,0.6,0.7,0.8,1.1
		C159.8,150.5,159.6,150.6,159.5,150.7z"/>
	<path d="M184.3,143.9c0-1.2,0.3-2.1,1.6-2.3l-0.1-0.1C185.7,142.6,185.3,143.5,184.3,143.9L184.3,143.9z"/>
	<path d="M162.4,118.8c0.1-0.5,0.2-1,0.3-1.6c0.1,0,0.2,0,0.3,0c0,0.6,0,1.1,0,1.7C162.8,118.9,162.6,118.8,162.4,118.8z"/>
	<path d="M155,220.2c0.2,0.3,0.5,0.6,0.6,0.9c0.1,0.1-0.2,0.4-0.3,0.6c-0.2-0.2-0.5-0.4-0.7-0.7C154.6,220.8,154.8,220.5,155,220.2z
		"/>
	<path d="M190.7,307.8c-0.2,0.1-0.3,0.3-0.5,0.4c-0.1-0.3-0.2-0.5-0.4-0.8c0.2-0.1,0.4-0.3,0.6-0.2
		C190.6,307.3,190.6,307.6,190.7,307.8z"/>
	<path d="M158.1,227.1c-0.1,0.2-0.2,0.4-0.4,0.5c-0.1,0.1-0.4-0.1-0.5-0.2c0.1-0.2,0.1-0.5,0.3-0.6
		C157.7,226.9,157.9,227,158.1,227.1z"/>
	<path d="M181.7,150.9c0,0.1-0.1,0.2-0.1,0.3c0-0.1-0.1-0.2-0.1-0.3c0-0.1,0.1-0.2,0.1-0.3C181.6,150.7,181.6,150.8,181.7,150.9z"/>
	<path d="M167.8,223.6c0,0.1-0.1,0.2-0.1,0.3c-0.1-0.1-0.2-0.2-0.3-0.4c0,0,0.1-0.1,0.2-0.2C167.7,223.5,167.8,223.6,167.8,223.6z"
		/>
	<path d="M172.4,241.3c0,0.1-0.1,0.2-0.1,0.3c-0.1-0.2-0.2-0.3-0.3-0.5c0.1-0.1,0.2-0.2,0.3-0.2C172.3,241,172.4,241.2,172.4,241.3z
		"/>
	<path d="M167.8,228.2c-0.1,0.1-0.3,0.2-0.4,0.3c0-0.2-0.1-0.4-0.1-0.6c0-0.1,0.2-0.2,0.2-0.2C167.6,227.8,167.7,228,167.8,228.2z"
		/>
	<path d="M197.4,314.8c0,0.4,0.1,0.7,0.1,1.1c0,0.1-0.3,0.2-0.5,0.3c-0.1-0.2-0.3-0.4-0.2-0.5c0.2-0.3,0.5-0.5,0.7-0.8L197.4,314.8z
		"/>
	<path d="M190.6,149.5c0-0.1,0-0.2,0.1-0.4C190.6,149.2,190.6,149.3,190.6,149.5L190.6,149.5z"/>
	<polygon points="196.5,306 196.3,306.1 196.3,305.9 	"/>
	<polygon points="197.2,309.3 197.1,309 197.3,309 	"/>
	<polygon points="163.9,113.3 163.8,113.6 164,113.4 	"/>
	<path d="M185.9,141.6c0.1-0.2,0.1-0.3,0.2-0.5c0,0.1,0,0.2,0,0.2C186,141.5,185.9,141.5,185.9,141.6L185.9,141.6z"/>
	<path d="M184.2,143.8c-0.1,0.1-0.2,0.3-0.3,0.4c0-0.1,0-0.2,0.1-0.2C184.1,144,184.2,143.9,184.2,143.8L184.2,143.8z"/>
	<path d="M161.9,438.2c1.1,0.1,1.4,0.6,1.4,1.3c-0.1,3.5-0.1,7-0.3,10.5c-0.1,1.5-0.4,3-0.7,4.7C161.4,451,161.2,443.3,161.9,438.2z
		"/>
	<path d="M179,423.4c-0.4-3.8-0.3-4.3,1.1-6.4C181.3,418.3,181.2,419.6,179,423.4z"/>
	<path d="M160,465.2c-0.1-2.8,0.2-5.1,2-7.3C162.6,460.5,162.6,460.5,160,465.2z"/>
	<path d="M155,548.7c-1.9-0.9-2-1.1-3.4-4.4C155,546,155.4,546.4,155,548.7z"/>
	<path d="M179.4,435.8c-2.5-2.5-2.5-3.4,0.1-4.9C179.2,432.5,180.4,433.9,179.4,435.8z"/>
	<path d="M187.6,420.5c-0.9,0.5-1.4,0.9-2,1.1c-0.7,0.2-1.2-0.2-1.4-0.9c-0.2-0.6,0.5-1.3,1.1-1.2
		C185.9,419.7,186.5,420.1,187.6,420.5z"/>
	<path d="M152.6,521.6c0.7,2,0.7,2-0.6,3.2C151.3,523.5,151.9,522.6,152.6,521.6z"/>
	<path d="M151.7,532c-0.1-0.1-0.4-0.3-0.4-0.5c0-0.4,0.1-0.8,0.3-1.1c0.2-0.2,0.6-0.3,0.9-0.4c0.1,0,0.3,0.4,0.3,0.6
		C152.8,531.5,152.3,532.1,151.7,532z"/>
	<path d="M151.8,540c0.6,1.2-0.1,1.8-0.7,2.4C150.6,541.5,150.6,540.6,151.8,540z"/>
	<path d="M160.1,473.2c-0.1,0.8-0.2,1.6-0.3,2.4c0,0.1-0.4,0.2-0.6,0.3c-0.1,0-0.2-0.2-0.2-0.3c0.1-0.8,0.3-1.7,0.5-2.5
		C159.6,473.2,159.8,473.2,160.1,473.2z"/>
	<path d="M180.8,428.7c-0.7-0.7-1.3-1.5-1.1-2.9C180.9,426.7,181.5,427.4,180.8,428.7z"/>
	<path d="M173.7,432.4c0.1,0.1,0.3,0.1,0.3,0.2c0.4,0.5,0.9,0.9,0.4,1.6c-0.1,0.1-0.2,0.1-0.3,0.1c-0.8-0.3-0.7-0.9-0.6-1.5
		C173.5,432.6,173.6,432.5,173.7,432.4z"/>
	<path d="M151.6,536.9c0-0.6,0-1.2,0-2C152.4,535.7,152,536.3,151.6,536.9z"/>
	<path d="M153.3,518c-0.1-0.8-0.2-1.1-0.2-1.4c0-0.1,0.3-0.2,0.4-0.3c0.1,0.1,0.2,0.2,0.2,0.3C153.7,517,153.6,517.3,153.3,518z"/>
	<path d="M158.1,487.2c0,0.1,0.1,0.2,0.1,0.3c0,0.1-0.1,0.2-0.2,0.3c0-0.1-0.1-0.2-0.1-0.3C157.9,487.4,158,487.3,158.1,487.2z"/>
	<path d="M162.4,361.1c0.1-4.7,0.3-9.4,1-14c0.1-0.6,0.4-1.2,0.6-1.7c-0.3,4.7-0.7,9.3-1,14C162.9,359.9,162.6,360.5,162.4,361.1z"
		/>
	<path d="M198.3,392.3c0.7,0.2,1.4,0.4,2.1,0.7c1.5,0.7,3,1.5,4.5,2.2c0.6-0.5,1-0.9,1.6-1.2c0.5-0.2,1-0.1,1,0.6l0.1-0.1
		c-0.1,0-0.3,0-0.4,0.1c-0.7,0.5-1.4,1.4-2.1,1.4c-1.1,0-2.3-0.5-3.3-1C200.6,394.4,199,393.8,198.3,392.3L198.3,392.3z"/>
	<path d="M192.2,368.8c2-1.9,3.7-1.7,6.3-1.4C196.1,368.2,194.6,369,192.2,368.8z"/>
	<path d="M210.9,396.9c-1.7,0.1-2.4-1.2-3.3-2.2l-0.1,0.1C209.1,394.8,210,395.9,210.9,396.9L210.9,396.9z"/>
	<path d="M179,366.4c0-0.8,0-1.6,0-2.3c0.1,0,0.1,0,0.2,0c0,0.8,0,1.6,0,2.3C179.2,366.4,179.1,366.4,179,366.4z"/>
	<path d="M198.4,392.2c-1.1,0-1.7-0.8-2.4-1.5l-0.1,0.1C197,390.8,197.9,391.2,198.4,392.2L198.4,392.2z"/>
	<path d="M194.5,389c-0.6-0.2-1.1-0.4-1.7-0.5l-0.1,0.1C193.3,388.7,193.9,388.9,194.5,389L194.5,389z"/>
	<path d="M186.1,359.9c-0.2,0.1-0.3,0.4-0.4,0.4c-0.2,0-0.3-0.2-0.4-0.4c0,0,0.2-0.3,0.2-0.3C185.6,359.6,185.8,359.7,186.1,359.9z"
		/>
	<path d="M192,387.7c0.2,0.3,0.5,0.6,0.7,0.8l0.1-0.1C192.6,388.2,192.4,387.9,192,387.7L192,387.7z"/>
	<path d="M195.3,389.8c-0.2-0.3-0.5-0.6-0.7-0.8l-0.1,0.1c0.2,0.3,0.5,0.6,0.7,0.8L195.3,389.8z"/>
	<path d="M196,390.7c-0.3-0.3-0.5-0.6-0.8-0.9l-0.1,0.1c0.3,0.3,0.5,0.6,0.8,0.9L196,390.7z"/>
	<polygon points="189.7,385.2 189.6,385 189.6,385.3 	"/>
	<path d="M190.6,385.9c-0.3-0.2-0.5-0.5-0.8-0.7l-0.1,0.1C189.9,385.5,190.2,385.8,190.6,385.9L190.6,385.9z"/>
	<path d="M191.3,386.7c-0.3-0.3-0.5-0.5-0.8-0.8l-0.1,0.1C190.7,386.3,191,386.5,191.3,386.7L191.3,386.7z"/>
	<path d="M192.1,387.6c-0.3-0.3-0.5-0.6-0.8-0.9l-0.1,0.1C191.5,387.1,191.8,387.4,192.1,387.6L192.1,387.6z"/>
	<path d="M185.5,189.5c0.2-0.7,0.3-1.3,0.5-2.1c1.8,0.8,2.6,2.3,3.8,3.7C187.7,191.7,186.5,190.8,185.5,189.5z"/>
	<path d="M218.7,163.5c-1.1,3.6-1.6,4.1-4.3,5.1C215.1,167.2,217.1,164.9,218.7,163.5L218.7,163.5z"/>
	<path d="M189.3,204.5c1.3-0.5,1.3-0.5,2.5,0.8C190.8,205.6,189.9,205.6,189.3,204.5z"/>
	<path d="M196.2,192.8c-0.1,0.1-0.2,0.2-0.3,0.2c-1,0.2-1.7-0.1-1.8-0.8c0-0.1,0-0.2,0-0.3c0.4-0.5,1.3-0.4,2,0.3
		C196.2,192.3,196.2,192.6,196.2,192.8z"/>
	<path d="M203.2,168.5c0.7-1.3,0.7-1.3,1.9,0C204.5,169.3,203.9,168.9,203.2,168.5z"/>
	<path d="M218.8,163.6c0-0.8,0.1-1.6,0.1-2.6C219.5,162,219,162.7,218.8,163.6L218.8,163.6z"/>
	<path d="M200.4,165.7c0.4,0.6,0.7,0.9,0.9,1.3c0.1,0.1-0.2,0.4-0.4,0.6c-0.4-0.3-0.8-0.5-1.2-0.8
		C199.7,166.8,200.1,166.3,200.4,165.7z"/>
	<path d="M199,192.8c-0.2-0.3-0.3-0.5-0.5-0.8c0.2-0.1,0.5-0.3,0.6-0.2c0.2,0.2,0.4,0.5,0.6,0.7C199.5,192.5,199.3,192.6,199,192.8z
		"/>
	<path d="M186.8,202.3c0.3,0.4,0.5,0.7,0.8,1.1c0,0-0.4,0.4-0.4,0.4c-0.4-0.3-0.7-0.6-1-0.9C186.3,202.7,186.5,202.6,186.8,202.3z"
		/>
	<path d="M182.8,198.8c0.1-0.6,0.1-1.1,0.2-1.7c0.1,0,0.2,0,0.2,0.1c-0.2,0.5-0.3,1-0.5,1.6L182.8,198.8z"/>
	<path d="M196.6,165.7c-0.1-0.1-0.2-0.3-0.2-0.4c0.2,0,0.4-0.1,0.6-0.1c0.1,0,0.1,0.2,0.2,0.2C196.9,165.5,196.8,165.6,196.6,165.7z
		"/>
	<path d="M155.4,275.9c0.4-1.9,0.6-3.8,1.1-5.7c0.7-2.6,1.3-5.3,1.3-8c0-1,0.1-2.1,1.1-3c0,0.8,0,1.4,0,2c0,0.4-0.2,0.9,0,1.1
		c1.9,1.8,0.6,3.7,0.2,5.4c-0.6,2.2-1.5,4.4-2.3,6.6C156.5,274.9,156.3,275.8,155.4,275.9L155.4,275.9z"/>
	<path d="M155.3,275.8c0,0.3-0.1,0.6,0,0.3C155.1,276.4,155.2,276.1,155.3,275.8L155.3,275.8z"/>
	<path d="M225.5,308.6c0.1-1.9,0.1-3.1,0.2-4.2c0-0.5,0.1-1.1,0.4-1.5c0.3-0.5,0.9-1,1.4-1.1c0.3-0.1,0.9,0.4,1.2,0.7
		c0.3,0.4,0.6,0.9,0.7,1.4c1.2,4.5,1.8,9.1,1.1,13.8c-0.1,0.4-0.2,0.8-0.3,1.1c-0.3,0.8-1.8,1.1-2.3,0.3c-0.6-1-1.2-2.1-1.4-3.2
		C226,313.3,225.7,310.6,225.5,308.6z M228.7,316.6c0.6-1.8,1-3.1,0.6-4.8c-0.5-2.4-0.1-5-1.8-7.6c-0.1,0.8-0.4,1.2-0.2,1.5
		c0.8,1.8,0.7,3.8,1.2,5.6c0.3,1.3,0.5,2.5-0.3,3.7C227.9,315.5,227.9,316.3,228.7,316.6z"/>
	<path d="M229.5,340c0-0.6,0-1.1,0-1.7c0.5-0.2,1.1-0.5,1.6-0.7l-0.1-0.1c0,0.2,0.1,0.5,0.1,0.7C231.1,339.6,231.1,339.6,229.5,340z
		"/>
	<path d="M231.1,337.6c0.1-0.1,0.3-0.2,0.4-0.3c-0.1,0.1-0.1,0.2-0.2,0.2c-0.1,0-0.2,0-0.3,0L231.1,337.6z"/>
	<path d="M238.1,335.2c0.1-0.2,0.3-0.3,0.4-0.5c0.2,0.6-0.2,0.4-0.5,0.4L238.1,335.2z"/>
	<path d="M604.5,357.5c1.2,0.7,2.5,1,2.8,2.3c0.6,2.1,0.5,4.1-0.8,6c-1.2-1.4-1.3-3-1.5-4.6c-0.2-1.6-0.9-2.9-1.9-4.1
		c-1-1.2-1.8-2.5-2.5-3.9c-0.6-1-0.9-2.1-0.4-3.3c0.2-0.5-0.2-1.2-0.2-1.8c0-0.6,0.8-1.1,1.4-1c1,0.2,1.6,0.9,1.8,1.8
		c0.4,1.9,0.8,3.8,1.1,5.7C604.5,355.5,604.4,356.4,604.5,357.5z"/>
	<path d="M602.4,248.5c0.5-2.9,2.2-4.8,3.8-6.8c2.7-0.6,5.1-0.2,7.4,1.2c0.2,0.1,0.1,0.7,0.2,1.1c-2.3,0.4-4.3-0.9-6.4-0.8
		C605.2,244.4,604.4,246.8,602.4,248.5z"/>
	<path d="M585.7,278.3c-3.4-4.1-4.9-8-4.7-11.6c0.3,0.3,0.7,0.5,0.8,0.8c1.3,3.1,2.5,6.3,3.7,9.4
		C585.7,277.3,585.5,277.9,585.7,278.3L585.7,278.3z"/>
	<path d="M630.6,462.6c1.5,1.4,1.8,3.1,1.6,5.3c-1.9-0.4-2.4-1.6-2.7-3C629.3,464.1,629.5,463.7,630.6,462.6z"/>
	<path d="M592.3,358.3c-1.7-1-2.8-1.6-3.8-2.3c-0.3-0.2-0.4-0.9-0.3-1.3c0.1-0.5,1.2-0.7,1.7-0.3
		C590.9,355.1,591.7,356.1,592.3,358.3z"/>
	<path d="M636.1,463c1.5,0.5,2.1,1.7,2.5,3.1c0.1,0.3-0.2,0.8-0.5,0.9c-0.3,0.2-0.8,0.2-1.1,0C635.6,466,635.4,465.1,636.1,463z"/>
	<path d="M592.8,283.6c-1.3,0.1-1.8-0.6-2.1-2c0.5,0,1.1-0.2,1.4,0C592.8,282.1,593,282.9,592.8,283.6L592.8,283.6z"/>
	<path d="M600.6,386.7c-1.3-1.1-1.5-2.5-1.7-4.4C600.4,384.1,600.4,384.1,600.6,386.7L600.6,386.7z"/>
	<path d="M608.4,381.3c-0.4-0.9-0.8-1.8-1.1-2.7c-0.1-0.4-0.1-0.9-0.2-1.6C608.4,378.3,608.4,378.3,608.4,381.3L608.4,381.3z"/>
	<path d="M645.3,461.6c1.1,1.8,1.1,1.8,0.2,3.3C645,463.7,644.7,462.7,645.3,461.6z"/>
	<path d="M642.9,456.3c1.6,1,1.3,2.1,1.5,3.8C643.1,458.9,642.7,457.9,642.9,456.3z"/>
	<path d="M598.7,287.7c-1.2,0.5-1.5-0.3-1.8-0.9c-0.1-0.1,0.2-0.4,0.3-0.6c0,0,0.3,0,0.3,0C597.9,286.7,598.2,287.2,598.7,287.7z"/>
	<path d="M628.4,453.5c0.4,0.3,0.8,0.3,0.8,0.5c0.2,0.5,0.1,1-0.5,1.2c-0.2,0-0.6-0.2-0.6-0.3C628.1,454.4,628.3,454,628.4,453.5z"
		/>
	<path d="M624,278.2c0.2,1.1-0.5,1.8-1.3,2.8C622.6,279.5,623,278.7,624,278.2L624,278.2z"/>
	<path d="M601.1,254.4c-0.5-1-0.4-1.7,0.9-2.4C601.6,253,601.4,253.6,601.1,254.4z"/>
	<path d="M634.4,472.8c-0.5,0-1,0-1.4-0.1c-0.2,0-0.4-0.4-0.3-0.5c0-0.2,0.3-0.4,0.4-0.4C633.7,471.8,634.4,471.8,634.4,472.8z"/>
	<path d="M610.4,387.1c0.4,0.5,0.6,0.9,1,1.4C610.5,388.1,610.5,388.1,610.4,387.1z"/>
	<path d="M629.1,460.5c-0.1-0.2-0.3-0.5-0.3-0.5c0.2-0.2,0.4-0.3,0.7-0.4c0.1,0.2,0.2,0.4,0.1,0.6
		C629.6,460.3,629.3,460.4,629.1,460.5z"/>
	<path d="M593.7,366.4c-0.1-0.4-0.3-0.8-0.4-1.2c0.2-0.1,0.4-0.1,0.7-0.2c0.1,0.4,0.2,0.8,0.2,1.2
		C594,366.3,593.8,366.4,593.7,366.4z"/>
	<path d="M605.7,373.7c0.1-0.2,0.2-0.5,0.3-0.6c0.1-0.1,0.5,0.1,0.5,0.2c0,0.2-0.1,0.4-0.2,0.6C606.1,373.9,605.9,373.8,605.7,373.7
		z"/>
	<path d="M596.6,372.8c-0.2,0.1-0.3,0.1-0.5,0.2c0-0.2,0-0.4,0-0.7c0-0.1,0.2-0.1,0.3-0.2C596.4,372.4,596.5,372.6,596.6,372.8z"/>
	<path d="M606.3,368.4c0.1,0,0.2,0,0.2,0c-0.1,0.3-0.1,0.6-0.2,0.9c-0.1-0.1-0.2-0.2-0.2-0.3C606.2,368.8,606.3,368.6,606.3,368.4z"
		/>
	<path d="M624.1,278.3c0.1-0.3,0.1-0.6,0.2-1c0.1,0.1,0.3,0.2,0.4,0.3C624.4,277.8,624.2,278,624.1,278.3L624.1,278.3z"/>
	<polygon points="585.6,278.4 585.9,278.3 585.7,278.3 	"/>
	<path d="M592.7,283.7c0.1,0.1,0.2,0.1,0.3,0.2C593,283.8,592.9,283.7,592.7,283.7L592.7,283.7z"/>
	<path d="M600.5,386.8c0.1,0,0.2,0.1,0.3,0.1C600.7,386.9,600.6,386.8,600.5,386.8L600.5,386.8z"/>
	<path d="M615.5,424.3c-0.2-0.1-0.3-0.2-0.5-0.3C615.5,423.6,615.4,424.1,615.5,424.3L615.5,424.3z"/>
	<polygon points="613.5,419 613.6,419.3 613.4,419.3 	"/>
	<path d="M608.4,400c-0.1-0.1-0.2-0.1-0.2-0.2C608.2,400,608.2,400,608.4,400L608.4,400z"/>
	<polygon points="608.3,400.1 608.5,400.2 608.4,400 	"/>
	<polygon points="636.2,461.2 636.3,461.5 636,461.4 	"/>
	<polygon points="635.2,458.3 635.4,458.2 635.4,458.4 	"/>
	<path d="M608.3,381.4c0.1,0,0.2,0.1,0.3,0.1C608.5,381.4,608.4,381.3,608.3,381.4L608.3,381.4z"/>
	<path d="M726.3,493.1c-2.2,4.8-5.1,9.2-8.8,13.1c-0.1,0.1-0.4-0.1-0.9-0.3c3-4.2,5.6-8.7,9.1-12.5
		C725.8,493.3,726.1,493.2,726.3,493.1L726.3,493.1z"/>
	<path d="M746.7,460.9c-0.1-2.6-0.7-4.6-0.8-6.7c1.6,0,2.1,0.8,2.2,1.7C748.3,457.5,748.3,459.2,746.7,460.9z"/>
	<path d="M758.6,435.4c2.3,1.4,2.7,3.3,2.7,5.7C759.1,438.5,758.8,437.8,758.6,435.4z"/>
	<path d="M760.7,431.2c-0.9,0-1.3,0.2-1.5,0c-1-0.5-1.5-1.4-1.6-2.4c0-0.4,0.3-1.1,0.6-1.2c0.3-0.1,1.1,0.1,1.3,0.4
		C760,428.8,760.2,429.8,760.7,431.2z"/>
	<path d="M704.2,548.8c-0.5-2.1-0.5-2.1,1.4-4.6C705.7,546.8,705.6,547.2,704.2,548.8z"/>
	<path d="M730.4,488.2c0.1-2.2,0.2-2.3,1.8-5c0.4,1.1,0,2-0.3,2.9C731.6,486.9,731.4,487.9,730.4,488.2z"/>
	<path d="M721.5,444.3c-1.3,0.3-2.6,0.7-4.6,1.2C718.5,443.5,720,444,721.5,444.3z"/>
	<path d="M720.5,536.5c0.4,1.4,0.4,2.7-0.8,4C718.8,538.9,719.6,537.7,720.5,536.5z"/>
	<path d="M708.7,536.3c0.2,1.5,0.2,1.5-1,3.4C707.5,538.1,707.5,538.1,708.7,536.3z"/>
	<path d="M743.5,417.6c1.6-0.5,3.2-0.3,5.6,0C746.7,418.3,745.1,418.1,743.5,417.6z"/>
	<path d="M741.7,450.4c-1.1,0.9-1.8,0.8-2.5,0.3c-0.1-0.1-0.2-0.5-0.2-0.6c0.1-0.2,0.4-0.4,0.5-0.4
		C740.1,449.8,740.7,450,741.7,450.4z"/>
	<path d="M710.3,532.4c0.5,0.6,0.5,1,0,1.4c0,0-0.2-0.2-0.2-0.3C710.1,533.2,710.2,532.8,710.3,532.4z"/>
	<path d="M735,443.5c-0.2,0.1-0.4,0.2-0.6,0.2c-0.1,0-0.2-0.3-0.2-0.4c0.2,0,0.5-0.1,0.7-0.1C734.9,443.3,734.9,443.5,735,443.5z"/>
	<polygon points="741.1,416.8 741.4,416.9 741.1,417 	"/>
	<polygon points="726.4,493.1 726.4,492.9 726.3,493.1 	"/>
	<path d="M652.7,303.1c0.9-1,1.7-1.8,2.4-2.7c0.7-0.9,1.4-1.9,2.3-3.2c-0.2,2.3-1.1,3.8-2.4,5.1
		C654.8,302.8,654.7,302.8,652.7,303.1z"/>
	<path d="M630.3,339.9c-0.6,0-1.2,0.1-1.8,0c-0.2,0-0.3-0.5-0.4-0.8c0.3-0.1,0.7-0.4,0.9-0.3C629.5,339,629.9,339.5,630.3,339.9
		L630.3,339.9z"/>
	<path d="M634.7,327.3c-0.4,0.2-0.8,0.4-1.1,0.3c-0.3,0-0.7-0.3-0.9-0.5c-0.1-0.1,0.1-0.6,0.2-0.6c0.3-0.1,0.7-0.2,1,0
		C634.2,326.5,634.4,326.9,634.7,327.3z"/>
	<path d="M642.7,302.1c0.3,0.4,0.6,0.7,0.8,1c-0.3,0.2-0.6,0.6-0.7,0.5c-0.4-0.2-0.7-0.5-1-0.8C642,302.7,642.3,302.5,642.7,302.1z"
		/>
	<path d="M640,302c-0.7,0.6-1.3,0.5-1.7-0.4c-0.1-0.2,0.1-0.5,0.2-0.6C639.5,300.7,639.9,301.1,640,302z"/>
	<path d="M626.2,337.8c-0.3,0.3-0.6,0.6-0.6,0.5c-0.4-0.3-0.7-0.6-1-0.9c0.2-0.1,0.4-0.4,0.5-0.4
		C625.4,337.2,625.8,337.5,626.2,337.8z"/>
	<path d="M638.8,326.9c-0.8,0.6-1.3,0.7-1.7,0c0-0.1,0.3-0.5,0.4-0.5C637.9,326.5,638.2,326.7,638.8,326.9z"/>
	<path d="M658,295.6c-0.1,0-0.1-0.1-0.2-0.1c0.1-0.1,0.2-0.2,0.3-0.2C658.1,295.4,658.1,295.5,658,295.6z"/>
	<path d="M635.7,300.4c-0.2,0.1-0.3,0.1-0.5,0.2c0-0.2-0.1-0.4-0.1-0.6c0-0.1,0.2-0.1,0.3-0.2C635.5,300,635.6,300.2,635.7,300.4z"
		/>
	<path d="M630.3,339.9c0.1,0.1,0.2,0.2,0.3,0.4c-0.1,0-0.2-0.1-0.3-0.1C630.3,340.1,630.3,340,630.3,339.9L630.3,339.9z"/>
	<path d="M630.6,397.3c0.8-1.4,1.9-0.9,3.1-0.7C632.6,397.5,632.6,397.5,630.6,397.3z"/>
	<path d="M636.6,399.7c0-0.1,0-0.3,0.1-0.4c0.3-0.4,0.7-0.8,1.2-0.5c0.2,0.1,0.4,0.4,0.4,0.6c0,0.7-0.6,0.6-1.1,0.6
		C637,400.1,636.8,399.8,636.6,399.7z"/>
	<path d="M669.4,420.4c0.1-1,0.7-1.8,1.5-2.3l-0.1-0.1c0,1.1-0.4,2-1.5,2.3L669.4,420.4z"/>
	<path d="M667.9,422.8c0-1.1,0.5-1.9,1.5-2.4l-0.1-0.1c0,1.1-0.6,1.8-1.5,2.4L667.9,422.8z"/>
	<path d="M653.6,419.5c-0.2,0.5-0.5,1.1-0.7,1.6l0.1,0.1C653.1,420.6,652.9,419.9,653.6,419.5L653.6,419.5z"/>
	<path d="M671.8,417.4c-0.1-0.7-0.1-1.3,0.7-1.6l-0.1-0.1c-0.2,0.5-0.5,1-0.7,1.6L671.8,417.4z"/>
	<path d="M672.5,415.8c0.2-0.5,0.5-1.1,0.7-1.6l-0.1-0.1c-0.1,0.6,0.1,1.3-0.7,1.6L672.5,415.8z"/>
	<path d="M666.9,423.4c0,0.1,0,0.2-0.1,0.4c0.1-0.1,0.1-0.2,0.2-0.3L666.9,423.4z"/>
	<path d="M667.8,422.7c-0.3,0.2-0.6,0.5-0.9,0.7l0.1,0.1c0.3-0.2,0.6-0.5,0.9-0.7L667.8,422.7z"/>
	<polygon points="653,421.2 652.8,421.3 653.1,421.2 	"/>
	<path d="M639.6,418c-0.1,0.1-0.2,0.2-0.3,0.3c0-0.1,0.1-0.2,0.1-0.2c0.1,0,0.2,0,0.3,0L639.6,418z"/>
	<path d="M671.7,417.3c-0.3,0.2-0.6,0.5-0.9,0.7l0.1,0.1c0.1-0.5,0.3-0.8,0.9-0.7L671.7,417.3z"/>
	<path d="M640.4,417.2c-0.3,0.3-0.5,0.6-0.8,0.8l0.1,0.1C640,417.9,640.2,417.6,640.4,417.2L640.4,417.2z"/>
	<path d="M673.2,414.2C673.6,413.7,673,414.2,673.2,414.2L673.2,414.2z"/>
	<path d="M670.3,465.8c-0.2,1.8-0.3,3.5-0.6,5.1c-0.1,0.5-0.8,1.1-1.3,1.2c-0.5,0.1-1.2-0.4-1.5-0.8c-0.4-0.5-0.6-1.1-0.7-1.8
		c-0.9-3.7-1.4-7.4-1.2-11.1c0-1,0.3-2.1,0.6-3c0.1-0.4,0.7-0.9,1.1-0.9c0.4-0.1,1.1,0.2,1.3,0.6c0.5,1,1.1,2.1,1.3,3.2
		C669.7,460.8,670,463.4,670.3,465.8z M667.7,460.3c0.1-1.8,0.1-1.8-0.9-2.8c-0.9,1.3-0.1,2,1,2.7c0,1.5-0.2,3.1,0.1,4.6
		c0.4,1.6-1.5,3.2,0.5,4.9c0-3.1,0.4-6-0.2-8.8C668.1,460.7,667.8,460.5,667.7,460.3z"/>
	<path d="M669.3,493.1c0-0.6-0.2-0.8-0.8-0.8c0-0.6,0-1.1,0-1.7c0.6,0.3,1.1,0.6,1.7,0.9l-0.1-0.1
		C670.4,492.3,669.8,492.7,669.3,493.1z"/>
	<path d="M670.1,491.5c0.1-0.4,0.1-0.8,0.2-1.5C670.8,490.9,670.7,491.3,670.1,491.5L670.1,491.5z"/>
	<path d="M677.9,487.6c0-0.6-0.2-0.8-0.8-0.8c0-0.6,0-1.1,0-1.7c0.6,0.3,1.1,0.6,1.7,0.9l-0.1-0.1
		C679,486.8,678.4,487.2,677.9,487.6z"/>
	<path d="M678.7,486c0.1-0.4,0.1-0.8,0.2-1.5C679.4,485.5,679.3,485.8,678.7,486L678.7,486z"/>
	<path d="M677.2,485.3c-0.3,0-0.6,0-0.9,0c0.1-0.5,0.1-0.9,0.2-1.4c0.1,0,0.3,0,0.4,0C677,484.3,677.1,484.8,677.2,485.3z"/>
	<path d="M477.8,564.7c-0.2,0.7,0.8,1.8-0.5,2.3C476.4,565.9,477.8,565.5,477.8,564.7L477.8,564.7z"/>
</g>
</svg>
